G75*
G70*
%OFA0B0*%
%FSLAX24Y24*%
%IPPOS*%
%LPD*%
%AMOC8*
5,1,8,0,0,1.08239X$1,22.5*
%
%ADD10C,0.0860*%
%ADD11C,0.1000*%
%ADD12OC8,0.1000*%
%ADD13R,0.0600X0.0600*%
%ADD14OC8,0.0600*%
%ADD15C,0.0515*%
%ADD16C,0.0709*%
%ADD17C,0.0768*%
%ADD18C,0.1004*%
%ADD19C,0.1424*%
%ADD20C,0.0594*%
%ADD21C,0.0357*%
%ADD22C,0.0396*%
%ADD23C,0.0475*%
%ADD24C,0.0120*%
%ADD25C,0.0320*%
%ADD26C,0.0500*%
%ADD27C,0.0240*%
D10*
X060651Y035051D02*
X060651Y035911D01*
X061402Y037371D02*
X062262Y037371D01*
X063013Y035911D02*
X063013Y035051D01*
D11*
X052782Y036031D03*
D12*
X052782Y034031D03*
D13*
X040482Y027301D03*
D14*
X041482Y027301D03*
X041482Y026301D03*
X040482Y026301D03*
X040482Y025301D03*
X041482Y025301D03*
X041482Y024301D03*
X040482Y024301D03*
X040482Y023301D03*
X041482Y023301D03*
X041482Y022301D03*
X040482Y022301D03*
X040482Y021301D03*
X041482Y021301D03*
X041482Y020301D03*
X040482Y020301D03*
X040482Y019301D03*
X041482Y019301D03*
X041482Y018301D03*
X040482Y018301D03*
X040482Y017301D03*
X041482Y017301D03*
X041482Y016301D03*
X040482Y016301D03*
X040482Y015301D03*
X041482Y015301D03*
X041482Y014301D03*
X040482Y014301D03*
X040482Y013301D03*
X041482Y013301D03*
X041482Y012301D03*
X040482Y012301D03*
X040482Y011301D03*
X041482Y011301D03*
X041482Y010301D03*
X040482Y010301D03*
X040482Y009301D03*
X041482Y009301D03*
X041482Y008301D03*
X040482Y008301D03*
X040482Y007301D03*
X041482Y007301D03*
X041482Y006301D03*
X040482Y006301D03*
X036132Y020781D03*
X035132Y020781D03*
X035132Y021781D03*
X036132Y021781D03*
X036132Y022781D03*
X035132Y022781D03*
X035132Y023781D03*
X036132Y023781D03*
X036132Y024781D03*
X035132Y024781D03*
X035132Y025781D03*
X036132Y025781D03*
D15*
X005482Y002431D03*
X006482Y002431D03*
X006482Y003431D03*
X005482Y003431D03*
D16*
X007240Y006557D03*
X005960Y008131D03*
X007732Y009706D03*
X007240Y014057D03*
X005960Y015631D03*
X007732Y017206D03*
D17*
X007750Y021779D03*
X008734Y022763D03*
X007750Y024731D03*
X008734Y026700D03*
X007750Y027684D03*
X003813Y025716D03*
X003813Y023747D03*
X007750Y030629D03*
X008734Y031613D03*
X007750Y033581D03*
X008734Y035550D03*
X007750Y036534D03*
X003813Y034566D03*
X003813Y032597D03*
D18*
X062882Y025781D03*
X062882Y019831D03*
X062882Y013881D03*
X062882Y007781D03*
D19*
X064653Y007781D03*
X062882Y005813D03*
X062882Y009750D03*
X062882Y011913D03*
X064653Y013881D03*
X062882Y015850D03*
X062882Y017863D03*
X064653Y019831D03*
X062882Y021800D03*
X062882Y023813D03*
X064653Y025781D03*
X062882Y027750D03*
D20*
X058079Y035481D02*
X057485Y035481D01*
X057485Y036481D02*
X058079Y036481D01*
X017079Y033531D02*
X016485Y033531D01*
X016485Y032531D02*
X017079Y032531D01*
X017079Y031531D02*
X016485Y031531D01*
X016485Y030531D02*
X017079Y030531D01*
X017079Y027781D02*
X016485Y027781D01*
X016485Y026781D02*
X017079Y026781D01*
X017079Y025781D02*
X016485Y025781D01*
X016485Y024781D02*
X017079Y024781D01*
D21*
X013682Y017981D03*
X010832Y018231D03*
X010232Y016481D03*
X010832Y015131D03*
X010232Y013281D03*
X013682Y014681D03*
X015032Y012781D03*
X016882Y013281D03*
X017782Y012781D03*
X017782Y010981D03*
X015032Y010781D03*
X013682Y010331D03*
X010832Y010731D03*
X010232Y008981D03*
X010832Y007581D03*
X010282Y005881D03*
X010832Y004981D03*
X010832Y004431D03*
X014332Y004231D03*
X018032Y004681D03*
X021332Y006081D03*
X016032Y007431D03*
X013682Y007431D03*
X022332Y012781D03*
X025432Y011831D03*
X032732Y006381D03*
X033532Y006381D03*
X034332Y006381D03*
X035132Y006381D03*
X035932Y006381D03*
X036882Y006381D03*
X036882Y004381D03*
X035932Y004381D03*
X035132Y004381D03*
X034332Y004381D03*
X033532Y004381D03*
X032732Y004381D03*
X043582Y008081D03*
X044082Y008381D03*
X043732Y008831D03*
X043482Y009181D03*
X045132Y009631D03*
X045732Y009031D03*
X045732Y008581D03*
X045882Y008181D03*
X047082Y008381D03*
X047982Y008981D03*
X048682Y009731D03*
X049182Y009981D03*
X050082Y009981D03*
X054482Y008581D03*
X055332Y008581D03*
X056232Y008581D03*
X055532Y006381D03*
X059932Y006731D03*
X060482Y007131D03*
X061132Y008181D03*
X060282Y009831D03*
X059932Y010231D03*
X060732Y010381D03*
X060732Y012281D03*
X059632Y012781D03*
X060282Y013781D03*
X059932Y014381D03*
X060732Y014381D03*
X060732Y016281D03*
X059582Y016581D03*
X060282Y017831D03*
X059932Y018381D03*
X060732Y018381D03*
X060732Y020281D03*
X059632Y020581D03*
X060282Y021881D03*
X059932Y022381D03*
X060732Y022381D03*
X060732Y024281D03*
X054382Y019281D03*
X051282Y018231D03*
X051482Y016081D03*
X051182Y015781D03*
X051482Y015481D03*
X050882Y015481D03*
X050882Y016081D03*
X052482Y013981D03*
X051282Y013181D03*
X054182Y013181D03*
X054482Y016181D03*
X047532Y007431D03*
X038782Y011831D03*
D22*
X054932Y024131D03*
X055882Y024131D03*
X056932Y024131D03*
X057882Y024131D03*
X057882Y025181D03*
X056932Y025181D03*
X055882Y025181D03*
X054932Y025181D03*
X054932Y026231D03*
X055882Y026231D03*
X056932Y026231D03*
X057882Y026231D03*
X057882Y027281D03*
X056932Y027281D03*
X055882Y027281D03*
X054932Y027281D03*
X061732Y023881D03*
X061732Y019881D03*
X061732Y015881D03*
X061732Y011881D03*
X060832Y006331D03*
X034732Y033531D03*
X033682Y033531D03*
X033682Y034531D03*
X034732Y034531D03*
X034732Y035581D03*
X033682Y035581D03*
X033682Y036581D03*
X034732Y036581D03*
X032632Y036581D03*
X031582Y036581D03*
X031582Y035581D03*
X032632Y035581D03*
X032632Y034531D03*
X031582Y034531D03*
X031582Y033531D03*
X032632Y033531D03*
X028082Y033481D03*
X028082Y034481D03*
X026982Y034481D03*
X025932Y034481D03*
X025932Y033481D03*
X026982Y033481D03*
X024882Y033481D03*
X024882Y034481D03*
X024882Y035531D03*
X024882Y036531D03*
X025932Y036531D03*
X026982Y036531D03*
X026982Y035531D03*
X025932Y035531D03*
X028082Y035531D03*
X028082Y036531D03*
D23*
X028732Y030631D03*
X028732Y029981D03*
X028732Y029331D03*
X031632Y029281D03*
X031632Y028631D03*
X031632Y029981D03*
X035482Y030031D03*
X035482Y029381D03*
X035482Y030681D03*
X024882Y029881D03*
X024882Y029231D03*
X024882Y028581D03*
X023432Y027331D03*
X022782Y027331D03*
X022132Y027331D03*
X020682Y015031D03*
X019182Y014131D03*
X024932Y013981D03*
X020682Y010281D03*
X021132Y008431D03*
X018982Y008431D03*
X023082Y005081D03*
X043632Y006031D03*
X044382Y006031D03*
X047232Y006031D03*
X047982Y006031D03*
X054232Y004181D03*
X054982Y004181D03*
X057432Y008281D03*
X059782Y008281D03*
X058982Y011581D03*
X057432Y012281D03*
X054232Y012031D03*
X054232Y015081D03*
X057432Y016331D03*
X058982Y015681D03*
X054232Y018131D03*
X057432Y020331D03*
X058982Y019681D03*
X054232Y021181D03*
X051932Y022431D03*
X051282Y022431D03*
X050632Y022431D03*
X050432Y023431D03*
X048882Y019031D03*
X047382Y018281D03*
X047032Y016081D03*
X048182Y015381D03*
X051082Y028681D03*
X051082Y029331D03*
X051082Y029981D03*
X049432Y034031D03*
D24*
X059932Y022381D02*
X059932Y018381D01*
X059932Y014381D01*
X059932Y010231D01*
X060282Y009831D02*
X060282Y013781D01*
X060282Y017831D01*
X060282Y021881D01*
X059632Y020581D02*
X059632Y019681D01*
X055482Y015531D01*
X055482Y009581D01*
X054482Y008581D01*
X055332Y008581D02*
X055982Y009231D01*
X055982Y013731D01*
X058832Y016581D01*
X059582Y016581D01*
X054482Y016181D02*
X053482Y015181D01*
X053482Y013131D01*
X052132Y011781D01*
X049982Y011781D01*
X049182Y010931D01*
X049182Y009981D01*
X050082Y009981D02*
X050082Y010981D01*
X050432Y011331D01*
X052332Y011331D01*
X054182Y013181D01*
X053082Y013381D02*
X053082Y017981D01*
X054382Y019281D01*
X053082Y013381D02*
X051982Y012281D01*
X049682Y012281D01*
X047982Y010631D01*
X047982Y008981D01*
X045882Y008181D02*
X045032Y008181D01*
X044832Y008381D01*
X044082Y008381D01*
X043632Y008731D02*
X042432Y008731D01*
X042232Y008931D01*
X042232Y011081D01*
X042032Y011281D01*
X041502Y011281D01*
X041482Y011301D01*
X040952Y011831D01*
X038782Y011831D01*
X040482Y012281D02*
X040482Y012301D01*
X040482Y011301D02*
X040482Y011281D01*
X043482Y009181D02*
X045582Y009181D01*
X045732Y009031D01*
X045732Y008581D02*
X045282Y008581D01*
X045032Y008831D01*
X043732Y008831D01*
X043632Y008731D01*
X043632Y007131D02*
X041932Y008831D01*
X041032Y008831D01*
X040502Y008301D01*
X040482Y008301D01*
X041482Y008301D02*
X041482Y008281D01*
X043032Y006731D01*
X059932Y006731D01*
X060482Y007131D02*
X043632Y007131D01*
X047532Y007431D02*
X060382Y007431D01*
X061132Y008181D01*
X056482Y008831D02*
X056232Y008581D01*
X056482Y008831D02*
X056482Y012181D01*
X057082Y012781D01*
X059632Y012781D01*
X025432Y011831D02*
X024582Y010981D01*
X017782Y010981D01*
X017782Y012781D02*
X022332Y012781D01*
D25*
X013682Y014681D02*
X013682Y010331D01*
X013682Y007431D01*
X016032Y007431D01*
X010832Y007581D02*
X010832Y010731D01*
X010832Y015131D01*
X010832Y018231D01*
X013682Y017981D02*
X013682Y014681D01*
X010832Y007581D02*
X010832Y004981D01*
X062882Y035481D02*
X063013Y035481D01*
D26*
X049432Y034031D02*
X041632Y034031D01*
X037732Y029881D01*
X037732Y011831D01*
X034082Y008431D01*
X021132Y008431D01*
X018982Y008431D01*
X018982Y005631D01*
X018032Y004681D01*
D27*
X060832Y006331D02*
X061732Y007281D01*
X061732Y011881D01*
X061732Y015881D01*
X061732Y019881D01*
X061732Y023881D01*
M02*
