%
M48
M72
T01C0.0197
T02C0.0236
T03C0.0315
T04C0.0394
T05C0.0400
T06C0.0472
T07C0.0512
T08C0.0669
T09C0.0945
T10C0.1024
T11C0.1300
%
T01
X10832Y4431
X10832Y4981
X10282Y5881
X10832Y7581
X10232Y8981
X10832Y10731
X13682Y10331
X15032Y10781
X17782Y10981
X17782Y12781
X16882Y13281
X15032Y12781
X13682Y14681
X10832Y15131
X10232Y16481
X10832Y18231
X13682Y17981
X10232Y13281
X13682Y7431
X16032Y7431
X18032Y4681
X21332Y6081
X14332Y4231
X25432Y11831
X22332Y12781
X32732Y6381
X33532Y6381
X34332Y6381
X35132Y6381
X35932Y6381
X36882Y6381
X36882Y4381
X35932Y4381
X35132Y4381
X34332Y4381
X33532Y4381
X32732Y4381
X43582Y8081
X44082Y8381
X43732Y8831
X43482Y9181
X45132Y9631
X45732Y9031
X45732Y8581
X45882Y8181
X47082Y8381
X47982Y8981
X48682Y9731
X49182Y9981
X50082Y9981
X54482Y8581
X55332Y8581
X56232Y8581
X55532Y6381
X59932Y6731
X60482Y7131
X61132Y8181
X60282Y9831
X59932Y10231
X60732Y10381
X60732Y12281
X59632Y12781
X60282Y13781
X59932Y14381
X60732Y14381
X60732Y16281
X59582Y16581
X60282Y17831
X59932Y18381
X60732Y18381
X60732Y20281
X59632Y20581
X60282Y21881
X59932Y22381
X60732Y22381
X60732Y24281
X54382Y19281
X51282Y18231
X51482Y16081
X51182Y15781
X51482Y15481
X50882Y15481
X50882Y16081
X52482Y13981
X51282Y13181
X54182Y13181
X54482Y16181
X47532Y7431
X38782Y11831
T02
X54932Y24131
X55882Y24131
X56932Y24131
X57882Y24131
X57882Y25181
X56932Y25181
X55882Y25181
X54932Y25181
X54932Y26231
X55882Y26231
X56932Y26231
X57882Y26231
X57882Y27281
X56932Y27281
X55882Y27281
X54932Y27281
X61732Y23881
X61732Y19881
X61732Y15881
X61732Y11881
X60832Y6331
X34732Y33531
X33682Y33531
X33682Y34531
X34732Y34531
X34732Y35581
X33682Y35581
X33682Y36581
X34732Y36581
X32632Y36581
X31582Y36581
X31582Y35581
X32632Y35581
X32632Y34531
X31582Y34531
X31582Y33531
X32632Y33531
X28082Y33481
X28082Y34481
X26982Y34481
X25932Y34481
X25932Y33481
X26982Y33481
X24882Y33481
X24882Y34481
X24882Y35531
X24882Y36531
X25932Y36531
X26982Y36531
X26982Y35531
X25932Y35531
X28082Y35531
X28082Y36531
T03
X5482Y2431
X6482Y2431
X6482Y3431
X5482Y3431
X18982Y8431
X21132Y8431
X20682Y10281
X19182Y14131
X20682Y15031
X24932Y13981
X23082Y5081
X43632Y6031
X44382Y6031
X47232Y6031
X47982Y6031
X54232Y4181
X54982Y4181
X57432Y8281
X59782Y8281
X58982Y11581
X57432Y12281
X54232Y12031
X54232Y15081
X57432Y16331
X58982Y15681
X54232Y18131
X57432Y20331
X58982Y19681
X54232Y21181
X51932Y22431
X51282Y22431
X50632Y22431
X50432Y23431
X48882Y19031
X47382Y18281
X47032Y16081
X48182Y15381
X31632Y28631
X31632Y29281
X31632Y29981
X28732Y29981
X28732Y29331
X28732Y30631
X24882Y29881
X24882Y29231
X24882Y28581
X23432Y27331
X22782Y27331
X22132Y27331
X35482Y29381
X35482Y30031
X35482Y30681
X49432Y34031
X51082Y29981
X51082Y29331
X51082Y28681
T04
X57782Y35481
X57782Y36481
X16782Y33531
X16782Y32531
X16782Y31531
X16782Y30531
X16782Y27781
X16782Y26781
X16782Y25781
X16782Y24781
T05
X35132Y24781
X36132Y24781
X36132Y25781
X35132Y25781
X35132Y23781
X35132Y22781
X36132Y22781
X36132Y23781
X36132Y21781
X36132Y20781
X35132Y20781
X35132Y21781
X40482Y21301
X41482Y21301
X41482Y20301
X40482Y20301
X40482Y19301
X41482Y19301
X41482Y18301
X40482Y18301
X40482Y17301
X41482Y17301
X41482Y16301
X40482Y16301
X40482Y15301
X41482Y15301
X41482Y14301
X40482Y14301
X40482Y13301
X41482Y13301
X41482Y12301
X40482Y12301
X40482Y11301
X41482Y11301
X41482Y10301
X40482Y10301
X40482Y9301
X41482Y9301
X41482Y8301
X40482Y8301
X40482Y7301
X41482Y7301
X41482Y6301
X40482Y6301
X40482Y22301
X41482Y22301
X41482Y23301
X40482Y23301
X40482Y24301
X41482Y24301
X41482Y25301
X40482Y25301
X40482Y26301
X41482Y26301
X41482Y27301
X40482Y27301
X52782Y34031
X52782Y36031
T06
X60651Y35481
X63013Y35481
X61832Y37371
X7732Y17206
X5960Y15631
X7240Y14057
X7732Y9706
X5960Y8131
X7240Y6557
T07
X7750Y21779
X8734Y22763
X7750Y24731
X8734Y26700
X7750Y27684
X3813Y25716
X3813Y23747
X7750Y30629
X8734Y31613
X7750Y33581
X8734Y35550
X7750Y36534
X3813Y34566
X3813Y32597
T08
X62882Y25781
X62882Y19831
X62882Y13881
X62882Y7781
T09
X5782Y21779
X5782Y27684
X5782Y30629
X5782Y36534
T10
X62882Y27750
X64653Y25781
X62882Y23813
X62882Y21800
X64653Y19831
X62882Y17863
X62882Y15850
X64653Y13881
X62882Y11913
X62882Y9750
X64653Y7781
X62882Y5813
T11
X59832Y3781
X40982Y3931
X40982Y29681
X59482Y29681
M30
