G75*
G70*
%OFA0B0*%
%FSLAX24Y24*%
%IPPOS*%
%LPD*%
%AMOC8*
5,1,8,0,0,1.08239X$1,22.5*
%
%ADD10C,0.0000*%
D10*
X002782Y000181D02*
X002782Y039551D01*
X065774Y039551D01*
X065774Y000181D01*
X002782Y000181D01*
X005310Y021779D02*
X005312Y021822D01*
X005318Y021864D01*
X005328Y021906D01*
X005341Y021947D01*
X005358Y021987D01*
X005379Y022024D01*
X005403Y022060D01*
X005430Y022093D01*
X005460Y022124D01*
X005493Y022152D01*
X005528Y022177D01*
X005565Y022198D01*
X005604Y022216D01*
X005644Y022230D01*
X005686Y022241D01*
X005728Y022248D01*
X005771Y022251D01*
X005814Y022250D01*
X005857Y022245D01*
X005899Y022236D01*
X005940Y022224D01*
X005980Y022208D01*
X006018Y022188D01*
X006054Y022165D01*
X006088Y022138D01*
X006120Y022109D01*
X006148Y022077D01*
X006174Y022042D01*
X006196Y022006D01*
X006215Y021967D01*
X006230Y021927D01*
X006242Y021886D01*
X006250Y021843D01*
X006254Y021800D01*
X006254Y021758D01*
X006250Y021715D01*
X006242Y021672D01*
X006230Y021631D01*
X006215Y021591D01*
X006196Y021552D01*
X006174Y021516D01*
X006148Y021481D01*
X006120Y021449D01*
X006088Y021420D01*
X006054Y021393D01*
X006018Y021370D01*
X005980Y021350D01*
X005940Y021334D01*
X005899Y021322D01*
X005857Y021313D01*
X005814Y021308D01*
X005771Y021307D01*
X005728Y021310D01*
X005686Y021317D01*
X005644Y021328D01*
X005604Y021342D01*
X005565Y021360D01*
X005528Y021381D01*
X005493Y021406D01*
X005460Y021434D01*
X005430Y021465D01*
X005403Y021498D01*
X005379Y021534D01*
X005358Y021571D01*
X005341Y021611D01*
X005328Y021652D01*
X005318Y021694D01*
X005312Y021736D01*
X005310Y021779D01*
X005310Y027684D02*
X005312Y027727D01*
X005318Y027769D01*
X005328Y027811D01*
X005341Y027852D01*
X005358Y027892D01*
X005379Y027929D01*
X005403Y027965D01*
X005430Y027998D01*
X005460Y028029D01*
X005493Y028057D01*
X005528Y028082D01*
X005565Y028103D01*
X005604Y028121D01*
X005644Y028135D01*
X005686Y028146D01*
X005728Y028153D01*
X005771Y028156D01*
X005814Y028155D01*
X005857Y028150D01*
X005899Y028141D01*
X005940Y028129D01*
X005980Y028113D01*
X006018Y028093D01*
X006054Y028070D01*
X006088Y028043D01*
X006120Y028014D01*
X006148Y027982D01*
X006174Y027947D01*
X006196Y027911D01*
X006215Y027872D01*
X006230Y027832D01*
X006242Y027791D01*
X006250Y027748D01*
X006254Y027705D01*
X006254Y027663D01*
X006250Y027620D01*
X006242Y027577D01*
X006230Y027536D01*
X006215Y027496D01*
X006196Y027457D01*
X006174Y027421D01*
X006148Y027386D01*
X006120Y027354D01*
X006088Y027325D01*
X006054Y027298D01*
X006018Y027275D01*
X005980Y027255D01*
X005940Y027239D01*
X005899Y027227D01*
X005857Y027218D01*
X005814Y027213D01*
X005771Y027212D01*
X005728Y027215D01*
X005686Y027222D01*
X005644Y027233D01*
X005604Y027247D01*
X005565Y027265D01*
X005528Y027286D01*
X005493Y027311D01*
X005460Y027339D01*
X005430Y027370D01*
X005403Y027403D01*
X005379Y027439D01*
X005358Y027476D01*
X005341Y027516D01*
X005328Y027557D01*
X005318Y027599D01*
X005312Y027641D01*
X005310Y027684D01*
X005310Y030629D02*
X005312Y030672D01*
X005318Y030714D01*
X005328Y030756D01*
X005341Y030797D01*
X005358Y030837D01*
X005379Y030874D01*
X005403Y030910D01*
X005430Y030943D01*
X005460Y030974D01*
X005493Y031002D01*
X005528Y031027D01*
X005565Y031048D01*
X005604Y031066D01*
X005644Y031080D01*
X005686Y031091D01*
X005728Y031098D01*
X005771Y031101D01*
X005814Y031100D01*
X005857Y031095D01*
X005899Y031086D01*
X005940Y031074D01*
X005980Y031058D01*
X006018Y031038D01*
X006054Y031015D01*
X006088Y030988D01*
X006120Y030959D01*
X006148Y030927D01*
X006174Y030892D01*
X006196Y030856D01*
X006215Y030817D01*
X006230Y030777D01*
X006242Y030736D01*
X006250Y030693D01*
X006254Y030650D01*
X006254Y030608D01*
X006250Y030565D01*
X006242Y030522D01*
X006230Y030481D01*
X006215Y030441D01*
X006196Y030402D01*
X006174Y030366D01*
X006148Y030331D01*
X006120Y030299D01*
X006088Y030270D01*
X006054Y030243D01*
X006018Y030220D01*
X005980Y030200D01*
X005940Y030184D01*
X005899Y030172D01*
X005857Y030163D01*
X005814Y030158D01*
X005771Y030157D01*
X005728Y030160D01*
X005686Y030167D01*
X005644Y030178D01*
X005604Y030192D01*
X005565Y030210D01*
X005528Y030231D01*
X005493Y030256D01*
X005460Y030284D01*
X005430Y030315D01*
X005403Y030348D01*
X005379Y030384D01*
X005358Y030421D01*
X005341Y030461D01*
X005328Y030502D01*
X005318Y030544D01*
X005312Y030586D01*
X005310Y030629D01*
X005310Y036534D02*
X005312Y036577D01*
X005318Y036619D01*
X005328Y036661D01*
X005341Y036702D01*
X005358Y036742D01*
X005379Y036779D01*
X005403Y036815D01*
X005430Y036848D01*
X005460Y036879D01*
X005493Y036907D01*
X005528Y036932D01*
X005565Y036953D01*
X005604Y036971D01*
X005644Y036985D01*
X005686Y036996D01*
X005728Y037003D01*
X005771Y037006D01*
X005814Y037005D01*
X005857Y037000D01*
X005899Y036991D01*
X005940Y036979D01*
X005980Y036963D01*
X006018Y036943D01*
X006054Y036920D01*
X006088Y036893D01*
X006120Y036864D01*
X006148Y036832D01*
X006174Y036797D01*
X006196Y036761D01*
X006215Y036722D01*
X006230Y036682D01*
X006242Y036641D01*
X006250Y036598D01*
X006254Y036555D01*
X006254Y036513D01*
X006250Y036470D01*
X006242Y036427D01*
X006230Y036386D01*
X006215Y036346D01*
X006196Y036307D01*
X006174Y036271D01*
X006148Y036236D01*
X006120Y036204D01*
X006088Y036175D01*
X006054Y036148D01*
X006018Y036125D01*
X005980Y036105D01*
X005940Y036089D01*
X005899Y036077D01*
X005857Y036068D01*
X005814Y036063D01*
X005771Y036062D01*
X005728Y036065D01*
X005686Y036072D01*
X005644Y036083D01*
X005604Y036097D01*
X005565Y036115D01*
X005528Y036136D01*
X005493Y036161D01*
X005460Y036189D01*
X005430Y036220D01*
X005403Y036253D01*
X005379Y036289D01*
X005358Y036326D01*
X005341Y036366D01*
X005328Y036407D01*
X005318Y036449D01*
X005312Y036491D01*
X005310Y036534D01*
X040332Y029681D02*
X040334Y029731D01*
X040340Y029781D01*
X040350Y029831D01*
X040363Y029879D01*
X040380Y029927D01*
X040401Y029973D01*
X040425Y030017D01*
X040453Y030059D01*
X040484Y030099D01*
X040518Y030136D01*
X040555Y030171D01*
X040594Y030202D01*
X040635Y030231D01*
X040679Y030256D01*
X040725Y030278D01*
X040772Y030296D01*
X040820Y030310D01*
X040869Y030321D01*
X040919Y030328D01*
X040969Y030331D01*
X041020Y030330D01*
X041070Y030325D01*
X041120Y030316D01*
X041168Y030304D01*
X041216Y030287D01*
X041262Y030267D01*
X041307Y030244D01*
X041350Y030217D01*
X041390Y030187D01*
X041428Y030154D01*
X041463Y030118D01*
X041496Y030079D01*
X041525Y030038D01*
X041551Y029995D01*
X041574Y029950D01*
X041593Y029903D01*
X041608Y029855D01*
X041620Y029806D01*
X041628Y029756D01*
X041632Y029706D01*
X041632Y029656D01*
X041628Y029606D01*
X041620Y029556D01*
X041608Y029507D01*
X041593Y029459D01*
X041574Y029412D01*
X041551Y029367D01*
X041525Y029324D01*
X041496Y029283D01*
X041463Y029244D01*
X041428Y029208D01*
X041390Y029175D01*
X041350Y029145D01*
X041307Y029118D01*
X041262Y029095D01*
X041216Y029075D01*
X041168Y029058D01*
X041120Y029046D01*
X041070Y029037D01*
X041020Y029032D01*
X040969Y029031D01*
X040919Y029034D01*
X040869Y029041D01*
X040820Y029052D01*
X040772Y029066D01*
X040725Y029084D01*
X040679Y029106D01*
X040635Y029131D01*
X040594Y029160D01*
X040555Y029191D01*
X040518Y029226D01*
X040484Y029263D01*
X040453Y029303D01*
X040425Y029345D01*
X040401Y029389D01*
X040380Y029435D01*
X040363Y029483D01*
X040350Y029531D01*
X040340Y029581D01*
X040334Y029631D01*
X040332Y029681D01*
X058832Y029681D02*
X058834Y029731D01*
X058840Y029781D01*
X058850Y029831D01*
X058863Y029879D01*
X058880Y029927D01*
X058901Y029973D01*
X058925Y030017D01*
X058953Y030059D01*
X058984Y030099D01*
X059018Y030136D01*
X059055Y030171D01*
X059094Y030202D01*
X059135Y030231D01*
X059179Y030256D01*
X059225Y030278D01*
X059272Y030296D01*
X059320Y030310D01*
X059369Y030321D01*
X059419Y030328D01*
X059469Y030331D01*
X059520Y030330D01*
X059570Y030325D01*
X059620Y030316D01*
X059668Y030304D01*
X059716Y030287D01*
X059762Y030267D01*
X059807Y030244D01*
X059850Y030217D01*
X059890Y030187D01*
X059928Y030154D01*
X059963Y030118D01*
X059996Y030079D01*
X060025Y030038D01*
X060051Y029995D01*
X060074Y029950D01*
X060093Y029903D01*
X060108Y029855D01*
X060120Y029806D01*
X060128Y029756D01*
X060132Y029706D01*
X060132Y029656D01*
X060128Y029606D01*
X060120Y029556D01*
X060108Y029507D01*
X060093Y029459D01*
X060074Y029412D01*
X060051Y029367D01*
X060025Y029324D01*
X059996Y029283D01*
X059963Y029244D01*
X059928Y029208D01*
X059890Y029175D01*
X059850Y029145D01*
X059807Y029118D01*
X059762Y029095D01*
X059716Y029075D01*
X059668Y029058D01*
X059620Y029046D01*
X059570Y029037D01*
X059520Y029032D01*
X059469Y029031D01*
X059419Y029034D01*
X059369Y029041D01*
X059320Y029052D01*
X059272Y029066D01*
X059225Y029084D01*
X059179Y029106D01*
X059135Y029131D01*
X059094Y029160D01*
X059055Y029191D01*
X059018Y029226D01*
X058984Y029263D01*
X058953Y029303D01*
X058925Y029345D01*
X058901Y029389D01*
X058880Y029435D01*
X058863Y029483D01*
X058850Y029531D01*
X058840Y029581D01*
X058834Y029631D01*
X058832Y029681D01*
X059182Y003781D02*
X059184Y003831D01*
X059190Y003881D01*
X059200Y003931D01*
X059213Y003979D01*
X059230Y004027D01*
X059251Y004073D01*
X059275Y004117D01*
X059303Y004159D01*
X059334Y004199D01*
X059368Y004236D01*
X059405Y004271D01*
X059444Y004302D01*
X059485Y004331D01*
X059529Y004356D01*
X059575Y004378D01*
X059622Y004396D01*
X059670Y004410D01*
X059719Y004421D01*
X059769Y004428D01*
X059819Y004431D01*
X059870Y004430D01*
X059920Y004425D01*
X059970Y004416D01*
X060018Y004404D01*
X060066Y004387D01*
X060112Y004367D01*
X060157Y004344D01*
X060200Y004317D01*
X060240Y004287D01*
X060278Y004254D01*
X060313Y004218D01*
X060346Y004179D01*
X060375Y004138D01*
X060401Y004095D01*
X060424Y004050D01*
X060443Y004003D01*
X060458Y003955D01*
X060470Y003906D01*
X060478Y003856D01*
X060482Y003806D01*
X060482Y003756D01*
X060478Y003706D01*
X060470Y003656D01*
X060458Y003607D01*
X060443Y003559D01*
X060424Y003512D01*
X060401Y003467D01*
X060375Y003424D01*
X060346Y003383D01*
X060313Y003344D01*
X060278Y003308D01*
X060240Y003275D01*
X060200Y003245D01*
X060157Y003218D01*
X060112Y003195D01*
X060066Y003175D01*
X060018Y003158D01*
X059970Y003146D01*
X059920Y003137D01*
X059870Y003132D01*
X059819Y003131D01*
X059769Y003134D01*
X059719Y003141D01*
X059670Y003152D01*
X059622Y003166D01*
X059575Y003184D01*
X059529Y003206D01*
X059485Y003231D01*
X059444Y003260D01*
X059405Y003291D01*
X059368Y003326D01*
X059334Y003363D01*
X059303Y003403D01*
X059275Y003445D01*
X059251Y003489D01*
X059230Y003535D01*
X059213Y003583D01*
X059200Y003631D01*
X059190Y003681D01*
X059184Y003731D01*
X059182Y003781D01*
X040332Y003931D02*
X040334Y003981D01*
X040340Y004031D01*
X040350Y004081D01*
X040363Y004129D01*
X040380Y004177D01*
X040401Y004223D01*
X040425Y004267D01*
X040453Y004309D01*
X040484Y004349D01*
X040518Y004386D01*
X040555Y004421D01*
X040594Y004452D01*
X040635Y004481D01*
X040679Y004506D01*
X040725Y004528D01*
X040772Y004546D01*
X040820Y004560D01*
X040869Y004571D01*
X040919Y004578D01*
X040969Y004581D01*
X041020Y004580D01*
X041070Y004575D01*
X041120Y004566D01*
X041168Y004554D01*
X041216Y004537D01*
X041262Y004517D01*
X041307Y004494D01*
X041350Y004467D01*
X041390Y004437D01*
X041428Y004404D01*
X041463Y004368D01*
X041496Y004329D01*
X041525Y004288D01*
X041551Y004245D01*
X041574Y004200D01*
X041593Y004153D01*
X041608Y004105D01*
X041620Y004056D01*
X041628Y004006D01*
X041632Y003956D01*
X041632Y003906D01*
X041628Y003856D01*
X041620Y003806D01*
X041608Y003757D01*
X041593Y003709D01*
X041574Y003662D01*
X041551Y003617D01*
X041525Y003574D01*
X041496Y003533D01*
X041463Y003494D01*
X041428Y003458D01*
X041390Y003425D01*
X041350Y003395D01*
X041307Y003368D01*
X041262Y003345D01*
X041216Y003325D01*
X041168Y003308D01*
X041120Y003296D01*
X041070Y003287D01*
X041020Y003282D01*
X040969Y003281D01*
X040919Y003284D01*
X040869Y003291D01*
X040820Y003302D01*
X040772Y003316D01*
X040725Y003334D01*
X040679Y003356D01*
X040635Y003381D01*
X040594Y003410D01*
X040555Y003441D01*
X040518Y003476D01*
X040484Y003513D01*
X040453Y003553D01*
X040425Y003595D01*
X040401Y003639D01*
X040380Y003685D01*
X040363Y003733D01*
X040350Y003781D01*
X040340Y003831D01*
X040334Y003881D01*
X040332Y003931D01*
M02*
