G75*
G70*
%OFA0B0*%
%FSLAX24Y24*%
%IPPOS*%
%LPD*%
%AMOC8*
5,1,8,0,0,1.08239X$1,22.5*
%
%ADD10C,0.0709*%
%ADD11C,0.0600*%
%ADD12C,0.0515*%
%ADD13C,0.0768*%
%ADD14C,0.1004*%
%ADD15C,0.1424*%
%ADD16C,0.0594*%
%ADD17C,0.0357*%
%ADD18C,0.0396*%
%ADD19C,0.0475*%
%ADD20C,0.0160*%
%ADD21C,0.0500*%
D10*
X007240Y006557D03*
X005960Y008131D03*
X007732Y009706D03*
X007240Y014057D03*
X005960Y015631D03*
X007732Y017206D03*
X060651Y035481D03*
X063013Y035481D03*
X061832Y037371D03*
D11*
X052782Y036031D03*
X052782Y034031D03*
X041482Y027301D03*
X040482Y027301D03*
X040482Y026301D03*
X041482Y026301D03*
X041482Y025301D03*
X040482Y025301D03*
X040482Y024301D03*
X041482Y024301D03*
X041482Y023301D03*
X040482Y023301D03*
X040482Y022301D03*
X041482Y022301D03*
X041482Y021301D03*
X040482Y021301D03*
X040482Y020301D03*
X041482Y020301D03*
X041482Y019301D03*
X040482Y019301D03*
X040482Y018301D03*
X041482Y018301D03*
X041482Y017301D03*
X040482Y017301D03*
X040482Y016301D03*
X041482Y016301D03*
X041482Y015301D03*
X040482Y015301D03*
X040482Y014301D03*
X041482Y014301D03*
X041482Y013301D03*
X040482Y013301D03*
X040482Y012301D03*
X041482Y012301D03*
X041482Y011301D03*
X040482Y011301D03*
X040482Y010301D03*
X041482Y010301D03*
X041482Y009301D03*
X040482Y009301D03*
X040482Y008301D03*
X041482Y008301D03*
X041482Y007301D03*
X040482Y007301D03*
X040482Y006301D03*
X041482Y006301D03*
X036132Y020781D03*
X035132Y020781D03*
X035132Y021781D03*
X036132Y021781D03*
X036132Y022781D03*
X035132Y022781D03*
X035132Y023781D03*
X036132Y023781D03*
X036132Y024781D03*
X035132Y024781D03*
X035132Y025781D03*
X036132Y025781D03*
D12*
X006482Y003431D03*
X005482Y003431D03*
X005482Y002431D03*
X006482Y002431D03*
D13*
X007750Y021779D03*
X008734Y022763D03*
X007750Y024731D03*
X008734Y026700D03*
X007750Y027684D03*
X003813Y025716D03*
X003813Y023747D03*
X007750Y030629D03*
X008734Y031613D03*
X007750Y033581D03*
X008734Y035550D03*
X007750Y036534D03*
X003813Y034566D03*
X003813Y032597D03*
D14*
X062882Y025781D03*
X062882Y019831D03*
X062882Y013881D03*
X062882Y007781D03*
D15*
X064653Y007781D03*
X062882Y005813D03*
X062882Y009750D03*
X062882Y011913D03*
X064653Y013881D03*
X062882Y015850D03*
X062882Y017863D03*
X064653Y019831D03*
X062882Y021800D03*
X062882Y023813D03*
X064653Y025781D03*
X062882Y027750D03*
D16*
X057782Y035481D03*
X057782Y036481D03*
X016782Y033531D03*
X016782Y032531D03*
X016782Y031531D03*
X016782Y030531D03*
X016782Y027781D03*
X016782Y026781D03*
X016782Y025781D03*
X016782Y024781D03*
D17*
X013682Y017981D03*
X010832Y018231D03*
X010232Y016481D03*
X010832Y015131D03*
X010232Y013281D03*
X013682Y014681D03*
X015032Y012781D03*
X016882Y013281D03*
X017782Y012781D03*
X017782Y010981D03*
X015032Y010781D03*
X013682Y010331D03*
X010832Y010731D03*
X010232Y008981D03*
X010832Y007581D03*
X010282Y005881D03*
X010832Y004981D03*
X010832Y004431D03*
X014332Y004231D03*
X018032Y004681D03*
X021332Y006081D03*
X016032Y007431D03*
X013682Y007431D03*
X022332Y012781D03*
X025432Y011831D03*
X032732Y006381D03*
X033532Y006381D03*
X034332Y006381D03*
X035132Y006381D03*
X035932Y006381D03*
X036882Y006381D03*
X036882Y004381D03*
X035932Y004381D03*
X035132Y004381D03*
X034332Y004381D03*
X033532Y004381D03*
X032732Y004381D03*
X043582Y008081D03*
X044082Y008381D03*
X043732Y008831D03*
X043482Y009181D03*
X045132Y009631D03*
X045732Y009031D03*
X045732Y008581D03*
X045882Y008181D03*
X047082Y008381D03*
X047982Y008981D03*
X048682Y009731D03*
X049182Y009981D03*
X050082Y009981D03*
X054482Y008581D03*
X055332Y008581D03*
X056232Y008581D03*
X055532Y006381D03*
X059932Y006731D03*
X060482Y007131D03*
X061132Y008181D03*
X060282Y009831D03*
X059932Y010231D03*
X060732Y010381D03*
X060732Y012281D03*
X059632Y012781D03*
X060282Y013781D03*
X059932Y014381D03*
X060732Y014381D03*
X060732Y016281D03*
X059582Y016581D03*
X060282Y017831D03*
X059932Y018381D03*
X060732Y018381D03*
X060732Y020281D03*
X059632Y020581D03*
X060282Y021881D03*
X059932Y022381D03*
X060732Y022381D03*
X060732Y024281D03*
X054382Y019281D03*
X051282Y018231D03*
X051482Y016081D03*
X051182Y015781D03*
X051482Y015481D03*
X050882Y015481D03*
X050882Y016081D03*
X052482Y013981D03*
X051282Y013181D03*
X054182Y013181D03*
X054482Y016181D03*
X047532Y007431D03*
X038782Y011831D03*
D18*
X054932Y024131D03*
X055882Y024131D03*
X056932Y024131D03*
X057882Y024131D03*
X057882Y025181D03*
X056932Y025181D03*
X055882Y025181D03*
X054932Y025181D03*
X054932Y026231D03*
X055882Y026231D03*
X056932Y026231D03*
X057882Y026231D03*
X057882Y027281D03*
X056932Y027281D03*
X055882Y027281D03*
X054932Y027281D03*
X061732Y023881D03*
X061732Y019881D03*
X061732Y015881D03*
X061732Y011881D03*
X060832Y006331D03*
X034732Y033531D03*
X033682Y033531D03*
X033682Y034531D03*
X034732Y034531D03*
X034732Y035581D03*
X033682Y035581D03*
X033682Y036581D03*
X034732Y036581D03*
X032632Y036581D03*
X031582Y036581D03*
X031582Y035581D03*
X032632Y035581D03*
X032632Y034531D03*
X031582Y034531D03*
X031582Y033531D03*
X032632Y033531D03*
X028082Y033481D03*
X028082Y034481D03*
X026982Y034481D03*
X025932Y034481D03*
X025932Y033481D03*
X026982Y033481D03*
X024882Y033481D03*
X024882Y034481D03*
X024882Y035531D03*
X024882Y036531D03*
X025932Y036531D03*
X026982Y036531D03*
X026982Y035531D03*
X025932Y035531D03*
X028082Y035531D03*
X028082Y036531D03*
D19*
X028732Y030631D03*
X028732Y029981D03*
X028732Y029331D03*
X031632Y029281D03*
X031632Y028631D03*
X031632Y029981D03*
X035482Y030031D03*
X035482Y029381D03*
X035482Y030681D03*
X024882Y029881D03*
X024882Y029231D03*
X024882Y028581D03*
X023432Y027331D03*
X022782Y027331D03*
X022132Y027331D03*
X020682Y015031D03*
X019182Y014131D03*
X024932Y013981D03*
X020682Y010281D03*
X021132Y008431D03*
X018982Y008431D03*
X023082Y005081D03*
X043632Y006031D03*
X044382Y006031D03*
X047232Y006031D03*
X047982Y006031D03*
X054232Y004181D03*
X054982Y004181D03*
X057432Y008281D03*
X059782Y008281D03*
X058982Y011581D03*
X057432Y012281D03*
X054232Y012031D03*
X054232Y015081D03*
X057432Y016331D03*
X058982Y015681D03*
X054232Y018131D03*
X057432Y020331D03*
X058982Y019681D03*
X054232Y021181D03*
X051932Y022431D03*
X051282Y022431D03*
X050632Y022431D03*
X050432Y023431D03*
X048882Y019031D03*
X047382Y018281D03*
X047032Y016081D03*
X048182Y015381D03*
X051082Y028681D03*
X051082Y029331D03*
X051082Y029981D03*
X049432Y034031D03*
D20*
X003262Y019581D02*
X003262Y000661D01*
X065294Y000661D01*
X065294Y007161D01*
X065243Y007109D01*
X065150Y007038D01*
X065049Y006980D01*
X064941Y006935D01*
X064828Y006905D01*
X064733Y006892D01*
X064733Y007701D01*
X064573Y007701D01*
X064573Y006892D01*
X064479Y006905D01*
X064366Y006935D01*
X064258Y006980D01*
X064157Y007038D01*
X064064Y007109D01*
X063981Y007192D01*
X063910Y007285D01*
X063852Y007386D01*
X063807Y007494D01*
X063777Y007607D01*
X063764Y007701D01*
X064573Y007701D01*
X064573Y007861D01*
X063764Y007861D01*
X063777Y007956D01*
X063807Y008069D01*
X063852Y008177D01*
X063910Y008278D01*
X063981Y008371D01*
X064064Y008453D01*
X064157Y008524D01*
X064258Y008583D01*
X064366Y008628D01*
X064479Y008658D01*
X064573Y008670D01*
X064573Y007862D01*
X064733Y007862D01*
X064733Y008670D01*
X064828Y008658D01*
X064941Y008628D01*
X065049Y008583D01*
X065150Y008524D01*
X065243Y008453D01*
X065294Y008402D01*
X065294Y013261D01*
X065243Y013209D01*
X065150Y013138D01*
X065049Y013080D01*
X064941Y013035D01*
X064828Y013005D01*
X064733Y012992D01*
X064733Y013801D01*
X064573Y013801D01*
X064573Y012992D01*
X064479Y013005D01*
X064366Y013035D01*
X064258Y013080D01*
X064157Y013138D01*
X064064Y013209D01*
X063981Y013292D01*
X063910Y013385D01*
X063852Y013486D01*
X063807Y013594D01*
X063777Y013707D01*
X063764Y013801D01*
X064573Y013801D01*
X064573Y013961D01*
X063764Y013961D01*
X063777Y014056D01*
X063807Y014169D01*
X063852Y014277D01*
X063910Y014378D01*
X063981Y014471D01*
X064064Y014553D01*
X064157Y014624D01*
X064258Y014683D01*
X064366Y014728D01*
X064479Y014758D01*
X064573Y014770D01*
X064573Y013962D01*
X064733Y013962D01*
X064733Y014770D01*
X064828Y014758D01*
X064941Y014728D01*
X065049Y014683D01*
X065150Y014624D01*
X065243Y014553D01*
X065294Y014502D01*
X065294Y019211D01*
X065243Y019159D01*
X065150Y019088D01*
X065049Y019030D01*
X064941Y018985D01*
X064828Y018955D01*
X064733Y018942D01*
X064733Y019751D01*
X064573Y019751D01*
X064573Y018942D01*
X064479Y018955D01*
X064366Y018985D01*
X064258Y019030D01*
X064157Y019088D01*
X064064Y019159D01*
X063981Y019242D01*
X063910Y019335D01*
X063852Y019436D01*
X063807Y019544D01*
X063777Y019657D01*
X063764Y019751D01*
X064573Y019751D01*
X064573Y019911D01*
X063764Y019911D01*
X063777Y020006D01*
X063807Y020119D01*
X063852Y020227D01*
X063910Y020328D01*
X063981Y020421D01*
X064064Y020503D01*
X064157Y020574D01*
X064258Y020633D01*
X064366Y020678D01*
X064479Y020708D01*
X064573Y020720D01*
X064573Y019912D01*
X064733Y019912D01*
X064733Y020720D01*
X064828Y020708D01*
X064941Y020678D01*
X065049Y020633D01*
X065150Y020574D01*
X065243Y020503D01*
X065294Y020452D01*
X065294Y025161D01*
X065243Y025109D01*
X065150Y025038D01*
X065049Y024980D01*
X064941Y024935D01*
X064828Y024905D01*
X064733Y024892D01*
X064733Y025701D01*
X064573Y025701D01*
X064573Y024892D01*
X064479Y024905D01*
X064366Y024935D01*
X064258Y024980D01*
X064157Y025038D01*
X064064Y025109D01*
X063981Y025192D01*
X063910Y025285D01*
X063852Y025386D01*
X063807Y025494D01*
X063777Y025607D01*
X063764Y025701D01*
X064573Y025701D01*
X064573Y025861D01*
X063764Y025861D01*
X063777Y025956D01*
X063807Y026069D01*
X063852Y026177D01*
X063910Y026278D01*
X063981Y026371D01*
X064064Y026453D01*
X064157Y026524D01*
X064258Y026583D01*
X064366Y026628D01*
X064479Y026658D01*
X064573Y026670D01*
X064573Y025862D01*
X064733Y025862D01*
X064733Y026670D01*
X064828Y026658D01*
X064941Y026628D01*
X065049Y026583D01*
X065150Y026524D01*
X065243Y026453D01*
X065294Y026402D01*
X065294Y028831D01*
X062032Y028831D01*
X060882Y027681D01*
X049882Y027681D01*
X049882Y010260D01*
X049890Y010268D01*
X050014Y010320D01*
X050149Y010320D01*
X050273Y010268D01*
X050369Y010173D01*
X050420Y010049D01*
X050420Y009914D01*
X050369Y009790D01*
X050273Y009695D01*
X050149Y009643D01*
X050014Y009643D01*
X049890Y009695D01*
X049882Y009703D01*
X049882Y005181D01*
X029932Y005181D01*
X029932Y019581D01*
X003262Y019581D01*
X003262Y019524D02*
X029932Y019524D01*
X029932Y019365D02*
X003262Y019365D01*
X003262Y019207D02*
X029932Y019207D01*
X029932Y019048D02*
X003262Y019048D01*
X003262Y018890D02*
X029932Y018890D01*
X029932Y018731D02*
X003262Y018731D01*
X003262Y018572D02*
X029932Y018572D01*
X029932Y018414D02*
X011122Y018414D01*
X011119Y018423D02*
X011023Y018518D01*
X010899Y018570D01*
X010764Y018570D01*
X010640Y018518D01*
X010545Y018423D01*
X010493Y018299D01*
X010493Y018164D01*
X010545Y018040D01*
X010640Y017945D01*
X010764Y017893D01*
X010899Y017893D01*
X011023Y017945D01*
X011119Y018040D01*
X011170Y018164D01*
X011170Y018299D01*
X011119Y018423D01*
X011170Y018255D02*
X013477Y018255D01*
X013490Y018268D02*
X013395Y018173D01*
X013343Y018049D01*
X013343Y017914D01*
X013395Y017790D01*
X013490Y017695D01*
X013614Y017643D01*
X013749Y017643D01*
X013873Y017695D01*
X013969Y017790D01*
X014020Y017914D01*
X014020Y018049D01*
X013969Y018173D01*
X013873Y018268D01*
X013749Y018320D01*
X013614Y018320D01*
X013490Y018268D01*
X013363Y018097D02*
X011142Y018097D01*
X011008Y017938D02*
X013343Y017938D01*
X013405Y017780D02*
X003262Y017780D01*
X003262Y017938D02*
X010655Y017938D01*
X010521Y018097D02*
X003262Y018097D01*
X003262Y018255D02*
X010493Y018255D01*
X010541Y018414D02*
X003262Y018414D01*
X003262Y017621D02*
X007419Y017621D01*
X007440Y017642D02*
X007296Y017498D01*
X007217Y017309D01*
X007217Y017104D01*
X007296Y016915D01*
X007440Y016770D01*
X007629Y016692D01*
X007834Y016692D01*
X008023Y016770D01*
X008168Y016915D01*
X008246Y017104D01*
X008246Y017309D01*
X008168Y017498D01*
X008023Y017642D01*
X007834Y017721D01*
X007629Y017721D01*
X007440Y017642D01*
X007281Y017463D02*
X003262Y017463D01*
X003262Y017304D02*
X007217Y017304D01*
X007217Y017146D02*
X003262Y017146D01*
X003262Y016987D02*
X007266Y016987D01*
X007382Y016828D02*
X003262Y016828D01*
X003262Y016670D02*
X009944Y016670D01*
X009945Y016673D02*
X009893Y016549D01*
X009893Y016414D01*
X009945Y016290D01*
X010040Y016195D01*
X010164Y016143D01*
X010299Y016143D01*
X010423Y016195D01*
X010519Y016290D01*
X010570Y016414D01*
X010570Y016549D01*
X010519Y016673D01*
X010423Y016768D01*
X010299Y016820D01*
X010164Y016820D01*
X010040Y016768D01*
X009945Y016673D01*
X009893Y016511D02*
X003262Y016511D01*
X003262Y016353D02*
X009919Y016353D01*
X010041Y016194D02*
X003262Y016194D01*
X003262Y016036D02*
X005609Y016036D01*
X005612Y016039D02*
X005553Y015979D01*
X005503Y015911D01*
X005465Y015836D01*
X005439Y015757D01*
X005426Y015673D01*
X005426Y015670D01*
X005922Y015670D01*
X005922Y016166D01*
X005918Y016166D01*
X005835Y016153D01*
X005755Y016127D01*
X005680Y016088D01*
X005612Y016039D01*
X005486Y015877D02*
X003262Y015877D01*
X003262Y015719D02*
X005433Y015719D01*
X005426Y015593D02*
X005426Y015589D01*
X005439Y015506D01*
X005465Y015426D01*
X005503Y015351D01*
X005553Y015283D01*
X005612Y015224D01*
X005680Y015174D01*
X005755Y015136D01*
X005835Y015110D01*
X005918Y015097D01*
X005922Y015097D01*
X005922Y015593D01*
X005998Y015593D01*
X005998Y015097D01*
X006002Y015097D01*
X006085Y015110D01*
X006165Y015136D01*
X006240Y015174D01*
X006308Y015224D01*
X006368Y015283D01*
X006417Y015351D01*
X006455Y015426D01*
X006481Y015506D01*
X006494Y015589D01*
X006494Y015593D01*
X005998Y015593D01*
X005998Y015670D01*
X005922Y015670D01*
X005922Y015593D01*
X005426Y015593D01*
X005430Y015560D02*
X003262Y015560D01*
X003262Y015402D02*
X005477Y015402D01*
X005593Y015243D02*
X003262Y015243D01*
X003262Y015084D02*
X010493Y015084D01*
X010493Y015064D02*
X010545Y014940D01*
X010640Y014845D01*
X010764Y014793D01*
X010899Y014793D01*
X011023Y014845D01*
X011119Y014940D01*
X011170Y015064D01*
X011170Y015199D01*
X011119Y015323D01*
X011023Y015418D01*
X010899Y015470D01*
X010764Y015470D01*
X010640Y015418D01*
X010545Y015323D01*
X010493Y015199D01*
X010493Y015064D01*
X010559Y014926D02*
X003262Y014926D01*
X003262Y014767D02*
X013351Y014767D01*
X013343Y014749D02*
X013343Y014614D01*
X013395Y014490D01*
X013490Y014395D01*
X013614Y014343D01*
X013749Y014343D01*
X013873Y014395D01*
X013969Y014490D01*
X014020Y014614D01*
X014020Y014749D01*
X013969Y014873D01*
X013873Y014968D01*
X013749Y015020D01*
X013614Y015020D01*
X013490Y014968D01*
X013395Y014873D01*
X013343Y014749D01*
X013345Y014609D02*
X003262Y014609D01*
X003262Y014450D02*
X006906Y014450D01*
X006948Y014493D02*
X006804Y014348D01*
X006725Y014159D01*
X006725Y013954D01*
X006804Y013765D01*
X006948Y013621D01*
X007137Y013542D01*
X007342Y013542D01*
X007531Y013621D01*
X007676Y013765D01*
X007754Y013954D01*
X007754Y014159D01*
X007676Y014348D01*
X007531Y014493D01*
X007342Y014571D01*
X007137Y014571D01*
X006948Y014493D01*
X006780Y014292D02*
X003262Y014292D01*
X003262Y014133D02*
X006725Y014133D01*
X006725Y013975D02*
X003262Y013975D01*
X003262Y013816D02*
X006782Y013816D01*
X006911Y013658D02*
X003262Y013658D01*
X003262Y013499D02*
X009971Y013499D01*
X009945Y013473D02*
X009893Y013349D01*
X009893Y013214D01*
X009945Y013090D01*
X010040Y012995D01*
X010164Y012943D01*
X010299Y012943D01*
X010423Y012995D01*
X010519Y013090D01*
X010570Y013214D01*
X010570Y013349D01*
X010519Y013473D01*
X010423Y013568D01*
X010299Y013620D01*
X010164Y013620D01*
X010040Y013568D01*
X009945Y013473D01*
X009893Y013341D02*
X003262Y013341D01*
X003262Y013182D02*
X009907Y013182D01*
X010011Y013023D02*
X003262Y013023D01*
X003262Y012865D02*
X014700Y012865D01*
X014693Y012849D02*
X014693Y012714D01*
X014745Y012590D01*
X014840Y012495D01*
X014964Y012443D01*
X015099Y012443D01*
X015223Y012495D01*
X015319Y012590D01*
X015370Y012714D01*
X015370Y012849D01*
X015319Y012973D01*
X015223Y013068D01*
X015099Y013120D01*
X014964Y013120D01*
X014840Y013068D01*
X014745Y012973D01*
X014693Y012849D01*
X014696Y012706D02*
X003262Y012706D01*
X003262Y012548D02*
X014787Y012548D01*
X014795Y013023D02*
X010452Y013023D01*
X010557Y013182D02*
X016557Y013182D01*
X016543Y013214D02*
X016595Y013090D01*
X016690Y012995D01*
X016814Y012943D01*
X016949Y012943D01*
X017073Y012995D01*
X017169Y013090D01*
X017220Y013214D01*
X017220Y013349D01*
X017169Y013473D01*
X017073Y013568D01*
X016949Y013620D01*
X016814Y013620D01*
X016690Y013568D01*
X016595Y013473D01*
X016543Y013349D01*
X016543Y013214D01*
X016543Y013341D02*
X010570Y013341D01*
X010493Y013499D02*
X016621Y013499D01*
X016661Y013023D02*
X015268Y013023D01*
X015363Y012865D02*
X017450Y012865D01*
X017443Y012849D02*
X017443Y012714D01*
X017495Y012590D01*
X017590Y012495D01*
X017714Y012443D01*
X017849Y012443D01*
X017973Y012495D01*
X018069Y012590D01*
X018120Y012714D01*
X018120Y012849D01*
X018069Y012973D01*
X017973Y013068D01*
X017849Y013120D01*
X017714Y013120D01*
X017590Y013068D01*
X017495Y012973D01*
X017443Y012849D01*
X017446Y012706D02*
X015367Y012706D01*
X015277Y012548D02*
X017537Y012548D01*
X017545Y013023D02*
X017102Y013023D01*
X017207Y013182D02*
X029932Y013182D01*
X029932Y013341D02*
X017220Y013341D01*
X017143Y013499D02*
X029932Y013499D01*
X029932Y013658D02*
X007568Y013658D01*
X007697Y013816D02*
X029932Y013816D01*
X029932Y013975D02*
X007754Y013975D01*
X007754Y014133D02*
X029932Y014133D01*
X029932Y014292D02*
X007699Y014292D01*
X007573Y014450D02*
X013434Y014450D01*
X013448Y014926D02*
X011105Y014926D01*
X011170Y015084D02*
X020284Y015084D01*
X020284Y015110D02*
X020284Y014952D01*
X020345Y014806D01*
X020457Y014694D01*
X020603Y014634D01*
X020761Y014634D01*
X020907Y014694D01*
X021019Y014806D01*
X021079Y014952D01*
X021079Y015110D01*
X021019Y015257D01*
X020907Y015368D01*
X020761Y015429D01*
X020603Y015429D01*
X020457Y015368D01*
X020345Y015257D01*
X020284Y015110D01*
X020339Y015243D02*
X011152Y015243D01*
X011040Y015402D02*
X020537Y015402D01*
X020827Y015402D02*
X029932Y015402D01*
X029932Y015560D02*
X006490Y015560D01*
X006494Y015670D02*
X006494Y015673D01*
X006481Y015757D01*
X006455Y015836D01*
X006417Y015911D01*
X006368Y015979D01*
X006308Y016039D01*
X006240Y016088D01*
X006165Y016127D01*
X006085Y016153D01*
X006002Y016166D01*
X005998Y016166D01*
X005998Y015670D01*
X006494Y015670D01*
X006487Y015719D02*
X029932Y015719D01*
X029932Y015877D02*
X006435Y015877D01*
X006311Y016036D02*
X029932Y016036D01*
X029932Y016194D02*
X010423Y016194D01*
X010545Y016353D02*
X029932Y016353D01*
X029932Y016511D02*
X010570Y016511D01*
X010520Y016670D02*
X029932Y016670D01*
X029932Y016828D02*
X008081Y016828D01*
X008198Y016987D02*
X029932Y016987D01*
X029932Y017146D02*
X008246Y017146D01*
X008246Y017304D02*
X029932Y017304D01*
X029932Y017463D02*
X008182Y017463D01*
X008044Y017621D02*
X029932Y017621D01*
X029932Y017780D02*
X013959Y017780D01*
X014020Y017938D02*
X029932Y017938D01*
X029932Y018097D02*
X014000Y018097D01*
X013886Y018255D02*
X029932Y018255D01*
X030382Y018255D02*
X040022Y018255D01*
X040022Y018210D02*
X040092Y018041D01*
X040221Y017911D01*
X040390Y017841D01*
X040573Y017841D01*
X040742Y017911D01*
X040872Y018041D01*
X040942Y018210D01*
X040942Y018393D01*
X040872Y018562D01*
X040742Y018691D01*
X040573Y018761D01*
X040390Y018761D01*
X040221Y018691D01*
X040092Y018562D01*
X040022Y018393D01*
X040022Y018210D01*
X040069Y018097D02*
X030382Y018097D01*
X030382Y017938D02*
X040194Y017938D01*
X040221Y017691D02*
X040092Y017562D01*
X040022Y017393D01*
X040022Y017210D01*
X040092Y017041D01*
X040221Y016911D01*
X040390Y016841D01*
X040573Y016841D01*
X040742Y016911D01*
X040872Y017041D01*
X040942Y017210D01*
X040942Y017393D01*
X040872Y017562D01*
X040742Y017691D01*
X040573Y017761D01*
X040390Y017761D01*
X040221Y017691D01*
X040151Y017621D02*
X030382Y017621D01*
X030382Y017463D02*
X040051Y017463D01*
X040022Y017304D02*
X030382Y017304D01*
X030382Y017146D02*
X040048Y017146D01*
X040146Y016987D02*
X030382Y016987D01*
X030382Y016828D02*
X049432Y016828D01*
X049432Y016670D02*
X041764Y016670D01*
X041742Y016691D02*
X041573Y016761D01*
X041390Y016761D01*
X041221Y016691D01*
X041092Y016562D01*
X041022Y016393D01*
X041022Y016210D01*
X041092Y016041D01*
X041221Y015911D01*
X041390Y015841D01*
X041573Y015841D01*
X041742Y015911D01*
X041872Y016041D01*
X041942Y016210D01*
X041942Y016393D01*
X041872Y016562D01*
X041742Y016691D01*
X041742Y016911D02*
X041872Y017041D01*
X041942Y017210D01*
X041942Y017393D01*
X041872Y017562D01*
X041742Y017691D01*
X041573Y017761D01*
X041390Y017761D01*
X041221Y017691D01*
X041092Y017562D01*
X041022Y017393D01*
X041022Y017210D01*
X041092Y017041D01*
X041221Y016911D01*
X041390Y016841D01*
X041573Y016841D01*
X041742Y016911D01*
X041818Y016987D02*
X049432Y016987D01*
X049432Y017146D02*
X041915Y017146D01*
X041942Y017304D02*
X049432Y017304D01*
X049432Y017463D02*
X041913Y017463D01*
X041812Y017621D02*
X049432Y017621D01*
X049432Y017780D02*
X030382Y017780D01*
X030382Y018414D02*
X040030Y018414D01*
X040102Y018572D02*
X030382Y018572D01*
X030382Y018731D02*
X040317Y018731D01*
X040390Y018841D02*
X040573Y018841D01*
X040742Y018911D01*
X040872Y019041D01*
X040942Y019210D01*
X040942Y019393D01*
X040872Y019562D01*
X040742Y019691D01*
X040573Y019761D01*
X040390Y019761D01*
X040221Y019691D01*
X040092Y019562D01*
X040022Y019393D01*
X040022Y019210D01*
X040092Y019041D01*
X040221Y018911D01*
X040390Y018841D01*
X040274Y018890D02*
X030382Y018890D01*
X030382Y019048D02*
X040089Y019048D01*
X040023Y019207D02*
X030382Y019207D01*
X030382Y019365D02*
X040022Y019365D01*
X040076Y019524D02*
X030382Y019524D01*
X030382Y019682D02*
X040212Y019682D01*
X040221Y019911D02*
X040390Y019841D01*
X040573Y019841D01*
X040742Y019911D01*
X040872Y020041D01*
X040942Y020210D01*
X040942Y020393D01*
X040872Y020562D01*
X040742Y020691D01*
X040573Y020761D01*
X040390Y020761D01*
X040221Y020691D01*
X040092Y020562D01*
X040022Y020393D01*
X040022Y020210D01*
X040092Y020041D01*
X040221Y019911D01*
X040133Y019999D02*
X003262Y019999D01*
X003262Y019981D02*
X003262Y023625D01*
X003263Y023615D01*
X003291Y023531D01*
X003331Y023452D01*
X003383Y023380D01*
X003446Y023317D01*
X003518Y023265D01*
X003597Y023225D01*
X003681Y023197D01*
X003765Y023184D01*
X003765Y023699D01*
X003861Y023699D01*
X003861Y023184D01*
X003945Y023197D01*
X004030Y023225D01*
X004109Y023265D01*
X004181Y023317D01*
X004243Y023380D01*
X004295Y023452D01*
X004336Y023531D01*
X004363Y023615D01*
X004376Y023699D01*
X003861Y023699D01*
X003861Y023795D01*
X003765Y023795D01*
X003765Y024310D01*
X003681Y024297D01*
X003597Y024270D01*
X003518Y024229D01*
X003446Y024177D01*
X003383Y024114D01*
X003331Y024043D01*
X003291Y023964D01*
X003263Y023879D01*
X003262Y023869D01*
X003262Y025594D01*
X003263Y025584D01*
X003291Y025499D01*
X003331Y025420D01*
X003383Y025348D01*
X003446Y025286D01*
X003518Y025233D01*
X003597Y025193D01*
X003681Y025166D01*
X003765Y025152D01*
X003765Y025667D01*
X003861Y025667D01*
X003861Y025152D01*
X003945Y025166D01*
X004030Y025193D01*
X004109Y025233D01*
X004181Y025286D01*
X004243Y025348D01*
X004295Y025420D01*
X004336Y025499D01*
X004363Y025584D01*
X004376Y025668D01*
X003861Y025668D01*
X003861Y025764D01*
X003765Y025764D01*
X003765Y026279D01*
X003681Y026266D01*
X003597Y026238D01*
X003518Y026198D01*
X003446Y026146D01*
X003383Y026083D01*
X003331Y026011D01*
X003291Y025932D01*
X003263Y025848D01*
X003262Y025838D01*
X003262Y032475D01*
X003263Y032465D01*
X003291Y032381D01*
X003331Y032302D01*
X003383Y032230D01*
X003446Y032167D01*
X003518Y032115D01*
X003597Y032075D01*
X003681Y032047D01*
X003765Y032034D01*
X003765Y032549D01*
X003861Y032549D01*
X003861Y032034D01*
X003945Y032047D01*
X004030Y032075D01*
X004109Y032115D01*
X004181Y032167D01*
X004243Y032230D01*
X004295Y032302D01*
X004336Y032381D01*
X004363Y032465D01*
X004376Y032549D01*
X003861Y032549D01*
X003861Y032645D01*
X003765Y032645D01*
X003765Y033160D01*
X003681Y033147D01*
X003597Y033120D01*
X003518Y033079D01*
X003446Y033027D01*
X003383Y032964D01*
X003331Y032893D01*
X003291Y032814D01*
X003263Y032729D01*
X003262Y032719D01*
X003262Y034444D01*
X003263Y034434D01*
X003291Y034349D01*
X003331Y034270D01*
X003383Y034198D01*
X003446Y034136D01*
X003518Y034083D01*
X003597Y034043D01*
X003681Y034016D01*
X003765Y034002D01*
X003765Y034517D01*
X003861Y034517D01*
X003861Y034002D01*
X003945Y034016D01*
X004030Y034043D01*
X004109Y034083D01*
X004181Y034136D01*
X004243Y034198D01*
X004295Y034270D01*
X004336Y034349D01*
X004363Y034434D01*
X004376Y034518D01*
X003861Y034518D01*
X003861Y034614D01*
X003765Y034614D01*
X003765Y035129D01*
X003681Y035116D01*
X003597Y035088D01*
X003518Y035048D01*
X003446Y034996D01*
X003383Y034933D01*
X003331Y034861D01*
X003291Y034782D01*
X003263Y034698D01*
X003262Y034688D01*
X003262Y039071D01*
X065294Y039071D01*
X065294Y029281D01*
X061882Y029281D01*
X060732Y028131D01*
X049432Y028131D01*
X049432Y010210D01*
X049373Y010268D01*
X049249Y010320D01*
X049114Y010320D01*
X048990Y010268D01*
X048895Y010173D01*
X048843Y010049D01*
X048843Y009914D01*
X048895Y009790D01*
X048990Y009695D01*
X049114Y009643D01*
X049249Y009643D01*
X049373Y009695D01*
X049432Y009753D01*
X049432Y005631D01*
X030382Y005631D01*
X030382Y019981D01*
X003262Y019981D01*
X003262Y020158D02*
X040043Y020158D01*
X040022Y020316D02*
X003262Y020316D01*
X003262Y020475D02*
X034788Y020475D01*
X034742Y020521D02*
X034871Y020391D01*
X035040Y020321D01*
X035223Y020321D01*
X035392Y020391D01*
X035522Y020521D01*
X035592Y020690D01*
X035592Y020873D01*
X035522Y021042D01*
X035392Y021171D01*
X035223Y021241D01*
X035040Y021241D01*
X034871Y021171D01*
X034742Y021042D01*
X034672Y020873D01*
X034672Y020690D01*
X034742Y020521D01*
X034695Y020634D02*
X003262Y020634D01*
X003262Y020792D02*
X034672Y020792D01*
X034704Y020951D02*
X006271Y020951D01*
X006321Y020971D02*
X006589Y021239D01*
X006734Y021589D01*
X006734Y021968D01*
X006589Y022318D01*
X006321Y022586D01*
X005971Y022731D01*
X005592Y022731D01*
X005242Y022586D01*
X004974Y022318D01*
X004829Y021968D01*
X004829Y021589D01*
X004974Y021239D01*
X005242Y020971D01*
X005592Y020826D01*
X005971Y020826D01*
X006321Y020971D01*
X006459Y021109D02*
X034809Y021109D01*
X034871Y021391D02*
X035040Y021321D01*
X035223Y021321D01*
X035392Y021391D01*
X035522Y021521D01*
X035592Y021690D01*
X035592Y021873D01*
X035522Y022042D01*
X035392Y022171D01*
X035223Y022241D01*
X035040Y022241D01*
X034871Y022171D01*
X034742Y022042D01*
X034672Y021873D01*
X034672Y021690D01*
X034742Y021521D01*
X034871Y021391D01*
X034836Y021426D02*
X008167Y021426D01*
X008211Y021471D02*
X008058Y021318D01*
X007858Y021235D01*
X007642Y021235D01*
X007442Y021318D01*
X007289Y021471D01*
X007206Y021670D01*
X007206Y021887D01*
X007289Y022087D01*
X007442Y022240D01*
X007642Y022322D01*
X007858Y022322D01*
X008058Y022240D01*
X008211Y022087D01*
X008294Y021887D01*
X008294Y021670D01*
X008211Y021471D01*
X008259Y021585D02*
X034715Y021585D01*
X034672Y021743D02*
X008294Y021743D01*
X008288Y021902D02*
X034684Y021902D01*
X034760Y022060D02*
X008222Y022060D01*
X008079Y022219D02*
X034986Y022219D01*
X035040Y022321D02*
X035223Y022321D01*
X035392Y022391D01*
X035522Y022521D01*
X035592Y022690D01*
X035592Y022873D01*
X035522Y023042D01*
X035392Y023171D01*
X035223Y023241D01*
X035040Y023241D01*
X034871Y023171D01*
X034742Y023042D01*
X034672Y022873D01*
X034672Y022690D01*
X034742Y022521D01*
X034871Y022391D01*
X035040Y022321D01*
X034905Y022377D02*
X009118Y022377D01*
X009043Y022302D02*
X009196Y022455D01*
X009278Y022655D01*
X009278Y022871D01*
X009196Y023071D01*
X009043Y023224D01*
X008843Y023307D01*
X008626Y023307D01*
X008426Y023224D01*
X008273Y023071D01*
X008191Y022871D01*
X008191Y022655D01*
X008273Y022455D01*
X008426Y022302D01*
X008626Y022219D01*
X008843Y022219D01*
X009043Y022302D01*
X009229Y022536D02*
X034735Y022536D01*
X034672Y022695D02*
X009278Y022695D01*
X009278Y022853D02*
X034672Y022853D01*
X034729Y023012D02*
X009220Y023012D01*
X009096Y023170D02*
X034870Y023170D01*
X035023Y023329D02*
X004192Y023329D01*
X004314Y023487D02*
X034775Y023487D01*
X034742Y023521D02*
X034871Y023391D01*
X035040Y023321D01*
X035223Y023321D01*
X035392Y023391D01*
X035522Y023521D01*
X035592Y023690D01*
X035592Y023873D01*
X035522Y024042D01*
X035392Y024171D01*
X035223Y024241D01*
X035040Y024241D01*
X034871Y024171D01*
X034742Y024042D01*
X034672Y023873D01*
X034672Y023690D01*
X034742Y023521D01*
X034690Y023646D02*
X004368Y023646D01*
X004376Y023795D02*
X004363Y023879D01*
X004336Y023964D01*
X004295Y024043D01*
X004243Y024114D01*
X004181Y024177D01*
X004109Y024229D01*
X004030Y024270D01*
X003945Y024297D01*
X003861Y024310D01*
X003861Y023795D01*
X004376Y023795D01*
X004375Y023804D02*
X034672Y023804D01*
X034709Y023963D02*
X004336Y023963D01*
X004236Y024121D02*
X034821Y024121D01*
X034871Y024391D02*
X034742Y024521D01*
X034672Y024690D01*
X034672Y024873D01*
X034742Y025042D01*
X034871Y025171D01*
X035040Y025241D01*
X035223Y025241D01*
X035392Y025171D01*
X035522Y025042D01*
X035592Y024873D01*
X035592Y024690D01*
X035522Y024521D01*
X035392Y024391D01*
X035223Y024321D01*
X035040Y024321D01*
X034871Y024391D01*
X034824Y024439D02*
X017085Y024439D01*
X017041Y024394D02*
X017169Y024523D01*
X017239Y024691D01*
X017239Y024872D01*
X017169Y025040D01*
X017041Y025169D01*
X016873Y025238D01*
X016691Y025238D01*
X016523Y025169D01*
X016394Y025040D01*
X016325Y024872D01*
X016325Y024691D01*
X016394Y024523D01*
X016523Y024394D01*
X016691Y024325D01*
X016873Y024325D01*
X017041Y024394D01*
X017200Y024597D02*
X034710Y024597D01*
X034672Y024756D02*
X017239Y024756D01*
X017221Y024914D02*
X034689Y024914D01*
X034773Y025073D02*
X017136Y025073D01*
X016889Y025231D02*
X035016Y025231D01*
X035019Y025313D02*
X035094Y025301D01*
X035112Y025301D01*
X035112Y025761D01*
X035152Y025761D01*
X035152Y025301D01*
X035169Y025301D01*
X035244Y025313D01*
X035316Y025337D01*
X035383Y025371D01*
X035444Y025415D01*
X035498Y025469D01*
X035542Y025530D01*
X035577Y025597D01*
X035600Y025669D01*
X035612Y025744D01*
X035612Y025761D01*
X035152Y025761D01*
X035152Y025801D01*
X035612Y025801D01*
X035612Y025819D01*
X035600Y025894D01*
X035577Y025966D01*
X035542Y026033D01*
X035498Y026094D01*
X035444Y026148D01*
X035383Y026192D01*
X035316Y026226D01*
X035244Y026250D01*
X035169Y026261D01*
X035152Y026261D01*
X035152Y025802D01*
X035112Y025802D01*
X035112Y026261D01*
X035094Y026261D01*
X035019Y026250D01*
X034947Y026226D01*
X034880Y026192D01*
X034819Y026148D01*
X034766Y026094D01*
X034721Y026033D01*
X034687Y025966D01*
X034664Y025894D01*
X034652Y025819D01*
X034652Y025801D01*
X035111Y025801D01*
X035111Y025761D01*
X034652Y025761D01*
X034652Y025744D01*
X034664Y025669D01*
X034687Y025597D01*
X034721Y025530D01*
X034766Y025469D01*
X034819Y025415D01*
X034880Y025371D01*
X034947Y025337D01*
X035019Y025313D01*
X035112Y025390D02*
X035152Y025390D01*
X035152Y025548D02*
X035112Y025548D01*
X035112Y025707D02*
X035152Y025707D01*
X035152Y025865D02*
X035112Y025865D01*
X035112Y026024D02*
X035152Y026024D01*
X035152Y026183D02*
X035112Y026183D01*
X034867Y026183D02*
X017007Y026183D01*
X017041Y026169D02*
X016873Y026238D01*
X016691Y026238D01*
X016523Y026169D01*
X016394Y026040D01*
X016325Y025872D01*
X016325Y025691D01*
X016394Y025523D01*
X016523Y025394D01*
X016691Y025325D01*
X016873Y025325D01*
X017041Y025394D01*
X017169Y025523D01*
X017239Y025691D01*
X017239Y025872D01*
X017169Y026040D01*
X017041Y026169D01*
X017176Y026024D02*
X034717Y026024D01*
X034659Y025865D02*
X017239Y025865D01*
X017239Y025707D02*
X034658Y025707D01*
X034712Y025548D02*
X017180Y025548D01*
X017030Y025390D02*
X034854Y025390D01*
X035248Y025231D02*
X036016Y025231D01*
X036040Y025241D02*
X035871Y025171D01*
X035742Y025042D01*
X035672Y024873D01*
X035672Y024690D01*
X035742Y024521D01*
X035871Y024391D01*
X036040Y024321D01*
X036223Y024321D01*
X036392Y024391D01*
X036522Y024521D01*
X036592Y024690D01*
X036592Y024873D01*
X036522Y025042D01*
X036392Y025171D01*
X036223Y025241D01*
X036040Y025241D01*
X036019Y025313D02*
X036094Y025301D01*
X036112Y025301D01*
X036112Y025761D01*
X036152Y025761D01*
X036152Y025301D01*
X036169Y025301D01*
X036244Y025313D01*
X036316Y025337D01*
X036383Y025371D01*
X036444Y025415D01*
X036498Y025469D01*
X036542Y025530D01*
X036577Y025597D01*
X036600Y025669D01*
X036612Y025744D01*
X036612Y025761D01*
X036152Y025761D01*
X036152Y025801D01*
X036612Y025801D01*
X036612Y025819D01*
X036600Y025894D01*
X036577Y025966D01*
X036542Y026033D01*
X036498Y026094D01*
X036444Y026148D01*
X036383Y026192D01*
X036316Y026226D01*
X036244Y026250D01*
X036169Y026261D01*
X036152Y026261D01*
X036152Y025802D01*
X036112Y025802D01*
X036112Y026261D01*
X036094Y026261D01*
X036019Y026250D01*
X035947Y026226D01*
X035880Y026192D01*
X035819Y026148D01*
X035766Y026094D01*
X035721Y026033D01*
X035687Y025966D01*
X035664Y025894D01*
X035652Y025819D01*
X035652Y025801D01*
X036111Y025801D01*
X036111Y025761D01*
X035652Y025761D01*
X035652Y025744D01*
X035664Y025669D01*
X035687Y025597D01*
X035721Y025530D01*
X035766Y025469D01*
X035819Y025415D01*
X035880Y025371D01*
X035947Y025337D01*
X036019Y025313D01*
X036112Y025390D02*
X036152Y025390D01*
X036152Y025548D02*
X036112Y025548D01*
X036112Y025707D02*
X036152Y025707D01*
X036152Y025865D02*
X036112Y025865D01*
X036112Y026024D02*
X036152Y026024D01*
X036152Y026183D02*
X036112Y026183D01*
X035867Y026183D02*
X035396Y026183D01*
X035547Y026024D02*
X035717Y026024D01*
X035659Y025865D02*
X035604Y025865D01*
X035606Y025707D02*
X035658Y025707D01*
X035712Y025548D02*
X035552Y025548D01*
X035409Y025390D02*
X035854Y025390D01*
X035773Y025073D02*
X035491Y025073D01*
X035575Y024914D02*
X035689Y024914D01*
X035672Y024756D02*
X035592Y024756D01*
X035553Y024597D02*
X035710Y024597D01*
X035824Y024439D02*
X035439Y024439D01*
X035442Y024121D02*
X035821Y024121D01*
X035871Y024171D02*
X035742Y024042D01*
X035672Y023873D01*
X035672Y023690D01*
X035742Y023521D01*
X035871Y023391D01*
X036040Y023321D01*
X036223Y023321D01*
X036392Y023391D01*
X036522Y023521D01*
X036592Y023690D01*
X036592Y023873D01*
X036522Y024042D01*
X036392Y024171D01*
X036223Y024241D01*
X036040Y024241D01*
X035871Y024171D01*
X035709Y023963D02*
X035554Y023963D01*
X035592Y023804D02*
X035672Y023804D01*
X035690Y023646D02*
X035573Y023646D01*
X035488Y023487D02*
X035775Y023487D01*
X036023Y023329D02*
X035241Y023329D01*
X035393Y023170D02*
X035870Y023170D01*
X035871Y023171D02*
X035742Y023042D01*
X035672Y022873D01*
X035672Y022690D01*
X035742Y022521D01*
X035871Y022391D01*
X036040Y022321D01*
X036223Y022321D01*
X036392Y022391D01*
X036522Y022521D01*
X036592Y022690D01*
X036592Y022873D01*
X036522Y023042D01*
X036392Y023171D01*
X036223Y023241D01*
X036040Y023241D01*
X035871Y023171D01*
X035729Y023012D02*
X035534Y023012D01*
X035592Y022853D02*
X035672Y022853D01*
X035672Y022695D02*
X035592Y022695D01*
X035528Y022536D02*
X035735Y022536D01*
X035905Y022377D02*
X035359Y022377D01*
X035277Y022219D02*
X035986Y022219D01*
X036040Y022241D02*
X035871Y022171D01*
X035742Y022042D01*
X035672Y021873D01*
X035672Y021690D01*
X035742Y021521D01*
X035871Y021391D01*
X036040Y021321D01*
X036223Y021321D01*
X036392Y021391D01*
X036522Y021521D01*
X036592Y021690D01*
X036592Y021873D01*
X036522Y022042D01*
X036392Y022171D01*
X036223Y022241D01*
X036040Y022241D01*
X036277Y022219D02*
X040022Y022219D01*
X040022Y022210D02*
X040092Y022041D01*
X040221Y021911D01*
X040390Y021841D01*
X040573Y021841D01*
X040742Y021911D01*
X040872Y022041D01*
X040942Y022210D01*
X040942Y022393D01*
X040872Y022562D01*
X040742Y022691D01*
X040573Y022761D01*
X040390Y022761D01*
X040221Y022691D01*
X040092Y022562D01*
X040022Y022393D01*
X040022Y022210D01*
X040084Y022060D02*
X036503Y022060D01*
X036580Y021902D02*
X040244Y021902D01*
X040347Y021743D02*
X036592Y021743D01*
X036548Y021585D02*
X040115Y021585D01*
X040092Y021562D02*
X040022Y021393D01*
X040022Y021210D01*
X040092Y021041D01*
X040221Y020911D01*
X040390Y020841D01*
X040573Y020841D01*
X040742Y020911D01*
X040872Y021041D01*
X040942Y021210D01*
X040942Y021393D01*
X040872Y021562D01*
X040742Y021691D01*
X040573Y021761D01*
X040390Y021761D01*
X040221Y021691D01*
X040092Y021562D01*
X040036Y021426D02*
X036427Y021426D01*
X036392Y021171D02*
X036223Y021241D01*
X036040Y021241D01*
X035871Y021171D01*
X035742Y021042D01*
X035672Y020873D01*
X035672Y020690D01*
X035742Y020521D01*
X035871Y020391D01*
X036040Y020321D01*
X036223Y020321D01*
X036392Y020391D01*
X036522Y020521D01*
X036592Y020690D01*
X036592Y020873D01*
X036522Y021042D01*
X036392Y021171D01*
X036454Y021109D02*
X040063Y021109D01*
X040022Y021268D02*
X007938Y021268D01*
X007563Y021268D02*
X006601Y021268D01*
X006667Y021426D02*
X007334Y021426D01*
X007242Y021585D02*
X006732Y021585D01*
X006734Y021743D02*
X007206Y021743D01*
X007213Y021902D02*
X006734Y021902D01*
X006696Y022060D02*
X007278Y022060D01*
X007421Y022219D02*
X006630Y022219D01*
X006530Y022377D02*
X008351Y022377D01*
X008240Y022536D02*
X006371Y022536D01*
X006059Y022695D02*
X008191Y022695D01*
X008191Y022853D02*
X003262Y022853D01*
X003262Y022695D02*
X005504Y022695D01*
X005192Y022536D02*
X003262Y022536D01*
X003262Y022377D02*
X005034Y022377D01*
X004933Y022219D02*
X003262Y022219D01*
X003262Y022060D02*
X004868Y022060D01*
X004829Y021902D02*
X003262Y021902D01*
X003262Y021743D02*
X004829Y021743D01*
X004831Y021585D02*
X003262Y021585D01*
X003262Y021426D02*
X004897Y021426D01*
X004962Y021268D02*
X003262Y021268D01*
X003262Y021109D02*
X005104Y021109D01*
X005292Y020951D02*
X003262Y020951D01*
X003262Y023012D02*
X008249Y023012D01*
X008373Y023170D02*
X003262Y023170D01*
X003262Y023329D02*
X003434Y023329D01*
X003313Y023487D02*
X003262Y023487D01*
X003262Y023963D02*
X003290Y023963D01*
X003262Y024121D02*
X003390Y024121D01*
X003262Y024280D02*
X003629Y024280D01*
X003765Y024280D02*
X003861Y024280D01*
X003998Y024280D02*
X007433Y024280D01*
X007442Y024270D02*
X007642Y024188D01*
X007858Y024188D01*
X008058Y024270D01*
X008211Y024423D01*
X008294Y024623D01*
X008294Y024840D01*
X008211Y025039D01*
X008058Y025192D01*
X007858Y025275D01*
X007642Y025275D01*
X007442Y025192D01*
X007289Y025039D01*
X007206Y024840D01*
X007206Y024623D01*
X007289Y024423D01*
X007442Y024270D01*
X007283Y024439D02*
X003262Y024439D01*
X003262Y024597D02*
X007217Y024597D01*
X007206Y024756D02*
X003262Y024756D01*
X003262Y024914D02*
X007237Y024914D01*
X007322Y025073D02*
X003262Y025073D01*
X003262Y025231D02*
X003522Y025231D01*
X003353Y025390D02*
X003262Y025390D01*
X003262Y025548D02*
X003275Y025548D01*
X003262Y025865D02*
X003269Y025865D01*
X003262Y026024D02*
X003340Y026024D01*
X003262Y026183D02*
X003497Y026183D01*
X003765Y026183D02*
X003861Y026183D01*
X003861Y026279D02*
X003861Y025764D01*
X004376Y025764D01*
X004363Y025848D01*
X004336Y025932D01*
X004295Y026011D01*
X004243Y026083D01*
X004181Y026146D01*
X004109Y026198D01*
X004030Y026238D01*
X003945Y026266D01*
X003861Y026279D01*
X003861Y026024D02*
X003765Y026024D01*
X003765Y025865D02*
X003861Y025865D01*
X003861Y025707D02*
X016325Y025707D01*
X016325Y025865D02*
X004357Y025865D01*
X004286Y026024D02*
X016388Y026024D01*
X016556Y026183D02*
X008907Y026183D01*
X008843Y026156D02*
X009043Y026239D01*
X009196Y026392D01*
X009278Y026592D01*
X009278Y026808D01*
X009196Y027008D01*
X009043Y027161D01*
X008843Y027244D01*
X008626Y027244D01*
X008426Y027161D01*
X008273Y027008D01*
X008191Y026808D01*
X008191Y026592D01*
X008273Y026392D01*
X008426Y026239D01*
X008626Y026156D01*
X008843Y026156D01*
X008562Y026183D02*
X004130Y026183D01*
X004352Y025548D02*
X016384Y025548D01*
X016533Y025390D02*
X004273Y025390D01*
X004104Y025231D02*
X007536Y025231D01*
X007965Y025231D02*
X016674Y025231D01*
X016427Y025073D02*
X008178Y025073D01*
X008263Y024914D02*
X016342Y024914D01*
X016325Y024756D02*
X008294Y024756D01*
X008283Y024597D02*
X016364Y024597D01*
X016478Y024439D02*
X008218Y024439D01*
X008068Y024280D02*
X040022Y024280D01*
X040022Y024210D02*
X040022Y024393D01*
X040092Y024562D01*
X040221Y024691D01*
X040390Y024761D01*
X040573Y024761D01*
X040742Y024691D01*
X040872Y024562D01*
X040942Y024393D01*
X040942Y024210D01*
X040872Y024041D01*
X040742Y023911D01*
X040573Y023841D01*
X040390Y023841D01*
X040221Y023911D01*
X040092Y024041D01*
X040022Y024210D01*
X040058Y024121D02*
X036442Y024121D01*
X036554Y023963D02*
X040170Y023963D01*
X040221Y023691D02*
X040092Y023562D01*
X040022Y023393D01*
X040022Y023210D01*
X040092Y023041D01*
X040221Y022911D01*
X040390Y022841D01*
X040573Y022841D01*
X040742Y022911D01*
X040872Y023041D01*
X040942Y023210D01*
X040942Y023393D01*
X040872Y023562D01*
X040742Y023691D01*
X040573Y023761D01*
X040390Y023761D01*
X040221Y023691D01*
X040176Y023646D02*
X036573Y023646D01*
X036592Y023804D02*
X049432Y023804D01*
X049432Y023646D02*
X041788Y023646D01*
X041742Y023691D02*
X041573Y023761D01*
X041390Y023761D01*
X041221Y023691D01*
X041092Y023562D01*
X041022Y023393D01*
X041022Y023210D01*
X041092Y023041D01*
X041221Y022911D01*
X041390Y022841D01*
X041573Y022841D01*
X041742Y022911D01*
X041872Y023041D01*
X041942Y023210D01*
X041942Y023393D01*
X041872Y023562D01*
X041742Y023691D01*
X041742Y023911D02*
X041573Y023841D01*
X041390Y023841D01*
X041221Y023911D01*
X041092Y024041D01*
X041022Y024210D01*
X041022Y024393D01*
X041092Y024562D01*
X041221Y024691D01*
X041390Y024761D01*
X041573Y024761D01*
X041742Y024691D01*
X041872Y024562D01*
X041942Y024393D01*
X041942Y024210D01*
X041872Y024041D01*
X041742Y023911D01*
X041794Y023963D02*
X049432Y023963D01*
X049432Y024121D02*
X041905Y024121D01*
X041942Y024280D02*
X049432Y024280D01*
X049432Y024439D02*
X041923Y024439D01*
X041837Y024597D02*
X049432Y024597D01*
X049432Y024756D02*
X041587Y024756D01*
X041573Y024841D02*
X041742Y024911D01*
X041872Y025041D01*
X041942Y025210D01*
X041942Y025393D01*
X041872Y025562D01*
X041742Y025691D01*
X041573Y025761D01*
X041390Y025761D01*
X041221Y025691D01*
X041092Y025562D01*
X041022Y025393D01*
X041022Y025210D01*
X041092Y025041D01*
X041221Y024911D01*
X041390Y024841D01*
X041573Y024841D01*
X041745Y024914D02*
X049432Y024914D01*
X049432Y025073D02*
X041885Y025073D01*
X041942Y025231D02*
X049432Y025231D01*
X049432Y025390D02*
X041942Y025390D01*
X041877Y025548D02*
X049432Y025548D01*
X049432Y025707D02*
X041705Y025707D01*
X041631Y025865D02*
X049432Y025865D01*
X049432Y026024D02*
X041855Y026024D01*
X041872Y026041D02*
X041942Y026210D01*
X041942Y026393D01*
X041872Y026562D01*
X041742Y026691D01*
X041573Y026761D01*
X041390Y026761D01*
X041221Y026691D01*
X041092Y026562D01*
X041022Y026393D01*
X041022Y026210D01*
X041092Y026041D01*
X041221Y025911D01*
X041390Y025841D01*
X041573Y025841D01*
X041742Y025911D01*
X041872Y026041D01*
X041930Y026183D02*
X049432Y026183D01*
X049432Y026341D02*
X041942Y026341D01*
X041898Y026500D02*
X049432Y026500D01*
X049432Y026658D02*
X041775Y026658D01*
X041742Y026911D02*
X041872Y027041D01*
X041942Y027210D01*
X041942Y027393D01*
X041872Y027562D01*
X041742Y027691D01*
X041573Y027761D01*
X041390Y027761D01*
X041221Y027691D01*
X041092Y027562D01*
X041022Y027393D01*
X041022Y027210D01*
X041092Y027041D01*
X041221Y026911D01*
X041390Y026841D01*
X041573Y026841D01*
X041742Y026911D01*
X041806Y026975D02*
X049432Y026975D01*
X049432Y026817D02*
X017239Y026817D01*
X017239Y026872D02*
X017169Y027040D01*
X017041Y027169D01*
X016873Y027238D01*
X016691Y027238D01*
X016523Y027169D01*
X016394Y027040D01*
X016325Y026872D01*
X016325Y026691D01*
X016394Y026523D01*
X016523Y026394D01*
X016691Y026325D01*
X016873Y026325D01*
X017041Y026394D01*
X017169Y026523D01*
X017239Y026691D01*
X017239Y026872D01*
X017196Y026975D02*
X021953Y026975D01*
X021907Y026994D02*
X022053Y026934D01*
X022211Y026934D01*
X022357Y026994D01*
X022457Y027094D01*
X022557Y026994D01*
X022703Y026934D01*
X022861Y026934D01*
X023007Y026994D01*
X023107Y027094D01*
X023207Y026994D01*
X023353Y026934D01*
X023511Y026934D01*
X023657Y026994D01*
X023769Y027106D01*
X023829Y027252D01*
X023829Y027410D01*
X023769Y027557D01*
X023657Y027668D01*
X023511Y027729D01*
X023353Y027729D01*
X023207Y027668D01*
X023107Y027568D01*
X023007Y027668D01*
X022861Y027729D01*
X022703Y027729D01*
X022557Y027668D01*
X022457Y027568D01*
X022357Y027668D01*
X022211Y027729D01*
X022053Y027729D01*
X021907Y027668D01*
X021795Y027557D01*
X021734Y027410D01*
X021734Y027252D01*
X021795Y027106D01*
X021907Y026994D01*
X021783Y027134D02*
X017075Y027134D01*
X016965Y027339D02*
X017032Y027374D01*
X017092Y027418D01*
X017145Y027471D01*
X017190Y027531D01*
X017224Y027598D01*
X017247Y027670D01*
X017259Y027744D01*
X017259Y027763D01*
X016800Y027763D01*
X016800Y027305D01*
X016819Y027305D01*
X016893Y027316D01*
X016965Y027339D01*
X017126Y027451D02*
X021751Y027451D01*
X021734Y027292D02*
X008156Y027292D01*
X008180Y027317D02*
X008118Y027254D01*
X008046Y027202D01*
X007967Y027162D01*
X007882Y027134D01*
X007798Y027121D01*
X007798Y027636D01*
X007702Y027636D01*
X007187Y027636D01*
X007200Y027552D01*
X007228Y027468D01*
X007268Y027389D01*
X007320Y027317D01*
X007383Y027254D01*
X007455Y027202D01*
X007534Y027162D01*
X007618Y027134D01*
X007702Y027121D01*
X007702Y027636D01*
X007702Y027732D01*
X007187Y027732D01*
X007200Y027816D01*
X007228Y027901D01*
X007268Y027980D01*
X007320Y028051D01*
X007383Y028114D01*
X007455Y028166D01*
X007534Y028207D01*
X007618Y028234D01*
X007702Y028247D01*
X007702Y027732D01*
X007798Y027732D01*
X007798Y028247D01*
X007882Y028234D01*
X007967Y028207D01*
X008046Y028166D01*
X008118Y028114D01*
X008180Y028051D01*
X008232Y027980D01*
X008273Y027901D01*
X008300Y027816D01*
X008313Y027732D01*
X007798Y027732D01*
X007798Y027636D01*
X008313Y027636D01*
X008300Y027552D01*
X008273Y027468D01*
X008232Y027389D01*
X008180Y027317D01*
X008264Y027451D02*
X016438Y027451D01*
X016418Y027471D02*
X016471Y027418D01*
X016532Y027374D01*
X016599Y027339D01*
X016670Y027316D01*
X016744Y027305D01*
X016763Y027305D01*
X016763Y027763D01*
X016305Y027763D01*
X016305Y027744D01*
X016317Y027670D01*
X016340Y027598D01*
X016374Y027531D01*
X016418Y027471D01*
X016336Y027609D02*
X008309Y027609D01*
X008308Y027768D02*
X016763Y027768D01*
X016763Y027763D02*
X016763Y027800D01*
X016305Y027800D01*
X016305Y027819D01*
X016317Y027893D01*
X016340Y027964D01*
X016374Y028031D01*
X016418Y028092D01*
X016471Y028145D01*
X016532Y028189D01*
X016599Y028223D01*
X016670Y028246D01*
X016744Y028258D01*
X016763Y028258D01*
X016763Y027800D01*
X016800Y027800D01*
X016800Y028258D01*
X016819Y028258D01*
X016893Y028246D01*
X016965Y028223D01*
X017032Y028189D01*
X017092Y028145D01*
X017145Y028092D01*
X017190Y028031D01*
X017224Y027964D01*
X017247Y027893D01*
X017259Y027819D01*
X017259Y027800D01*
X016800Y027800D01*
X016800Y027763D01*
X016763Y027763D01*
X016800Y027768D02*
X049432Y027768D01*
X049432Y027926D02*
X017236Y027926D01*
X017151Y028085D02*
X049432Y028085D01*
X049432Y027609D02*
X041824Y027609D01*
X041918Y027451D02*
X049432Y027451D01*
X049432Y027292D02*
X041942Y027292D01*
X041910Y027134D02*
X049432Y027134D01*
X049882Y027134D02*
X062237Y027134D01*
X062210Y027161D02*
X062292Y027078D01*
X062385Y027007D01*
X062486Y026948D01*
X062594Y026904D01*
X062707Y026873D01*
X062802Y026861D01*
X062802Y027670D01*
X062962Y027670D01*
X062962Y027830D01*
X063771Y027830D01*
X063758Y027924D01*
X063728Y028037D01*
X063683Y028145D01*
X063625Y028246D01*
X063554Y028339D01*
X063471Y028422D01*
X063378Y028493D01*
X063277Y028551D01*
X063169Y028596D01*
X063056Y028626D01*
X062962Y028639D01*
X062962Y027830D01*
X062802Y027830D01*
X062802Y028639D01*
X062707Y028626D01*
X062594Y028596D01*
X062486Y028551D01*
X062385Y028493D01*
X062292Y028422D01*
X062210Y028339D01*
X062139Y028246D01*
X062080Y028145D01*
X062035Y028037D01*
X062005Y027924D01*
X061993Y027830D01*
X062802Y027830D01*
X062802Y027670D01*
X061993Y027670D01*
X062005Y027576D01*
X062035Y027463D01*
X062080Y027355D01*
X062139Y027253D01*
X062210Y027161D01*
X062116Y027292D02*
X049882Y027292D01*
X049882Y027451D02*
X062040Y027451D01*
X062001Y027609D02*
X049882Y027609D01*
X049882Y026975D02*
X062440Y026975D01*
X062802Y026975D02*
X062962Y026975D01*
X062962Y026861D02*
X063056Y026873D01*
X063169Y026904D01*
X063277Y026948D01*
X063378Y027007D01*
X063471Y027078D01*
X063554Y027161D01*
X063625Y027253D01*
X063683Y027355D01*
X063728Y027463D01*
X063758Y027576D01*
X063771Y027670D01*
X062962Y027670D01*
X062962Y026861D01*
X062962Y027134D02*
X062802Y027134D01*
X062802Y027292D02*
X062962Y027292D01*
X062962Y027451D02*
X062802Y027451D01*
X062802Y027609D02*
X062962Y027609D01*
X062962Y027768D02*
X065294Y027768D01*
X065294Y027926D02*
X063758Y027926D01*
X063708Y028085D02*
X065294Y028085D01*
X065294Y028244D02*
X063626Y028244D01*
X063491Y028402D02*
X065294Y028402D01*
X065294Y028561D02*
X063255Y028561D01*
X062962Y028561D02*
X062802Y028561D01*
X062802Y028402D02*
X062962Y028402D01*
X062962Y028244D02*
X062802Y028244D01*
X062802Y028085D02*
X062962Y028085D01*
X062962Y027926D02*
X062802Y027926D01*
X062802Y027768D02*
X060968Y027768D01*
X061127Y027926D02*
X062006Y027926D01*
X062055Y028085D02*
X061285Y028085D01*
X061444Y028244D02*
X062137Y028244D01*
X062273Y028402D02*
X061602Y028402D01*
X061761Y028561D02*
X062509Y028561D01*
X061920Y028719D02*
X065294Y028719D01*
X065294Y029353D02*
X060564Y029353D01*
X060535Y029245D02*
X060612Y029533D01*
X060612Y029830D01*
X060535Y030118D01*
X060386Y030375D01*
X060176Y030586D01*
X059918Y030734D01*
X059631Y030811D01*
X059333Y030811D01*
X059046Y030734D01*
X058788Y030586D01*
X058577Y030375D01*
X058429Y030118D01*
X058352Y029830D01*
X058352Y029533D01*
X058429Y029245D01*
X058577Y028988D01*
X058788Y028777D01*
X059046Y028628D01*
X059333Y028551D01*
X059631Y028551D01*
X059918Y028628D01*
X060176Y028777D01*
X060386Y028988D01*
X060535Y029245D01*
X060506Y029195D02*
X061795Y029195D01*
X061637Y029036D02*
X060414Y029036D01*
X060276Y028878D02*
X061478Y028878D01*
X061320Y028719D02*
X060075Y028719D01*
X059665Y028561D02*
X061161Y028561D01*
X061002Y028402D02*
X051365Y028402D01*
X051419Y028456D02*
X051479Y028602D01*
X051479Y028760D01*
X051419Y028907D01*
X051319Y029006D01*
X051419Y029106D01*
X051479Y029252D01*
X051479Y029410D01*
X051419Y029557D01*
X051319Y029656D01*
X051419Y029756D01*
X051479Y029902D01*
X051479Y030060D01*
X051419Y030207D01*
X051307Y030318D01*
X051161Y030379D01*
X051003Y030379D01*
X050857Y030318D01*
X050745Y030207D01*
X050684Y030060D01*
X050684Y029902D01*
X050745Y029756D01*
X050845Y029656D01*
X050745Y029557D01*
X050684Y029410D01*
X050684Y029252D01*
X050745Y029106D01*
X050845Y029006D01*
X050745Y028907D01*
X050684Y028760D01*
X050684Y028602D01*
X050745Y028456D01*
X050857Y028344D01*
X051003Y028284D01*
X051161Y028284D01*
X051307Y028344D01*
X051419Y028456D01*
X051462Y028561D02*
X059298Y028561D01*
X058888Y028719D02*
X051479Y028719D01*
X051431Y028878D02*
X058687Y028878D01*
X058549Y029036D02*
X051349Y029036D01*
X051455Y029195D02*
X058458Y029195D01*
X058400Y029353D02*
X051479Y029353D01*
X051437Y029512D02*
X058357Y029512D01*
X058352Y029670D02*
X051333Y029670D01*
X051449Y029829D02*
X058352Y029829D01*
X058394Y029988D02*
X051479Y029988D01*
X051444Y030146D02*
X058445Y030146D01*
X058537Y030305D02*
X051321Y030305D01*
X050843Y030305D02*
X041927Y030305D01*
X041886Y030375D02*
X041676Y030586D01*
X041418Y030734D01*
X041131Y030811D01*
X040833Y030811D01*
X040546Y030734D01*
X040288Y030586D01*
X040077Y030375D01*
X039929Y030118D01*
X039852Y029830D01*
X039852Y029533D01*
X039929Y029245D01*
X040077Y028988D01*
X040288Y028777D01*
X040546Y028628D01*
X040833Y028551D01*
X041131Y028551D01*
X041418Y028628D01*
X041676Y028777D01*
X041886Y028988D01*
X042035Y029245D01*
X042112Y029533D01*
X042112Y029830D01*
X042035Y030118D01*
X041886Y030375D01*
X041798Y030463D02*
X058665Y030463D01*
X058850Y030622D02*
X041613Y030622D01*
X041247Y030780D02*
X059217Y030780D01*
X059747Y030780D02*
X065294Y030780D01*
X065294Y030622D02*
X060113Y030622D01*
X060298Y030463D02*
X065294Y030463D01*
X065294Y030305D02*
X060427Y030305D01*
X060518Y030146D02*
X065294Y030146D01*
X065294Y029988D02*
X060570Y029988D01*
X060612Y029829D02*
X065294Y029829D01*
X065294Y029670D02*
X060612Y029670D01*
X060606Y029512D02*
X065294Y029512D01*
X065294Y030939D02*
X035786Y030939D01*
X035819Y030907D02*
X035707Y031018D01*
X035561Y031079D01*
X035403Y031079D01*
X035257Y031018D01*
X035145Y030907D01*
X035084Y030760D01*
X035084Y030602D01*
X035145Y030456D01*
X035245Y030356D01*
X035145Y030257D01*
X035084Y030110D01*
X035084Y029952D01*
X035145Y029806D01*
X035245Y029706D01*
X035145Y029607D01*
X035084Y029460D01*
X035084Y029302D01*
X035145Y029156D01*
X035257Y029044D01*
X035403Y028984D01*
X035561Y028984D01*
X035707Y029044D01*
X035819Y029156D01*
X035879Y029302D01*
X035879Y029460D01*
X035819Y029607D01*
X035719Y029706D01*
X035819Y029806D01*
X035879Y029952D01*
X035879Y030110D01*
X035819Y030257D01*
X035719Y030356D01*
X035819Y030456D01*
X035879Y030602D01*
X035879Y030760D01*
X035819Y030907D01*
X035871Y030780D02*
X040717Y030780D01*
X040350Y030622D02*
X035879Y030622D01*
X035821Y030463D02*
X040165Y030463D01*
X040037Y030305D02*
X035771Y030305D01*
X035864Y030146D02*
X039945Y030146D01*
X039894Y029988D02*
X035879Y029988D01*
X035828Y029829D02*
X039852Y029829D01*
X039852Y029670D02*
X035755Y029670D01*
X035858Y029512D02*
X039857Y029512D01*
X039900Y029353D02*
X035879Y029353D01*
X035835Y029195D02*
X039958Y029195D01*
X040049Y029036D02*
X035687Y029036D01*
X035276Y029036D02*
X031949Y029036D01*
X031969Y029056D02*
X032029Y029202D01*
X032029Y029360D01*
X031969Y029507D01*
X031857Y029618D01*
X031825Y029631D01*
X031857Y029644D01*
X031969Y029756D01*
X032029Y029902D01*
X032029Y030060D01*
X031969Y030207D01*
X031857Y030318D01*
X031711Y030379D01*
X031553Y030379D01*
X031407Y030318D01*
X031295Y030207D01*
X031234Y030060D01*
X031234Y029902D01*
X031295Y029756D01*
X031407Y029644D01*
X031438Y029631D01*
X031407Y029618D01*
X031295Y029507D01*
X031234Y029360D01*
X031234Y029202D01*
X031295Y029056D01*
X031395Y028956D01*
X031295Y028857D01*
X031234Y028710D01*
X031234Y028552D01*
X031295Y028406D01*
X031407Y028294D01*
X031553Y028234D01*
X031711Y028234D01*
X031857Y028294D01*
X031969Y028406D01*
X032029Y028552D01*
X032029Y028710D01*
X031969Y028857D01*
X031869Y028956D01*
X031969Y029056D01*
X032026Y029195D02*
X035129Y029195D01*
X035084Y029353D02*
X032029Y029353D01*
X031963Y029512D02*
X035106Y029512D01*
X035209Y029670D02*
X031883Y029670D01*
X031999Y029829D02*
X035135Y029829D01*
X035084Y029988D02*
X032029Y029988D01*
X031994Y030146D02*
X035099Y030146D01*
X035193Y030305D02*
X031871Y030305D01*
X031393Y030305D02*
X028971Y030305D01*
X028969Y030306D02*
X029069Y030406D01*
X029129Y030552D01*
X029129Y030710D01*
X029069Y030857D01*
X028957Y030968D01*
X028811Y031029D01*
X028653Y031029D01*
X028507Y030968D01*
X028395Y030857D01*
X028334Y030710D01*
X028334Y030552D01*
X028395Y030406D01*
X028495Y030306D01*
X028395Y030207D01*
X028334Y030060D01*
X028334Y029902D01*
X028395Y029756D01*
X028495Y029656D01*
X028395Y029557D01*
X028334Y029410D01*
X028334Y029252D01*
X028395Y029106D01*
X028507Y028994D01*
X028653Y028934D01*
X028811Y028934D01*
X028957Y028994D01*
X029069Y029106D01*
X029129Y029252D01*
X029129Y029410D01*
X029069Y029557D01*
X028969Y029656D01*
X029069Y029756D01*
X029129Y029902D01*
X029129Y030060D01*
X029069Y030207D01*
X028969Y030306D01*
X029092Y030463D02*
X035142Y030463D01*
X035084Y030622D02*
X029129Y030622D01*
X029100Y030780D02*
X035092Y030780D01*
X035177Y030939D02*
X028986Y030939D01*
X028477Y030939D02*
X016992Y030939D01*
X017041Y030919D02*
X016873Y030988D01*
X016691Y030988D01*
X016523Y030919D01*
X016394Y030790D01*
X016325Y030622D01*
X008294Y030622D01*
X008294Y030520D02*
X008294Y030737D01*
X008211Y030937D01*
X008058Y031090D01*
X007858Y031172D01*
X007642Y031172D01*
X007442Y031090D01*
X007289Y030937D01*
X007206Y030737D01*
X007206Y030520D01*
X007289Y030321D01*
X007442Y030168D01*
X007642Y030085D01*
X007858Y030085D01*
X008058Y030168D01*
X008211Y030321D01*
X008294Y030520D01*
X008270Y030463D02*
X016325Y030463D01*
X016325Y030441D02*
X016394Y030273D01*
X016523Y030144D01*
X016691Y030075D01*
X016873Y030075D01*
X017041Y030144D01*
X017169Y030273D01*
X017239Y030441D01*
X017239Y030622D01*
X028334Y030622D01*
X028363Y030780D02*
X017173Y030780D01*
X017169Y030790D02*
X017041Y030919D01*
X017169Y030790D02*
X017239Y030622D01*
X017239Y030463D02*
X028371Y030463D01*
X028493Y030305D02*
X017182Y030305D01*
X017043Y030146D02*
X024584Y030146D01*
X024545Y030107D02*
X024484Y029960D01*
X024484Y029802D01*
X024545Y029656D01*
X024645Y029556D01*
X024545Y029457D01*
X024484Y029310D01*
X024484Y029152D01*
X024545Y029006D01*
X024645Y028906D01*
X024545Y028807D01*
X024484Y028660D01*
X024484Y028502D01*
X024545Y028356D01*
X024657Y028244D01*
X024803Y028184D01*
X024961Y028184D01*
X025107Y028244D01*
X025219Y028356D01*
X025279Y028502D01*
X025279Y028660D01*
X025219Y028807D01*
X025119Y028906D01*
X025219Y029006D01*
X025279Y029152D01*
X025279Y029310D01*
X025219Y029457D01*
X025119Y029556D01*
X025219Y029656D01*
X025279Y029802D01*
X025279Y029960D01*
X025219Y030107D01*
X025107Y030218D01*
X024961Y030279D01*
X024803Y030279D01*
X024657Y030218D01*
X024545Y030107D01*
X024496Y029988D02*
X006488Y029988D01*
X006589Y030089D02*
X006734Y030439D01*
X006734Y030818D01*
X006589Y031168D01*
X006321Y031436D01*
X005971Y031581D01*
X005592Y031581D01*
X005242Y031436D01*
X004974Y031168D01*
X004829Y030818D01*
X004829Y030439D01*
X004974Y030089D01*
X005242Y029821D01*
X005592Y029676D01*
X005971Y029676D01*
X006321Y029821D01*
X006589Y030089D01*
X006613Y030146D02*
X007494Y030146D01*
X007305Y030305D02*
X006678Y030305D01*
X006734Y030463D02*
X007230Y030463D01*
X007206Y030622D02*
X006734Y030622D01*
X006734Y030780D02*
X007224Y030780D01*
X007291Y030939D02*
X006684Y030939D01*
X006618Y031097D02*
X007461Y031097D01*
X008040Y031097D02*
X008558Y031097D01*
X008626Y031069D02*
X008843Y031069D01*
X009043Y031152D01*
X009196Y031305D01*
X009278Y031505D01*
X009278Y031721D01*
X009196Y031921D01*
X009043Y032074D01*
X008843Y032157D01*
X008626Y032157D01*
X008426Y032074D01*
X008273Y031921D01*
X008191Y031721D01*
X008191Y031505D01*
X008273Y031305D01*
X008426Y031152D01*
X008626Y031069D01*
X008911Y031097D02*
X016636Y031097D01*
X016691Y031075D02*
X016873Y031075D01*
X017041Y031144D01*
X017169Y031273D01*
X017239Y031441D01*
X017239Y031622D01*
X017169Y031790D01*
X017041Y031919D01*
X016873Y031988D01*
X016691Y031988D01*
X016523Y031919D01*
X016394Y031790D01*
X016325Y031622D01*
X016325Y031441D01*
X016394Y031273D01*
X016523Y031144D01*
X016691Y031075D01*
X016572Y030939D02*
X008209Y030939D01*
X008276Y030780D02*
X016390Y030780D01*
X016325Y030622D02*
X016325Y030441D01*
X016381Y030305D02*
X008195Y030305D01*
X008006Y030146D02*
X016521Y030146D01*
X016928Y031097D02*
X065294Y031097D01*
X065294Y031256D02*
X017152Y031256D01*
X017228Y031414D02*
X065294Y031414D01*
X065294Y031573D02*
X017239Y031573D01*
X017193Y031732D02*
X065294Y031732D01*
X065294Y031890D02*
X017069Y031890D01*
X017041Y032144D02*
X017169Y032273D01*
X017239Y032441D01*
X017239Y032622D01*
X017169Y032790D01*
X017041Y032919D01*
X016873Y032988D01*
X016691Y032988D01*
X016523Y032919D01*
X016394Y032790D01*
X016325Y032622D01*
X016325Y032441D01*
X016394Y032273D01*
X016523Y032144D01*
X016691Y032075D01*
X016873Y032075D01*
X017041Y032144D01*
X017104Y032207D02*
X065294Y032207D01*
X065294Y032049D02*
X009068Y032049D01*
X009208Y031890D02*
X016494Y031890D01*
X016370Y031732D02*
X009274Y031732D01*
X009278Y031573D02*
X016325Y031573D01*
X016336Y031414D02*
X009241Y031414D01*
X009147Y031256D02*
X016411Y031256D01*
X016460Y032207D02*
X004221Y032207D01*
X004328Y032366D02*
X016356Y032366D01*
X016325Y032524D02*
X004372Y032524D01*
X004376Y032645D02*
X003861Y032645D01*
X003861Y033160D01*
X003945Y033147D01*
X004030Y033120D01*
X004109Y033079D01*
X004181Y033027D01*
X004243Y032964D01*
X004295Y032893D01*
X004336Y032814D01*
X004363Y032729D01*
X004376Y032645D01*
X004371Y032683D02*
X016350Y032683D01*
X016446Y032841D02*
X004322Y032841D01*
X004208Y033000D02*
X065294Y033000D01*
X065294Y033158D02*
X017080Y033158D01*
X017092Y033168D02*
X017145Y033221D01*
X017190Y033281D01*
X017224Y033348D01*
X017247Y033420D01*
X017259Y033494D01*
X017259Y033513D01*
X016800Y033513D01*
X016800Y033055D01*
X016819Y033055D01*
X016893Y033066D01*
X016965Y033089D01*
X017032Y033124D01*
X017092Y033168D01*
X017208Y033317D02*
X065294Y033317D01*
X065294Y033476D02*
X017256Y033476D01*
X017259Y033550D02*
X017259Y033569D01*
X017247Y033643D01*
X017224Y033714D01*
X017190Y033781D01*
X017145Y033842D01*
X017092Y033895D01*
X017032Y033939D01*
X016965Y033973D01*
X016893Y033996D01*
X016819Y034008D01*
X016800Y034008D01*
X016800Y033550D01*
X016763Y033550D01*
X016763Y033513D01*
X016305Y033513D01*
X016305Y033494D01*
X016317Y033420D01*
X016340Y033348D01*
X016374Y033281D01*
X016418Y033221D01*
X016471Y033168D01*
X016532Y033124D01*
X016599Y033089D01*
X016670Y033066D01*
X016744Y033055D01*
X016763Y033055D01*
X016763Y033513D01*
X016800Y033513D01*
X016800Y033550D01*
X017259Y033550D01*
X017248Y033634D02*
X049320Y033634D01*
X049350Y033621D02*
X052570Y033621D01*
X052690Y033571D01*
X052873Y033571D01*
X052994Y033621D01*
X061644Y033621D01*
X061795Y033684D01*
X061910Y033799D01*
X061910Y033799D01*
X063078Y034967D01*
X063115Y034967D01*
X063304Y035045D01*
X063449Y035190D01*
X063527Y035379D01*
X063527Y035584D01*
X063449Y035773D01*
X063304Y035917D01*
X063115Y035996D01*
X062911Y035996D01*
X062721Y035917D01*
X062577Y035773D01*
X062499Y035584D01*
X062499Y035547D01*
X061393Y034441D01*
X052994Y034441D01*
X052873Y034491D01*
X052690Y034491D01*
X052570Y034441D01*
X049350Y034441D01*
X049199Y034379D01*
X049084Y034264D01*
X049022Y034113D01*
X049022Y033950D01*
X049084Y033799D01*
X049199Y033684D01*
X049350Y033621D01*
X049091Y033793D02*
X017181Y033793D01*
X017008Y033951D02*
X049022Y033951D01*
X049022Y034110D02*
X007896Y034110D01*
X007858Y034125D02*
X007642Y034125D01*
X007442Y034042D01*
X007289Y033889D01*
X007206Y033690D01*
X007206Y033473D01*
X007289Y033273D01*
X007442Y033120D01*
X007642Y033038D01*
X007858Y033038D01*
X008058Y033120D01*
X008211Y033273D01*
X008294Y033473D01*
X008294Y033690D01*
X008211Y033889D01*
X008058Y034042D01*
X007858Y034125D01*
X007604Y034110D02*
X004145Y034110D01*
X004294Y034268D02*
X049089Y034268D01*
X049315Y034427D02*
X004361Y034427D01*
X004376Y034614D02*
X003861Y034614D01*
X003861Y035129D01*
X003945Y035116D01*
X004030Y035088D01*
X004109Y035048D01*
X004181Y034996D01*
X004243Y034933D01*
X004295Y034861D01*
X004336Y034782D01*
X004363Y034698D01*
X004376Y034614D01*
X004348Y034744D02*
X061695Y034744D01*
X061537Y034585D02*
X003861Y034585D01*
X003861Y034427D02*
X003765Y034427D01*
X003765Y034268D02*
X003861Y034268D01*
X003861Y034110D02*
X003765Y034110D01*
X003481Y034110D02*
X003262Y034110D01*
X003262Y034268D02*
X003332Y034268D01*
X003265Y034427D02*
X003262Y034427D01*
X003262Y034744D02*
X003278Y034744D01*
X003262Y034902D02*
X003361Y034902D01*
X003262Y035061D02*
X003543Y035061D01*
X003765Y035061D02*
X003861Y035061D01*
X003861Y034902D02*
X003765Y034902D01*
X003765Y034744D02*
X003861Y034744D01*
X004083Y035061D02*
X008494Y035061D01*
X008426Y035089D02*
X008626Y035006D01*
X008843Y035006D01*
X009043Y035089D01*
X009196Y035242D01*
X009278Y035442D01*
X009278Y035658D01*
X009196Y035858D01*
X009043Y036011D01*
X008843Y036094D01*
X008626Y036094D01*
X008426Y036011D01*
X008273Y035858D01*
X008191Y035658D01*
X008191Y035442D01*
X008273Y035242D01*
X008426Y035089D01*
X008296Y035219D02*
X003262Y035219D01*
X003262Y035378D02*
X008217Y035378D01*
X008191Y035537D02*
X003262Y035537D01*
X003262Y035695D02*
X005319Y035695D01*
X005242Y035727D02*
X005592Y035582D01*
X005971Y035582D01*
X006321Y035727D01*
X006589Y035995D01*
X006734Y036345D01*
X006734Y036724D01*
X006589Y037074D01*
X006321Y037342D01*
X005971Y037487D01*
X005592Y037487D01*
X005242Y037342D01*
X004974Y037074D01*
X004829Y036724D01*
X004829Y036345D01*
X004974Y035995D01*
X005242Y035727D01*
X005115Y035854D02*
X003262Y035854D01*
X003262Y036012D02*
X004967Y036012D01*
X004901Y036171D02*
X003262Y036171D01*
X003262Y036329D02*
X004836Y036329D01*
X004829Y036488D02*
X003262Y036488D01*
X003262Y036646D02*
X004829Y036646D01*
X004863Y036805D02*
X003262Y036805D01*
X003262Y036963D02*
X004929Y036963D01*
X005023Y037122D02*
X003262Y037122D01*
X003262Y037281D02*
X005181Y037281D01*
X005478Y037439D02*
X003262Y037439D01*
X003262Y037598D02*
X061369Y037598D01*
X061396Y037663D02*
X061317Y037473D01*
X061317Y037269D01*
X061396Y037080D01*
X061540Y036935D01*
X061729Y036857D01*
X061934Y036857D01*
X062123Y036935D01*
X062268Y037080D01*
X062346Y037269D01*
X062346Y037473D01*
X062268Y037663D01*
X062123Y037807D01*
X061934Y037885D01*
X061729Y037885D01*
X061540Y037807D01*
X061396Y037663D01*
X061489Y037756D02*
X003262Y037756D01*
X003262Y037915D02*
X065294Y037915D01*
X065294Y038073D02*
X003262Y038073D01*
X003262Y038232D02*
X065294Y038232D01*
X065294Y038390D02*
X003262Y038390D01*
X003262Y038549D02*
X065294Y038549D01*
X065294Y038707D02*
X003262Y038707D01*
X003262Y038866D02*
X065294Y038866D01*
X065294Y039025D02*
X003262Y039025D01*
X006086Y037439D02*
X061317Y037439D01*
X061317Y037281D02*
X006382Y037281D01*
X006541Y037122D02*
X061378Y037122D01*
X061512Y036963D02*
X008118Y036963D01*
X008118Y036964D02*
X008046Y037016D01*
X007967Y037057D01*
X007882Y037084D01*
X007798Y037097D01*
X007798Y036582D01*
X007702Y036582D01*
X007702Y036486D01*
X007187Y036486D01*
X007200Y036402D01*
X007228Y036318D01*
X007268Y036239D01*
X007320Y036167D01*
X007383Y036104D01*
X007455Y036052D01*
X007534Y036012D01*
X007618Y035984D01*
X007702Y035971D01*
X007702Y036486D01*
X007798Y036486D01*
X007798Y035971D01*
X007882Y035984D01*
X007967Y036012D01*
X008046Y036052D01*
X008118Y036104D01*
X008180Y036167D01*
X008232Y036239D01*
X008273Y036318D01*
X008300Y036402D01*
X008313Y036486D01*
X007798Y036486D01*
X007798Y036582D01*
X008313Y036582D01*
X008300Y036666D01*
X008273Y036751D01*
X008232Y036830D01*
X008180Y036901D01*
X008118Y036964D01*
X008245Y036805D02*
X057459Y036805D01*
X057523Y036869D02*
X057394Y036740D01*
X057325Y036572D01*
X057325Y036391D01*
X057394Y036223D01*
X057523Y036094D01*
X057691Y036025D01*
X057873Y036025D01*
X058041Y036094D01*
X058169Y036223D01*
X058239Y036391D01*
X058239Y036572D01*
X058169Y036740D01*
X058041Y036869D01*
X057873Y036938D01*
X057691Y036938D01*
X057523Y036869D01*
X057356Y036646D02*
X008303Y036646D01*
X008276Y036329D02*
X052429Y036329D01*
X052392Y036292D02*
X052322Y036123D01*
X052322Y035940D01*
X052392Y035771D01*
X052521Y035641D01*
X052690Y035571D01*
X052873Y035571D01*
X053042Y035641D01*
X053172Y035771D01*
X053242Y035940D01*
X053242Y036123D01*
X053172Y036292D01*
X053042Y036421D01*
X052873Y036491D01*
X052690Y036491D01*
X052521Y036421D01*
X052392Y036292D01*
X052342Y036171D02*
X008183Y036171D01*
X007968Y036012D02*
X008429Y036012D01*
X008272Y035854D02*
X006448Y035854D01*
X006596Y036012D02*
X007533Y036012D01*
X007702Y036012D02*
X007798Y036012D01*
X007798Y036171D02*
X007702Y036171D01*
X007702Y036329D02*
X007798Y036329D01*
X007798Y036488D02*
X052682Y036488D01*
X052882Y036488D02*
X057325Y036488D01*
X057350Y036329D02*
X053134Y036329D01*
X053222Y036171D02*
X057446Y036171D01*
X057523Y035869D02*
X057394Y035740D01*
X057325Y035572D01*
X057325Y035391D01*
X057394Y035223D01*
X057523Y035094D01*
X057691Y035025D01*
X057873Y035025D01*
X058041Y035094D01*
X058169Y035223D01*
X058239Y035391D01*
X058239Y035572D01*
X058169Y035740D01*
X058041Y035869D01*
X057873Y035938D01*
X057691Y035938D01*
X057523Y035869D01*
X057508Y035854D02*
X053206Y035854D01*
X053242Y036012D02*
X065294Y036012D01*
X065294Y035854D02*
X063368Y035854D01*
X063481Y035695D02*
X065294Y035695D01*
X065294Y035537D02*
X063527Y035537D01*
X063527Y035378D02*
X065294Y035378D01*
X065294Y035219D02*
X063461Y035219D01*
X063320Y035061D02*
X065294Y035061D01*
X065294Y034902D02*
X063014Y034902D01*
X062855Y034744D02*
X065294Y034744D01*
X065294Y034585D02*
X062696Y034585D01*
X062538Y034427D02*
X065294Y034427D01*
X065294Y034268D02*
X062379Y034268D01*
X062221Y034110D02*
X065294Y034110D01*
X065294Y033951D02*
X062062Y033951D01*
X061904Y033793D02*
X065294Y033793D01*
X065294Y033634D02*
X061675Y033634D01*
X061854Y034902D02*
X004266Y034902D01*
X003262Y033951D02*
X007351Y033951D01*
X007249Y033793D02*
X003262Y033793D01*
X003262Y033634D02*
X007206Y033634D01*
X007206Y033476D02*
X003262Y033476D01*
X003262Y033317D02*
X007271Y033317D01*
X007404Y033158D02*
X003874Y033158D01*
X003861Y033158D02*
X003765Y033158D01*
X003753Y033158D02*
X003262Y033158D01*
X003262Y033000D02*
X003419Y033000D01*
X003305Y032841D02*
X003262Y032841D01*
X003262Y032366D02*
X003298Y032366D01*
X003262Y032207D02*
X003406Y032207D01*
X003262Y032049D02*
X003677Y032049D01*
X003765Y032049D02*
X003861Y032049D01*
X003950Y032049D02*
X008401Y032049D01*
X008261Y031890D02*
X003262Y031890D01*
X003262Y031732D02*
X008195Y031732D01*
X008191Y031573D02*
X005991Y031573D01*
X006343Y031414D02*
X008228Y031414D01*
X008322Y031256D02*
X006501Y031256D01*
X005573Y031573D02*
X003262Y031573D01*
X003262Y031414D02*
X005221Y031414D01*
X005062Y031256D02*
X003262Y031256D01*
X003262Y031097D02*
X004945Y031097D01*
X004879Y030939D02*
X003262Y030939D01*
X003262Y030780D02*
X004829Y030780D01*
X004829Y030622D02*
X003262Y030622D01*
X003262Y030463D02*
X004829Y030463D01*
X004885Y030305D02*
X003262Y030305D01*
X003262Y030146D02*
X004951Y030146D01*
X005076Y029988D02*
X003262Y029988D01*
X003262Y029829D02*
X005234Y029829D01*
X006329Y029829D02*
X024484Y029829D01*
X024539Y029670D02*
X003262Y029670D01*
X003262Y029512D02*
X024600Y029512D01*
X024502Y029353D02*
X003262Y029353D01*
X003262Y029195D02*
X024484Y029195D01*
X024532Y029036D02*
X003262Y029036D01*
X003262Y028878D02*
X024616Y028878D01*
X024509Y028719D02*
X003262Y028719D01*
X003262Y028561D02*
X005409Y028561D01*
X005242Y028492D02*
X004974Y028224D01*
X004829Y027874D01*
X004829Y027495D01*
X004974Y027145D01*
X005242Y026877D01*
X005592Y026732D01*
X005971Y026732D01*
X006321Y026877D01*
X006589Y027145D01*
X006734Y027495D01*
X006734Y027874D01*
X006589Y028224D01*
X006321Y028492D01*
X005971Y028637D01*
X005592Y028637D01*
X005242Y028492D01*
X005153Y028402D02*
X003262Y028402D01*
X003262Y028244D02*
X004994Y028244D01*
X004917Y028085D02*
X003262Y028085D01*
X003262Y027926D02*
X004851Y027926D01*
X004829Y027768D02*
X003262Y027768D01*
X003262Y027609D02*
X004829Y027609D01*
X004847Y027451D02*
X003262Y027451D01*
X003262Y027292D02*
X004913Y027292D01*
X004985Y027134D02*
X003262Y027134D01*
X003262Y026975D02*
X005144Y026975D01*
X005387Y026817D02*
X003262Y026817D01*
X003262Y026658D02*
X008191Y026658D01*
X008194Y026817D02*
X006176Y026817D01*
X006420Y026975D02*
X008260Y026975D01*
X008399Y027134D02*
X007880Y027134D01*
X007798Y027134D02*
X007702Y027134D01*
X007621Y027134D02*
X006578Y027134D01*
X006650Y027292D02*
X007345Y027292D01*
X007236Y027451D02*
X006716Y027451D01*
X006734Y027609D02*
X007191Y027609D01*
X007193Y027768D02*
X006734Y027768D01*
X006712Y027926D02*
X007241Y027926D01*
X007354Y028085D02*
X006647Y028085D01*
X006569Y028244D02*
X007678Y028244D01*
X007702Y028244D02*
X007798Y028244D01*
X007822Y028244D02*
X016661Y028244D01*
X016763Y028244D02*
X016800Y028244D01*
X016902Y028244D02*
X024659Y028244D01*
X024526Y028402D02*
X006411Y028402D01*
X006154Y028561D02*
X024484Y028561D01*
X025105Y028244D02*
X031529Y028244D01*
X031734Y028244D02*
X060844Y028244D01*
X063324Y026975D02*
X065294Y026975D01*
X065294Y026817D02*
X049882Y026817D01*
X049882Y026658D02*
X064481Y026658D01*
X064573Y026658D02*
X064733Y026658D01*
X064826Y026658D02*
X065294Y026658D01*
X065294Y026500D02*
X065182Y026500D01*
X064733Y026500D02*
X064573Y026500D01*
X064573Y026341D02*
X064733Y026341D01*
X064733Y026183D02*
X064573Y026183D01*
X064573Y026024D02*
X064733Y026024D01*
X064733Y025865D02*
X064573Y025865D01*
X064573Y025707D02*
X063544Y025707D01*
X063544Y025650D02*
X063443Y025406D01*
X063257Y025220D01*
X063013Y025119D01*
X062750Y025119D01*
X062507Y025220D01*
X062321Y025406D01*
X062220Y025650D01*
X062220Y025913D01*
X062321Y026156D01*
X062507Y026343D01*
X062750Y026443D01*
X063013Y026443D01*
X063257Y026343D01*
X063443Y026156D01*
X063544Y025913D01*
X063544Y025650D01*
X063502Y025548D02*
X063793Y025548D01*
X063850Y025390D02*
X063426Y025390D01*
X063268Y025231D02*
X063951Y025231D01*
X064112Y025073D02*
X049882Y025073D01*
X049882Y025231D02*
X062496Y025231D01*
X062337Y025390D02*
X049882Y025390D01*
X049882Y025548D02*
X062262Y025548D01*
X062220Y025707D02*
X049882Y025707D01*
X049882Y025865D02*
X062220Y025865D01*
X062266Y026024D02*
X049882Y026024D01*
X049882Y026183D02*
X062347Y026183D01*
X062505Y026341D02*
X049882Y026341D01*
X049882Y026500D02*
X064124Y026500D01*
X063959Y026341D02*
X063258Y026341D01*
X063417Y026183D02*
X063855Y026183D01*
X063795Y026024D02*
X063498Y026024D01*
X063544Y025865D02*
X063765Y025865D01*
X064573Y025548D02*
X064733Y025548D01*
X064733Y025390D02*
X064573Y025390D01*
X064573Y025231D02*
X064733Y025231D01*
X064733Y025073D02*
X064573Y025073D01*
X064573Y024914D02*
X064733Y024914D01*
X064862Y024914D02*
X065294Y024914D01*
X065294Y024756D02*
X049882Y024756D01*
X049882Y024914D02*
X064444Y024914D01*
X065195Y025073D02*
X065294Y025073D01*
X065294Y024597D02*
X063307Y024597D01*
X063277Y024614D02*
X063169Y024659D01*
X063056Y024689D01*
X062962Y024702D01*
X062962Y023893D01*
X063771Y023893D01*
X063758Y023987D01*
X063728Y024100D01*
X063683Y024208D01*
X063625Y024309D01*
X063554Y024402D01*
X063471Y024485D01*
X063378Y024556D01*
X063277Y024614D01*
X063517Y024439D02*
X065294Y024439D01*
X065294Y024280D02*
X063642Y024280D01*
X063719Y024121D02*
X065294Y024121D01*
X065294Y023963D02*
X063761Y023963D01*
X063771Y023733D02*
X062962Y023733D01*
X062962Y023893D01*
X062802Y023893D01*
X062802Y024702D01*
X062707Y024689D01*
X062594Y024659D01*
X062486Y024614D01*
X062385Y024556D01*
X062292Y024485D01*
X062210Y024402D01*
X062139Y024309D01*
X062080Y024208D01*
X062035Y024100D01*
X062032Y024087D01*
X061935Y024185D01*
X061803Y024239D01*
X061660Y024239D01*
X061529Y024185D01*
X061428Y024084D01*
X061374Y023953D01*
X061374Y023810D01*
X061428Y023679D01*
X061529Y023578D01*
X061660Y023523D01*
X061803Y023523D01*
X061935Y023578D01*
X062004Y023647D01*
X062005Y023639D01*
X062035Y023526D01*
X062080Y023418D01*
X062139Y023316D01*
X062210Y023224D01*
X062292Y023141D01*
X062385Y023070D01*
X062486Y023011D01*
X062594Y022967D01*
X062707Y022936D01*
X062802Y022924D01*
X062802Y023733D01*
X062962Y023733D01*
X062962Y022924D01*
X063056Y022936D01*
X063169Y022967D01*
X063277Y023011D01*
X063378Y023070D01*
X063471Y023141D01*
X063554Y023224D01*
X063625Y023316D01*
X063683Y023418D01*
X063728Y023526D01*
X063758Y023639D01*
X063771Y023733D01*
X063759Y023646D02*
X065294Y023646D01*
X065294Y023804D02*
X062962Y023804D01*
X062962Y023646D02*
X062802Y023646D01*
X062802Y023487D02*
X062962Y023487D01*
X062962Y023329D02*
X062802Y023329D01*
X062802Y023170D02*
X062962Y023170D01*
X062962Y023012D02*
X062802Y023012D01*
X062486Y023012D02*
X049882Y023012D01*
X049882Y023170D02*
X062263Y023170D01*
X062131Y023329D02*
X049882Y023329D01*
X049882Y023487D02*
X062051Y023487D01*
X062004Y023646D02*
X062003Y023646D01*
X061998Y024121D02*
X062044Y024121D01*
X062122Y024280D02*
X049882Y024280D01*
X049882Y024439D02*
X062246Y024439D01*
X062456Y024597D02*
X049882Y024597D01*
X049882Y024121D02*
X061465Y024121D01*
X061378Y023963D02*
X049882Y023963D01*
X049882Y023804D02*
X061376Y023804D01*
X061461Y023646D02*
X049882Y023646D01*
X049432Y023487D02*
X041903Y023487D01*
X041942Y023329D02*
X049432Y023329D01*
X049432Y023170D02*
X041925Y023170D01*
X041842Y023012D02*
X049432Y023012D01*
X049432Y022853D02*
X041601Y022853D01*
X041573Y022761D02*
X041390Y022761D01*
X041221Y022691D01*
X041092Y022562D01*
X041022Y022393D01*
X041022Y022210D01*
X041092Y022041D01*
X041221Y021911D01*
X041390Y021841D01*
X041573Y021841D01*
X041742Y021911D01*
X041872Y022041D01*
X041942Y022210D01*
X041942Y022393D01*
X041872Y022562D01*
X041742Y022691D01*
X041573Y022761D01*
X041735Y022695D02*
X049432Y022695D01*
X049432Y022536D02*
X041882Y022536D01*
X041942Y022377D02*
X049432Y022377D01*
X049432Y022219D02*
X041942Y022219D01*
X041880Y022060D02*
X049432Y022060D01*
X049432Y021902D02*
X041719Y021902D01*
X041617Y021743D02*
X049432Y021743D01*
X049432Y021585D02*
X041849Y021585D01*
X041872Y021562D02*
X041742Y021691D01*
X041573Y021761D01*
X041390Y021761D01*
X041221Y021691D01*
X041092Y021562D01*
X041022Y021393D01*
X041022Y021210D01*
X041092Y021041D01*
X041221Y020911D01*
X041390Y020841D01*
X041573Y020841D01*
X041742Y020911D01*
X041872Y021041D01*
X041942Y021210D01*
X041942Y021393D01*
X041872Y021562D01*
X041928Y021426D02*
X049432Y021426D01*
X049432Y021268D02*
X041942Y021268D01*
X041900Y021109D02*
X049432Y021109D01*
X049432Y020951D02*
X041781Y020951D01*
X041666Y020746D02*
X041594Y020770D01*
X041519Y020781D01*
X041502Y020781D01*
X041502Y020322D01*
X041462Y020322D01*
X041462Y020781D01*
X041444Y020781D01*
X041369Y020770D01*
X041297Y020746D01*
X041230Y020712D01*
X041169Y020668D01*
X041116Y020614D01*
X041071Y020553D01*
X041037Y020486D01*
X041014Y020414D01*
X041002Y020339D01*
X041002Y020321D01*
X041461Y020321D01*
X041461Y020281D01*
X041002Y020281D01*
X041002Y020264D01*
X041014Y020189D01*
X041037Y020117D01*
X041071Y020050D01*
X041116Y019989D01*
X041169Y019935D01*
X041230Y019891D01*
X041297Y019857D01*
X041369Y019833D01*
X041444Y019821D01*
X041462Y019821D01*
X041462Y020281D01*
X041502Y020281D01*
X041502Y019821D01*
X041519Y019821D01*
X041594Y019833D01*
X041666Y019857D01*
X041733Y019891D01*
X041794Y019935D01*
X041848Y019989D01*
X041892Y020050D01*
X041927Y020117D01*
X041950Y020189D01*
X041962Y020264D01*
X041962Y020281D01*
X041502Y020281D01*
X041502Y020321D01*
X041962Y020321D01*
X041962Y020339D01*
X041950Y020414D01*
X041927Y020486D01*
X041892Y020553D01*
X041848Y020614D01*
X041794Y020668D01*
X041733Y020712D01*
X041666Y020746D01*
X041828Y020634D02*
X049432Y020634D01*
X049432Y020792D02*
X036592Y020792D01*
X036568Y020634D02*
X040163Y020634D01*
X040056Y020475D02*
X036476Y020475D01*
X036560Y020951D02*
X040182Y020951D01*
X040781Y020951D02*
X041182Y020951D01*
X041063Y021109D02*
X040900Y021109D01*
X040942Y021268D02*
X041022Y021268D01*
X041036Y021426D02*
X040928Y021426D01*
X040849Y021585D02*
X041115Y021585D01*
X041347Y021743D02*
X040617Y021743D01*
X040719Y021902D02*
X041244Y021902D01*
X041084Y022060D02*
X040880Y022060D01*
X040942Y022219D02*
X041022Y022219D01*
X041022Y022377D02*
X040942Y022377D01*
X040882Y022536D02*
X041081Y022536D01*
X041229Y022695D02*
X040735Y022695D01*
X040601Y022853D02*
X041362Y022853D01*
X041121Y023012D02*
X040842Y023012D01*
X040925Y023170D02*
X041038Y023170D01*
X041022Y023329D02*
X040942Y023329D01*
X040903Y023487D02*
X041061Y023487D01*
X041176Y023646D02*
X040788Y023646D01*
X040794Y023963D02*
X041170Y023963D01*
X041058Y024121D02*
X040905Y024121D01*
X040942Y024280D02*
X041022Y024280D01*
X041041Y024439D02*
X040923Y024439D01*
X040837Y024597D02*
X041127Y024597D01*
X041376Y024756D02*
X040587Y024756D01*
X040573Y024841D02*
X040742Y024911D01*
X040872Y025041D01*
X040942Y025210D01*
X040942Y025393D01*
X040872Y025562D01*
X040742Y025691D01*
X040573Y025761D01*
X040390Y025761D01*
X040221Y025691D01*
X040092Y025562D01*
X040022Y025393D01*
X040022Y025210D01*
X040092Y025041D01*
X040221Y024911D01*
X040390Y024841D01*
X040573Y024841D01*
X040745Y024914D02*
X041218Y024914D01*
X041079Y025073D02*
X040885Y025073D01*
X040942Y025231D02*
X041022Y025231D01*
X041022Y025390D02*
X040942Y025390D01*
X040877Y025548D02*
X041086Y025548D01*
X041259Y025707D02*
X040705Y025707D01*
X040631Y025865D02*
X041332Y025865D01*
X041109Y026024D02*
X040855Y026024D01*
X040872Y026041D02*
X040942Y026210D01*
X040942Y026393D01*
X040872Y026562D01*
X040742Y026691D01*
X040573Y026761D01*
X040390Y026761D01*
X040221Y026691D01*
X040092Y026562D01*
X040022Y026393D01*
X040022Y026210D01*
X040092Y026041D01*
X040221Y025911D01*
X040390Y025841D01*
X040573Y025841D01*
X040742Y025911D01*
X040872Y026041D01*
X040930Y026183D02*
X041033Y026183D01*
X041022Y026341D02*
X040942Y026341D01*
X040898Y026500D02*
X041066Y026500D01*
X041188Y026658D02*
X040775Y026658D01*
X040742Y026911D02*
X040872Y027041D01*
X040942Y027210D01*
X040942Y027393D01*
X040872Y027562D01*
X040742Y027691D01*
X040573Y027761D01*
X040390Y027761D01*
X040221Y027691D01*
X040092Y027562D01*
X040022Y027393D01*
X040022Y027210D01*
X040092Y027041D01*
X040221Y026911D01*
X040390Y026841D01*
X040573Y026841D01*
X040742Y026911D01*
X040806Y026975D02*
X041157Y026975D01*
X041053Y027134D02*
X040910Y027134D01*
X040942Y027292D02*
X041022Y027292D01*
X041046Y027451D02*
X040918Y027451D01*
X040824Y027609D02*
X041139Y027609D01*
X041165Y028561D02*
X050701Y028561D01*
X050684Y028719D02*
X041575Y028719D01*
X041776Y028878D02*
X050733Y028878D01*
X050815Y029036D02*
X041914Y029036D01*
X042006Y029195D02*
X050708Y029195D01*
X050684Y029353D02*
X042064Y029353D01*
X042106Y029512D02*
X050726Y029512D01*
X050831Y029670D02*
X042112Y029670D01*
X042112Y029829D02*
X050715Y029829D01*
X050684Y029988D02*
X042070Y029988D01*
X042018Y030146D02*
X050720Y030146D01*
X050799Y028402D02*
X031965Y028402D01*
X032029Y028561D02*
X040798Y028561D01*
X040388Y028719D02*
X032026Y028719D01*
X031947Y028878D02*
X040187Y028878D01*
X040139Y027609D02*
X023716Y027609D01*
X023812Y027451D02*
X040046Y027451D01*
X040022Y027292D02*
X023829Y027292D01*
X023780Y027134D02*
X040053Y027134D01*
X040157Y026975D02*
X023610Y026975D01*
X023253Y026975D02*
X022960Y026975D01*
X022603Y026975D02*
X022310Y026975D01*
X022416Y027609D02*
X022498Y027609D01*
X023066Y027609D02*
X023148Y027609D01*
X021848Y027609D02*
X017227Y027609D01*
X016800Y027609D02*
X016763Y027609D01*
X016763Y027451D02*
X016800Y027451D01*
X016488Y027134D02*
X009070Y027134D01*
X009209Y026975D02*
X016368Y026975D01*
X016325Y026817D02*
X009275Y026817D01*
X009278Y026658D02*
X016338Y026658D01*
X016417Y026500D02*
X009240Y026500D01*
X009145Y026341D02*
X016651Y026341D01*
X016912Y026341D02*
X040022Y026341D01*
X040033Y026183D02*
X036396Y026183D01*
X036547Y026024D02*
X040109Y026024D01*
X040332Y025865D02*
X036604Y025865D01*
X036606Y025707D02*
X040259Y025707D01*
X040086Y025548D02*
X036552Y025548D01*
X036409Y025390D02*
X040022Y025390D01*
X040022Y025231D02*
X036248Y025231D01*
X036491Y025073D02*
X040079Y025073D01*
X040218Y024914D02*
X036575Y024914D01*
X036592Y024756D02*
X040376Y024756D01*
X040127Y024597D02*
X036553Y024597D01*
X036439Y024439D02*
X040041Y024439D01*
X040061Y023487D02*
X036488Y023487D01*
X036241Y023329D02*
X040022Y023329D01*
X040038Y023170D02*
X036393Y023170D01*
X036534Y023012D02*
X040121Y023012D01*
X040362Y022853D02*
X036592Y022853D01*
X036592Y022695D02*
X040229Y022695D01*
X040081Y022536D02*
X036528Y022536D01*
X036359Y022377D02*
X040022Y022377D01*
X040800Y020634D02*
X041135Y020634D01*
X041033Y020475D02*
X040908Y020475D01*
X040942Y020316D02*
X041461Y020316D01*
X041502Y020316D02*
X049432Y020316D01*
X049432Y020158D02*
X041940Y020158D01*
X041856Y019999D02*
X049432Y019999D01*
X049432Y019841D02*
X041617Y019841D01*
X041573Y019761D02*
X041390Y019761D01*
X041221Y019691D01*
X041092Y019562D01*
X041022Y019393D01*
X041022Y019210D01*
X041092Y019041D01*
X041221Y018911D01*
X041390Y018841D01*
X041573Y018841D01*
X041742Y018911D01*
X041872Y019041D01*
X041942Y019210D01*
X041942Y019393D01*
X041872Y019562D01*
X041742Y019691D01*
X041573Y019761D01*
X041502Y019841D02*
X041462Y019841D01*
X041346Y019841D02*
X030382Y019841D01*
X035427Y021426D02*
X035836Y021426D01*
X035715Y021585D02*
X035548Y021585D01*
X035592Y021743D02*
X035672Y021743D01*
X035684Y021902D02*
X035580Y021902D01*
X035503Y022060D02*
X035760Y022060D01*
X035809Y021109D02*
X035454Y021109D01*
X035560Y020951D02*
X035704Y020951D01*
X035672Y020792D02*
X035592Y020792D01*
X035568Y020634D02*
X035695Y020634D01*
X035788Y020475D02*
X035476Y020475D01*
X040751Y019682D02*
X041212Y019682D01*
X041076Y019524D02*
X040888Y019524D01*
X040942Y019365D02*
X041022Y019365D01*
X041023Y019207D02*
X040940Y019207D01*
X040875Y019048D02*
X041089Y019048D01*
X041274Y018890D02*
X040689Y018890D01*
X040647Y018731D02*
X041317Y018731D01*
X041390Y018761D02*
X041221Y018691D01*
X041092Y018562D01*
X041022Y018393D01*
X041022Y018210D01*
X041092Y018041D01*
X041221Y017911D01*
X041390Y017841D01*
X041573Y017841D01*
X041742Y017911D01*
X041872Y018041D01*
X041942Y018210D01*
X041942Y018393D01*
X041872Y018562D01*
X041742Y018691D01*
X041573Y018761D01*
X041390Y018761D01*
X041647Y018731D02*
X049432Y018731D01*
X049432Y018890D02*
X041689Y018890D01*
X041875Y019048D02*
X049432Y019048D01*
X049432Y019207D02*
X041940Y019207D01*
X041942Y019365D02*
X049432Y019365D01*
X049432Y019524D02*
X041888Y019524D01*
X041751Y019682D02*
X049432Y019682D01*
X049882Y019682D02*
X061427Y019682D01*
X061428Y019679D02*
X061529Y019578D01*
X061660Y019523D01*
X061803Y019523D01*
X061935Y019578D01*
X062035Y019679D01*
X062090Y019810D01*
X062090Y019953D01*
X062035Y020084D01*
X061935Y020185D01*
X061803Y020239D01*
X061660Y020239D01*
X061529Y020185D01*
X061428Y020084D01*
X061374Y019953D01*
X061374Y019810D01*
X061428Y019679D01*
X061374Y019841D02*
X049882Y019841D01*
X049882Y019999D02*
X057202Y019999D01*
X057207Y019994D02*
X057353Y019934D01*
X057511Y019934D01*
X057657Y019994D01*
X057769Y020106D01*
X057829Y020252D01*
X057829Y020410D01*
X057769Y020557D01*
X057657Y020668D01*
X057511Y020729D01*
X057353Y020729D01*
X057207Y020668D01*
X057095Y020557D01*
X057034Y020410D01*
X057034Y020252D01*
X057095Y020106D01*
X057207Y019994D01*
X057073Y020158D02*
X049882Y020158D01*
X049882Y020316D02*
X057034Y020316D01*
X057061Y020475D02*
X049882Y020475D01*
X049882Y020634D02*
X057172Y020634D01*
X057692Y020634D02*
X059293Y020634D01*
X059293Y020649D02*
X059293Y020514D01*
X059345Y020390D01*
X059440Y020295D01*
X059564Y020243D01*
X059699Y020243D01*
X059823Y020295D01*
X059919Y020390D01*
X059970Y020514D01*
X059970Y020649D01*
X059919Y020773D01*
X059823Y020868D01*
X059699Y020920D01*
X059564Y020920D01*
X059440Y020868D01*
X059345Y020773D01*
X059293Y020649D01*
X059364Y020792D02*
X049882Y020792D01*
X049882Y020951D02*
X062606Y020951D01*
X062594Y020954D02*
X062707Y020923D01*
X062802Y020911D01*
X062802Y021720D01*
X062962Y021720D01*
X062962Y021880D01*
X063771Y021880D01*
X063758Y021974D01*
X063728Y022087D01*
X063683Y022195D01*
X063625Y022296D01*
X063554Y022389D01*
X063471Y022472D01*
X063378Y022543D01*
X063277Y022601D01*
X063169Y022646D01*
X063056Y022676D01*
X062962Y022689D01*
X062962Y021880D01*
X062802Y021880D01*
X062802Y022689D01*
X062707Y022676D01*
X062594Y022646D01*
X062486Y022601D01*
X062385Y022543D01*
X062292Y022472D01*
X062210Y022389D01*
X062139Y022296D01*
X062080Y022195D01*
X062035Y022087D01*
X062005Y021974D01*
X061993Y021880D01*
X062802Y021880D01*
X062802Y021720D01*
X061993Y021720D01*
X062005Y021626D01*
X062035Y021513D01*
X062080Y021405D01*
X062139Y021303D01*
X062210Y021211D01*
X062292Y021128D01*
X062385Y021057D01*
X062486Y020998D01*
X062594Y020954D01*
X062802Y020951D02*
X062962Y020951D01*
X062962Y020911D02*
X063056Y020923D01*
X063169Y020954D01*
X063277Y020998D01*
X063378Y021057D01*
X063471Y021128D01*
X063554Y021211D01*
X063625Y021303D01*
X063683Y021405D01*
X063728Y021513D01*
X063758Y021626D01*
X063771Y021720D01*
X062962Y021720D01*
X062962Y020911D01*
X062962Y021109D02*
X062802Y021109D01*
X062802Y021268D02*
X062962Y021268D01*
X062962Y021426D02*
X062802Y021426D01*
X062802Y021585D02*
X062962Y021585D01*
X062962Y021743D02*
X065294Y021743D01*
X065294Y021585D02*
X063747Y021585D01*
X063692Y021426D02*
X065294Y021426D01*
X065294Y021268D02*
X063597Y021268D01*
X063446Y021109D02*
X065294Y021109D01*
X065294Y020951D02*
X063158Y020951D01*
X063013Y020493D02*
X062750Y020493D01*
X062507Y020393D01*
X062321Y020206D01*
X062220Y019963D01*
X062220Y019700D01*
X062321Y019456D01*
X062507Y019270D01*
X062750Y019169D01*
X063013Y019169D01*
X063257Y019270D01*
X063443Y019456D01*
X063544Y019700D01*
X063544Y019963D01*
X063443Y020206D01*
X063257Y020393D01*
X063013Y020493D01*
X063058Y020475D02*
X064036Y020475D01*
X063904Y020316D02*
X063333Y020316D01*
X063463Y020158D02*
X063823Y020158D01*
X063776Y019999D02*
X063529Y019999D01*
X063544Y019841D02*
X064573Y019841D01*
X064573Y019999D02*
X064733Y019999D01*
X064733Y020158D02*
X064573Y020158D01*
X064573Y020316D02*
X064733Y020316D01*
X064733Y020475D02*
X064573Y020475D01*
X064573Y020634D02*
X064733Y020634D01*
X065047Y020634D02*
X065294Y020634D01*
X065294Y020792D02*
X059900Y020792D01*
X059970Y020634D02*
X064259Y020634D01*
X065271Y020475D02*
X065294Y020475D01*
X064733Y019682D02*
X064573Y019682D01*
X064573Y019524D02*
X064733Y019524D01*
X064733Y019365D02*
X064573Y019365D01*
X064573Y019207D02*
X064733Y019207D01*
X064733Y019048D02*
X064573Y019048D01*
X064226Y019048D02*
X054627Y019048D01*
X054669Y019090D02*
X054573Y018995D01*
X054449Y018943D01*
X054314Y018943D01*
X054190Y018995D01*
X054095Y019090D01*
X054043Y019214D01*
X054043Y019349D01*
X054095Y019473D01*
X054190Y019568D01*
X054314Y019620D01*
X054449Y019620D01*
X054573Y019568D01*
X054669Y019473D01*
X054720Y019349D01*
X054720Y019214D01*
X054669Y019090D01*
X054717Y019207D02*
X062660Y019207D01*
X062412Y019365D02*
X054713Y019365D01*
X054618Y019524D02*
X061659Y019524D01*
X061804Y019524D02*
X062293Y019524D01*
X062227Y019682D02*
X062037Y019682D01*
X062090Y019841D02*
X062220Y019841D01*
X062235Y019999D02*
X062070Y019999D01*
X061962Y020158D02*
X062300Y020158D01*
X062431Y020316D02*
X059845Y020316D01*
X059954Y020475D02*
X062706Y020475D01*
X062317Y021109D02*
X049882Y021109D01*
X049882Y021268D02*
X062166Y021268D01*
X062071Y021426D02*
X049882Y021426D01*
X049882Y021585D02*
X060114Y021585D01*
X060090Y021595D02*
X060214Y021543D01*
X060349Y021543D01*
X060473Y021595D01*
X060569Y021690D01*
X060620Y021814D01*
X060620Y021949D01*
X060569Y022073D01*
X060552Y022089D01*
X060664Y022043D01*
X060799Y022043D01*
X060923Y022095D01*
X061019Y022190D01*
X061070Y022314D01*
X061070Y022449D01*
X061019Y022573D01*
X060923Y022668D01*
X060799Y022720D01*
X060664Y022720D01*
X060540Y022668D01*
X060445Y022573D01*
X060393Y022449D01*
X060393Y022314D01*
X060445Y022190D01*
X060461Y022173D01*
X060349Y022220D01*
X060231Y022220D01*
X060270Y022314D01*
X060270Y022449D01*
X060219Y022573D01*
X060123Y022668D01*
X059999Y022720D01*
X059864Y022720D01*
X059740Y022668D01*
X059645Y022573D01*
X059593Y022449D01*
X059593Y022314D01*
X059645Y022190D01*
X059740Y022095D01*
X059864Y022043D01*
X059982Y022043D01*
X059943Y021949D01*
X059943Y021814D01*
X059995Y021690D01*
X060090Y021595D01*
X059973Y021743D02*
X049882Y021743D01*
X049882Y021902D02*
X059943Y021902D01*
X059822Y022060D02*
X052075Y022060D01*
X052011Y022034D02*
X052157Y022094D01*
X052269Y022206D01*
X052329Y022352D01*
X052329Y022510D01*
X052269Y022657D01*
X052157Y022768D01*
X052011Y022829D01*
X051853Y022829D01*
X051707Y022768D01*
X051607Y022668D01*
X051507Y022768D01*
X051361Y022829D01*
X051203Y022829D01*
X051057Y022768D01*
X050957Y022668D01*
X050857Y022768D01*
X050711Y022829D01*
X050553Y022829D01*
X050407Y022768D01*
X050295Y022657D01*
X050234Y022510D01*
X050234Y022352D01*
X050295Y022206D01*
X050407Y022094D01*
X050553Y022034D01*
X050711Y022034D01*
X050857Y022094D01*
X050957Y022194D01*
X051057Y022094D01*
X051203Y022034D01*
X051361Y022034D01*
X051507Y022094D01*
X051607Y022194D01*
X051707Y022094D01*
X051853Y022034D01*
X052011Y022034D01*
X051789Y022060D02*
X051425Y022060D01*
X051139Y022060D02*
X050775Y022060D01*
X050489Y022060D02*
X049882Y022060D01*
X049882Y022219D02*
X050289Y022219D01*
X050234Y022377D02*
X049882Y022377D01*
X049882Y022536D02*
X050245Y022536D01*
X050333Y022695D02*
X049882Y022695D01*
X049882Y022853D02*
X065294Y022853D01*
X065294Y022695D02*
X060860Y022695D01*
X061034Y022536D02*
X062376Y022536D01*
X062201Y022377D02*
X061070Y022377D01*
X061031Y022219D02*
X062094Y022219D01*
X062028Y022060D02*
X060841Y022060D01*
X060622Y022060D02*
X060574Y022060D01*
X060620Y021902D02*
X061996Y021902D01*
X062016Y021585D02*
X060450Y021585D01*
X060591Y021743D02*
X062802Y021743D01*
X062802Y021902D02*
X062962Y021902D01*
X062962Y022060D02*
X062802Y022060D01*
X062802Y022219D02*
X062962Y022219D01*
X062962Y022377D02*
X062802Y022377D01*
X062802Y022536D02*
X062962Y022536D01*
X063387Y022536D02*
X065294Y022536D01*
X065294Y022377D02*
X063563Y022377D01*
X063670Y022219D02*
X065294Y022219D01*
X065294Y022060D02*
X063735Y022060D01*
X063768Y021902D02*
X065294Y021902D01*
X065294Y023012D02*
X063278Y023012D01*
X063500Y023170D02*
X065294Y023170D01*
X065294Y023329D02*
X063632Y023329D01*
X063712Y023487D02*
X065294Y023487D01*
X062962Y023963D02*
X062802Y023963D01*
X062802Y024121D02*
X062962Y024121D01*
X062962Y024280D02*
X062802Y024280D01*
X062802Y024439D02*
X062962Y024439D01*
X062962Y024597D02*
X062802Y024597D01*
X060604Y022695D02*
X060060Y022695D01*
X060234Y022536D02*
X060429Y022536D01*
X060393Y022377D02*
X060270Y022377D01*
X060351Y022219D02*
X060433Y022219D01*
X059633Y022219D02*
X052274Y022219D01*
X052329Y022377D02*
X059593Y022377D01*
X059629Y022536D02*
X052319Y022536D01*
X052231Y022695D02*
X059804Y022695D01*
X059309Y020475D02*
X057802Y020475D01*
X057829Y020316D02*
X059418Y020316D01*
X057790Y020158D02*
X061502Y020158D01*
X061393Y019999D02*
X057662Y019999D01*
X059740Y018668D02*
X059864Y018720D01*
X059999Y018720D01*
X060123Y018668D01*
X060219Y018573D01*
X060270Y018449D01*
X060270Y018314D01*
X060219Y018190D01*
X060188Y018159D01*
X060214Y018170D01*
X060349Y018170D01*
X060473Y018118D01*
X060569Y018023D01*
X060620Y017899D01*
X060620Y017764D01*
X060569Y017640D01*
X060473Y017545D01*
X060349Y017493D01*
X060214Y017493D01*
X060090Y017545D01*
X059995Y017640D01*
X059943Y017764D01*
X059943Y017899D01*
X059995Y018023D01*
X060026Y018054D01*
X059999Y018043D01*
X059864Y018043D01*
X059740Y018095D01*
X059645Y018190D01*
X059593Y018314D01*
X059593Y018449D01*
X059645Y018573D01*
X059740Y018668D01*
X059645Y018572D02*
X049882Y018572D01*
X049882Y018414D02*
X050991Y018414D01*
X050995Y018423D02*
X050943Y018299D01*
X050943Y018164D01*
X050995Y018040D01*
X051090Y017945D01*
X051214Y017893D01*
X051349Y017893D01*
X051473Y017945D01*
X051569Y018040D01*
X051620Y018164D01*
X051620Y018299D01*
X051569Y018423D01*
X051473Y018518D01*
X051349Y018570D01*
X051214Y018570D01*
X051090Y018518D01*
X050995Y018423D01*
X050943Y018255D02*
X049882Y018255D01*
X049882Y018097D02*
X050971Y018097D01*
X051105Y017938D02*
X049882Y017938D01*
X049882Y017780D02*
X059943Y017780D01*
X059960Y017938D02*
X051458Y017938D01*
X051592Y018097D02*
X059738Y018097D01*
X059618Y018255D02*
X051620Y018255D01*
X051572Y018414D02*
X059593Y018414D01*
X060219Y018572D02*
X060445Y018572D01*
X060445Y018573D02*
X060393Y018449D01*
X060393Y018314D01*
X060445Y018190D01*
X060540Y018095D01*
X060664Y018043D01*
X060799Y018043D01*
X060923Y018095D01*
X061019Y018190D01*
X061070Y018314D01*
X061070Y018449D01*
X061019Y018573D01*
X060923Y018668D01*
X060799Y018720D01*
X060664Y018720D01*
X060540Y018668D01*
X060445Y018573D01*
X060393Y018414D02*
X060270Y018414D01*
X060246Y018255D02*
X060418Y018255D01*
X060495Y018097D02*
X060538Y018097D01*
X060604Y017938D02*
X062802Y017938D01*
X062802Y017943D02*
X062802Y017783D01*
X062962Y017783D01*
X062962Y017943D01*
X063771Y017943D01*
X063758Y018037D01*
X063728Y018150D01*
X063683Y018258D01*
X063625Y018359D01*
X063554Y018452D01*
X063471Y018535D01*
X063378Y018606D01*
X063277Y018664D01*
X063169Y018709D01*
X063056Y018739D01*
X062962Y018752D01*
X062962Y017943D01*
X062802Y017943D01*
X062802Y018752D01*
X062707Y018739D01*
X062594Y018709D01*
X062486Y018664D01*
X062385Y018606D01*
X062292Y018535D01*
X062210Y018452D01*
X062139Y018359D01*
X062080Y018258D01*
X062035Y018150D01*
X062005Y018037D01*
X061993Y017943D01*
X062802Y017943D01*
X062802Y018097D02*
X062962Y018097D01*
X062962Y018255D02*
X062802Y018255D01*
X062802Y018414D02*
X062962Y018414D01*
X062962Y018572D02*
X062802Y018572D01*
X062802Y018731D02*
X062962Y018731D01*
X063088Y018731D02*
X065294Y018731D01*
X065294Y018890D02*
X049882Y018890D01*
X049882Y019048D02*
X054136Y019048D01*
X054046Y019207D02*
X049882Y019207D01*
X049882Y019365D02*
X054050Y019365D01*
X054145Y019524D02*
X049882Y019524D01*
X049882Y018731D02*
X062676Y018731D01*
X062341Y018572D02*
X061019Y018572D01*
X061070Y018414D02*
X062180Y018414D01*
X062079Y018255D02*
X061046Y018255D01*
X060926Y018097D02*
X062021Y018097D01*
X061993Y017783D02*
X062005Y017689D01*
X062035Y017576D01*
X062080Y017468D01*
X062139Y017366D01*
X062210Y017274D01*
X062292Y017191D01*
X062385Y017120D01*
X062486Y017061D01*
X062594Y017017D01*
X062707Y016986D01*
X062802Y016974D01*
X062802Y017783D01*
X061993Y017783D01*
X061993Y017780D02*
X060620Y017780D01*
X060550Y017621D02*
X062023Y017621D01*
X062083Y017463D02*
X049882Y017463D01*
X049882Y017621D02*
X060013Y017621D01*
X059649Y016920D02*
X059773Y016868D01*
X059869Y016773D01*
X059920Y016649D01*
X059920Y016514D01*
X059869Y016390D01*
X059773Y016295D01*
X059649Y016243D01*
X059514Y016243D01*
X059390Y016295D01*
X059295Y016390D01*
X059243Y016514D01*
X059243Y016649D01*
X059295Y016773D01*
X059390Y016868D01*
X059514Y016920D01*
X059649Y016920D01*
X059813Y016828D02*
X065294Y016828D01*
X065294Y016670D02*
X063232Y016670D01*
X063277Y016651D02*
X063169Y016696D01*
X063056Y016726D01*
X062962Y016739D01*
X062962Y015930D01*
X063771Y015930D01*
X063758Y016024D01*
X063728Y016137D01*
X063683Y016245D01*
X063625Y016346D01*
X063554Y016439D01*
X063471Y016522D01*
X063378Y016593D01*
X063277Y016651D01*
X063481Y016511D02*
X065294Y016511D01*
X065294Y016353D02*
X063620Y016353D01*
X063704Y016194D02*
X065294Y016194D01*
X065294Y016036D02*
X063755Y016036D01*
X063771Y015770D02*
X062962Y015770D01*
X062962Y015930D01*
X062802Y015930D01*
X062802Y016739D01*
X062707Y016726D01*
X062594Y016696D01*
X062486Y016651D01*
X062385Y016593D01*
X062292Y016522D01*
X062210Y016439D01*
X062139Y016346D01*
X062080Y016245D01*
X062035Y016137D01*
X062024Y016095D01*
X061935Y016185D01*
X061803Y016239D01*
X061660Y016239D01*
X061529Y016185D01*
X061428Y016084D01*
X061374Y015953D01*
X061374Y015810D01*
X061428Y015679D01*
X061529Y015578D01*
X061660Y015523D01*
X061803Y015523D01*
X061935Y015578D01*
X062011Y015654D01*
X062035Y015563D01*
X062080Y015455D01*
X062139Y015353D01*
X062210Y015261D01*
X062292Y015178D01*
X062385Y015107D01*
X062486Y015048D01*
X062594Y015004D01*
X062707Y014973D01*
X062802Y014961D01*
X062802Y015770D01*
X062962Y015770D01*
X062962Y014961D01*
X063056Y014973D01*
X063169Y015004D01*
X063277Y015048D01*
X063378Y015107D01*
X063471Y015178D01*
X063554Y015261D01*
X063625Y015353D01*
X063683Y015455D01*
X063728Y015563D01*
X063758Y015676D01*
X063771Y015770D01*
X063764Y015719D02*
X065294Y015719D01*
X065294Y015877D02*
X062962Y015877D01*
X062962Y015719D02*
X062802Y015719D01*
X062802Y015560D02*
X062962Y015560D01*
X062962Y015402D02*
X062802Y015402D01*
X062802Y015243D02*
X062962Y015243D01*
X062962Y015084D02*
X062802Y015084D01*
X062424Y015084D02*
X049882Y015084D01*
X049882Y014926D02*
X065294Y014926D01*
X065294Y015084D02*
X063340Y015084D01*
X063536Y015243D02*
X065294Y015243D01*
X065294Y015402D02*
X063653Y015402D01*
X063727Y015560D02*
X065294Y015560D01*
X065294Y014767D02*
X064756Y014767D01*
X064733Y014767D02*
X064573Y014767D01*
X064551Y014767D02*
X049882Y014767D01*
X049882Y014609D02*
X059681Y014609D01*
X059645Y014573D02*
X059593Y014449D01*
X059593Y014314D01*
X059645Y014190D01*
X059740Y014095D01*
X059864Y014043D01*
X059999Y014043D01*
X060123Y014095D01*
X060219Y014190D01*
X060270Y014314D01*
X060270Y014449D01*
X060219Y014573D01*
X060123Y014668D01*
X059999Y014720D01*
X059864Y014720D01*
X059740Y014668D01*
X059645Y014573D01*
X059594Y014450D02*
X049882Y014450D01*
X049882Y014292D02*
X059603Y014292D01*
X059701Y014133D02*
X049882Y014133D01*
X049882Y013975D02*
X059996Y013975D01*
X059995Y013973D02*
X059943Y013849D01*
X059943Y013714D01*
X059995Y013590D01*
X060090Y013495D01*
X060214Y013443D01*
X060349Y013443D01*
X060473Y013495D01*
X060569Y013590D01*
X060620Y013714D01*
X060620Y013849D01*
X060569Y013973D01*
X060473Y014068D01*
X060349Y014120D01*
X060214Y014120D01*
X060090Y014068D01*
X059995Y013973D01*
X059943Y013816D02*
X049882Y013816D01*
X049882Y013658D02*
X059967Y013658D01*
X060085Y013499D02*
X054299Y013499D01*
X054249Y013520D02*
X054114Y013520D01*
X053990Y013468D01*
X053895Y013373D01*
X053843Y013249D01*
X053843Y013114D01*
X053895Y012990D01*
X053990Y012895D01*
X054114Y012843D01*
X054249Y012843D01*
X054373Y012895D01*
X054469Y012990D01*
X054520Y013114D01*
X054520Y013249D01*
X054469Y013373D01*
X054373Y013468D01*
X054249Y013520D01*
X054064Y013499D02*
X051399Y013499D01*
X051349Y013520D02*
X051214Y013520D01*
X051090Y013468D01*
X050995Y013373D01*
X050943Y013249D01*
X050943Y013114D01*
X050995Y012990D01*
X051090Y012895D01*
X051214Y012843D01*
X051349Y012843D01*
X051473Y012895D01*
X051569Y012990D01*
X051620Y013114D01*
X051620Y013249D01*
X051569Y013373D01*
X051473Y013468D01*
X051349Y013520D01*
X051164Y013499D02*
X049882Y013499D01*
X049882Y013341D02*
X050981Y013341D01*
X050943Y013182D02*
X049882Y013182D01*
X049882Y013023D02*
X050981Y013023D01*
X051162Y012865D02*
X049882Y012865D01*
X049882Y012706D02*
X059296Y012706D01*
X059293Y012714D02*
X059345Y012590D01*
X059440Y012495D01*
X059564Y012443D01*
X059699Y012443D01*
X059823Y012495D01*
X059919Y012590D01*
X059970Y012714D01*
X059970Y012849D01*
X059919Y012973D01*
X059823Y013068D01*
X059699Y013120D01*
X059564Y013120D01*
X059440Y013068D01*
X059345Y012973D01*
X059293Y012849D01*
X059293Y012714D01*
X059300Y012865D02*
X054302Y012865D01*
X054483Y013023D02*
X059395Y013023D01*
X059868Y013023D02*
X064410Y013023D01*
X064573Y013023D02*
X064733Y013023D01*
X064733Y013182D02*
X064573Y013182D01*
X064573Y013341D02*
X064733Y013341D01*
X064733Y013499D02*
X064573Y013499D01*
X064573Y013658D02*
X064733Y013658D01*
X064573Y013816D02*
X063544Y013816D01*
X063544Y013750D02*
X063443Y013506D01*
X063257Y013320D01*
X063013Y013219D01*
X062750Y013219D01*
X062507Y013320D01*
X062321Y013506D01*
X062220Y013750D01*
X062220Y014013D01*
X062321Y014256D01*
X062507Y014443D01*
X062750Y014543D01*
X063013Y014543D01*
X063257Y014443D01*
X063443Y014256D01*
X063544Y014013D01*
X063544Y013750D01*
X063505Y013658D02*
X063790Y013658D01*
X063846Y013499D02*
X063436Y013499D01*
X063277Y013341D02*
X063944Y013341D01*
X064100Y013182D02*
X054520Y013182D01*
X054482Y013341D02*
X062486Y013341D01*
X062328Y013499D02*
X060478Y013499D01*
X060597Y013658D02*
X062258Y013658D01*
X062220Y013816D02*
X060620Y013816D01*
X060567Y013975D02*
X062220Y013975D01*
X062270Y014133D02*
X060962Y014133D01*
X060923Y014095D02*
X061019Y014190D01*
X061070Y014314D01*
X061070Y014449D01*
X061019Y014573D01*
X060923Y014668D01*
X060799Y014720D01*
X060664Y014720D01*
X060540Y014668D01*
X060445Y014573D01*
X060393Y014449D01*
X060393Y014314D01*
X060445Y014190D01*
X060540Y014095D01*
X060664Y014043D01*
X060799Y014043D01*
X060923Y014095D01*
X061061Y014292D02*
X062356Y014292D01*
X062525Y014450D02*
X061069Y014450D01*
X060983Y014609D02*
X064136Y014609D01*
X063966Y014450D02*
X063238Y014450D01*
X063407Y014292D02*
X063861Y014292D01*
X063798Y014133D02*
X063494Y014133D01*
X063544Y013975D02*
X063766Y013975D01*
X064573Y013975D02*
X064733Y013975D01*
X064733Y014133D02*
X064573Y014133D01*
X064573Y014292D02*
X064733Y014292D01*
X064733Y014450D02*
X064573Y014450D01*
X064573Y014609D02*
X064733Y014609D01*
X065170Y014609D02*
X065294Y014609D01*
X065294Y013182D02*
X065207Y013182D01*
X065294Y013023D02*
X064897Y013023D01*
X065294Y012865D02*
X059963Y012865D01*
X059967Y012706D02*
X062472Y012706D01*
X062486Y012714D02*
X062385Y012656D01*
X062292Y012585D01*
X062210Y012502D01*
X062139Y012409D01*
X062080Y012308D01*
X062035Y012200D01*
X062011Y012109D01*
X061935Y012185D01*
X061803Y012239D01*
X061660Y012239D01*
X061529Y012185D01*
X061428Y012084D01*
X061374Y011953D01*
X061374Y011810D01*
X061428Y011679D01*
X061529Y011578D01*
X061660Y011523D01*
X061803Y011523D01*
X061935Y011578D01*
X062024Y011668D01*
X062035Y011626D01*
X062080Y011518D01*
X062139Y011416D01*
X062210Y011324D01*
X062292Y011241D01*
X062385Y011170D01*
X062486Y011111D01*
X062594Y011067D01*
X062707Y011036D01*
X062802Y011024D01*
X062802Y011833D01*
X062962Y011833D01*
X062962Y011993D01*
X063771Y011993D01*
X063758Y012087D01*
X063728Y012200D01*
X063683Y012308D01*
X063625Y012409D01*
X063554Y012502D01*
X063471Y012585D01*
X063378Y012656D01*
X063277Y012714D01*
X063169Y012759D01*
X063056Y012789D01*
X062962Y012802D01*
X062962Y011993D01*
X062802Y011993D01*
X062802Y012802D01*
X062707Y012789D01*
X062594Y012759D01*
X062486Y012714D01*
X062255Y012548D02*
X059877Y012548D01*
X059387Y012548D02*
X057727Y012548D01*
X057769Y012507D02*
X057657Y012618D01*
X057511Y012679D01*
X057353Y012679D01*
X057207Y012618D01*
X057095Y012507D01*
X057034Y012360D01*
X057034Y012202D01*
X057095Y012056D01*
X057207Y011944D01*
X057353Y011884D01*
X057511Y011884D01*
X057657Y011944D01*
X057769Y012056D01*
X057829Y012202D01*
X057829Y012360D01*
X057769Y012507D01*
X057817Y012389D02*
X062127Y012389D01*
X062048Y012231D02*
X061824Y012231D01*
X061639Y012231D02*
X057829Y012231D01*
X057775Y012072D02*
X061423Y012072D01*
X061374Y011914D02*
X057582Y011914D01*
X057281Y011914D02*
X049882Y011914D01*
X049882Y012072D02*
X057088Y012072D01*
X057034Y012231D02*
X049882Y012231D01*
X049882Y012389D02*
X057046Y012389D01*
X057136Y012548D02*
X049882Y012548D01*
X049432Y012548D02*
X041878Y012548D01*
X041872Y012562D02*
X041742Y012691D01*
X041573Y012761D01*
X041390Y012761D01*
X041221Y012691D01*
X041092Y012562D01*
X041022Y012393D01*
X041022Y012210D01*
X041092Y012041D01*
X041221Y011911D01*
X041390Y011841D01*
X041573Y011841D01*
X041742Y011911D01*
X041872Y012041D01*
X041942Y012210D01*
X041942Y012393D01*
X041872Y012562D01*
X041942Y012389D02*
X049432Y012389D01*
X049432Y012231D02*
X041942Y012231D01*
X041885Y012072D02*
X049432Y012072D01*
X049432Y011914D02*
X041744Y011914D01*
X041588Y011755D02*
X049432Y011755D01*
X049432Y011597D02*
X041837Y011597D01*
X041872Y011562D02*
X041742Y011691D01*
X041573Y011761D01*
X041390Y011761D01*
X041221Y011691D01*
X041092Y011562D01*
X041022Y011393D01*
X041022Y011210D01*
X041092Y011041D01*
X041221Y010911D01*
X041390Y010841D01*
X041573Y010841D01*
X041742Y010911D01*
X041872Y011041D01*
X041942Y011210D01*
X041942Y011393D01*
X041872Y011562D01*
X041923Y011438D02*
X049432Y011438D01*
X049432Y011279D02*
X041942Y011279D01*
X041905Y011121D02*
X049432Y011121D01*
X049432Y010962D02*
X041793Y010962D01*
X041742Y010691D02*
X041573Y010761D01*
X041390Y010761D01*
X041221Y010691D01*
X041092Y010562D01*
X041022Y010393D01*
X041022Y010210D01*
X041092Y010041D01*
X041221Y009911D01*
X041390Y009841D01*
X041573Y009841D01*
X041742Y009911D01*
X041872Y010041D01*
X041942Y010210D01*
X041942Y010393D01*
X041872Y010562D01*
X041742Y010691D01*
X041788Y010645D02*
X049432Y010645D01*
X049432Y010487D02*
X041903Y010487D01*
X041942Y010328D02*
X049432Y010328D01*
X049882Y010328D02*
X059606Y010328D01*
X059593Y010299D02*
X059593Y010164D01*
X059645Y010040D01*
X059740Y009945D01*
X059864Y009893D01*
X059943Y009893D01*
X059943Y009764D01*
X059995Y009640D01*
X060090Y009545D01*
X060214Y009493D01*
X060349Y009493D01*
X060473Y009545D01*
X060569Y009640D01*
X060620Y009764D01*
X060620Y009899D01*
X060569Y010023D01*
X060473Y010118D01*
X060349Y010170D01*
X060270Y010170D01*
X060270Y010299D01*
X060219Y010423D01*
X060123Y010518D01*
X059999Y010570D01*
X059864Y010570D01*
X059740Y010518D01*
X059645Y010423D01*
X059593Y010299D01*
X059593Y010170D02*
X050370Y010170D01*
X050420Y010011D02*
X059673Y010011D01*
X059943Y009853D02*
X050395Y009853D01*
X050272Y009694D02*
X059972Y009694D01*
X060112Y009535D02*
X049882Y009535D01*
X049882Y009377D02*
X062071Y009377D01*
X062080Y009355D02*
X062139Y009253D01*
X062210Y009161D01*
X062292Y009078D01*
X062385Y009007D01*
X062486Y008948D01*
X062594Y008904D01*
X062707Y008873D01*
X062802Y008861D01*
X062802Y009670D01*
X062962Y009670D01*
X062962Y009830D01*
X063771Y009830D01*
X063758Y009924D01*
X063728Y010037D01*
X063683Y010145D01*
X063625Y010246D01*
X063554Y010339D01*
X063471Y010422D01*
X063378Y010493D01*
X063277Y010551D01*
X063169Y010596D01*
X063056Y010626D01*
X062962Y010639D01*
X062962Y009830D01*
X062802Y009830D01*
X062802Y010639D01*
X062707Y010626D01*
X062594Y010596D01*
X062486Y010551D01*
X062385Y010493D01*
X062292Y010422D01*
X062210Y010339D01*
X062139Y010246D01*
X062080Y010145D01*
X062035Y010037D01*
X062005Y009924D01*
X061993Y009830D01*
X062802Y009830D01*
X062802Y009670D01*
X061993Y009670D01*
X062005Y009576D01*
X062035Y009463D01*
X062080Y009355D01*
X062165Y009218D02*
X049882Y009218D01*
X049882Y009060D02*
X062316Y009060D01*
X062603Y008901D02*
X056344Y008901D01*
X056299Y008920D02*
X056164Y008920D01*
X056040Y008868D01*
X055945Y008773D01*
X055893Y008649D01*
X055893Y008514D01*
X055945Y008390D01*
X056040Y008295D01*
X056164Y008243D01*
X056299Y008243D01*
X056423Y008295D01*
X056519Y008390D01*
X056570Y008514D01*
X056570Y008649D01*
X056519Y008773D01*
X056423Y008868D01*
X056299Y008920D01*
X056120Y008901D02*
X055444Y008901D01*
X055399Y008920D02*
X055264Y008920D01*
X055140Y008868D01*
X055045Y008773D01*
X054993Y008649D01*
X054993Y008514D01*
X055045Y008390D01*
X055140Y008295D01*
X055264Y008243D01*
X055399Y008243D01*
X055523Y008295D01*
X055619Y008390D01*
X055670Y008514D01*
X055670Y008649D01*
X055619Y008773D01*
X055523Y008868D01*
X055399Y008920D01*
X055220Y008901D02*
X054594Y008901D01*
X054549Y008920D02*
X054414Y008920D01*
X054290Y008868D01*
X054195Y008773D01*
X054143Y008649D01*
X054143Y008514D01*
X054195Y008390D01*
X054290Y008295D01*
X054414Y008243D01*
X054549Y008243D01*
X054673Y008295D01*
X054769Y008390D01*
X054820Y008514D01*
X054820Y008649D01*
X054769Y008773D01*
X054673Y008868D01*
X054549Y008920D01*
X054370Y008901D02*
X049882Y008901D01*
X049882Y008743D02*
X054182Y008743D01*
X054143Y008584D02*
X049882Y008584D01*
X049882Y008426D02*
X054180Y008426D01*
X054356Y008267D02*
X049882Y008267D01*
X049882Y008109D02*
X057073Y008109D01*
X057095Y008056D02*
X057207Y007944D01*
X057353Y007884D01*
X057511Y007884D01*
X057657Y007944D01*
X057769Y008056D01*
X057829Y008202D01*
X057829Y008360D01*
X057769Y008507D01*
X057657Y008618D01*
X057511Y008679D01*
X057353Y008679D01*
X057207Y008618D01*
X057095Y008507D01*
X057034Y008360D01*
X057034Y008202D01*
X057095Y008056D01*
X057201Y007950D02*
X049882Y007950D01*
X049882Y007791D02*
X062220Y007791D01*
X062220Y007913D02*
X062220Y007650D01*
X062321Y007406D01*
X062507Y007220D01*
X062750Y007119D01*
X063013Y007119D01*
X063257Y007220D01*
X063443Y007406D01*
X063544Y007650D01*
X063544Y007913D01*
X063443Y008156D01*
X063257Y008343D01*
X063013Y008443D01*
X062750Y008443D01*
X062507Y008343D01*
X062321Y008156D01*
X062220Y007913D01*
X062235Y007950D02*
X061379Y007950D01*
X061419Y007990D02*
X061470Y008114D01*
X061470Y008249D01*
X061419Y008373D01*
X061323Y008468D01*
X061199Y008520D01*
X061064Y008520D01*
X060940Y008468D01*
X060845Y008373D01*
X060793Y008249D01*
X060793Y008114D01*
X060845Y007990D01*
X060940Y007895D01*
X061064Y007843D01*
X061199Y007843D01*
X061323Y007895D01*
X061419Y007990D01*
X061468Y008109D02*
X062301Y008109D01*
X062431Y008267D02*
X061463Y008267D01*
X061366Y008426D02*
X062707Y008426D01*
X063056Y008426D02*
X064036Y008426D01*
X063904Y008267D02*
X063332Y008267D01*
X063463Y008109D02*
X063824Y008109D01*
X063776Y007950D02*
X063528Y007950D01*
X063544Y007791D02*
X064573Y007791D01*
X064573Y007633D02*
X064733Y007633D01*
X064733Y007474D02*
X064573Y007474D01*
X064573Y007316D02*
X064733Y007316D01*
X064733Y007157D02*
X064573Y007157D01*
X064573Y006999D02*
X064733Y006999D01*
X065081Y006999D02*
X065294Y006999D01*
X065290Y007157D02*
X065294Y007157D01*
X065294Y006840D02*
X060663Y006840D01*
X060673Y006845D02*
X060769Y006940D01*
X060820Y007064D01*
X060820Y007199D01*
X060769Y007323D01*
X060673Y007418D01*
X060549Y007470D01*
X060414Y007470D01*
X060290Y007418D01*
X060195Y007323D01*
X060143Y007199D01*
X060143Y007064D01*
X060190Y006952D01*
X060123Y007018D01*
X059999Y007070D01*
X059864Y007070D01*
X059740Y007018D01*
X059645Y006923D01*
X059593Y006799D01*
X059593Y006664D01*
X059645Y006540D01*
X059740Y006445D01*
X059864Y006393D01*
X059999Y006393D01*
X060123Y006445D01*
X060219Y006540D01*
X060270Y006664D01*
X060270Y006799D01*
X060224Y006911D01*
X060290Y006845D01*
X060414Y006793D01*
X060549Y006793D01*
X060673Y006845D01*
X060742Y006682D02*
X060270Y006682D01*
X060253Y006840D02*
X060300Y006840D01*
X060170Y006999D02*
X060143Y006999D01*
X060143Y007157D02*
X049882Y007157D01*
X049882Y006999D02*
X059721Y006999D01*
X059611Y006840D02*
X049882Y006840D01*
X049882Y006682D02*
X055372Y006682D01*
X055340Y006668D02*
X055245Y006573D01*
X055193Y006449D01*
X055193Y006314D01*
X055245Y006190D01*
X055340Y006095D01*
X055464Y006043D01*
X055599Y006043D01*
X055723Y006095D01*
X055819Y006190D01*
X055870Y006314D01*
X055870Y006449D01*
X055819Y006573D01*
X055723Y006668D01*
X055599Y006720D01*
X055464Y006720D01*
X055340Y006668D01*
X055224Y006523D02*
X049882Y006523D01*
X049882Y006365D02*
X055193Y006365D01*
X055238Y006206D02*
X049882Y006206D01*
X049882Y006048D02*
X055453Y006048D01*
X055610Y006048D02*
X060609Y006048D01*
X060629Y006028D02*
X060760Y005973D01*
X060903Y005973D01*
X061035Y006028D01*
X061135Y006129D01*
X061190Y006260D01*
X061190Y006403D01*
X061135Y006534D01*
X061035Y006635D01*
X060903Y006689D01*
X060760Y006689D01*
X060629Y006635D01*
X060528Y006534D01*
X060474Y006403D01*
X060474Y006260D01*
X060528Y006129D01*
X060629Y006028D01*
X060496Y006206D02*
X055825Y006206D01*
X055870Y006365D02*
X060474Y006365D01*
X060524Y006523D02*
X060202Y006523D01*
X059661Y006523D02*
X055839Y006523D01*
X055691Y006682D02*
X059593Y006682D01*
X060192Y007316D02*
X049882Y007316D01*
X049882Y007474D02*
X062292Y007474D01*
X062227Y007633D02*
X049882Y007633D01*
X049432Y007633D02*
X047809Y007633D01*
X047819Y007623D02*
X047723Y007718D01*
X047599Y007770D01*
X047464Y007770D01*
X047340Y007718D01*
X047245Y007623D01*
X047193Y007499D01*
X047193Y007364D01*
X047245Y007240D01*
X047340Y007145D01*
X047464Y007093D01*
X047599Y007093D01*
X047723Y007145D01*
X047819Y007240D01*
X047870Y007364D01*
X047870Y007499D01*
X047819Y007623D01*
X047870Y007474D02*
X049432Y007474D01*
X049432Y007316D02*
X047850Y007316D01*
X047736Y007157D02*
X049432Y007157D01*
X049432Y006999D02*
X041830Y006999D01*
X041872Y007041D02*
X041942Y007210D01*
X041942Y007393D01*
X041872Y007562D01*
X041742Y007691D01*
X041573Y007761D01*
X041390Y007761D01*
X041221Y007691D01*
X041092Y007562D01*
X041022Y007393D01*
X041022Y007210D01*
X041092Y007041D01*
X041221Y006911D01*
X041390Y006841D01*
X041573Y006841D01*
X041742Y006911D01*
X041872Y007041D01*
X041920Y007157D02*
X047327Y007157D01*
X047213Y007316D02*
X041942Y007316D01*
X041908Y007474D02*
X047193Y007474D01*
X047255Y007633D02*
X041801Y007633D01*
X041742Y007911D02*
X041872Y008041D01*
X041942Y008210D01*
X041942Y008393D01*
X041872Y008562D01*
X041742Y008691D01*
X041573Y008761D01*
X041390Y008761D01*
X041221Y008691D01*
X041092Y008562D01*
X041022Y008393D01*
X041022Y008210D01*
X041092Y008041D01*
X041221Y007911D01*
X041390Y007841D01*
X041573Y007841D01*
X041742Y007911D01*
X041781Y007950D02*
X045634Y007950D01*
X045595Y007990D02*
X045690Y007895D01*
X045814Y007843D01*
X045949Y007843D01*
X046073Y007895D01*
X046169Y007990D01*
X046220Y008114D01*
X046220Y008249D01*
X046169Y008373D01*
X046073Y008468D01*
X046054Y008476D01*
X046070Y008514D01*
X046070Y008649D01*
X046019Y008773D01*
X045985Y008806D01*
X046019Y008840D01*
X046070Y008964D01*
X046070Y009099D01*
X046019Y009223D01*
X045923Y009318D01*
X045799Y009370D01*
X045664Y009370D01*
X045540Y009318D01*
X045445Y009223D01*
X045393Y009099D01*
X045393Y008964D01*
X045445Y008840D01*
X045478Y008806D01*
X045445Y008773D01*
X045393Y008649D01*
X045393Y008514D01*
X045445Y008390D01*
X045540Y008295D01*
X045559Y008287D01*
X045543Y008249D01*
X045543Y008114D01*
X045595Y007990D01*
X045546Y008109D02*
X044287Y008109D01*
X044273Y008095D02*
X044369Y008190D01*
X044420Y008314D01*
X044420Y008449D01*
X044369Y008573D01*
X044273Y008668D01*
X044149Y008720D01*
X044052Y008720D01*
X044070Y008764D01*
X044070Y008899D01*
X044019Y009023D01*
X043923Y009118D01*
X043820Y009161D01*
X043820Y009249D01*
X043769Y009373D01*
X043673Y009468D01*
X043549Y009520D01*
X043414Y009520D01*
X043290Y009468D01*
X043195Y009373D01*
X043143Y009249D01*
X043143Y009114D01*
X043195Y008990D01*
X043290Y008895D01*
X043393Y008852D01*
X043393Y008764D01*
X043445Y008640D01*
X043540Y008545D01*
X043664Y008493D01*
X043762Y008493D01*
X043743Y008449D01*
X043743Y008314D01*
X043795Y008190D01*
X043890Y008095D01*
X044014Y008043D01*
X044149Y008043D01*
X044273Y008095D01*
X044401Y008267D02*
X045551Y008267D01*
X045430Y008426D02*
X044420Y008426D01*
X044357Y008584D02*
X045393Y008584D01*
X045432Y008743D02*
X044061Y008743D01*
X044069Y008901D02*
X045419Y008901D01*
X045393Y009060D02*
X043982Y009060D01*
X043820Y009218D02*
X045443Y009218D01*
X046021Y009218D02*
X047740Y009218D01*
X047695Y009173D02*
X047790Y009268D01*
X047914Y009320D01*
X048049Y009320D01*
X048173Y009268D01*
X048269Y009173D01*
X048320Y009049D01*
X048320Y008914D01*
X048269Y008790D01*
X048173Y008695D01*
X048049Y008643D01*
X047914Y008643D01*
X047790Y008695D01*
X047695Y008790D01*
X047643Y008914D01*
X047643Y009049D01*
X047695Y009173D01*
X047648Y009060D02*
X046070Y009060D01*
X046044Y008901D02*
X047649Y008901D01*
X047742Y008743D02*
X046031Y008743D01*
X046070Y008584D02*
X049432Y008584D01*
X049432Y008426D02*
X046116Y008426D01*
X046213Y008267D02*
X049432Y008267D01*
X049432Y008109D02*
X046218Y008109D01*
X046129Y007950D02*
X049432Y007950D01*
X049432Y007791D02*
X030382Y007791D01*
X030382Y007633D02*
X040163Y007633D01*
X040221Y007691D02*
X040092Y007562D01*
X040022Y007393D01*
X040022Y007210D01*
X040092Y007041D01*
X040221Y006911D01*
X040390Y006841D01*
X040573Y006841D01*
X040742Y006911D01*
X040872Y007041D01*
X040942Y007210D01*
X040942Y007393D01*
X040872Y007562D01*
X040742Y007691D01*
X040573Y007761D01*
X040390Y007761D01*
X040221Y007691D01*
X040221Y007911D02*
X040390Y007841D01*
X040573Y007841D01*
X040742Y007911D01*
X040872Y008041D01*
X040942Y008210D01*
X040942Y008393D01*
X040872Y008562D01*
X040742Y008691D01*
X040573Y008761D01*
X040390Y008761D01*
X040221Y008691D01*
X040092Y008562D01*
X040022Y008393D01*
X040022Y008210D01*
X040092Y008041D01*
X040221Y007911D01*
X040183Y007950D02*
X030382Y007950D01*
X030382Y008109D02*
X040064Y008109D01*
X040022Y008267D02*
X030382Y008267D01*
X030382Y008426D02*
X040035Y008426D01*
X040114Y008584D02*
X030382Y008584D01*
X030382Y008743D02*
X040345Y008743D01*
X040390Y008841D02*
X040573Y008841D01*
X040742Y008911D01*
X040872Y009041D01*
X040942Y009210D01*
X040942Y009393D01*
X040872Y009562D01*
X040742Y009691D01*
X040573Y009761D01*
X040390Y009761D01*
X040221Y009691D01*
X040092Y009562D01*
X040022Y009393D01*
X040022Y009210D01*
X040092Y009041D01*
X040221Y008911D01*
X040390Y008841D01*
X040246Y008901D02*
X030382Y008901D01*
X030382Y009060D02*
X040084Y009060D01*
X040022Y009218D02*
X030382Y009218D01*
X030382Y009377D02*
X040022Y009377D01*
X040081Y009535D02*
X030382Y009535D01*
X030382Y009694D02*
X040228Y009694D01*
X040363Y009853D02*
X030382Y009853D01*
X030382Y010011D02*
X040121Y010011D01*
X040092Y010041D02*
X040221Y009911D01*
X040390Y009841D01*
X040573Y009841D01*
X040742Y009911D01*
X040872Y010041D01*
X040942Y010210D01*
X040942Y010393D01*
X040872Y010562D01*
X040742Y010691D01*
X040573Y010761D01*
X040390Y010761D01*
X040221Y010691D01*
X040092Y010562D01*
X040022Y010393D01*
X040022Y010210D01*
X040092Y010041D01*
X040038Y010170D02*
X030382Y010170D01*
X030382Y010328D02*
X040022Y010328D01*
X040061Y010487D02*
X030382Y010487D01*
X030382Y010645D02*
X040175Y010645D01*
X040221Y010911D02*
X040092Y011041D01*
X040022Y011210D01*
X040022Y011393D01*
X040092Y011562D01*
X040221Y011691D01*
X040390Y011761D01*
X040573Y011761D01*
X040742Y011691D01*
X040872Y011562D01*
X040942Y011393D01*
X040942Y011210D01*
X040872Y011041D01*
X040742Y010911D01*
X040573Y010841D01*
X040390Y010841D01*
X040221Y010911D01*
X040170Y010962D02*
X030382Y010962D01*
X030382Y010804D02*
X049432Y010804D01*
X049882Y010804D02*
X065294Y010804D01*
X065294Y010962D02*
X049882Y010962D01*
X049882Y011121D02*
X062470Y011121D01*
X062254Y011279D02*
X049882Y011279D01*
X049882Y011438D02*
X062126Y011438D01*
X062047Y011597D02*
X061953Y011597D01*
X061510Y011597D02*
X049882Y011597D01*
X049882Y011755D02*
X061396Y011755D01*
X062802Y011755D02*
X062962Y011755D01*
X062962Y011833D02*
X062962Y011024D01*
X063056Y011036D01*
X063169Y011067D01*
X063277Y011111D01*
X063378Y011170D01*
X063471Y011241D01*
X063554Y011324D01*
X063625Y011416D01*
X063683Y011518D01*
X063728Y011626D01*
X063758Y011739D01*
X063771Y011833D01*
X062962Y011833D01*
X062962Y011914D02*
X065294Y011914D01*
X065294Y012072D02*
X063760Y012072D01*
X063715Y012231D02*
X065294Y012231D01*
X065294Y012389D02*
X063636Y012389D01*
X063508Y012548D02*
X065294Y012548D01*
X065294Y012706D02*
X063291Y012706D01*
X062962Y012706D02*
X062802Y012706D01*
X062802Y012548D02*
X062962Y012548D01*
X062962Y012389D02*
X062802Y012389D01*
X062802Y012231D02*
X062962Y012231D01*
X062962Y012072D02*
X062802Y012072D01*
X062802Y011597D02*
X062962Y011597D01*
X062962Y011438D02*
X062802Y011438D01*
X062802Y011279D02*
X062962Y011279D01*
X062962Y011121D02*
X062802Y011121D01*
X063294Y011121D02*
X065294Y011121D01*
X065294Y011279D02*
X063509Y011279D01*
X063637Y011438D02*
X065294Y011438D01*
X065294Y011597D02*
X063716Y011597D01*
X063760Y011755D02*
X065294Y011755D01*
X065294Y010645D02*
X060946Y010645D01*
X060923Y010668D02*
X060799Y010720D01*
X060664Y010720D01*
X060540Y010668D01*
X060445Y010573D01*
X060393Y010449D01*
X060393Y010314D01*
X060445Y010190D01*
X060540Y010095D01*
X060664Y010043D01*
X060799Y010043D01*
X060923Y010095D01*
X061019Y010190D01*
X061070Y010314D01*
X061070Y010449D01*
X061019Y010573D01*
X060923Y010668D01*
X061054Y010487D02*
X062377Y010487D01*
X062201Y010328D02*
X061070Y010328D01*
X060999Y010170D02*
X062094Y010170D01*
X062028Y010011D02*
X060574Y010011D01*
X060620Y009853D02*
X061996Y009853D01*
X062016Y009535D02*
X060452Y009535D01*
X060591Y009694D02*
X062802Y009694D01*
X062802Y009853D02*
X062962Y009853D01*
X062962Y010011D02*
X062802Y010011D01*
X062802Y010170D02*
X062962Y010170D01*
X062962Y010328D02*
X062802Y010328D01*
X062802Y010487D02*
X062962Y010487D01*
X063386Y010487D02*
X065294Y010487D01*
X065294Y010328D02*
X063562Y010328D01*
X063669Y010170D02*
X065294Y010170D01*
X065294Y010011D02*
X063735Y010011D01*
X063768Y009853D02*
X065294Y009853D01*
X065294Y009694D02*
X062962Y009694D01*
X062962Y009670D02*
X063771Y009670D01*
X063758Y009576D01*
X063728Y009463D01*
X063683Y009355D01*
X063625Y009253D01*
X063554Y009161D01*
X063471Y009078D01*
X063378Y009007D01*
X063277Y008948D01*
X063169Y008904D01*
X063056Y008873D01*
X062962Y008861D01*
X062962Y009670D01*
X062962Y009535D02*
X062802Y009535D01*
X062802Y009377D02*
X062962Y009377D01*
X062962Y009218D02*
X062802Y009218D01*
X062802Y009060D02*
X062962Y009060D01*
X062962Y008901D02*
X062802Y008901D01*
X063160Y008901D02*
X065294Y008901D01*
X065294Y008743D02*
X056531Y008743D01*
X056570Y008584D02*
X057172Y008584D01*
X057061Y008426D02*
X056533Y008426D01*
X056357Y008267D02*
X057034Y008267D01*
X057662Y007950D02*
X060884Y007950D01*
X060796Y008109D02*
X057790Y008109D01*
X057829Y008267D02*
X060801Y008267D01*
X060897Y008426D02*
X057802Y008426D01*
X057691Y008584D02*
X064261Y008584D01*
X064573Y008584D02*
X064733Y008584D01*
X064733Y008426D02*
X064573Y008426D01*
X064573Y008267D02*
X064733Y008267D01*
X064733Y008109D02*
X064573Y008109D01*
X064573Y007950D02*
X064733Y007950D01*
X063773Y007633D02*
X063537Y007633D01*
X063471Y007474D02*
X063815Y007474D01*
X063892Y007316D02*
X063352Y007316D01*
X063105Y007157D02*
X064016Y007157D01*
X064225Y006999D02*
X060793Y006999D01*
X060820Y007157D02*
X062659Y007157D01*
X062411Y007316D02*
X060772Y007316D01*
X060922Y006682D02*
X062679Y006682D01*
X062707Y006689D02*
X062594Y006659D01*
X062486Y006614D01*
X062385Y006556D01*
X062292Y006485D01*
X062210Y006402D01*
X062139Y006309D01*
X062080Y006208D01*
X062035Y006100D01*
X062005Y005987D01*
X061993Y005893D01*
X062802Y005893D01*
X062802Y006702D01*
X062707Y006689D01*
X062802Y006682D02*
X062962Y006682D01*
X062962Y006702D02*
X062962Y005893D01*
X063771Y005893D01*
X063758Y005987D01*
X063728Y006100D01*
X063683Y006208D01*
X063625Y006309D01*
X063554Y006402D01*
X063471Y006485D01*
X063378Y006556D01*
X063277Y006614D01*
X063169Y006659D01*
X063056Y006689D01*
X062962Y006702D01*
X063085Y006682D02*
X065294Y006682D01*
X065294Y006523D02*
X063421Y006523D01*
X063582Y006365D02*
X065294Y006365D01*
X065294Y006206D02*
X063684Y006206D01*
X063742Y006048D02*
X065294Y006048D01*
X065294Y005889D02*
X062962Y005889D01*
X062962Y005893D02*
X062962Y005733D01*
X063771Y005733D01*
X063758Y005639D01*
X063728Y005526D01*
X063683Y005418D01*
X063625Y005316D01*
X063554Y005224D01*
X063471Y005141D01*
X063378Y005070D01*
X063277Y005011D01*
X063169Y004967D01*
X063056Y004936D01*
X062962Y004924D01*
X062962Y005733D01*
X062802Y005733D01*
X062802Y004924D01*
X062707Y004936D01*
X062594Y004967D01*
X062486Y005011D01*
X062385Y005070D01*
X062292Y005141D01*
X062210Y005224D01*
X062139Y005316D01*
X062080Y005418D01*
X062035Y005526D01*
X062005Y005639D01*
X061993Y005733D01*
X062802Y005733D01*
X062802Y005893D01*
X062962Y005893D01*
X062962Y006048D02*
X062802Y006048D01*
X062802Y006206D02*
X062962Y006206D01*
X062962Y006365D02*
X062802Y006365D01*
X062802Y006523D02*
X062962Y006523D01*
X062342Y006523D02*
X061140Y006523D01*
X061190Y006365D02*
X062181Y006365D01*
X062079Y006206D02*
X061167Y006206D01*
X061054Y006048D02*
X062021Y006048D01*
X061993Y005730D02*
X049882Y005730D01*
X049882Y005572D02*
X062023Y005572D01*
X062083Y005413D02*
X049882Y005413D01*
X049882Y005255D02*
X062186Y005255D01*
X062351Y005096D02*
X011150Y005096D01*
X011170Y005049D02*
X011119Y005173D01*
X011023Y005268D01*
X010899Y005320D01*
X010764Y005320D01*
X010640Y005268D01*
X010545Y005173D01*
X010493Y005049D01*
X010493Y004914D01*
X010545Y004790D01*
X010628Y004706D01*
X010545Y004623D01*
X010493Y004499D01*
X010493Y004364D01*
X010545Y004240D01*
X010640Y004145D01*
X003262Y004145D01*
X003262Y004304D02*
X010518Y004304D01*
X010493Y004462D02*
X003262Y004462D01*
X003262Y004621D02*
X010544Y004621D01*
X010555Y004779D02*
X003262Y004779D01*
X003262Y004938D02*
X010493Y004938D01*
X010513Y005096D02*
X003262Y005096D01*
X003262Y005255D02*
X010627Y005255D01*
X010473Y005595D02*
X010349Y005543D01*
X010214Y005543D01*
X010090Y005595D01*
X009995Y005690D01*
X009943Y005814D01*
X009943Y005949D01*
X009995Y006073D01*
X010090Y006168D01*
X010214Y006220D01*
X010349Y006220D01*
X010473Y006168D01*
X010569Y006073D01*
X010620Y005949D01*
X010620Y005814D01*
X010569Y005690D01*
X010473Y005595D01*
X010419Y005572D02*
X029932Y005572D01*
X029932Y005730D02*
X010585Y005730D01*
X010620Y005889D02*
X029932Y005889D01*
X029932Y006048D02*
X010579Y006048D01*
X010382Y006206D02*
X029932Y006206D01*
X029932Y006365D02*
X007717Y006365D01*
X007754Y006454D02*
X007676Y006265D01*
X007531Y006121D01*
X007342Y006042D01*
X007137Y006042D01*
X006948Y006121D01*
X006804Y006265D01*
X006725Y006454D01*
X006725Y006659D01*
X006804Y006848D01*
X006948Y006993D01*
X007137Y007071D01*
X007342Y007071D01*
X007531Y006993D01*
X007676Y006848D01*
X007754Y006659D01*
X007754Y006454D01*
X007754Y006523D02*
X029932Y006523D01*
X029932Y006682D02*
X007744Y006682D01*
X007679Y006840D02*
X029932Y006840D01*
X029932Y006999D02*
X007516Y006999D01*
X006963Y006999D02*
X003262Y006999D01*
X003262Y007157D02*
X013477Y007157D01*
X013490Y007145D02*
X013614Y007093D01*
X013749Y007093D01*
X013873Y007145D01*
X013969Y007240D01*
X014020Y007364D01*
X014020Y007499D01*
X013969Y007623D01*
X013873Y007718D01*
X013749Y007770D01*
X013614Y007770D01*
X013490Y007718D01*
X013395Y007623D01*
X013343Y007499D01*
X013343Y007364D01*
X013395Y007240D01*
X013490Y007145D01*
X013363Y007316D02*
X011045Y007316D01*
X011023Y007295D02*
X011119Y007390D01*
X011170Y007514D01*
X011170Y007649D01*
X011119Y007773D01*
X011023Y007868D01*
X010899Y007920D01*
X010764Y007920D01*
X010640Y007868D01*
X010545Y007773D01*
X010493Y007649D01*
X010493Y007514D01*
X010545Y007390D01*
X010640Y007295D01*
X010764Y007243D01*
X010899Y007243D01*
X011023Y007295D01*
X011154Y007474D02*
X013343Y007474D01*
X013405Y007633D02*
X011170Y007633D01*
X011100Y007791D02*
X029932Y007791D01*
X029932Y007633D02*
X016309Y007633D01*
X016319Y007623D02*
X016223Y007718D01*
X016099Y007770D01*
X015964Y007770D01*
X015840Y007718D01*
X015745Y007623D01*
X015693Y007499D01*
X015693Y007364D01*
X015745Y007240D01*
X015840Y007145D01*
X015964Y007093D01*
X016099Y007093D01*
X016223Y007145D01*
X016319Y007240D01*
X016370Y007364D01*
X016370Y007499D01*
X016319Y007623D01*
X016370Y007474D02*
X029932Y007474D01*
X029932Y007316D02*
X016350Y007316D01*
X016236Y007157D02*
X029932Y007157D01*
X030382Y007157D02*
X040044Y007157D01*
X040022Y007316D02*
X030382Y007316D01*
X030382Y007474D02*
X040056Y007474D01*
X040134Y006999D02*
X030382Y006999D01*
X030382Y006840D02*
X049432Y006840D01*
X049432Y006682D02*
X041752Y006682D01*
X041742Y006691D02*
X041573Y006761D01*
X041390Y006761D01*
X041221Y006691D01*
X041092Y006562D01*
X041022Y006393D01*
X041022Y006210D01*
X041092Y006041D01*
X041221Y005911D01*
X041390Y005841D01*
X041573Y005841D01*
X041742Y005911D01*
X041872Y006041D01*
X041942Y006210D01*
X041942Y006393D01*
X041872Y006562D01*
X041742Y006691D01*
X041888Y006523D02*
X049432Y006523D01*
X049432Y006365D02*
X047461Y006365D01*
X047457Y006368D02*
X047311Y006429D01*
X047153Y006429D01*
X047007Y006368D01*
X046895Y006257D01*
X046834Y006110D01*
X046834Y005952D01*
X046895Y005806D01*
X047007Y005694D01*
X047153Y005634D01*
X047311Y005634D01*
X047457Y005694D01*
X047569Y005806D01*
X047629Y005952D01*
X047629Y006110D01*
X047569Y006257D01*
X047457Y006368D01*
X047590Y006206D02*
X049432Y006206D01*
X049432Y006048D02*
X047629Y006048D01*
X047603Y005889D02*
X049432Y005889D01*
X049432Y005730D02*
X047493Y005730D01*
X046971Y005730D02*
X043893Y005730D01*
X043857Y005694D02*
X043969Y005806D01*
X044029Y005952D01*
X044029Y006110D01*
X043969Y006257D01*
X043857Y006368D01*
X043711Y006429D01*
X043553Y006429D01*
X043407Y006368D01*
X043295Y006257D01*
X043234Y006110D01*
X043234Y005952D01*
X043295Y005806D01*
X043407Y005694D01*
X043553Y005634D01*
X043711Y005634D01*
X043857Y005694D01*
X044003Y005889D02*
X046860Y005889D01*
X046834Y006048D02*
X044029Y006048D01*
X043990Y006206D02*
X046874Y006206D01*
X047003Y006365D02*
X043861Y006365D01*
X043403Y006365D02*
X041942Y006365D01*
X041940Y006206D02*
X043274Y006206D01*
X043234Y006048D02*
X041874Y006048D01*
X041688Y005889D02*
X043260Y005889D01*
X043371Y005730D02*
X030382Y005730D01*
X030382Y005889D02*
X040275Y005889D01*
X040221Y005911D02*
X040390Y005841D01*
X040573Y005841D01*
X040742Y005911D01*
X040872Y006041D01*
X040942Y006210D01*
X040942Y006393D01*
X040872Y006562D01*
X040742Y006691D01*
X040573Y006761D01*
X040390Y006761D01*
X040221Y006691D01*
X040092Y006562D01*
X040022Y006393D01*
X040022Y006210D01*
X040092Y006041D01*
X040221Y005911D01*
X040089Y006048D02*
X030382Y006048D01*
X030382Y006206D02*
X040023Y006206D01*
X040022Y006365D02*
X030382Y006365D01*
X030382Y006523D02*
X040076Y006523D01*
X040211Y006682D02*
X030382Y006682D01*
X029932Y007950D02*
X006463Y007950D01*
X006455Y007926D02*
X006481Y008006D01*
X006494Y008089D01*
X006494Y008093D01*
X005998Y008093D01*
X005998Y007597D01*
X006002Y007597D01*
X006085Y007610D01*
X006165Y007636D01*
X006240Y007674D01*
X006308Y007724D01*
X006368Y007783D01*
X006417Y007851D01*
X006455Y007926D01*
X006374Y007791D02*
X010563Y007791D01*
X010493Y007633D02*
X006155Y007633D01*
X005998Y007633D02*
X005922Y007633D01*
X005922Y007597D02*
X005922Y008093D01*
X005998Y008093D01*
X005998Y008170D01*
X005922Y008170D01*
X005922Y008666D01*
X005918Y008666D01*
X005835Y008653D01*
X005755Y008627D01*
X005680Y008588D01*
X005612Y008539D01*
X005553Y008479D01*
X005503Y008411D01*
X005465Y008336D01*
X005439Y008257D01*
X005426Y008173D01*
X005426Y008170D01*
X005922Y008170D01*
X005922Y008093D01*
X005426Y008093D01*
X005426Y008089D01*
X005439Y008006D01*
X005465Y007926D01*
X005503Y007851D01*
X005553Y007783D01*
X005612Y007724D01*
X005680Y007674D01*
X005755Y007636D01*
X005835Y007610D01*
X005918Y007597D01*
X005922Y007597D01*
X005765Y007633D02*
X003262Y007633D01*
X003262Y007791D02*
X005547Y007791D01*
X005457Y007950D02*
X003262Y007950D01*
X003262Y008109D02*
X005922Y008109D01*
X005998Y008109D02*
X018742Y008109D01*
X018757Y008094D02*
X018903Y008034D01*
X019061Y008034D01*
X019207Y008094D01*
X019319Y008206D01*
X019379Y008352D01*
X019379Y008510D01*
X019319Y008657D01*
X019207Y008768D01*
X019061Y008829D01*
X018903Y008829D01*
X018757Y008768D01*
X018645Y008657D01*
X018584Y008510D01*
X018584Y008352D01*
X018645Y008206D01*
X018757Y008094D01*
X018620Y008267D02*
X006478Y008267D01*
X006481Y008257D02*
X006455Y008336D01*
X006417Y008411D01*
X006368Y008479D01*
X006308Y008539D01*
X006240Y008588D01*
X006165Y008627D01*
X006085Y008653D01*
X006002Y008666D01*
X005998Y008666D01*
X005998Y008170D01*
X006494Y008170D01*
X006494Y008173D01*
X006481Y008257D01*
X006407Y008426D02*
X018584Y008426D01*
X018615Y008584D02*
X006246Y008584D01*
X005998Y008584D02*
X005922Y008584D01*
X005922Y008426D02*
X005998Y008426D01*
X005998Y008267D02*
X005922Y008267D01*
X005922Y007950D02*
X005998Y007950D01*
X005998Y007791D02*
X005922Y007791D01*
X005442Y008267D02*
X003262Y008267D01*
X003262Y008426D02*
X005513Y008426D01*
X005674Y008584D02*
X003262Y008584D01*
X003262Y008743D02*
X009992Y008743D01*
X009945Y008790D02*
X010040Y008695D01*
X010164Y008643D01*
X010299Y008643D01*
X010423Y008695D01*
X010519Y008790D01*
X010570Y008914D01*
X010570Y009049D01*
X010519Y009173D01*
X010423Y009268D01*
X010299Y009320D01*
X010164Y009320D01*
X010040Y009268D01*
X009945Y009173D01*
X009893Y009049D01*
X009893Y008914D01*
X009945Y008790D01*
X009899Y008901D02*
X003262Y008901D01*
X003262Y009060D02*
X009898Y009060D01*
X009990Y009218D02*
X007898Y009218D01*
X007834Y009192D02*
X008023Y009270D01*
X008168Y009415D01*
X008246Y009604D01*
X008246Y009809D01*
X008168Y009998D01*
X008023Y010142D01*
X007834Y010221D01*
X007629Y010221D01*
X007440Y010142D01*
X007296Y009998D01*
X007217Y009809D01*
X007217Y009604D01*
X007296Y009415D01*
X007440Y009270D01*
X007629Y009192D01*
X007834Y009192D01*
X007565Y009218D02*
X003262Y009218D01*
X003262Y009377D02*
X007334Y009377D01*
X007246Y009535D02*
X003262Y009535D01*
X003262Y009694D02*
X007217Y009694D01*
X007236Y009853D02*
X003262Y009853D01*
X003262Y010011D02*
X007309Y010011D01*
X007507Y010170D02*
X003262Y010170D01*
X003262Y010328D02*
X013343Y010328D01*
X013343Y010264D02*
X013395Y010140D01*
X013490Y010045D01*
X013614Y009993D01*
X013749Y009993D01*
X013873Y010045D01*
X013969Y010140D01*
X014020Y010264D01*
X014020Y010399D01*
X013969Y010523D01*
X013873Y010618D01*
X013749Y010670D01*
X013614Y010670D01*
X013490Y010618D01*
X013395Y010523D01*
X013343Y010399D01*
X013343Y010264D01*
X013382Y010170D02*
X007957Y010170D01*
X008154Y010011D02*
X013571Y010011D01*
X013793Y010011D02*
X029932Y010011D01*
X029932Y009853D02*
X008228Y009853D01*
X008246Y009694D02*
X029932Y009694D01*
X029932Y009535D02*
X008218Y009535D01*
X008130Y009377D02*
X029932Y009377D01*
X029932Y009218D02*
X010473Y009218D01*
X010566Y009060D02*
X029932Y009060D01*
X029932Y008901D02*
X010565Y008901D01*
X010472Y008743D02*
X018731Y008743D01*
X019232Y008743D02*
X020881Y008743D01*
X020907Y008768D02*
X020795Y008657D01*
X020734Y008510D01*
X020734Y008352D01*
X020795Y008206D01*
X020907Y008094D01*
X021053Y008034D01*
X021211Y008034D01*
X021357Y008094D01*
X021469Y008206D01*
X021529Y008352D01*
X021529Y008510D01*
X021469Y008657D01*
X021357Y008768D01*
X021211Y008829D01*
X021053Y008829D01*
X020907Y008768D01*
X020765Y008584D02*
X019349Y008584D01*
X019379Y008426D02*
X020734Y008426D01*
X020770Y008267D02*
X019344Y008267D01*
X019221Y008109D02*
X020892Y008109D01*
X021371Y008109D02*
X029932Y008109D01*
X029932Y008267D02*
X021494Y008267D01*
X021529Y008426D02*
X029932Y008426D01*
X029932Y008584D02*
X021499Y008584D01*
X021382Y008743D02*
X029932Y008743D01*
X029932Y010170D02*
X013981Y010170D01*
X014020Y010328D02*
X029932Y010328D01*
X029932Y010487D02*
X013984Y010487D01*
X013808Y010645D02*
X017709Y010645D01*
X017714Y010643D02*
X017849Y010643D01*
X017973Y010695D01*
X018069Y010790D01*
X018120Y010914D01*
X018120Y011049D01*
X018069Y011173D01*
X017973Y011268D01*
X017849Y011320D01*
X017714Y011320D01*
X017590Y011268D01*
X017495Y011173D01*
X017443Y011049D01*
X017443Y010914D01*
X017495Y010790D01*
X017590Y010695D01*
X017714Y010643D01*
X017855Y010645D02*
X029932Y010645D01*
X029932Y010804D02*
X018074Y010804D01*
X018120Y010962D02*
X029932Y010962D01*
X029932Y011121D02*
X018090Y011121D01*
X017946Y011279D02*
X029932Y011279D01*
X029932Y011438D02*
X003262Y011438D01*
X003262Y011279D02*
X017617Y011279D01*
X017473Y011121D02*
X003262Y011121D01*
X003262Y010962D02*
X010584Y010962D01*
X010545Y010923D02*
X010493Y010799D01*
X010493Y010664D01*
X010545Y010540D01*
X010640Y010445D01*
X010764Y010393D01*
X010899Y010393D01*
X011023Y010445D01*
X011119Y010540D01*
X011170Y010664D01*
X011170Y010799D01*
X011119Y010923D01*
X011023Y011018D01*
X010899Y011070D01*
X010764Y011070D01*
X010640Y011018D01*
X010545Y010923D01*
X010495Y010804D02*
X003262Y010804D01*
X003262Y010645D02*
X010501Y010645D01*
X010598Y010487D02*
X003262Y010487D01*
X003262Y011597D02*
X025188Y011597D01*
X025145Y011640D02*
X025240Y011545D01*
X025364Y011493D01*
X025499Y011493D01*
X025623Y011545D01*
X025719Y011640D01*
X025770Y011764D01*
X025770Y011899D01*
X025719Y012023D01*
X025623Y012118D01*
X025499Y012170D01*
X025364Y012170D01*
X025240Y012118D01*
X025145Y012023D01*
X025093Y011899D01*
X025093Y011764D01*
X025145Y011640D01*
X025097Y011755D02*
X003262Y011755D01*
X003262Y011914D02*
X025099Y011914D01*
X025194Y012072D02*
X003262Y012072D01*
X003262Y012231D02*
X029932Y012231D01*
X029932Y012389D02*
X003262Y012389D01*
X005922Y015243D02*
X005998Y015243D01*
X005998Y015402D02*
X005922Y015402D01*
X005922Y015560D02*
X005998Y015560D01*
X005998Y015719D02*
X005922Y015719D01*
X005922Y015877D02*
X005998Y015877D01*
X005998Y016036D02*
X005922Y016036D01*
X006443Y015402D02*
X010623Y015402D01*
X010512Y015243D02*
X006327Y015243D01*
X011079Y010962D02*
X017443Y010962D01*
X017489Y010804D02*
X011168Y010804D01*
X011162Y010645D02*
X013555Y010645D01*
X013380Y010487D02*
X011066Y010487D01*
X013959Y007633D02*
X015755Y007633D01*
X015693Y007474D02*
X014020Y007474D01*
X014000Y007316D02*
X015713Y007316D01*
X015827Y007157D02*
X013886Y007157D01*
X011037Y005255D02*
X029932Y005255D01*
X029932Y005413D02*
X003262Y005413D01*
X003262Y005572D02*
X010145Y005572D01*
X009978Y005730D02*
X003262Y005730D01*
X003262Y005889D02*
X009943Y005889D01*
X009984Y006048D02*
X007355Y006048D01*
X007125Y006048D02*
X003262Y006048D01*
X003262Y006206D02*
X006863Y006206D01*
X006762Y006365D02*
X003262Y006365D01*
X003262Y006523D02*
X006725Y006523D01*
X006735Y006682D02*
X003262Y006682D01*
X003262Y006840D02*
X006800Y006840D01*
X007616Y006206D02*
X010181Y006206D01*
X010619Y007316D02*
X003262Y007316D01*
X003262Y007474D02*
X010510Y007474D01*
X011170Y005049D02*
X011170Y004914D01*
X011119Y004790D01*
X011035Y004706D01*
X011119Y004623D01*
X011170Y004499D01*
X011170Y004364D01*
X011119Y004240D01*
X011023Y004145D01*
X010899Y004093D01*
X010764Y004093D01*
X010640Y004145D01*
X011024Y004145D02*
X014001Y004145D01*
X013993Y004164D02*
X014045Y004040D01*
X014140Y003945D01*
X014264Y003893D01*
X014399Y003893D01*
X014523Y003945D01*
X014619Y004040D01*
X014670Y004164D01*
X014670Y004299D01*
X014619Y004423D01*
X014523Y004518D01*
X014399Y004570D01*
X014264Y004570D01*
X014140Y004518D01*
X014045Y004423D01*
X013993Y004299D01*
X013993Y004164D01*
X013995Y004304D02*
X011145Y004304D01*
X011170Y004462D02*
X014084Y004462D01*
X014098Y003986D02*
X003262Y003986D01*
X003262Y003828D02*
X005348Y003828D01*
X005399Y003849D02*
X005245Y003785D01*
X005128Y003668D01*
X005064Y003514D01*
X005064Y003348D01*
X005128Y003195D01*
X005245Y003077D01*
X005399Y003014D01*
X005565Y003014D01*
X005718Y003077D01*
X005836Y003195D01*
X005899Y003348D01*
X005899Y003514D01*
X005836Y003668D01*
X005718Y003785D01*
X005565Y003849D01*
X005399Y003849D01*
X005615Y003828D02*
X006348Y003828D01*
X006399Y003849D02*
X006245Y003785D01*
X006128Y003668D01*
X006064Y003514D01*
X006064Y003348D01*
X006128Y003195D01*
X006245Y003077D01*
X006399Y003014D01*
X006565Y003014D01*
X006718Y003077D01*
X006836Y003195D01*
X006899Y003348D01*
X006899Y003514D01*
X006836Y003668D01*
X006718Y003785D01*
X006565Y003849D01*
X006399Y003849D01*
X006615Y003828D02*
X039852Y003828D01*
X039852Y003783D02*
X039929Y003495D01*
X040077Y003238D01*
X040288Y003027D01*
X040546Y002878D01*
X040833Y002801D01*
X041131Y002801D01*
X041418Y002878D01*
X041676Y003027D01*
X041886Y003238D01*
X042035Y003495D01*
X042112Y003783D01*
X042112Y004080D01*
X042035Y004368D01*
X041886Y004625D01*
X041676Y004836D01*
X041418Y004984D01*
X041131Y005061D01*
X040833Y005061D01*
X040546Y004984D01*
X040288Y004836D01*
X040077Y004625D01*
X039929Y004368D01*
X039852Y004080D01*
X039852Y003783D01*
X039882Y003669D02*
X006834Y003669D01*
X006899Y003511D02*
X039925Y003511D01*
X040011Y003352D02*
X006899Y003352D01*
X006834Y003194D02*
X040121Y003194D01*
X040280Y003035D02*
X006616Y003035D01*
X006565Y002849D02*
X006399Y002849D01*
X006245Y002785D01*
X006128Y002668D01*
X006064Y002514D01*
X006064Y002348D01*
X006128Y002195D01*
X006245Y002077D01*
X006399Y002014D01*
X006565Y002014D01*
X006718Y002077D01*
X006836Y002195D01*
X006899Y002348D01*
X006899Y002514D01*
X006836Y002668D01*
X006718Y002785D01*
X006565Y002849D01*
X006785Y002718D02*
X059434Y002718D01*
X059396Y002728D02*
X059683Y002651D01*
X059981Y002651D01*
X060268Y002728D01*
X060526Y002877D01*
X060736Y003088D01*
X060885Y003345D01*
X060962Y003633D01*
X060962Y003930D01*
X060885Y004218D01*
X060736Y004475D01*
X060526Y004686D01*
X060268Y004834D01*
X059981Y004911D01*
X059683Y004911D01*
X059396Y004834D01*
X059138Y004686D01*
X058927Y004475D01*
X058779Y004218D01*
X058702Y003930D01*
X058702Y003633D01*
X058779Y003345D01*
X058927Y003088D01*
X059138Y002877D01*
X059396Y002728D01*
X059139Y002877D02*
X041411Y002877D01*
X041684Y003035D02*
X058980Y003035D01*
X058866Y003194D02*
X041842Y003194D01*
X041952Y003352D02*
X058777Y003352D01*
X058734Y003511D02*
X042039Y003511D01*
X042081Y003669D02*
X058702Y003669D01*
X058702Y003828D02*
X055167Y003828D01*
X055207Y003844D02*
X055061Y003784D01*
X054903Y003784D01*
X054757Y003844D01*
X054645Y003956D01*
X054584Y004102D01*
X054584Y004260D01*
X054645Y004407D01*
X054757Y004518D01*
X054903Y004579D01*
X055061Y004579D01*
X055207Y004518D01*
X055319Y004407D01*
X055379Y004260D01*
X055379Y004102D01*
X055319Y003956D01*
X055207Y003844D01*
X055331Y003986D02*
X058717Y003986D01*
X058759Y004145D02*
X055379Y004145D01*
X055361Y004304D02*
X058828Y004304D01*
X058920Y004462D02*
X055263Y004462D01*
X054700Y004462D02*
X041980Y004462D01*
X042052Y004304D02*
X054602Y004304D01*
X054584Y004145D02*
X042094Y004145D01*
X042112Y003986D02*
X054632Y003986D01*
X054796Y003828D02*
X042112Y003828D01*
X041889Y004621D02*
X059073Y004621D01*
X059300Y004779D02*
X041732Y004779D01*
X041499Y004938D02*
X062702Y004938D01*
X062802Y004938D02*
X062962Y004938D01*
X063061Y004938D02*
X065294Y004938D01*
X065294Y005096D02*
X063413Y005096D01*
X063578Y005255D02*
X065294Y005255D01*
X065294Y005413D02*
X063681Y005413D01*
X063740Y005572D02*
X065294Y005572D01*
X065294Y005730D02*
X063770Y005730D01*
X062962Y005730D02*
X062802Y005730D01*
X062802Y005572D02*
X062962Y005572D01*
X062962Y005413D02*
X062802Y005413D01*
X062802Y005255D02*
X062962Y005255D01*
X062962Y005096D02*
X062802Y005096D01*
X062802Y005889D02*
X049882Y005889D01*
X049432Y008743D02*
X048222Y008743D01*
X048315Y008901D02*
X049432Y008901D01*
X049432Y009060D02*
X048316Y009060D01*
X048223Y009218D02*
X049432Y009218D01*
X049432Y009377D02*
X043765Y009377D01*
X043199Y009377D02*
X041942Y009377D01*
X041942Y009393D02*
X041872Y009562D01*
X041742Y009691D01*
X041573Y009761D01*
X041390Y009761D01*
X041221Y009691D01*
X041092Y009562D01*
X041022Y009393D01*
X041022Y009210D01*
X041092Y009041D01*
X041221Y008911D01*
X041390Y008841D01*
X041573Y008841D01*
X041742Y008911D01*
X041872Y009041D01*
X041942Y009210D01*
X041942Y009393D01*
X041883Y009535D02*
X049432Y009535D01*
X049432Y009694D02*
X049372Y009694D01*
X048991Y009694D02*
X041736Y009694D01*
X041600Y009853D02*
X048869Y009853D01*
X048843Y010011D02*
X041842Y010011D01*
X041925Y010170D02*
X048893Y010170D01*
X049882Y010487D02*
X059708Y010487D01*
X060155Y010487D02*
X060409Y010487D01*
X060393Y010328D02*
X060258Y010328D01*
X060349Y010170D02*
X060465Y010170D01*
X060517Y010645D02*
X049882Y010645D01*
X049882Y009694D02*
X049891Y009694D01*
X049432Y012706D02*
X041706Y012706D01*
X041630Y012865D02*
X049432Y012865D01*
X049432Y013023D02*
X041854Y013023D01*
X041872Y013041D02*
X041942Y013210D01*
X041942Y013393D01*
X041872Y013562D01*
X041742Y013691D01*
X041573Y013761D01*
X041390Y013761D01*
X041221Y013691D01*
X041092Y013562D01*
X041022Y013393D01*
X041022Y013210D01*
X041092Y013041D01*
X041221Y012911D01*
X041390Y012841D01*
X041573Y012841D01*
X041742Y012911D01*
X041872Y013041D01*
X041930Y013182D02*
X049432Y013182D01*
X049432Y013341D02*
X041942Y013341D01*
X041898Y013499D02*
X049432Y013499D01*
X049432Y013658D02*
X041776Y013658D01*
X041742Y013911D02*
X041872Y014041D01*
X041942Y014210D01*
X041942Y014393D01*
X041872Y014562D01*
X041742Y014691D01*
X041573Y014761D01*
X041390Y014761D01*
X041221Y014691D01*
X041092Y014562D01*
X041022Y014393D01*
X041022Y014210D01*
X041092Y014041D01*
X041221Y013911D01*
X041390Y013841D01*
X041573Y013841D01*
X041742Y013911D01*
X041806Y013975D02*
X049432Y013975D01*
X049432Y014133D02*
X041910Y014133D01*
X041942Y014292D02*
X049432Y014292D01*
X049432Y014450D02*
X041918Y014450D01*
X041825Y014609D02*
X049432Y014609D01*
X049432Y014767D02*
X030382Y014767D01*
X030382Y014609D02*
X040139Y014609D01*
X040092Y014562D02*
X040022Y014393D01*
X040022Y014210D01*
X040092Y014041D01*
X040221Y013911D01*
X040390Y013841D01*
X040573Y013841D01*
X040742Y013911D01*
X040872Y014041D01*
X040942Y014210D01*
X040942Y014393D01*
X040872Y014562D01*
X040742Y014691D01*
X040573Y014761D01*
X040390Y014761D01*
X040221Y014691D01*
X040092Y014562D01*
X040046Y014450D02*
X030382Y014450D01*
X030382Y014292D02*
X040022Y014292D01*
X040053Y014133D02*
X030382Y014133D01*
X030382Y013975D02*
X040158Y013975D01*
X040221Y013691D02*
X040092Y013562D01*
X040022Y013393D01*
X040022Y013210D01*
X040092Y013041D01*
X040221Y012911D01*
X040390Y012841D01*
X040573Y012841D01*
X040742Y012911D01*
X040872Y013041D01*
X040942Y013210D01*
X040942Y013393D01*
X040872Y013562D01*
X040742Y013691D01*
X040573Y013761D01*
X040390Y013761D01*
X040221Y013691D01*
X040187Y013658D02*
X030382Y013658D01*
X030382Y013816D02*
X049432Y013816D01*
X049432Y014926D02*
X041757Y014926D01*
X041742Y014911D02*
X041872Y015041D01*
X041942Y015210D01*
X041942Y015393D01*
X041872Y015562D01*
X041742Y015691D01*
X041573Y015761D01*
X041390Y015761D01*
X041221Y015691D01*
X041092Y015562D01*
X041022Y015393D01*
X041022Y015210D01*
X041092Y015041D01*
X041221Y014911D01*
X041390Y014841D01*
X041573Y014841D01*
X041742Y014911D01*
X041890Y015084D02*
X049432Y015084D01*
X049432Y015243D02*
X041942Y015243D01*
X041938Y015402D02*
X049432Y015402D01*
X049432Y015560D02*
X041872Y015560D01*
X041676Y015719D02*
X046869Y015719D01*
X046807Y015744D02*
X046953Y015684D01*
X047111Y015684D01*
X047257Y015744D01*
X047369Y015856D01*
X047429Y016002D01*
X047429Y016160D01*
X047369Y016307D01*
X047257Y016418D01*
X047111Y016479D01*
X046953Y016479D01*
X046807Y016418D01*
X046695Y016307D01*
X046634Y016160D01*
X046634Y016002D01*
X046695Y015856D01*
X046807Y015744D01*
X046686Y015877D02*
X041660Y015877D01*
X041867Y016036D02*
X046634Y016036D01*
X046648Y016194D02*
X041935Y016194D01*
X041942Y016353D02*
X046741Y016353D01*
X047322Y016353D02*
X049432Y016353D01*
X049432Y016511D02*
X041893Y016511D01*
X041200Y016670D02*
X040764Y016670D01*
X040742Y016691D02*
X040573Y016761D01*
X040390Y016761D01*
X040221Y016691D01*
X040092Y016562D01*
X040022Y016393D01*
X040022Y016210D01*
X040092Y016041D01*
X040221Y015911D01*
X040390Y015841D01*
X040573Y015841D01*
X040742Y015911D01*
X040872Y016041D01*
X040942Y016210D01*
X040942Y016393D01*
X040872Y016562D01*
X040742Y016691D01*
X040893Y016511D02*
X041071Y016511D01*
X041022Y016353D02*
X040942Y016353D01*
X040935Y016194D02*
X041028Y016194D01*
X041097Y016036D02*
X040867Y016036D01*
X040660Y015877D02*
X041304Y015877D01*
X041287Y015719D02*
X040676Y015719D01*
X040742Y015691D02*
X040573Y015761D01*
X040390Y015761D01*
X040221Y015691D01*
X040092Y015562D01*
X040022Y015393D01*
X040022Y015210D01*
X040092Y015041D01*
X040221Y014911D01*
X040390Y014841D01*
X040573Y014841D01*
X040742Y014911D01*
X040872Y015041D01*
X040942Y015210D01*
X040942Y015393D01*
X040872Y015562D01*
X040742Y015691D01*
X040872Y015560D02*
X041091Y015560D01*
X041025Y015402D02*
X040938Y015402D01*
X040942Y015243D02*
X041022Y015243D01*
X041074Y015084D02*
X040890Y015084D01*
X040757Y014926D02*
X041207Y014926D01*
X041139Y014609D02*
X040825Y014609D01*
X040918Y014450D02*
X041046Y014450D01*
X041022Y014292D02*
X040942Y014292D01*
X040910Y014133D02*
X041053Y014133D01*
X041158Y013975D02*
X040806Y013975D01*
X040776Y013658D02*
X041187Y013658D01*
X041066Y013499D02*
X040898Y013499D01*
X040942Y013341D02*
X041022Y013341D01*
X041033Y013182D02*
X040930Y013182D01*
X040854Y013023D02*
X041109Y013023D01*
X041334Y012865D02*
X040630Y012865D01*
X040573Y012761D02*
X040390Y012761D01*
X040221Y012691D01*
X040092Y012562D01*
X040022Y012393D01*
X040022Y012210D01*
X040092Y012041D01*
X040221Y011911D01*
X040390Y011841D01*
X040573Y011841D01*
X040742Y011911D01*
X040872Y012041D01*
X040942Y012210D01*
X040942Y012393D01*
X040872Y012562D01*
X040742Y012691D01*
X040573Y012761D01*
X040706Y012706D02*
X041257Y012706D01*
X041086Y012548D02*
X040878Y012548D01*
X040942Y012389D02*
X041022Y012389D01*
X041022Y012231D02*
X040942Y012231D01*
X040885Y012072D02*
X041079Y012072D01*
X041219Y011914D02*
X040744Y011914D01*
X040588Y011755D02*
X041375Y011755D01*
X041126Y011597D02*
X040837Y011597D01*
X040923Y011438D02*
X041040Y011438D01*
X041022Y011279D02*
X040942Y011279D01*
X040905Y011121D02*
X041059Y011121D01*
X041170Y010962D02*
X040793Y010962D01*
X040788Y010645D02*
X041175Y010645D01*
X041061Y010487D02*
X040903Y010487D01*
X040942Y010328D02*
X041022Y010328D01*
X041038Y010170D02*
X040925Y010170D01*
X040842Y010011D02*
X041121Y010011D01*
X041363Y009853D02*
X040600Y009853D01*
X040736Y009694D02*
X041228Y009694D01*
X041081Y009535D02*
X040883Y009535D01*
X040942Y009377D02*
X041022Y009377D01*
X041022Y009218D02*
X040942Y009218D01*
X040880Y009060D02*
X041084Y009060D01*
X041246Y008901D02*
X040718Y008901D01*
X040618Y008743D02*
X041345Y008743D01*
X041618Y008743D02*
X043402Y008743D01*
X043500Y008584D02*
X041849Y008584D01*
X041928Y008426D02*
X043743Y008426D01*
X043763Y008267D02*
X041942Y008267D01*
X041900Y008109D02*
X043876Y008109D01*
X043283Y008901D02*
X041718Y008901D01*
X041880Y009060D02*
X043166Y009060D01*
X043143Y009218D02*
X041942Y009218D01*
X041114Y008584D02*
X040849Y008584D01*
X040928Y008426D02*
X041035Y008426D01*
X041022Y008267D02*
X040942Y008267D01*
X040900Y008109D02*
X041064Y008109D01*
X041183Y007950D02*
X040781Y007950D01*
X040801Y007633D02*
X041163Y007633D01*
X041056Y007474D02*
X040908Y007474D01*
X040942Y007316D02*
X041022Y007316D01*
X041044Y007157D02*
X040920Y007157D01*
X040830Y006999D02*
X041134Y006999D01*
X041211Y006682D02*
X040752Y006682D01*
X040888Y006523D02*
X041076Y006523D01*
X041022Y006365D02*
X040942Y006365D01*
X040940Y006206D02*
X041023Y006206D01*
X041089Y006048D02*
X040874Y006048D01*
X040688Y005889D02*
X041275Y005889D01*
X040465Y004938D02*
X018254Y004938D01*
X018223Y004968D02*
X018099Y005020D01*
X017964Y005020D01*
X017840Y004968D01*
X017745Y004873D01*
X017693Y004749D01*
X017693Y004614D01*
X017745Y004490D01*
X017840Y004395D01*
X017964Y004343D01*
X018099Y004343D01*
X018223Y004395D01*
X018319Y004490D01*
X018370Y004614D01*
X018370Y004749D01*
X018319Y004873D01*
X018223Y004968D01*
X018358Y004779D02*
X040231Y004779D01*
X040075Y004621D02*
X018370Y004621D01*
X018291Y004462D02*
X039983Y004462D01*
X039912Y004304D02*
X014668Y004304D01*
X014662Y004145D02*
X039869Y004145D01*
X039852Y003986D02*
X014565Y003986D01*
X014580Y004462D02*
X017772Y004462D01*
X017693Y004621D02*
X011120Y004621D01*
X011108Y004779D02*
X017706Y004779D01*
X017809Y004938D02*
X011170Y004938D01*
X006881Y002560D02*
X065294Y002560D01*
X065294Y002718D02*
X060229Y002718D01*
X060525Y002877D02*
X065294Y002877D01*
X065294Y003035D02*
X060684Y003035D01*
X060797Y003194D02*
X065294Y003194D01*
X065294Y003352D02*
X060887Y003352D01*
X060929Y003511D02*
X065294Y003511D01*
X065294Y003669D02*
X060962Y003669D01*
X060962Y003828D02*
X065294Y003828D01*
X065294Y003986D02*
X060947Y003986D01*
X060904Y004145D02*
X065294Y004145D01*
X065294Y004304D02*
X060835Y004304D01*
X060744Y004462D02*
X065294Y004462D01*
X065294Y004621D02*
X060591Y004621D01*
X060364Y004779D02*
X065294Y004779D01*
X065294Y002401D02*
X006899Y002401D01*
X006855Y002242D02*
X065294Y002242D01*
X065294Y002084D02*
X006725Y002084D01*
X006239Y002084D02*
X005725Y002084D01*
X005718Y002077D02*
X005836Y002195D01*
X005899Y002348D01*
X005899Y002514D01*
X005836Y002668D01*
X005718Y002785D01*
X005565Y002849D01*
X005399Y002849D01*
X005245Y002785D01*
X005128Y002668D01*
X005064Y002514D01*
X005064Y002348D01*
X005128Y002195D01*
X005245Y002077D01*
X005399Y002014D01*
X005565Y002014D01*
X005718Y002077D01*
X005855Y002242D02*
X006108Y002242D01*
X006064Y002401D02*
X005899Y002401D01*
X005881Y002560D02*
X006083Y002560D01*
X006178Y002718D02*
X005785Y002718D01*
X005616Y003035D02*
X006347Y003035D01*
X006129Y003194D02*
X005834Y003194D01*
X005899Y003352D02*
X006064Y003352D01*
X006064Y003511D02*
X005899Y003511D01*
X005834Y003669D02*
X006129Y003669D01*
X005129Y003669D02*
X003262Y003669D01*
X003262Y003511D02*
X005064Y003511D01*
X005064Y003352D02*
X003262Y003352D01*
X003262Y003194D02*
X005129Y003194D01*
X005347Y003035D02*
X003262Y003035D01*
X003262Y002877D02*
X040552Y002877D01*
X040059Y011121D02*
X030382Y011121D01*
X030382Y011279D02*
X040022Y011279D01*
X040040Y011438D02*
X030382Y011438D01*
X030382Y011597D02*
X038538Y011597D01*
X038495Y011640D02*
X038590Y011545D01*
X038714Y011493D01*
X038849Y011493D01*
X038973Y011545D01*
X039069Y011640D01*
X039120Y011764D01*
X039120Y011899D01*
X039069Y012023D01*
X038973Y012118D01*
X038849Y012170D01*
X038714Y012170D01*
X038590Y012118D01*
X038495Y012023D01*
X038443Y011899D01*
X038443Y011764D01*
X038495Y011640D01*
X038447Y011755D02*
X030382Y011755D01*
X030382Y011914D02*
X038449Y011914D01*
X038544Y012072D02*
X030382Y012072D01*
X030382Y012231D02*
X040022Y012231D01*
X040022Y012389D02*
X030382Y012389D01*
X030382Y012548D02*
X040086Y012548D01*
X040257Y012706D02*
X030382Y012706D01*
X030382Y012865D02*
X040334Y012865D01*
X040109Y013023D02*
X030382Y013023D01*
X030382Y013182D02*
X040033Y013182D01*
X040022Y013341D02*
X030382Y013341D01*
X030382Y013499D02*
X040066Y013499D01*
X040079Y012072D02*
X039020Y012072D01*
X039114Y011914D02*
X040219Y011914D01*
X040375Y011755D02*
X039116Y011755D01*
X039025Y011597D02*
X040126Y011597D01*
X040207Y014926D02*
X030382Y014926D01*
X030382Y015084D02*
X040074Y015084D01*
X040022Y015243D02*
X030382Y015243D01*
X030382Y015402D02*
X040025Y015402D01*
X040091Y015560D02*
X030382Y015560D01*
X030382Y015719D02*
X040287Y015719D01*
X040304Y015877D02*
X030382Y015877D01*
X030382Y016036D02*
X040097Y016036D01*
X040028Y016194D02*
X030382Y016194D01*
X030382Y016353D02*
X040022Y016353D01*
X040071Y016511D02*
X030382Y016511D01*
X030382Y016670D02*
X040200Y016670D01*
X040818Y016987D02*
X041146Y016987D01*
X041048Y017146D02*
X040915Y017146D01*
X040942Y017304D02*
X041022Y017304D01*
X041051Y017463D02*
X040913Y017463D01*
X040812Y017621D02*
X041151Y017621D01*
X041194Y017938D02*
X040769Y017938D01*
X040895Y018097D02*
X041069Y018097D01*
X041022Y018255D02*
X040942Y018255D01*
X040933Y018414D02*
X041030Y018414D01*
X041102Y018572D02*
X040861Y018572D01*
X041861Y018572D02*
X047111Y018572D01*
X047157Y018618D02*
X047045Y018507D01*
X046984Y018360D01*
X046984Y018202D01*
X047045Y018056D01*
X047157Y017944D01*
X047303Y017884D01*
X047461Y017884D01*
X047607Y017944D01*
X047719Y018056D01*
X047779Y018202D01*
X047779Y018360D01*
X047719Y018507D01*
X047607Y018618D01*
X047461Y018679D01*
X047303Y018679D01*
X047157Y018618D01*
X047006Y018414D02*
X041933Y018414D01*
X041942Y018255D02*
X046984Y018255D01*
X047028Y018097D02*
X041895Y018097D01*
X041769Y017938D02*
X047171Y017938D01*
X047592Y017938D02*
X049432Y017938D01*
X049432Y018097D02*
X047735Y018097D01*
X047779Y018255D02*
X049432Y018255D01*
X049432Y018414D02*
X047757Y018414D01*
X047653Y018572D02*
X049432Y018572D01*
X049882Y017304D02*
X062186Y017304D01*
X062352Y017146D02*
X049882Y017146D01*
X049882Y016987D02*
X062705Y016987D01*
X062802Y016987D02*
X062962Y016987D01*
X062962Y016974D02*
X063056Y016986D01*
X063169Y017017D01*
X063277Y017061D01*
X063378Y017120D01*
X063471Y017191D01*
X063554Y017274D01*
X063625Y017366D01*
X063683Y017468D01*
X063728Y017576D01*
X063758Y017689D01*
X063771Y017783D01*
X062962Y017783D01*
X062962Y016974D01*
X063058Y016987D02*
X065294Y016987D01*
X065294Y017146D02*
X063412Y017146D01*
X063577Y017304D02*
X065294Y017304D01*
X065294Y017463D02*
X063680Y017463D01*
X063740Y017621D02*
X065294Y017621D01*
X065294Y017780D02*
X063770Y017780D01*
X063742Y018097D02*
X065294Y018097D01*
X065294Y018255D02*
X063684Y018255D01*
X063583Y018414D02*
X065294Y018414D01*
X065294Y018572D02*
X063422Y018572D01*
X062962Y017938D02*
X065294Y017938D01*
X065294Y019048D02*
X065080Y019048D01*
X065290Y019207D02*
X065294Y019207D01*
X064017Y019207D02*
X063103Y019207D01*
X063352Y019365D02*
X063893Y019365D01*
X063816Y019524D02*
X063471Y019524D01*
X063536Y019682D02*
X063774Y019682D01*
X062962Y017780D02*
X062802Y017780D01*
X062802Y017621D02*
X062962Y017621D01*
X062962Y017463D02*
X062802Y017463D01*
X062802Y017304D02*
X062962Y017304D01*
X062962Y017146D02*
X062802Y017146D01*
X062802Y016670D02*
X062962Y016670D01*
X062962Y016511D02*
X062802Y016511D01*
X062802Y016353D02*
X062962Y016353D01*
X062962Y016194D02*
X062802Y016194D01*
X062802Y016036D02*
X062962Y016036D01*
X062531Y016670D02*
X059911Y016670D01*
X059919Y016511D02*
X062282Y016511D01*
X062144Y016353D02*
X059832Y016353D01*
X059332Y016353D02*
X057829Y016353D01*
X057829Y016410D02*
X057769Y016557D01*
X057657Y016668D01*
X057511Y016729D01*
X057353Y016729D01*
X057207Y016668D01*
X057095Y016557D01*
X057034Y016410D01*
X057034Y016252D01*
X057095Y016106D01*
X057207Y015994D01*
X057353Y015934D01*
X057511Y015934D01*
X057657Y015994D01*
X057769Y016106D01*
X057829Y016252D01*
X057829Y016410D01*
X057787Y016511D02*
X059244Y016511D01*
X059252Y016670D02*
X057653Y016670D01*
X057210Y016670D02*
X049882Y016670D01*
X049882Y016828D02*
X059350Y016828D01*
X057805Y016194D02*
X061551Y016194D01*
X061408Y016036D02*
X057698Y016036D01*
X057165Y016036D02*
X054788Y016036D01*
X054769Y015990D02*
X054820Y016114D01*
X054820Y016249D01*
X054769Y016373D01*
X054673Y016468D01*
X054549Y016520D01*
X054414Y016520D01*
X054290Y016468D01*
X054195Y016373D01*
X054143Y016249D01*
X054143Y016114D01*
X054195Y015990D01*
X054290Y015895D01*
X054414Y015843D01*
X054549Y015843D01*
X054673Y015895D01*
X054769Y015990D01*
X054632Y015877D02*
X061374Y015877D01*
X061411Y015719D02*
X049882Y015719D01*
X049882Y015877D02*
X054332Y015877D01*
X054176Y016036D02*
X049882Y016036D01*
X049882Y016194D02*
X054143Y016194D01*
X054186Y016353D02*
X049882Y016353D01*
X049882Y016511D02*
X054394Y016511D01*
X054569Y016511D02*
X057076Y016511D01*
X057034Y016353D02*
X054777Y016353D01*
X054820Y016194D02*
X057058Y016194D01*
X060183Y014609D02*
X060481Y014609D01*
X060394Y014450D02*
X060269Y014450D01*
X060261Y014292D02*
X060403Y014292D01*
X060501Y014133D02*
X060162Y014133D01*
X062111Y015402D02*
X049882Y015402D01*
X049882Y015560D02*
X061572Y015560D01*
X061892Y015560D02*
X062036Y015560D01*
X062227Y015243D02*
X049882Y015243D01*
X049432Y015719D02*
X047195Y015719D01*
X047377Y015877D02*
X049432Y015877D01*
X049432Y016036D02*
X047429Y016036D01*
X047415Y016194D02*
X049432Y016194D01*
X051582Y013341D02*
X053881Y013341D01*
X053843Y013182D02*
X051620Y013182D01*
X051583Y013023D02*
X053881Y013023D01*
X054062Y012865D02*
X051402Y012865D01*
X054781Y008743D02*
X055032Y008743D01*
X054993Y008584D02*
X054820Y008584D01*
X054783Y008426D02*
X055030Y008426D01*
X055206Y008267D02*
X054607Y008267D01*
X055457Y008267D02*
X056106Y008267D01*
X055930Y008426D02*
X055633Y008426D01*
X055670Y008584D02*
X055893Y008584D01*
X055932Y008743D02*
X055631Y008743D01*
X063447Y009060D02*
X065294Y009060D01*
X065294Y009218D02*
X063598Y009218D01*
X063692Y009377D02*
X065294Y009377D01*
X065294Y009535D02*
X063747Y009535D01*
X065046Y008584D02*
X065294Y008584D01*
X065294Y008426D02*
X065270Y008426D01*
X065294Y001925D02*
X003262Y001925D01*
X003262Y001767D02*
X065294Y001767D01*
X065294Y001608D02*
X003262Y001608D01*
X003262Y001450D02*
X065294Y001450D01*
X065294Y001291D02*
X003262Y001291D01*
X003262Y001133D02*
X065294Y001133D01*
X065294Y000974D02*
X003262Y000974D01*
X003262Y000816D02*
X065294Y000816D01*
X062059Y016194D02*
X061912Y016194D01*
X051633Y022695D02*
X051581Y022695D01*
X050983Y022695D02*
X050931Y022695D01*
X049432Y020475D02*
X041930Y020475D01*
X041502Y020475D02*
X041462Y020475D01*
X041462Y020634D02*
X041502Y020634D01*
X041502Y020158D02*
X041462Y020158D01*
X041462Y019999D02*
X041502Y019999D01*
X041108Y019999D02*
X040830Y019999D01*
X040920Y020158D02*
X041024Y020158D01*
X040066Y026500D02*
X017146Y026500D01*
X017225Y026658D02*
X040188Y026658D01*
X031381Y029670D02*
X028983Y029670D01*
X029087Y029512D02*
X031300Y029512D01*
X031234Y029353D02*
X029129Y029353D01*
X029105Y029195D02*
X031237Y029195D01*
X031315Y029036D02*
X028999Y029036D01*
X028465Y029036D02*
X025231Y029036D01*
X025279Y029195D02*
X028358Y029195D01*
X028334Y029353D02*
X025261Y029353D01*
X025163Y029512D02*
X028376Y029512D01*
X028481Y029670D02*
X025225Y029670D01*
X025279Y029829D02*
X028365Y029829D01*
X028334Y029988D02*
X025268Y029988D01*
X025179Y030146D02*
X028370Y030146D01*
X029094Y030146D02*
X031270Y030146D01*
X031234Y029988D02*
X029129Y029988D01*
X029099Y029829D02*
X031265Y029829D01*
X031316Y028878D02*
X025147Y028878D01*
X025255Y028719D02*
X031238Y028719D01*
X031234Y028561D02*
X025279Y028561D01*
X025238Y028402D02*
X031299Y028402D01*
X017208Y032366D02*
X065294Y032366D01*
X065294Y032524D02*
X017239Y032524D01*
X017214Y032683D02*
X065294Y032683D01*
X065294Y032841D02*
X017118Y032841D01*
X016800Y033158D02*
X016763Y033158D01*
X016763Y033317D02*
X016800Y033317D01*
X016800Y033476D02*
X016763Y033476D01*
X016763Y033550D02*
X016305Y033550D01*
X016305Y033569D01*
X016317Y033643D01*
X016340Y033714D01*
X016374Y033781D01*
X016418Y033842D01*
X016471Y033895D01*
X016532Y033939D01*
X016599Y033973D01*
X016670Y033996D01*
X016744Y034008D01*
X016763Y034008D01*
X016763Y033550D01*
X016763Y033634D02*
X016800Y033634D01*
X016800Y033793D02*
X016763Y033793D01*
X016763Y033951D02*
X016800Y033951D01*
X016555Y033951D02*
X008150Y033951D01*
X008251Y033793D02*
X016382Y033793D01*
X016315Y033634D02*
X008294Y033634D01*
X008294Y033476D02*
X016308Y033476D01*
X016356Y033317D02*
X008229Y033317D01*
X008096Y033158D02*
X016484Y033158D01*
X009252Y035378D02*
X057330Y035378D01*
X057325Y035537D02*
X009278Y035537D01*
X009263Y035695D02*
X052467Y035695D01*
X052357Y035854D02*
X009197Y035854D01*
X009039Y036012D02*
X052322Y036012D01*
X053096Y035695D02*
X057376Y035695D01*
X057398Y035219D02*
X009173Y035219D01*
X008975Y035061D02*
X057603Y035061D01*
X057960Y035061D02*
X060344Y035061D01*
X060359Y035045D02*
X060548Y034967D01*
X060753Y034967D01*
X060942Y035045D01*
X061087Y035190D01*
X061165Y035379D01*
X061165Y035584D01*
X061087Y035773D01*
X060942Y035917D01*
X060753Y035996D01*
X060548Y035996D01*
X060359Y035917D01*
X060215Y035773D01*
X060136Y035584D01*
X060136Y035379D01*
X060215Y035190D01*
X060359Y035045D01*
X060202Y035219D02*
X058166Y035219D01*
X058233Y035378D02*
X060137Y035378D01*
X060136Y035537D02*
X058239Y035537D01*
X058188Y035695D02*
X060182Y035695D01*
X060296Y035854D02*
X058056Y035854D01*
X058117Y036171D02*
X065294Y036171D01*
X065294Y036329D02*
X058213Y036329D01*
X058239Y036488D02*
X065294Y036488D01*
X065294Y036646D02*
X058208Y036646D01*
X058104Y036805D02*
X065294Y036805D01*
X065294Y036963D02*
X062151Y036963D01*
X062285Y037122D02*
X065294Y037122D01*
X065294Y037281D02*
X062346Y037281D01*
X062346Y037439D02*
X065294Y037439D01*
X065294Y037598D02*
X062295Y037598D01*
X062174Y037756D02*
X065294Y037756D01*
X062658Y035854D02*
X061006Y035854D01*
X061119Y035695D02*
X062545Y035695D01*
X062488Y035537D02*
X061165Y035537D01*
X061164Y035378D02*
X062330Y035378D01*
X062171Y035219D02*
X061099Y035219D01*
X060958Y035061D02*
X062013Y035061D01*
X063763Y027609D02*
X065294Y027609D01*
X065294Y027451D02*
X063723Y027451D01*
X063647Y027292D02*
X065294Y027292D01*
X065294Y027134D02*
X063527Y027134D01*
X029932Y015243D02*
X021024Y015243D01*
X021079Y015084D02*
X029932Y015084D01*
X029932Y014926D02*
X021068Y014926D01*
X020980Y014767D02*
X029932Y014767D01*
X029932Y014609D02*
X014018Y014609D01*
X014012Y014767D02*
X020384Y014767D01*
X020295Y014926D02*
X013916Y014926D01*
X013929Y014450D02*
X029932Y014450D01*
X029932Y013023D02*
X022568Y013023D01*
X022523Y013068D02*
X022399Y013120D01*
X022264Y013120D01*
X022140Y013068D01*
X022045Y012973D01*
X021993Y012849D01*
X021993Y012714D01*
X022045Y012590D01*
X022140Y012495D01*
X022264Y012443D01*
X022399Y012443D01*
X022523Y012495D01*
X022619Y012590D01*
X022670Y012714D01*
X022670Y012849D01*
X022619Y012973D01*
X022523Y013068D01*
X022663Y012865D02*
X029932Y012865D01*
X029932Y012706D02*
X022667Y012706D01*
X022577Y012548D02*
X029932Y012548D01*
X029932Y012072D02*
X025670Y012072D01*
X025764Y011914D02*
X029932Y011914D01*
X029932Y011755D02*
X025766Y011755D01*
X025675Y011597D02*
X029932Y011597D01*
X022087Y012548D02*
X018027Y012548D01*
X018117Y012706D02*
X021996Y012706D01*
X022000Y012865D02*
X018113Y012865D01*
X018018Y013023D02*
X022095Y013023D01*
X005178Y002718D02*
X003262Y002718D01*
X003262Y002560D02*
X005083Y002560D01*
X005064Y002401D02*
X003262Y002401D01*
X003262Y002242D02*
X005108Y002242D01*
X005239Y002084D02*
X003262Y002084D01*
X003765Y023329D02*
X003861Y023329D01*
X003861Y023487D02*
X003765Y023487D01*
X003765Y023646D02*
X003861Y023646D01*
X003861Y023804D02*
X003765Y023804D01*
X003765Y023963D02*
X003861Y023963D01*
X003861Y024121D02*
X003765Y024121D01*
X003765Y025231D02*
X003861Y025231D01*
X003861Y025390D02*
X003765Y025390D01*
X003765Y025548D02*
X003861Y025548D01*
X003262Y026341D02*
X008324Y026341D01*
X008229Y026500D02*
X003262Y026500D01*
X007702Y027292D02*
X007798Y027292D01*
X007798Y027451D02*
X007702Y027451D01*
X007702Y027609D02*
X007798Y027609D01*
X007798Y027768D02*
X007702Y027768D01*
X007702Y027926D02*
X007798Y027926D01*
X007798Y028085D02*
X007702Y028085D01*
X008147Y028085D02*
X016413Y028085D01*
X016327Y027926D02*
X008260Y027926D01*
X003861Y032207D02*
X003765Y032207D01*
X003765Y032366D02*
X003861Y032366D01*
X003861Y032524D02*
X003765Y032524D01*
X003765Y032683D02*
X003861Y032683D01*
X003861Y032841D02*
X003765Y032841D01*
X003765Y033000D02*
X003861Y033000D01*
X006245Y035695D02*
X008206Y035695D01*
X007702Y036488D02*
X006734Y036488D01*
X006734Y036646D02*
X007197Y036646D01*
X007200Y036666D02*
X007187Y036582D01*
X007702Y036582D01*
X007702Y037097D01*
X007618Y037084D01*
X007534Y037057D01*
X007455Y037016D01*
X007383Y036964D01*
X007320Y036901D01*
X007268Y036830D01*
X007228Y036751D01*
X007200Y036666D01*
X007255Y036805D02*
X006700Y036805D01*
X006635Y036963D02*
X007382Y036963D01*
X007702Y036963D02*
X007798Y036963D01*
X007798Y036805D02*
X007702Y036805D01*
X007702Y036646D02*
X007798Y036646D01*
X007224Y036329D02*
X006728Y036329D01*
X006662Y036171D02*
X007317Y036171D01*
X016763Y028085D02*
X016800Y028085D01*
X016800Y027926D02*
X016763Y027926D01*
D21*
X049432Y034031D02*
X052782Y034031D01*
X061563Y034031D01*
X063013Y035481D01*
M02*
