G75*
G70*
%OFA0B0*%
%FSLAX24Y24*%
%IPPOS*%
%LPD*%
%AMOC8*
5,1,8,0,0,1.08239X$1,22.5*
%
%ADD10R,0.0670X0.0440*%
%ADD11R,0.0630X0.0512*%
%ADD12R,0.0591X0.0512*%
%ADD13R,0.0315X0.0112*%
%ADD14R,0.0112X0.0315*%
%ADD15R,0.0984X0.0984*%
%ADD16R,0.0512X0.0591*%
%ADD17R,0.0709X0.0630*%
%ADD18R,0.0630X0.0709*%
%ADD19R,0.0512X0.0630*%
%ADD20R,0.0276X0.0335*%
%ADD21R,0.1000X0.0500*%
%ADD22C,0.0860*%
%ADD23C,0.1000*%
%ADD24OC8,0.1000*%
%ADD25R,0.0600X0.0600*%
%ADD26OC8,0.0600*%
%ADD27R,0.4252X0.4098*%
%ADD28R,0.0420X0.0850*%
%ADD29R,0.4098X0.4252*%
%ADD30R,0.0850X0.0420*%
%ADD31R,0.0165X0.0450*%
%ADD32R,0.0354X0.0256*%
%ADD33R,0.0354X0.0126*%
%ADD34R,0.0472X0.0157*%
%ADD35R,0.0177X0.0472*%
%ADD36R,0.0472X0.0177*%
%ADD37C,0.0515*%
%ADD38C,0.0709*%
%ADD39C,0.0768*%
%ADD40C,0.1004*%
%ADD41C,0.1424*%
%ADD42R,0.0236X0.0472*%
%ADD43R,0.0272X0.0390*%
%ADD44R,0.0472X0.0138*%
%ADD45R,0.0217X0.0472*%
%ADD46R,0.0748X0.1339*%
%ADD47R,0.1339X0.0748*%
%ADD48C,0.0594*%
%ADD49C,0.0320*%
%ADD50C,0.0120*%
%ADD51C,0.0357*%
%ADD52C,0.0396*%
%ADD53C,0.0160*%
%ADD54C,0.0500*%
%ADD55C,0.0475*%
%ADD56C,0.0240*%
D10*
X056737Y006231D03*
D11*
X055732Y011257D03*
X055732Y012005D03*
X055782Y014307D03*
X055782Y015055D03*
X055732Y017357D03*
X055732Y018105D03*
X055782Y020407D03*
X055782Y021155D03*
X051982Y027257D03*
X051982Y028005D03*
X020532Y006105D03*
X020532Y005357D03*
D12*
X019782Y011407D03*
X019782Y012155D03*
X018532Y013407D03*
X018532Y014155D03*
X015032Y012155D03*
X015032Y011407D03*
X009832Y010455D03*
X009832Y009707D03*
X009832Y007305D03*
X009832Y006557D03*
X009832Y014057D03*
X009832Y014805D03*
X009832Y017207D03*
X009832Y017955D03*
X032732Y005755D03*
X033532Y005755D03*
X034332Y005755D03*
X035132Y005755D03*
X035932Y005755D03*
X035932Y005007D03*
X035132Y005007D03*
X034332Y005007D03*
X033532Y005007D03*
X032732Y005007D03*
X045182Y004605D03*
X045182Y003857D03*
X046382Y003857D03*
X046382Y004605D03*
X054232Y005857D03*
X054232Y006605D03*
X054982Y011257D03*
X054982Y012005D03*
X051882Y013207D03*
X051882Y013955D03*
X050682Y013955D03*
X050682Y013207D03*
X054982Y014307D03*
X054982Y015055D03*
X054982Y017357D03*
X054982Y018105D03*
X051882Y018205D03*
X051882Y017457D03*
X050682Y017457D03*
X050682Y018205D03*
X054982Y020407D03*
X054982Y021155D03*
X049432Y035307D03*
X049432Y036055D03*
D13*
X050197Y016470D03*
X050197Y016274D03*
X050197Y016077D03*
X050197Y015880D03*
X050197Y015683D03*
X050197Y015486D03*
X050197Y015289D03*
X050197Y015092D03*
X052166Y015092D03*
X052166Y015289D03*
X052166Y015486D03*
X052166Y015683D03*
X052166Y015880D03*
X052166Y016077D03*
X052166Y016274D03*
X052166Y016470D03*
D14*
X051871Y016766D03*
X051674Y016766D03*
X051477Y016766D03*
X051280Y016766D03*
X051083Y016766D03*
X050886Y016766D03*
X050690Y016766D03*
X050493Y016766D03*
X050493Y014797D03*
X050690Y014797D03*
X050886Y014797D03*
X051083Y014797D03*
X051280Y014797D03*
X051477Y014797D03*
X051674Y014797D03*
X051871Y014797D03*
D15*
X051182Y015781D03*
D16*
X048556Y016081D03*
X047808Y016081D03*
X048158Y018281D03*
X048906Y018281D03*
X058208Y017181D03*
X058956Y017181D03*
X058956Y016331D03*
X058208Y016331D03*
X058208Y013131D03*
X058956Y013131D03*
X058956Y012281D03*
X058208Y012281D03*
X058208Y009131D03*
X058956Y009131D03*
X058956Y008281D03*
X058208Y008281D03*
X056606Y005031D03*
X055858Y005031D03*
X055006Y005031D03*
X054258Y005031D03*
X047956Y006681D03*
X047208Y006681D03*
X044356Y006681D03*
X043608Y006681D03*
X058208Y020331D03*
X058956Y020331D03*
X058956Y021181D03*
X058208Y021181D03*
X019006Y010281D03*
X018258Y010281D03*
X012356Y008781D03*
X011608Y008781D03*
X011608Y005631D03*
X012356Y005631D03*
X012808Y004231D03*
X013556Y004231D03*
X013556Y003381D03*
X012808Y003381D03*
X012356Y013131D03*
X011608Y013131D03*
X011608Y016281D03*
X012356Y016281D03*
D17*
X020682Y012333D03*
X020682Y011230D03*
X019532Y006283D03*
X019532Y005180D03*
X025832Y029530D03*
X025832Y030633D03*
X027782Y030633D03*
X027782Y029530D03*
X032532Y029580D03*
X032532Y030683D03*
X034532Y030683D03*
X034532Y029580D03*
D18*
X050831Y026381D03*
X051933Y026381D03*
X051933Y024381D03*
X050831Y024381D03*
X020083Y007431D03*
X018981Y007431D03*
X017983Y007431D03*
X016881Y007431D03*
D19*
X021108Y007431D03*
X021856Y007431D03*
X021708Y015031D03*
X022456Y015031D03*
X024158Y030681D03*
X024906Y030681D03*
X030858Y030731D03*
X031606Y030731D03*
X051208Y023431D03*
X051956Y023431D03*
D20*
X051082Y027477D03*
X051082Y028107D03*
X036882Y005736D03*
X036882Y005106D03*
D21*
X020682Y013235D03*
X020682Y014128D03*
D22*
X060651Y035051D02*
X060651Y035911D01*
X061402Y037371D02*
X062262Y037371D01*
X063013Y035911D02*
X063013Y035051D01*
D23*
X052782Y036031D03*
D24*
X052782Y034031D03*
D25*
X040482Y027301D03*
D26*
X041482Y027301D03*
X041482Y026301D03*
X040482Y026301D03*
X040482Y025301D03*
X041482Y025301D03*
X041482Y024301D03*
X040482Y024301D03*
X040482Y023301D03*
X041482Y023301D03*
X041482Y022301D03*
X040482Y022301D03*
X040482Y021301D03*
X041482Y021301D03*
X041482Y020301D03*
X040482Y020301D03*
X040482Y019301D03*
X041482Y019301D03*
X041482Y018301D03*
X040482Y018301D03*
X040482Y017301D03*
X041482Y017301D03*
X041482Y016301D03*
X040482Y016301D03*
X040482Y015301D03*
X041482Y015301D03*
X041482Y014301D03*
X040482Y014301D03*
X040482Y013301D03*
X041482Y013301D03*
X041482Y012301D03*
X040482Y012301D03*
X040482Y011301D03*
X041482Y011301D03*
X041482Y010301D03*
X040482Y010301D03*
X040482Y009301D03*
X041482Y009301D03*
X041482Y008301D03*
X040482Y008301D03*
X040482Y007301D03*
X041482Y007301D03*
X041482Y006301D03*
X040482Y006301D03*
X036132Y020781D03*
X035132Y020781D03*
X035132Y021781D03*
X036132Y021781D03*
X036132Y022781D03*
X035132Y022781D03*
X035132Y023781D03*
X036132Y023781D03*
X036132Y024781D03*
X035132Y024781D03*
X035132Y025781D03*
X036132Y025781D03*
D27*
X033182Y035131D03*
X026482Y035081D03*
D28*
X031842Y031851D03*
X032512Y031851D03*
X033182Y031851D03*
X033852Y031851D03*
X034522Y031851D03*
X027822Y031801D03*
X027152Y031801D03*
X026482Y031801D03*
X025812Y031801D03*
X025142Y031801D03*
D29*
X056432Y025731D03*
D30*
X053152Y025731D03*
X053152Y025061D03*
X053152Y024391D03*
X053152Y026401D03*
X053152Y027071D03*
D31*
X017357Y012805D03*
X017107Y012805D03*
X016857Y012805D03*
X016607Y012805D03*
X016357Y012805D03*
X016107Y012805D03*
X015857Y012805D03*
X015607Y012805D03*
X015607Y010758D03*
X015857Y010758D03*
X016107Y010758D03*
X016357Y010758D03*
X016607Y010758D03*
X016857Y010758D03*
X017107Y010758D03*
X017357Y010758D03*
D32*
X048168Y017007D03*
X048995Y017007D03*
X048995Y017656D03*
X048168Y017656D03*
D33*
X057696Y018038D03*
X057696Y018235D03*
X057696Y018431D03*
X057696Y018628D03*
X057696Y018825D03*
X059468Y018825D03*
X059468Y018628D03*
X059468Y018431D03*
X059468Y018235D03*
X059468Y018038D03*
X059468Y014825D03*
X059468Y014628D03*
X059468Y014431D03*
X059468Y014235D03*
X059468Y014038D03*
X057696Y014038D03*
X057696Y014235D03*
X057696Y014431D03*
X057696Y014628D03*
X057696Y014825D03*
X057696Y010825D03*
X057696Y010628D03*
X057696Y010431D03*
X057696Y010235D03*
X057696Y010038D03*
X059468Y010038D03*
X059468Y010235D03*
X059468Y010431D03*
X059468Y010628D03*
X059468Y010825D03*
X059468Y022038D03*
X059468Y022235D03*
X059468Y022431D03*
X059468Y022628D03*
X059468Y022825D03*
X057696Y022825D03*
X057696Y022628D03*
X057696Y022431D03*
X057696Y022235D03*
X057696Y022038D03*
D34*
X048733Y009227D03*
X048733Y008971D03*
X048733Y008715D03*
X048733Y008459D03*
X048733Y008203D03*
X048733Y007948D03*
X048733Y007692D03*
X048733Y007436D03*
X046430Y007436D03*
X046430Y007692D03*
X046430Y007948D03*
X046430Y008203D03*
X046430Y008459D03*
X046430Y008715D03*
X046430Y008971D03*
X046430Y009227D03*
X045133Y009227D03*
X045133Y008971D03*
X045133Y008715D03*
X045133Y008459D03*
X045133Y008203D03*
X045133Y007948D03*
X045133Y007692D03*
X045133Y007436D03*
X042830Y007436D03*
X042830Y007692D03*
X042830Y007948D03*
X042830Y008203D03*
X042830Y008459D03*
X042830Y008715D03*
X042830Y008971D03*
X042830Y009227D03*
D35*
X019016Y010925D03*
X018760Y010925D03*
X018504Y010925D03*
X018248Y010925D03*
X018248Y012638D03*
X018504Y012638D03*
X018760Y012638D03*
X019016Y012638D03*
D36*
X054925Y006615D03*
X054925Y006359D03*
X054925Y006103D03*
X054925Y005848D03*
X056638Y005848D03*
X056638Y006103D03*
X056638Y006359D03*
X056638Y006615D03*
D37*
X005482Y002431D03*
X006482Y002431D03*
X006482Y003431D03*
X005482Y003431D03*
D38*
X007240Y006557D03*
X005960Y008131D03*
X007732Y009706D03*
X007240Y014057D03*
X005960Y015631D03*
X007732Y017206D03*
D39*
X007750Y021779D03*
X008734Y022763D03*
X007750Y024731D03*
X008734Y026700D03*
X007750Y027684D03*
X003813Y025716D03*
X003813Y023747D03*
X007750Y030629D03*
X008734Y031613D03*
X007750Y033581D03*
X008734Y035550D03*
X007750Y036534D03*
X003813Y034566D03*
X003813Y032597D03*
D40*
X062882Y025781D03*
X062882Y019831D03*
X062882Y013881D03*
X062882Y007781D03*
D41*
X064653Y007781D03*
X062882Y005813D03*
X062882Y009750D03*
X062882Y011913D03*
X064653Y013881D03*
X062882Y015850D03*
X062882Y017863D03*
X064653Y019831D03*
X062882Y021800D03*
X062882Y023813D03*
X064653Y025781D03*
X062882Y027750D03*
D42*
X018756Y006246D03*
X018382Y006246D03*
X018008Y006246D03*
X018008Y005217D03*
X018756Y005217D03*
D43*
X060358Y010820D03*
X060732Y010820D03*
X061106Y010820D03*
X061106Y011839D03*
X060732Y011839D03*
X060358Y011839D03*
X060358Y014820D03*
X060732Y014820D03*
X061106Y014820D03*
X061106Y015839D03*
X060732Y015839D03*
X060358Y015839D03*
X060358Y018820D03*
X060732Y018820D03*
X061106Y018820D03*
X061106Y019839D03*
X060732Y019839D03*
X060358Y019839D03*
X060358Y022820D03*
X060732Y022820D03*
X061106Y022820D03*
X061106Y023839D03*
X060732Y023839D03*
X060358Y023839D03*
D44*
X013133Y017715D03*
X013133Y017459D03*
X013133Y017203D03*
X013133Y016948D03*
X010830Y016948D03*
X010830Y017203D03*
X010830Y017459D03*
X010830Y017715D03*
X010830Y014565D03*
X010830Y014309D03*
X010830Y014053D03*
X010830Y013798D03*
X013133Y013798D03*
X013133Y014053D03*
X013133Y014309D03*
X013133Y014565D03*
X013133Y010215D03*
X013133Y009959D03*
X013133Y009703D03*
X013133Y009448D03*
X010830Y009448D03*
X010830Y009703D03*
X010830Y009959D03*
X010830Y010215D03*
X010830Y007065D03*
X010830Y006809D03*
X010830Y006553D03*
X010830Y006298D03*
X013133Y006298D03*
X013133Y006553D03*
X013133Y006809D03*
X013133Y007065D03*
D45*
X012006Y004393D03*
X011258Y004393D03*
X011258Y003370D03*
X011632Y003370D03*
X012006Y003370D03*
D46*
X023414Y015031D03*
X024949Y015031D03*
D47*
X023082Y007449D03*
X023082Y005914D03*
D48*
X017079Y024781D02*
X016485Y024781D01*
X016485Y025781D02*
X017079Y025781D01*
X017079Y026781D02*
X016485Y026781D01*
X016485Y027781D02*
X017079Y027781D01*
X017079Y030531D02*
X016485Y030531D01*
X016485Y031531D02*
X017079Y031531D01*
X017079Y032531D02*
X016485Y032531D01*
X016485Y033531D02*
X017079Y033531D01*
X057485Y035481D02*
X058079Y035481D01*
X058079Y036481D02*
X057485Y036481D01*
D49*
X051082Y029981D02*
X051082Y029331D01*
X051082Y028681D01*
X051082Y028107D01*
X051082Y027477D02*
X051082Y027281D01*
X051132Y027281D01*
X051962Y027277D01*
X051982Y027257D01*
X051982Y027231D01*
X051982Y027257D02*
X051982Y026381D01*
X051933Y026381D01*
X051933Y026401D01*
X053152Y026401D01*
X053152Y025731D02*
X053152Y025681D01*
X050831Y025681D01*
X050831Y026381D01*
X050831Y025681D02*
X050831Y024381D01*
X051933Y024381D02*
X053152Y024381D01*
X053152Y024391D01*
X053152Y025061D01*
X053152Y025731D02*
X056432Y025731D01*
X056432Y025681D01*
X056932Y026231D01*
X056282Y025631D01*
X053152Y027071D02*
X053132Y027091D01*
X053132Y027781D01*
X052908Y028005D01*
X051982Y028005D01*
X051996Y024391D02*
X051933Y024381D01*
X054232Y021181D02*
X054982Y021181D01*
X054982Y021155D01*
X054982Y020407D02*
X055782Y020407D01*
X054982Y018131D02*
X054232Y018131D01*
X054982Y018131D02*
X054982Y018105D01*
X054982Y017357D02*
X055732Y017357D01*
X054982Y015081D02*
X054232Y015081D01*
X054982Y015081D02*
X054982Y015055D01*
X054982Y014307D02*
X055782Y014307D01*
X054982Y012031D02*
X054982Y012005D01*
X054982Y011257D02*
X055732Y011257D01*
X058956Y011581D02*
X058982Y011581D01*
X059756Y008281D02*
X059782Y008281D01*
X048556Y015755D02*
X048182Y015381D01*
X048556Y015755D02*
X048556Y016081D01*
X048906Y018281D02*
X048906Y018981D01*
X048882Y019031D01*
X034532Y029580D02*
X033232Y029580D01*
X033182Y029630D01*
X033182Y031831D01*
X033182Y031851D02*
X033182Y035131D01*
X033852Y031851D02*
X034522Y031851D01*
X034522Y030481D01*
X034382Y030481D01*
X034382Y030683D01*
X034532Y030683D01*
X034522Y030705D01*
X033232Y029580D02*
X032532Y029580D01*
X032532Y030683D02*
X032512Y030705D01*
X032512Y031851D01*
X031842Y031851D02*
X031822Y031831D01*
X031032Y031831D01*
X030858Y031657D01*
X030858Y030731D01*
X027822Y030673D02*
X027782Y030633D01*
X027822Y030633D01*
X027822Y031801D01*
X027152Y031801D01*
X026482Y031801D02*
X026482Y029530D01*
X027782Y029530D01*
X026482Y029530D02*
X025832Y029530D01*
X025832Y030633D02*
X025832Y031781D01*
X025812Y031801D01*
X026482Y031801D02*
X026482Y035081D01*
X026932Y035531D01*
X026982Y035531D01*
X025142Y031801D02*
X024402Y031801D01*
X024182Y031581D01*
X024182Y030705D01*
X024158Y030681D01*
X025783Y030681D02*
X025832Y030633D01*
X015032Y012781D02*
X015032Y012155D01*
X015032Y011407D02*
X015032Y010781D01*
X016032Y007431D02*
X016881Y007431D01*
X020532Y006105D02*
X020556Y006081D01*
X021332Y006081D01*
D50*
X018032Y005193D02*
X018032Y004681D01*
X018032Y005193D02*
X018008Y005217D01*
X014760Y006809D02*
X016607Y008656D01*
X016607Y010758D01*
X016857Y010758D02*
X016857Y011756D01*
X016832Y011781D01*
X016832Y012281D01*
X016607Y012506D01*
X016607Y012805D01*
X016632Y012780D01*
X016857Y012805D02*
X016882Y012830D01*
X016882Y013281D01*
X016357Y013306D02*
X015982Y013681D01*
X014832Y013681D01*
X014332Y014181D01*
X014332Y017031D01*
X013904Y017459D01*
X013133Y017459D01*
X013133Y017203D02*
X013133Y016948D01*
X013132Y016946D01*
X013132Y016731D01*
X012682Y016281D01*
X012356Y016281D01*
X011608Y016281D02*
X011582Y016307D01*
X011582Y017281D01*
X011404Y017459D01*
X010830Y017459D01*
X010454Y017459D01*
X010032Y017881D01*
X009906Y017881D01*
X009832Y017955D01*
X010830Y017715D02*
X010830Y018230D01*
X010832Y018231D01*
X010830Y017203D02*
X009836Y017203D01*
X009832Y017207D01*
X009831Y017206D02*
X007732Y017206D01*
X010232Y016481D02*
X010698Y016948D01*
X010830Y016948D01*
X010832Y015131D02*
X010830Y015130D01*
X010830Y014565D01*
X010830Y014309D02*
X011404Y014309D01*
X011582Y014131D01*
X011582Y013157D01*
X011608Y013131D01*
X012356Y013131D02*
X012732Y013131D01*
X013132Y013531D01*
X013132Y013796D01*
X013133Y013798D01*
X013133Y014053D01*
X013133Y014309D02*
X013704Y014309D01*
X013932Y014081D01*
X013932Y013731D01*
X014382Y013281D01*
X015982Y013281D01*
X016107Y013156D01*
X016107Y012805D01*
X015882Y012780D02*
X015857Y012805D01*
X015882Y012780D02*
X015882Y011981D01*
X016082Y011781D01*
X016082Y010783D01*
X016107Y010758D01*
X016357Y010758D02*
X016357Y010306D01*
X016010Y009959D01*
X013133Y009959D01*
X013133Y009703D02*
X013133Y009448D01*
X013132Y009446D01*
X013132Y009231D01*
X012682Y008781D01*
X012356Y008781D01*
X011608Y008781D02*
X011582Y008807D01*
X011582Y009781D01*
X011404Y009959D01*
X010830Y009959D01*
X010454Y009959D01*
X010082Y010331D01*
X009956Y010331D01*
X009832Y010455D01*
X010830Y010215D02*
X010830Y010730D01*
X010832Y010731D01*
X010830Y009703D02*
X009836Y009703D01*
X009832Y009707D01*
X009831Y009706D02*
X007732Y009706D01*
X010232Y008981D02*
X010698Y009448D01*
X010830Y009448D01*
X010832Y007581D02*
X010830Y007580D01*
X010830Y007065D01*
X010830Y006809D02*
X011454Y006809D01*
X011582Y006681D01*
X011582Y005657D01*
X011608Y005631D01*
X012356Y005631D02*
X012682Y005631D01*
X013132Y006081D01*
X013132Y006296D01*
X013133Y006298D01*
X013133Y006553D01*
X013133Y006809D02*
X014760Y006809D01*
X013682Y007431D02*
X013316Y007065D01*
X013133Y007065D01*
X010830Y006809D02*
X010454Y006809D01*
X010082Y007181D01*
X009956Y007181D01*
X009832Y007305D01*
X009832Y006557D02*
X009836Y006553D01*
X010830Y006553D01*
X010830Y006298D02*
X010698Y006298D01*
X010282Y005881D01*
X009831Y006557D02*
X007240Y006557D01*
X007132Y004481D02*
X005832Y004481D01*
X005482Y004131D01*
X005482Y003431D01*
X005982Y003781D02*
X005982Y002931D01*
X005482Y002431D01*
X006482Y002431D02*
X007482Y001431D01*
X044782Y001431D01*
X046382Y003031D01*
X046382Y003857D01*
X046382Y004605D02*
X046382Y005731D01*
X046032Y006081D01*
X046032Y007531D01*
X045616Y007948D01*
X045133Y007948D01*
X045133Y007692D02*
X045571Y007692D01*
X045782Y007481D01*
X045782Y003031D01*
X044482Y001731D01*
X008082Y001731D01*
X006482Y003431D01*
X005982Y003781D02*
X006232Y004031D01*
X006732Y004031D01*
X008732Y002031D01*
X044132Y002031D01*
X045182Y003081D01*
X045182Y003857D01*
X045182Y004605D02*
X045182Y007387D01*
X045133Y007436D01*
X044532Y008081D02*
X044532Y009731D01*
X044882Y010081D01*
X045832Y010081D01*
X046436Y009477D01*
X046430Y009227D01*
X046430Y008971D02*
X045792Y008971D01*
X045732Y009031D01*
X045866Y008715D02*
X045732Y008581D01*
X045866Y008715D02*
X046430Y008715D01*
X046430Y008459D02*
X046160Y008459D01*
X045882Y008181D01*
X046430Y008203D02*
X046910Y008203D01*
X047082Y008381D01*
X047332Y007931D02*
X047632Y008231D01*
X047632Y009281D01*
X046612Y010301D01*
X041482Y010301D01*
X041462Y010301D01*
X040982Y010781D01*
X024332Y010781D01*
X022332Y012781D01*
X019782Y012155D02*
X019756Y012181D01*
X019332Y012181D01*
X018504Y011353D01*
X018504Y010925D01*
X018258Y010925D02*
X018248Y010925D01*
X018258Y010925D02*
X018258Y010281D01*
X019006Y010281D02*
X019006Y010925D01*
X019016Y010925D01*
X018760Y010925D01*
X019016Y010925D02*
X019299Y010925D01*
X019782Y011407D01*
X018504Y011953D02*
X018504Y012638D01*
X018508Y012638D01*
X018508Y013407D01*
X018532Y013407D01*
X017782Y012781D02*
X017758Y012805D01*
X017357Y012805D01*
X016357Y012805D02*
X016357Y013306D01*
X018508Y012638D02*
X018760Y012638D01*
X018504Y011953D02*
X018332Y011781D01*
X016832Y011781D01*
X016082Y011781D01*
X017107Y010758D02*
X017107Y009856D01*
X017482Y009481D01*
X021582Y009481D01*
X022402Y010301D01*
X040482Y010301D01*
X040962Y009781D02*
X040482Y009301D01*
X040962Y009781D02*
X042032Y009781D01*
X042232Y009581D01*
X042232Y009181D01*
X042442Y008971D01*
X042830Y008971D01*
X043271Y008971D01*
X043482Y009181D01*
X043732Y008831D02*
X043616Y008715D01*
X042830Y008715D01*
X042830Y008459D02*
X042324Y008459D01*
X041482Y009301D01*
X041482Y010281D02*
X041482Y010301D01*
X040482Y011301D02*
X040962Y011781D01*
X046432Y011781D01*
X049743Y015092D01*
X050197Y015092D01*
X050190Y015281D02*
X049632Y015281D01*
X046652Y012301D01*
X041482Y012301D01*
X041012Y012831D02*
X040482Y012301D01*
X041012Y012831D02*
X046882Y012831D01*
X049536Y015486D01*
X050197Y015486D01*
X050197Y015289D02*
X050190Y015281D01*
X050197Y015683D02*
X049433Y015683D01*
X047132Y013381D01*
X041562Y013381D01*
X041482Y013301D01*
X040932Y013831D02*
X047282Y013831D01*
X049332Y015881D01*
X050196Y015881D01*
X050197Y015880D01*
X050197Y016077D02*
X050202Y016081D01*
X048556Y016081D01*
X047832Y016105D02*
X047832Y016481D01*
X047932Y016581D01*
X049082Y016581D01*
X049390Y016274D01*
X050197Y016274D01*
X050202Y016081D02*
X050432Y016081D01*
X050493Y016142D01*
X050493Y016766D01*
X050682Y016774D02*
X050682Y017457D01*
X051282Y017281D02*
X051280Y017080D01*
X051280Y016766D01*
X051282Y016764D01*
X051282Y016531D01*
X051232Y016481D01*
X050932Y016481D01*
X050886Y016527D01*
X050886Y016766D01*
X050690Y016766D02*
X050682Y016774D01*
X050690Y016766D02*
X050690Y016274D01*
X050882Y016081D01*
X051477Y016086D02*
X051482Y016081D01*
X051477Y016086D02*
X051477Y016766D01*
X051477Y017053D01*
X051882Y017457D01*
X051282Y017281D02*
X051282Y018231D01*
X050708Y018231D01*
X050682Y018205D01*
X051282Y018231D02*
X051856Y018231D01*
X051882Y018205D01*
X051871Y016766D02*
X051674Y016766D01*
X051871Y016766D02*
X051871Y016281D01*
X051879Y016274D01*
X052166Y016274D01*
X052171Y016081D02*
X052166Y016077D01*
X052171Y016081D02*
X053682Y016081D01*
X054958Y017357D01*
X054982Y017357D01*
X055732Y018105D02*
X056256Y018105D01*
X056582Y018431D01*
X057696Y018431D01*
X057696Y018235D02*
X058029Y018235D01*
X058182Y018081D01*
X058182Y017207D01*
X058208Y017181D01*
X058956Y017181D02*
X058956Y018205D01*
X059182Y018431D01*
X059468Y018431D01*
X059468Y018628D01*
X059468Y018825D02*
X060352Y018825D01*
X060358Y018820D01*
X060732Y018820D02*
X060732Y018381D01*
X061106Y018105D02*
X059582Y016581D01*
X060732Y016281D02*
X060732Y015839D01*
X060320Y014931D02*
X060358Y014820D01*
X060313Y014825D01*
X059468Y014825D01*
X059468Y014628D02*
X059468Y014431D01*
X059232Y014431D01*
X058982Y014181D01*
X058982Y013157D01*
X058956Y013131D01*
X058208Y013131D02*
X058182Y013157D01*
X058182Y014081D01*
X058029Y014235D01*
X057696Y014235D01*
X057696Y014431D02*
X056782Y014431D01*
X056158Y015055D01*
X055782Y015055D01*
X054982Y014307D02*
X054406Y014307D01*
X053232Y015481D01*
X052171Y015481D01*
X052166Y015486D01*
X052166Y015289D02*
X051874Y015289D01*
X051857Y015306D01*
X051682Y015131D01*
X051682Y014805D01*
X051682Y014781D01*
X051682Y014797D02*
X051674Y014797D01*
X051682Y014805D01*
X051674Y014797D02*
X051871Y014797D01*
X051682Y015131D02*
X051082Y015131D01*
X051083Y015130D01*
X051083Y014797D01*
X050886Y014797D02*
X050886Y014486D01*
X050882Y014481D01*
X051280Y014481D01*
X051280Y013283D01*
X051282Y013181D01*
X051856Y013181D01*
X051882Y013207D01*
X051282Y013181D02*
X050708Y013181D01*
X050682Y013207D01*
X050682Y013955D02*
X050690Y014063D01*
X050690Y014797D01*
X050690Y015289D01*
X050882Y015481D01*
X050886Y014797D02*
X050882Y014792D01*
X051280Y014797D02*
X051280Y014481D01*
X051477Y014360D02*
X051882Y013955D01*
X051882Y013981D01*
X052482Y013981D01*
X053332Y014431D02*
X053332Y011631D01*
X053682Y011281D01*
X054958Y011281D01*
X054982Y011257D01*
X055732Y012005D02*
X056108Y012005D01*
X056632Y011481D01*
X056632Y010931D01*
X057132Y010431D01*
X057696Y010431D01*
X057696Y010235D02*
X058079Y010235D01*
X058232Y010081D01*
X058232Y009155D01*
X058208Y009131D01*
X058956Y009131D02*
X058956Y010205D01*
X059182Y010431D01*
X059468Y010431D01*
X059468Y010628D01*
X059468Y010825D02*
X060352Y010825D01*
X060358Y010820D01*
X060732Y010820D02*
X060732Y010381D01*
X060332Y010231D02*
X060732Y009831D01*
X060732Y007381D01*
X060482Y007131D01*
X059932Y007481D02*
X059932Y006731D01*
X059932Y007481D02*
X060282Y007831D01*
X060282Y009831D01*
X059674Y009831D01*
X059468Y010038D01*
X059468Y010235D02*
X059929Y010235D01*
X059932Y010231D01*
X060332Y010231D01*
X061106Y010820D02*
X061132Y010794D01*
X061132Y008181D01*
X057696Y010038D02*
X057690Y010031D01*
X051932Y010031D01*
X050104Y008203D01*
X048733Y008203D01*
X048733Y007948D02*
X053848Y007948D01*
X054482Y008581D01*
X055332Y008581D02*
X054442Y007692D01*
X048733Y007692D01*
X048733Y007436D02*
X055086Y007436D01*
X056232Y008581D01*
X057282Y010628D02*
X057282Y010825D01*
X057282Y010831D01*
X057282Y010825D02*
X057696Y010825D01*
X057696Y010628D02*
X057282Y010628D01*
X060732Y011839D02*
X060732Y012281D01*
X059932Y012781D02*
X059632Y012781D01*
X059932Y012781D02*
X061106Y014005D01*
X061106Y014820D01*
X060732Y014820D02*
X060732Y014381D01*
X060282Y013781D02*
X060025Y014038D01*
X059468Y014038D01*
X059468Y014235D02*
X059785Y014235D01*
X059932Y014381D01*
X057696Y014628D02*
X057282Y014628D01*
X057282Y014825D01*
X057282Y014831D01*
X057282Y014825D02*
X057696Y014825D01*
X057696Y014038D02*
X056988Y014038D01*
X056132Y013181D01*
X054182Y013181D01*
X053332Y014431D02*
X052421Y015092D01*
X052166Y015092D01*
X052158Y015281D02*
X052166Y015289D01*
X051871Y015320D02*
X051857Y015306D01*
X051871Y015320D02*
X051871Y015681D01*
X051872Y015683D01*
X052166Y015683D01*
X052166Y015880D02*
X051872Y015880D01*
X051871Y015881D01*
X051871Y015681D01*
X051871Y015881D02*
X051871Y016281D01*
X052166Y016470D02*
X052177Y016481D01*
X052832Y016481D01*
X053482Y016881D01*
X053482Y019881D01*
X054008Y020407D01*
X054982Y020407D01*
X055782Y021155D02*
X055782Y021931D01*
X056282Y022431D01*
X057696Y022431D01*
X057696Y022235D02*
X058029Y022235D01*
X058182Y022081D01*
X058182Y021207D01*
X058208Y021181D01*
X058932Y021205D02*
X058956Y021181D01*
X058932Y021205D02*
X058932Y022131D01*
X059232Y022431D01*
X059468Y022431D01*
X059468Y022628D01*
X059468Y022825D02*
X060352Y022825D01*
X060358Y022820D01*
X060732Y022820D02*
X060732Y022381D01*
X061106Y022055D02*
X059632Y020581D01*
X060732Y020281D02*
X060732Y019839D01*
X061106Y018820D02*
X061106Y018105D01*
X060282Y017831D02*
X060075Y018038D01*
X059468Y018038D01*
X059468Y018235D02*
X059785Y018235D01*
X059932Y018381D01*
X057696Y018628D02*
X057282Y018628D01*
X057282Y018631D01*
X057282Y018825D01*
X057696Y018825D01*
X057696Y018038D02*
X057696Y017746D01*
X056132Y016181D01*
X054482Y016181D01*
X051282Y016767D02*
X051280Y016766D01*
X050197Y016470D02*
X050154Y016470D01*
X048995Y017656D01*
X048582Y017957D02*
X048582Y017331D01*
X048907Y017007D01*
X048995Y017007D01*
X048168Y017656D02*
X048168Y018271D01*
X048158Y018281D01*
X048582Y017957D02*
X048906Y018281D01*
X047832Y016105D02*
X047808Y016081D01*
X051280Y014797D02*
X051282Y014796D01*
X051477Y014797D02*
X051477Y014360D01*
X051482Y014792D02*
X051477Y014797D01*
X054382Y019281D02*
X056332Y019281D01*
X056782Y019731D01*
X056782Y021681D01*
X057138Y022038D01*
X057696Y022038D01*
X057696Y022628D02*
X057332Y022628D01*
X057332Y022825D01*
X057696Y022825D01*
X059468Y022235D02*
X059785Y022235D01*
X059932Y022381D01*
X060125Y022038D02*
X059468Y022038D01*
X060125Y022038D02*
X060282Y021881D01*
X061106Y022055D02*
X061106Y022820D01*
X060732Y023839D02*
X060732Y024281D01*
X041482Y024281D02*
X040982Y023781D01*
X036132Y023781D01*
X035632Y024281D02*
X038932Y024281D01*
X039482Y024831D01*
X041012Y024831D01*
X041482Y025301D01*
X041482Y024301D02*
X041482Y024281D01*
X041032Y022781D02*
X036132Y022781D01*
X035612Y022301D02*
X035132Y022781D01*
X035612Y022301D02*
X040482Y022301D01*
X041032Y022781D02*
X041482Y022331D01*
X041482Y022301D01*
X041002Y021781D02*
X041482Y021301D01*
X041002Y021781D02*
X036132Y021781D01*
X035612Y021301D02*
X035132Y021781D01*
X035612Y021301D02*
X040482Y021301D01*
X040982Y018781D02*
X038132Y018781D01*
X036132Y020781D01*
X035132Y020781D02*
X037612Y018301D01*
X040482Y018301D01*
X040982Y018781D02*
X041462Y018301D01*
X041482Y018301D01*
X040982Y017781D02*
X034282Y017781D01*
X034032Y018031D01*
X034032Y019631D01*
X029082Y024581D01*
X020882Y024581D01*
X020532Y024931D01*
X020532Y029331D01*
X017332Y032531D01*
X016782Y032531D01*
X016782Y031531D02*
X017982Y031531D01*
X020232Y029281D01*
X020232Y024631D01*
X020582Y024281D01*
X029032Y024281D01*
X033582Y019731D01*
X033582Y017581D01*
X033862Y017301D01*
X040482Y017301D01*
X040462Y017281D01*
X040982Y017781D02*
X041462Y017301D01*
X041482Y017301D01*
X041032Y016781D02*
X033582Y016781D01*
X033182Y017181D01*
X033182Y019781D01*
X028982Y023981D01*
X020182Y023981D01*
X017382Y026781D01*
X016782Y026781D01*
X016782Y025781D02*
X018032Y025781D01*
X020132Y023681D01*
X028932Y023681D01*
X032782Y019831D01*
X032782Y016781D01*
X033262Y016301D01*
X040482Y016301D01*
X040982Y015781D02*
X032882Y015781D01*
X032332Y016331D01*
X032332Y019931D01*
X028882Y023381D01*
X012532Y023381D01*
X010782Y025131D01*
X010782Y029566D01*
X008734Y031613D01*
X008834Y030629D02*
X007750Y030629D01*
X008834Y030629D02*
X010132Y029331D01*
X010132Y025131D01*
X012182Y023081D01*
X028832Y023081D01*
X031932Y019981D01*
X031932Y015881D01*
X032512Y015301D01*
X040482Y015301D01*
X040982Y014831D02*
X032182Y014831D01*
X031532Y015481D01*
X031532Y020031D01*
X028800Y022763D01*
X008734Y022763D01*
X007753Y021781D02*
X007750Y021779D01*
X029084Y021779D01*
X031032Y019781D01*
X031032Y014981D01*
X031712Y014301D01*
X040482Y014301D01*
X040932Y013831D02*
X040482Y013381D01*
X040482Y013301D01*
X041482Y014301D02*
X041482Y014331D01*
X040982Y014831D01*
X041462Y015301D02*
X040982Y015781D01*
X041462Y015301D02*
X041482Y015301D01*
X041482Y016301D02*
X041482Y016331D01*
X041032Y016781D01*
X038782Y011831D02*
X035482Y011831D01*
X025432Y011831D01*
X017782Y010981D02*
X017558Y010758D01*
X017357Y010758D01*
X013682Y010331D02*
X013566Y010215D01*
X013133Y010215D01*
X010232Y013281D02*
X010748Y013798D01*
X010830Y013798D01*
X010830Y014053D02*
X009836Y014053D01*
X009832Y014057D01*
X009831Y014057D02*
X007240Y014057D01*
X009832Y014805D02*
X009906Y014731D01*
X010032Y014731D01*
X010454Y014309D01*
X010830Y014309D01*
X013133Y014565D02*
X013566Y014565D01*
X013682Y014681D01*
X013416Y017715D02*
X013682Y017981D01*
X013416Y017715D02*
X013133Y017715D01*
X032732Y006381D02*
X032732Y005755D01*
X033532Y005755D02*
X033532Y006381D01*
X034332Y006381D02*
X034332Y005755D01*
X035132Y005755D02*
X035132Y006381D01*
X035932Y006381D02*
X035932Y005755D01*
X035932Y005007D02*
X035932Y004381D01*
X035132Y004381D02*
X035132Y005007D01*
X034332Y005007D02*
X034332Y004381D01*
X033532Y004381D02*
X033532Y005007D01*
X032732Y005007D02*
X032732Y004381D01*
X036882Y004381D02*
X036882Y005106D01*
X036882Y005736D02*
X036882Y006381D01*
X042332Y006881D02*
X042832Y006381D01*
X042832Y002981D01*
X042182Y002331D01*
X009282Y002331D01*
X007132Y004481D01*
X010832Y004431D02*
X010970Y004393D01*
X011258Y004393D01*
X010832Y004981D02*
X011932Y004981D01*
X012006Y004907D01*
X012006Y004393D01*
X012006Y004005D01*
X011882Y003881D01*
X011382Y003881D01*
X011258Y003757D01*
X011258Y003370D01*
X011632Y003370D02*
X011632Y002981D01*
X011832Y002781D01*
X013382Y002781D01*
X013532Y002931D01*
X013532Y003357D01*
X013556Y003381D01*
X012808Y003381D02*
X012796Y003370D01*
X012006Y003370D01*
X042332Y006881D02*
X042332Y007531D01*
X042492Y007692D01*
X042830Y007692D01*
X042830Y007948D02*
X043166Y007948D01*
X043382Y007731D01*
X044182Y007731D01*
X044532Y008081D01*
X044082Y008381D02*
X044004Y008459D01*
X042830Y008459D01*
X042830Y008203D02*
X043460Y008203D01*
X043582Y008081D01*
X042830Y007436D02*
X042830Y006933D01*
X043082Y006681D01*
X043608Y006681D01*
X046430Y006933D02*
X046682Y006681D01*
X047208Y006681D01*
X046430Y006933D02*
X046430Y007436D01*
X046430Y007692D02*
X047271Y007692D01*
X047532Y007431D01*
X047332Y007931D02*
X046446Y007931D01*
X046430Y007948D01*
X047982Y008981D02*
X047992Y008971D01*
X048733Y008971D01*
X048733Y008715D02*
X048966Y008715D01*
X049182Y008931D01*
X049182Y009981D01*
X048682Y009731D02*
X048682Y009227D01*
X048733Y009227D01*
X048733Y008459D02*
X049810Y008459D01*
X050082Y008731D01*
X050082Y009981D01*
X045133Y009630D02*
X045133Y009227D01*
X045133Y009630D02*
X045132Y009631D01*
X054232Y006605D02*
X054242Y006615D01*
X054925Y006615D01*
X054925Y006381D02*
X055532Y006381D01*
X054925Y006359D02*
X054925Y006381D01*
X054925Y006103D02*
X054925Y005848D01*
X055516Y005848D01*
X055832Y005531D01*
X055832Y005057D01*
X055858Y005031D01*
X056606Y005031D02*
X056982Y005031D01*
X057020Y005070D01*
X057020Y006331D01*
X056982Y006120D01*
X056982Y006331D01*
X057020Y006331D02*
X056766Y006231D01*
X056638Y006103D01*
X056638Y006137D01*
X056638Y006103D02*
X056638Y006359D01*
X056606Y005157D02*
X056606Y005031D01*
X054925Y005848D02*
X054242Y005848D01*
X054232Y005857D01*
X054258Y005831D01*
X035632Y024281D02*
X035132Y023781D01*
D51*
X050882Y016081D03*
X051182Y015781D03*
X051482Y015481D03*
X050882Y015481D03*
X051482Y016081D03*
X054482Y016181D03*
X052482Y013981D03*
X051282Y013181D03*
X054182Y013181D03*
X050082Y009981D03*
X049182Y009981D03*
X048682Y009731D03*
X047982Y008981D03*
X047082Y008381D03*
X045882Y008181D03*
X045732Y008581D03*
X045732Y009031D03*
X045132Y009631D03*
X043732Y008831D03*
X043482Y009181D03*
X044082Y008381D03*
X043582Y008081D03*
X047532Y007431D03*
X054482Y008581D03*
X055332Y008581D03*
X056232Y008581D03*
X055532Y006381D03*
X059932Y006731D03*
X060482Y007131D03*
X061132Y008181D03*
X060282Y009831D03*
X059932Y010231D03*
X060732Y010381D03*
X060732Y012281D03*
X059632Y012781D03*
X060282Y013781D03*
X059932Y014381D03*
X060732Y014381D03*
X060732Y016281D03*
X059582Y016581D03*
X060282Y017831D03*
X059932Y018381D03*
X060732Y018381D03*
X060732Y020281D03*
X059632Y020581D03*
X060282Y021881D03*
X059932Y022381D03*
X060732Y022381D03*
X060732Y024281D03*
X054382Y019281D03*
X051282Y018231D03*
X038782Y011831D03*
X036882Y006381D03*
X035932Y006381D03*
X035132Y006381D03*
X034332Y006381D03*
X033532Y006381D03*
X032732Y006381D03*
X032732Y004381D03*
X033532Y004381D03*
X034332Y004381D03*
X035132Y004381D03*
X035932Y004381D03*
X036882Y004381D03*
X025432Y011831D03*
X022332Y012781D03*
X017782Y012781D03*
X016882Y013281D03*
X015032Y012781D03*
X013682Y014681D03*
X010832Y015131D03*
X010232Y016481D03*
X010832Y018231D03*
X013682Y017981D03*
X010232Y013281D03*
X010832Y010731D03*
X010232Y008981D03*
X010832Y007581D03*
X010282Y005881D03*
X010832Y004981D03*
X010832Y004431D03*
X014332Y004231D03*
X018032Y004681D03*
X021332Y006081D03*
X016032Y007431D03*
X013682Y007431D03*
X013682Y010331D03*
X015032Y010781D03*
X017782Y010981D03*
D52*
X054932Y024131D03*
X055882Y024131D03*
X056932Y024131D03*
X057882Y024131D03*
X057882Y025181D03*
X056932Y025181D03*
X055882Y025181D03*
X054932Y025181D03*
X054932Y026231D03*
X055882Y026231D03*
X056932Y026231D03*
X057882Y026231D03*
X057882Y027281D03*
X056932Y027281D03*
X055882Y027281D03*
X054932Y027281D03*
X061732Y023881D03*
X061732Y019881D03*
X061732Y015881D03*
X061732Y011881D03*
X060832Y006331D03*
X034732Y033531D03*
X033682Y033531D03*
X033682Y034531D03*
X034732Y034531D03*
X034732Y035581D03*
X033682Y035581D03*
X033682Y036581D03*
X034732Y036581D03*
X032632Y036581D03*
X031582Y036581D03*
X031582Y035581D03*
X032632Y035581D03*
X032632Y034531D03*
X031582Y034531D03*
X031582Y033531D03*
X032632Y033531D03*
X028082Y033481D03*
X028082Y034481D03*
X026982Y034481D03*
X025932Y034481D03*
X025932Y033481D03*
X026982Y033481D03*
X024882Y033481D03*
X024882Y034481D03*
X024882Y035531D03*
X024882Y036531D03*
X025932Y036531D03*
X026982Y036531D03*
X026982Y035531D03*
X025932Y035531D03*
X028082Y035531D03*
X028082Y036531D03*
D53*
X032632Y034531D02*
X033182Y034531D01*
X033182Y035131D01*
X033182Y034531D02*
X033182Y031851D01*
X033182Y031831D01*
X015607Y012805D02*
X015583Y012781D01*
X015032Y012781D01*
X015032Y010781D02*
X015583Y010781D01*
X015607Y010758D01*
X015857Y010758D01*
D54*
X018982Y008431D02*
X018981Y008430D01*
X018981Y007431D01*
X021108Y007431D02*
X021132Y007431D01*
X021132Y008431D01*
X021856Y007449D02*
X021856Y007431D01*
X021856Y007449D02*
X023082Y007449D01*
X023082Y005914D02*
X023082Y005081D01*
X020682Y010281D02*
X020682Y011230D01*
X020505Y011407D01*
X019782Y011407D01*
X019782Y012155D02*
X020505Y012155D01*
X020682Y012333D01*
X020682Y013235D01*
X020682Y014128D02*
X020682Y015031D01*
X021708Y015031D01*
X022456Y015031D02*
X023414Y015031D01*
X023432Y015031D01*
X024949Y015031D02*
X024932Y013981D01*
X019182Y014131D02*
X018532Y014131D01*
X018532Y014155D01*
X009832Y014057D02*
X009831Y014057D01*
X009831Y017206D02*
X009832Y017207D01*
X009832Y009707D02*
X009831Y009706D01*
X009831Y006557D02*
X009832Y006557D01*
X012808Y004231D02*
X012808Y003381D01*
X043608Y006055D02*
X043632Y006031D01*
X043608Y006055D02*
X043608Y006681D01*
X044356Y006681D02*
X044356Y006057D01*
X044382Y006031D01*
X047208Y006055D02*
X047232Y006031D01*
X047208Y006055D02*
X047208Y006681D01*
X047956Y006681D02*
X047956Y006057D01*
X047982Y006031D01*
X054232Y005857D02*
X054232Y005031D01*
X054232Y004181D01*
X054982Y004181D02*
X055006Y004181D01*
X055006Y005031D01*
X054258Y005031D02*
X054232Y005031D01*
X057432Y008281D02*
X058208Y008281D01*
X058208Y009131D01*
X058956Y009131D02*
X058956Y008281D01*
X059756Y008281D01*
X058956Y011581D02*
X058956Y012281D01*
X058956Y013131D01*
X058208Y013131D02*
X058208Y012281D01*
X057432Y012281D01*
X054982Y012031D02*
X054232Y012031D01*
X058956Y015707D02*
X058982Y015681D01*
X058956Y015707D02*
X058956Y016331D01*
X058956Y017181D01*
X058208Y017181D02*
X058208Y016331D01*
X057432Y016331D01*
X058982Y019681D02*
X058956Y019707D01*
X058956Y020331D01*
X058956Y021181D01*
X058208Y021181D02*
X058208Y020331D01*
X057432Y020331D01*
X051956Y022455D02*
X051932Y022431D01*
X051906Y022405D01*
X051932Y022431D02*
X051282Y022431D01*
X050632Y022431D01*
X050432Y023431D02*
X051208Y023431D01*
X051956Y023431D02*
X051956Y022455D01*
X051956Y023431D02*
X051956Y024359D01*
X051933Y024381D01*
X048158Y018281D02*
X047382Y018281D01*
X047032Y016081D02*
X047808Y016081D01*
X028732Y028131D02*
X028732Y029331D01*
X028732Y029981D01*
X028732Y030631D01*
X027783Y030631D01*
X027782Y030633D01*
X025783Y030681D02*
X024906Y030681D01*
X024882Y030681D01*
X024882Y029881D01*
X024882Y029231D01*
X024882Y028581D01*
X023432Y027331D02*
X022782Y027331D01*
X022132Y027331D01*
X023432Y027331D02*
X027932Y027331D01*
X028732Y028131D01*
X031632Y028631D02*
X031632Y029281D01*
X031632Y029981D01*
X031632Y030705D01*
X031606Y030731D01*
X031632Y030705D02*
X032512Y030705D01*
X034532Y030683D02*
X035381Y030683D01*
X035482Y030681D01*
X035482Y030031D01*
X035482Y029381D01*
X049432Y034031D02*
X049432Y035307D01*
X049458Y036031D02*
X049432Y036055D01*
X049458Y036031D02*
X052782Y036031D01*
D55*
X049432Y034031D03*
X051082Y029981D03*
X051082Y029331D03*
X051082Y028681D03*
X050432Y023431D03*
X050632Y022431D03*
X051282Y022431D03*
X051932Y022431D03*
X054232Y021181D03*
X057432Y020331D03*
X058982Y019681D03*
X054232Y018131D03*
X057432Y016331D03*
X058982Y015681D03*
X054232Y015081D03*
X054232Y012031D03*
X057432Y012281D03*
X058982Y011581D03*
X059782Y008281D03*
X057432Y008281D03*
X054982Y004181D03*
X054232Y004181D03*
X047982Y006031D03*
X047232Y006031D03*
X044382Y006031D03*
X043632Y006031D03*
X048182Y015381D03*
X047032Y016081D03*
X047382Y018281D03*
X048882Y019031D03*
X031632Y028631D03*
X031632Y029281D03*
X031632Y029981D03*
X028732Y029981D03*
X028732Y029331D03*
X028732Y030631D03*
X024882Y029881D03*
X024882Y029231D03*
X024882Y028581D03*
X023432Y027331D03*
X022782Y027331D03*
X022132Y027331D03*
X035482Y029381D03*
X035482Y030031D03*
X035482Y030681D03*
X020682Y015031D03*
X019182Y014131D03*
X024932Y013981D03*
X020682Y010281D03*
X021132Y008431D03*
X018982Y008431D03*
X023082Y005081D03*
D56*
X020532Y005357D02*
X019709Y005357D01*
X019532Y005180D01*
X019495Y005217D01*
X018756Y005217D01*
X018756Y005357D01*
X018382Y005731D01*
X016882Y005731D01*
X016882Y004881D01*
X015382Y003381D01*
X013556Y003381D01*
X013556Y004231D02*
X014332Y004231D01*
X016882Y005731D02*
X016882Y007430D01*
X016881Y007431D01*
X017983Y007431D02*
X018008Y007407D01*
X018008Y006246D01*
X018382Y006246D02*
X018382Y006833D01*
X018981Y007431D01*
X020083Y007431D02*
X020083Y006834D01*
X019532Y006283D01*
X019709Y006105D01*
X020532Y006105D01*
X019532Y006283D02*
X019495Y006246D01*
X018756Y006246D01*
X056982Y006331D02*
X057020Y006331D01*
X060832Y006331D01*
X062282Y007781D02*
X061732Y008331D01*
X061732Y011081D01*
X061482Y011331D01*
X060358Y011331D01*
X060358Y011839D01*
X061106Y011839D02*
X061148Y011881D01*
X061732Y011881D01*
X062882Y013881D02*
X061432Y015331D01*
X060358Y015331D01*
X060358Y015839D01*
X061106Y015839D02*
X061114Y015881D01*
X061732Y015881D01*
X062332Y019281D02*
X060358Y019281D01*
X060358Y019839D01*
X061106Y019839D02*
X061148Y019881D01*
X061732Y019881D01*
X062332Y019281D02*
X062882Y019831D01*
X061106Y023839D02*
X061148Y023881D01*
X061732Y023881D01*
X060358Y023839D02*
X060358Y025307D01*
X060832Y025781D01*
X062882Y025781D01*
X062882Y007781D02*
X062282Y007781D01*
M02*
