G75*
G70*
%OFA0B0*%
%FSLAX24Y24*%
%IPPOS*%
%LPD*%
%AMOC8*
5,1,8,0,0,1.08239X$1,22.5*
%
%ADD10C,0.0000*%
%ADD11C,0.0030*%
%ADD12C,0.0100*%
%ADD13C,0.0050*%
%ADD14C,0.0020*%
%ADD15C,0.0040*%
%ADD16R,0.0079X0.0157*%
%ADD17C,0.0028*%
%ADD18C,0.0039*%
%ADD19C,0.0060*%
%ADD20R,0.1000X0.0250*%
%ADD21C,0.0070*%
%ADD22C,0.0080*%
%ADD23R,0.0380X0.0660*%
%ADD24R,0.0660X0.0380*%
%ADD25C,0.0197*%
%ADD26C,0.0004*%
%ADD27R,0.0295X0.0295*%
%ADD28C,0.0256*%
D10*
X002782Y000181D02*
X002782Y039551D01*
X065774Y039551D01*
X065774Y000181D01*
X002782Y000181D01*
X005310Y021779D02*
X005312Y021822D01*
X005318Y021864D01*
X005328Y021906D01*
X005341Y021947D01*
X005358Y021987D01*
X005379Y022024D01*
X005403Y022060D01*
X005430Y022093D01*
X005460Y022124D01*
X005493Y022152D01*
X005528Y022177D01*
X005565Y022198D01*
X005604Y022216D01*
X005644Y022230D01*
X005686Y022241D01*
X005728Y022248D01*
X005771Y022251D01*
X005814Y022250D01*
X005857Y022245D01*
X005899Y022236D01*
X005940Y022224D01*
X005980Y022208D01*
X006018Y022188D01*
X006054Y022165D01*
X006088Y022138D01*
X006120Y022109D01*
X006148Y022077D01*
X006174Y022042D01*
X006196Y022006D01*
X006215Y021967D01*
X006230Y021927D01*
X006242Y021886D01*
X006250Y021843D01*
X006254Y021800D01*
X006254Y021758D01*
X006250Y021715D01*
X006242Y021672D01*
X006230Y021631D01*
X006215Y021591D01*
X006196Y021552D01*
X006174Y021516D01*
X006148Y021481D01*
X006120Y021449D01*
X006088Y021420D01*
X006054Y021393D01*
X006018Y021370D01*
X005980Y021350D01*
X005940Y021334D01*
X005899Y021322D01*
X005857Y021313D01*
X005814Y021308D01*
X005771Y021307D01*
X005728Y021310D01*
X005686Y021317D01*
X005644Y021328D01*
X005604Y021342D01*
X005565Y021360D01*
X005528Y021381D01*
X005493Y021406D01*
X005460Y021434D01*
X005430Y021465D01*
X005403Y021498D01*
X005379Y021534D01*
X005358Y021571D01*
X005341Y021611D01*
X005328Y021652D01*
X005318Y021694D01*
X005312Y021736D01*
X005310Y021779D01*
X005310Y027684D02*
X005312Y027727D01*
X005318Y027769D01*
X005328Y027811D01*
X005341Y027852D01*
X005358Y027892D01*
X005379Y027929D01*
X005403Y027965D01*
X005430Y027998D01*
X005460Y028029D01*
X005493Y028057D01*
X005528Y028082D01*
X005565Y028103D01*
X005604Y028121D01*
X005644Y028135D01*
X005686Y028146D01*
X005728Y028153D01*
X005771Y028156D01*
X005814Y028155D01*
X005857Y028150D01*
X005899Y028141D01*
X005940Y028129D01*
X005980Y028113D01*
X006018Y028093D01*
X006054Y028070D01*
X006088Y028043D01*
X006120Y028014D01*
X006148Y027982D01*
X006174Y027947D01*
X006196Y027911D01*
X006215Y027872D01*
X006230Y027832D01*
X006242Y027791D01*
X006250Y027748D01*
X006254Y027705D01*
X006254Y027663D01*
X006250Y027620D01*
X006242Y027577D01*
X006230Y027536D01*
X006215Y027496D01*
X006196Y027457D01*
X006174Y027421D01*
X006148Y027386D01*
X006120Y027354D01*
X006088Y027325D01*
X006054Y027298D01*
X006018Y027275D01*
X005980Y027255D01*
X005940Y027239D01*
X005899Y027227D01*
X005857Y027218D01*
X005814Y027213D01*
X005771Y027212D01*
X005728Y027215D01*
X005686Y027222D01*
X005644Y027233D01*
X005604Y027247D01*
X005565Y027265D01*
X005528Y027286D01*
X005493Y027311D01*
X005460Y027339D01*
X005430Y027370D01*
X005403Y027403D01*
X005379Y027439D01*
X005358Y027476D01*
X005341Y027516D01*
X005328Y027557D01*
X005318Y027599D01*
X005312Y027641D01*
X005310Y027684D01*
X005310Y030629D02*
X005312Y030672D01*
X005318Y030714D01*
X005328Y030756D01*
X005341Y030797D01*
X005358Y030837D01*
X005379Y030874D01*
X005403Y030910D01*
X005430Y030943D01*
X005460Y030974D01*
X005493Y031002D01*
X005528Y031027D01*
X005565Y031048D01*
X005604Y031066D01*
X005644Y031080D01*
X005686Y031091D01*
X005728Y031098D01*
X005771Y031101D01*
X005814Y031100D01*
X005857Y031095D01*
X005899Y031086D01*
X005940Y031074D01*
X005980Y031058D01*
X006018Y031038D01*
X006054Y031015D01*
X006088Y030988D01*
X006120Y030959D01*
X006148Y030927D01*
X006174Y030892D01*
X006196Y030856D01*
X006215Y030817D01*
X006230Y030777D01*
X006242Y030736D01*
X006250Y030693D01*
X006254Y030650D01*
X006254Y030608D01*
X006250Y030565D01*
X006242Y030522D01*
X006230Y030481D01*
X006215Y030441D01*
X006196Y030402D01*
X006174Y030366D01*
X006148Y030331D01*
X006120Y030299D01*
X006088Y030270D01*
X006054Y030243D01*
X006018Y030220D01*
X005980Y030200D01*
X005940Y030184D01*
X005899Y030172D01*
X005857Y030163D01*
X005814Y030158D01*
X005771Y030157D01*
X005728Y030160D01*
X005686Y030167D01*
X005644Y030178D01*
X005604Y030192D01*
X005565Y030210D01*
X005528Y030231D01*
X005493Y030256D01*
X005460Y030284D01*
X005430Y030315D01*
X005403Y030348D01*
X005379Y030384D01*
X005358Y030421D01*
X005341Y030461D01*
X005328Y030502D01*
X005318Y030544D01*
X005312Y030586D01*
X005310Y030629D01*
X005310Y036534D02*
X005312Y036577D01*
X005318Y036619D01*
X005328Y036661D01*
X005341Y036702D01*
X005358Y036742D01*
X005379Y036779D01*
X005403Y036815D01*
X005430Y036848D01*
X005460Y036879D01*
X005493Y036907D01*
X005528Y036932D01*
X005565Y036953D01*
X005604Y036971D01*
X005644Y036985D01*
X005686Y036996D01*
X005728Y037003D01*
X005771Y037006D01*
X005814Y037005D01*
X005857Y037000D01*
X005899Y036991D01*
X005940Y036979D01*
X005980Y036963D01*
X006018Y036943D01*
X006054Y036920D01*
X006088Y036893D01*
X006120Y036864D01*
X006148Y036832D01*
X006174Y036797D01*
X006196Y036761D01*
X006215Y036722D01*
X006230Y036682D01*
X006242Y036641D01*
X006250Y036598D01*
X006254Y036555D01*
X006254Y036513D01*
X006250Y036470D01*
X006242Y036427D01*
X006230Y036386D01*
X006215Y036346D01*
X006196Y036307D01*
X006174Y036271D01*
X006148Y036236D01*
X006120Y036204D01*
X006088Y036175D01*
X006054Y036148D01*
X006018Y036125D01*
X005980Y036105D01*
X005940Y036089D01*
X005899Y036077D01*
X005857Y036068D01*
X005814Y036063D01*
X005771Y036062D01*
X005728Y036065D01*
X005686Y036072D01*
X005644Y036083D01*
X005604Y036097D01*
X005565Y036115D01*
X005528Y036136D01*
X005493Y036161D01*
X005460Y036189D01*
X005430Y036220D01*
X005403Y036253D01*
X005379Y036289D01*
X005358Y036326D01*
X005341Y036366D01*
X005328Y036407D01*
X005318Y036449D01*
X005312Y036491D01*
X005310Y036534D01*
X040332Y029681D02*
X040334Y029731D01*
X040340Y029781D01*
X040350Y029831D01*
X040363Y029879D01*
X040380Y029927D01*
X040401Y029973D01*
X040425Y030017D01*
X040453Y030059D01*
X040484Y030099D01*
X040518Y030136D01*
X040555Y030171D01*
X040594Y030202D01*
X040635Y030231D01*
X040679Y030256D01*
X040725Y030278D01*
X040772Y030296D01*
X040820Y030310D01*
X040869Y030321D01*
X040919Y030328D01*
X040969Y030331D01*
X041020Y030330D01*
X041070Y030325D01*
X041120Y030316D01*
X041168Y030304D01*
X041216Y030287D01*
X041262Y030267D01*
X041307Y030244D01*
X041350Y030217D01*
X041390Y030187D01*
X041428Y030154D01*
X041463Y030118D01*
X041496Y030079D01*
X041525Y030038D01*
X041551Y029995D01*
X041574Y029950D01*
X041593Y029903D01*
X041608Y029855D01*
X041620Y029806D01*
X041628Y029756D01*
X041632Y029706D01*
X041632Y029656D01*
X041628Y029606D01*
X041620Y029556D01*
X041608Y029507D01*
X041593Y029459D01*
X041574Y029412D01*
X041551Y029367D01*
X041525Y029324D01*
X041496Y029283D01*
X041463Y029244D01*
X041428Y029208D01*
X041390Y029175D01*
X041350Y029145D01*
X041307Y029118D01*
X041262Y029095D01*
X041216Y029075D01*
X041168Y029058D01*
X041120Y029046D01*
X041070Y029037D01*
X041020Y029032D01*
X040969Y029031D01*
X040919Y029034D01*
X040869Y029041D01*
X040820Y029052D01*
X040772Y029066D01*
X040725Y029084D01*
X040679Y029106D01*
X040635Y029131D01*
X040594Y029160D01*
X040555Y029191D01*
X040518Y029226D01*
X040484Y029263D01*
X040453Y029303D01*
X040425Y029345D01*
X040401Y029389D01*
X040380Y029435D01*
X040363Y029483D01*
X040350Y029531D01*
X040340Y029581D01*
X040334Y029631D01*
X040332Y029681D01*
X058832Y029681D02*
X058834Y029731D01*
X058840Y029781D01*
X058850Y029831D01*
X058863Y029879D01*
X058880Y029927D01*
X058901Y029973D01*
X058925Y030017D01*
X058953Y030059D01*
X058984Y030099D01*
X059018Y030136D01*
X059055Y030171D01*
X059094Y030202D01*
X059135Y030231D01*
X059179Y030256D01*
X059225Y030278D01*
X059272Y030296D01*
X059320Y030310D01*
X059369Y030321D01*
X059419Y030328D01*
X059469Y030331D01*
X059520Y030330D01*
X059570Y030325D01*
X059620Y030316D01*
X059668Y030304D01*
X059716Y030287D01*
X059762Y030267D01*
X059807Y030244D01*
X059850Y030217D01*
X059890Y030187D01*
X059928Y030154D01*
X059963Y030118D01*
X059996Y030079D01*
X060025Y030038D01*
X060051Y029995D01*
X060074Y029950D01*
X060093Y029903D01*
X060108Y029855D01*
X060120Y029806D01*
X060128Y029756D01*
X060132Y029706D01*
X060132Y029656D01*
X060128Y029606D01*
X060120Y029556D01*
X060108Y029507D01*
X060093Y029459D01*
X060074Y029412D01*
X060051Y029367D01*
X060025Y029324D01*
X059996Y029283D01*
X059963Y029244D01*
X059928Y029208D01*
X059890Y029175D01*
X059850Y029145D01*
X059807Y029118D01*
X059762Y029095D01*
X059716Y029075D01*
X059668Y029058D01*
X059620Y029046D01*
X059570Y029037D01*
X059520Y029032D01*
X059469Y029031D01*
X059419Y029034D01*
X059369Y029041D01*
X059320Y029052D01*
X059272Y029066D01*
X059225Y029084D01*
X059179Y029106D01*
X059135Y029131D01*
X059094Y029160D01*
X059055Y029191D01*
X059018Y029226D01*
X058984Y029263D01*
X058953Y029303D01*
X058925Y029345D01*
X058901Y029389D01*
X058880Y029435D01*
X058863Y029483D01*
X058850Y029531D01*
X058840Y029581D01*
X058834Y029631D01*
X058832Y029681D01*
X059182Y003781D02*
X059184Y003831D01*
X059190Y003881D01*
X059200Y003931D01*
X059213Y003979D01*
X059230Y004027D01*
X059251Y004073D01*
X059275Y004117D01*
X059303Y004159D01*
X059334Y004199D01*
X059368Y004236D01*
X059405Y004271D01*
X059444Y004302D01*
X059485Y004331D01*
X059529Y004356D01*
X059575Y004378D01*
X059622Y004396D01*
X059670Y004410D01*
X059719Y004421D01*
X059769Y004428D01*
X059819Y004431D01*
X059870Y004430D01*
X059920Y004425D01*
X059970Y004416D01*
X060018Y004404D01*
X060066Y004387D01*
X060112Y004367D01*
X060157Y004344D01*
X060200Y004317D01*
X060240Y004287D01*
X060278Y004254D01*
X060313Y004218D01*
X060346Y004179D01*
X060375Y004138D01*
X060401Y004095D01*
X060424Y004050D01*
X060443Y004003D01*
X060458Y003955D01*
X060470Y003906D01*
X060478Y003856D01*
X060482Y003806D01*
X060482Y003756D01*
X060478Y003706D01*
X060470Y003656D01*
X060458Y003607D01*
X060443Y003559D01*
X060424Y003512D01*
X060401Y003467D01*
X060375Y003424D01*
X060346Y003383D01*
X060313Y003344D01*
X060278Y003308D01*
X060240Y003275D01*
X060200Y003245D01*
X060157Y003218D01*
X060112Y003195D01*
X060066Y003175D01*
X060018Y003158D01*
X059970Y003146D01*
X059920Y003137D01*
X059870Y003132D01*
X059819Y003131D01*
X059769Y003134D01*
X059719Y003141D01*
X059670Y003152D01*
X059622Y003166D01*
X059575Y003184D01*
X059529Y003206D01*
X059485Y003231D01*
X059444Y003260D01*
X059405Y003291D01*
X059368Y003326D01*
X059334Y003363D01*
X059303Y003403D01*
X059275Y003445D01*
X059251Y003489D01*
X059230Y003535D01*
X059213Y003583D01*
X059200Y003631D01*
X059190Y003681D01*
X059184Y003731D01*
X059182Y003781D01*
X040332Y003931D02*
X040334Y003981D01*
X040340Y004031D01*
X040350Y004081D01*
X040363Y004129D01*
X040380Y004177D01*
X040401Y004223D01*
X040425Y004267D01*
X040453Y004309D01*
X040484Y004349D01*
X040518Y004386D01*
X040555Y004421D01*
X040594Y004452D01*
X040635Y004481D01*
X040679Y004506D01*
X040725Y004528D01*
X040772Y004546D01*
X040820Y004560D01*
X040869Y004571D01*
X040919Y004578D01*
X040969Y004581D01*
X041020Y004580D01*
X041070Y004575D01*
X041120Y004566D01*
X041168Y004554D01*
X041216Y004537D01*
X041262Y004517D01*
X041307Y004494D01*
X041350Y004467D01*
X041390Y004437D01*
X041428Y004404D01*
X041463Y004368D01*
X041496Y004329D01*
X041525Y004288D01*
X041551Y004245D01*
X041574Y004200D01*
X041593Y004153D01*
X041608Y004105D01*
X041620Y004056D01*
X041628Y004006D01*
X041632Y003956D01*
X041632Y003906D01*
X041628Y003856D01*
X041620Y003806D01*
X041608Y003757D01*
X041593Y003709D01*
X041574Y003662D01*
X041551Y003617D01*
X041525Y003574D01*
X041496Y003533D01*
X041463Y003494D01*
X041428Y003458D01*
X041390Y003425D01*
X041350Y003395D01*
X041307Y003368D01*
X041262Y003345D01*
X041216Y003325D01*
X041168Y003308D01*
X041120Y003296D01*
X041070Y003287D01*
X041020Y003282D01*
X040969Y003281D01*
X040919Y003284D01*
X040869Y003291D01*
X040820Y003302D01*
X040772Y003316D01*
X040725Y003334D01*
X040679Y003356D01*
X040635Y003381D01*
X040594Y003410D01*
X040555Y003441D01*
X040518Y003476D01*
X040484Y003513D01*
X040453Y003553D01*
X040425Y003595D01*
X040401Y003639D01*
X040380Y003685D01*
X040363Y003733D01*
X040350Y003781D01*
X040340Y003831D01*
X040334Y003881D01*
X040332Y003931D01*
D11*
X037437Y005032D02*
X037437Y005226D01*
X037437Y005327D02*
X037437Y005520D01*
X037437Y005424D02*
X037146Y005424D01*
X037243Y005327D01*
X037146Y005032D02*
X037437Y005032D01*
X057219Y013547D02*
X057281Y013485D01*
X057404Y013485D01*
X057466Y013547D01*
X057466Y013856D01*
X057587Y013856D02*
X057587Y013671D01*
X057711Y013732D01*
X057773Y013732D01*
X057834Y013671D01*
X057834Y013547D01*
X057773Y013485D01*
X057649Y013485D01*
X057587Y013547D01*
X057587Y013856D02*
X057834Y013856D01*
X057219Y013856D02*
X057219Y013547D01*
X057269Y009856D02*
X057269Y009547D01*
X057331Y009485D01*
X057454Y009485D01*
X057516Y009547D01*
X057516Y009856D01*
X057637Y009671D02*
X057884Y009671D01*
X057823Y009856D02*
X057637Y009671D01*
X057823Y009856D02*
X057823Y009485D01*
X057773Y017535D02*
X057834Y017597D01*
X057834Y017659D01*
X057773Y017721D01*
X057587Y017721D01*
X057587Y017597D01*
X057649Y017535D01*
X057773Y017535D01*
X057587Y017721D02*
X057711Y017844D01*
X057834Y017906D01*
X057466Y017906D02*
X057466Y017597D01*
X057404Y017535D01*
X057281Y017535D01*
X057219Y017597D01*
X057219Y017906D01*
X057331Y021485D02*
X057454Y021485D01*
X057516Y021547D01*
X057516Y021856D01*
X057637Y021856D02*
X057884Y021856D01*
X057884Y021794D01*
X057637Y021547D01*
X057637Y021485D01*
X057331Y021485D02*
X057269Y021547D01*
X057269Y021856D01*
X053374Y022393D02*
X053374Y022587D01*
X053181Y022587D02*
X053181Y022393D01*
X053277Y022296D01*
X053374Y022393D01*
X053079Y022345D02*
X053031Y022296D01*
X052934Y022296D01*
X052886Y022345D01*
X052886Y022442D02*
X052983Y022490D01*
X053031Y022490D01*
X053079Y022442D01*
X053079Y022345D01*
X052886Y022442D02*
X052886Y022587D01*
X053079Y022587D01*
X052785Y022490D02*
X052785Y022296D01*
X052785Y022442D02*
X052591Y022442D01*
X052591Y022490D02*
X052688Y022587D01*
X052785Y022490D01*
X052591Y022490D02*
X052591Y022296D01*
X052490Y022442D02*
X052297Y022442D01*
X052393Y022538D02*
X052393Y022345D01*
X050817Y027621D02*
X050817Y027815D01*
X050817Y027916D02*
X050623Y028110D01*
X050575Y028110D01*
X050526Y028061D01*
X050526Y027964D01*
X050575Y027916D01*
X050817Y027916D02*
X050817Y028110D01*
X050817Y027621D02*
X050526Y027621D01*
X044786Y034173D02*
X044909Y034296D01*
X044847Y034296D01*
X044847Y034358D01*
X044909Y034358D01*
X044909Y034296D01*
X044664Y034358D02*
X044602Y034296D01*
X044417Y034296D01*
X044296Y034296D02*
X044296Y034543D01*
X044417Y034543D02*
X044602Y034543D01*
X044664Y034482D01*
X044664Y034358D01*
X044417Y034173D02*
X044417Y034543D01*
X044296Y034296D02*
X044111Y034296D01*
X044049Y034358D01*
X044049Y034543D01*
X043927Y034482D02*
X043866Y034543D01*
X043742Y034543D01*
X043681Y034482D01*
X043681Y034358D01*
X043742Y034296D01*
X043866Y034296D01*
X043927Y034358D01*
X043927Y034482D01*
X043559Y034543D02*
X043497Y034543D01*
X043374Y034420D01*
X043374Y034543D02*
X043374Y034296D01*
X043252Y034358D02*
X043252Y034482D01*
X043129Y034482D01*
X043252Y034605D02*
X043191Y034667D01*
X043067Y034667D01*
X043005Y034605D01*
X043005Y034358D01*
X043067Y034296D01*
X043191Y034296D01*
X043252Y034358D01*
X043309Y034946D02*
X043124Y034946D01*
X043062Y035008D01*
X043062Y035132D01*
X043124Y035193D01*
X043309Y035193D01*
X042940Y035132D02*
X042940Y035070D01*
X042694Y035070D01*
X042694Y035132D02*
X042755Y035193D01*
X042879Y035193D01*
X042940Y035132D01*
X042879Y034946D02*
X042755Y034946D01*
X042694Y035008D01*
X042694Y035132D01*
X042572Y034946D02*
X042448Y034946D01*
X042510Y034946D02*
X042510Y035317D01*
X042448Y035317D01*
X042327Y035193D02*
X042327Y034946D01*
X042327Y035132D02*
X042080Y035132D01*
X042080Y035193D02*
X042203Y035317D01*
X042327Y035193D01*
X042080Y035193D02*
X042080Y034946D01*
X042269Y034667D02*
X042269Y034296D01*
X042147Y034296D02*
X041962Y034296D01*
X041900Y034358D01*
X041900Y034482D01*
X041962Y034543D01*
X042147Y034543D01*
X042269Y034482D02*
X042330Y034543D01*
X042454Y034543D01*
X042516Y034482D01*
X042516Y034296D01*
X041779Y034543D02*
X041717Y034543D01*
X041594Y034420D01*
X041472Y034420D02*
X041287Y034420D01*
X041225Y034358D01*
X041287Y034296D01*
X041472Y034296D01*
X041472Y034482D01*
X041410Y034543D01*
X041287Y034543D01*
X041104Y034482D02*
X041104Y034420D01*
X040857Y034420D01*
X040857Y034482D02*
X040919Y034543D01*
X041042Y034543D01*
X041104Y034482D01*
X041042Y034296D02*
X040919Y034296D01*
X040857Y034358D01*
X040857Y034482D01*
X040736Y034543D02*
X040550Y034543D01*
X040489Y034482D01*
X040550Y034420D01*
X040674Y034420D01*
X040736Y034358D01*
X040674Y034296D01*
X040489Y034296D01*
X040367Y034420D02*
X040120Y034420D01*
X040120Y034482D02*
X040182Y034543D01*
X040306Y034543D01*
X040367Y034482D01*
X040367Y034420D01*
X040306Y034296D02*
X040182Y034296D01*
X040120Y034358D01*
X040120Y034482D01*
X039999Y034482D02*
X039937Y034420D01*
X039752Y034420D01*
X039875Y034420D02*
X039999Y034296D01*
X039999Y034482D02*
X039999Y034605D01*
X039937Y034667D01*
X039752Y034667D01*
X039752Y034296D01*
X039262Y034543D02*
X039200Y034543D01*
X039077Y034420D01*
X038955Y034420D02*
X038709Y034420D01*
X038709Y034482D02*
X038770Y034543D01*
X038894Y034543D01*
X038955Y034482D01*
X038955Y034420D01*
X038894Y034296D02*
X038770Y034296D01*
X038709Y034358D01*
X038709Y034482D01*
X038587Y034543D02*
X038587Y034358D01*
X038525Y034296D01*
X038464Y034358D01*
X038402Y034296D01*
X038340Y034358D01*
X038340Y034543D01*
X038219Y034482D02*
X038219Y034420D01*
X037972Y034420D01*
X037972Y034482D02*
X038034Y034543D01*
X038157Y034543D01*
X038219Y034482D01*
X038157Y034296D02*
X038034Y034296D01*
X037972Y034358D01*
X037972Y034482D01*
X037850Y034543D02*
X037788Y034543D01*
X037665Y034420D01*
X037544Y034420D02*
X037544Y034358D01*
X037482Y034296D01*
X037297Y034296D01*
X037297Y034667D01*
X037482Y034667D01*
X037544Y034605D01*
X037544Y034543D01*
X037482Y034482D01*
X037297Y034482D01*
X037482Y034482D02*
X037544Y034420D01*
X037665Y034543D02*
X037665Y034296D01*
X038397Y034946D02*
X038582Y034946D01*
X038644Y035008D01*
X038644Y035255D01*
X038582Y035317D01*
X038397Y035317D01*
X038397Y034946D01*
X038765Y035008D02*
X038827Y034946D01*
X039012Y034946D01*
X039012Y035132D01*
X038950Y035193D01*
X038827Y035193D01*
X038827Y035070D02*
X039012Y035070D01*
X039133Y035193D02*
X039319Y035193D01*
X039380Y035132D01*
X039380Y034946D01*
X039133Y034946D02*
X039133Y035193D01*
X038827Y035070D02*
X038765Y035008D01*
X038594Y035596D02*
X038409Y035596D01*
X038347Y035658D01*
X038409Y035720D01*
X038594Y035720D01*
X038594Y035782D02*
X038594Y035596D01*
X038594Y035782D02*
X038532Y035843D01*
X038409Y035843D01*
X038226Y035782D02*
X038164Y035843D01*
X038102Y035782D01*
X038102Y035596D01*
X037979Y035596D02*
X037979Y035843D01*
X038041Y035843D01*
X038102Y035782D01*
X038226Y035782D02*
X038226Y035596D01*
X037857Y035596D02*
X037672Y035596D01*
X037611Y035658D01*
X037611Y035782D01*
X037672Y035843D01*
X037857Y035843D01*
X037857Y035535D01*
X037796Y035473D01*
X037734Y035473D01*
X037488Y035596D02*
X037365Y035596D01*
X037427Y035596D02*
X037427Y035843D01*
X037365Y035843D01*
X037244Y035905D02*
X037182Y035967D01*
X037058Y035967D01*
X036997Y035905D01*
X036997Y035843D01*
X037058Y035782D01*
X037182Y035782D01*
X037244Y035720D01*
X037244Y035658D01*
X037182Y035596D01*
X037058Y035596D01*
X036997Y035658D01*
X037427Y035967D02*
X037427Y036028D01*
X039084Y035967D02*
X039084Y035596D01*
X039269Y035596D01*
X039331Y035658D01*
X039331Y035905D01*
X039269Y035967D01*
X039084Y035967D01*
X039452Y035782D02*
X039514Y035843D01*
X039637Y035843D01*
X039699Y035782D01*
X039699Y035720D01*
X039452Y035720D01*
X039452Y035658D02*
X039452Y035782D01*
X039452Y035658D02*
X039514Y035596D01*
X039637Y035596D01*
X039820Y035596D02*
X039944Y035596D01*
X039882Y035596D02*
X039882Y035967D01*
X039820Y035967D01*
X040066Y035843D02*
X040189Y035843D01*
X040128Y035905D02*
X040128Y035658D01*
X040189Y035596D01*
X040311Y035658D02*
X040373Y035720D01*
X040558Y035720D01*
X040558Y035782D02*
X040558Y035596D01*
X040373Y035596D01*
X040311Y035658D01*
X040373Y035843D02*
X040497Y035843D01*
X040558Y035782D01*
X041048Y035967D02*
X041233Y035967D01*
X041295Y035905D01*
X041295Y035658D01*
X041233Y035596D01*
X041048Y035596D01*
X041048Y035967D01*
X041478Y035843D02*
X041601Y035843D01*
X041663Y035782D01*
X041663Y035596D01*
X041478Y035596D01*
X041416Y035658D01*
X041478Y035720D01*
X041663Y035720D01*
X041785Y035658D02*
X041846Y035596D01*
X042031Y035596D01*
X042031Y035843D01*
X042153Y035782D02*
X042215Y035843D01*
X042400Y035843D01*
X042400Y035535D01*
X042338Y035473D01*
X042276Y035473D01*
X042215Y035596D02*
X042400Y035596D01*
X042521Y035596D02*
X042521Y035967D01*
X042583Y035843D02*
X042706Y035843D01*
X042768Y035782D01*
X042768Y035596D01*
X042951Y035658D02*
X042951Y035905D01*
X042890Y035843D02*
X043013Y035843D01*
X043135Y035782D02*
X043197Y035843D01*
X043320Y035843D01*
X043382Y035782D01*
X043382Y035720D01*
X043135Y035720D01*
X043135Y035658D02*
X043135Y035782D01*
X043135Y035658D02*
X043197Y035596D01*
X043320Y035596D01*
X043503Y035596D02*
X043503Y035843D01*
X043503Y035720D02*
X043627Y035843D01*
X043689Y035843D01*
X043810Y035843D02*
X043995Y035843D01*
X044057Y035782D01*
X044057Y035658D01*
X043995Y035596D01*
X043810Y035596D01*
X043810Y035967D01*
X044179Y035782D02*
X044240Y035843D01*
X044364Y035843D01*
X044425Y035782D01*
X044425Y035658D01*
X044364Y035596D01*
X044240Y035596D01*
X044179Y035658D01*
X044179Y035782D01*
X044547Y035658D02*
X044609Y035720D01*
X044794Y035720D01*
X044794Y035782D02*
X044794Y035596D01*
X044609Y035596D01*
X044547Y035658D01*
X044609Y035843D02*
X044732Y035843D01*
X044794Y035782D01*
X044915Y035843D02*
X044915Y035596D01*
X044915Y035720D02*
X045039Y035843D01*
X045100Y035843D01*
X045222Y035782D02*
X045284Y035843D01*
X045469Y035843D01*
X045469Y035967D02*
X045469Y035596D01*
X045284Y035596D01*
X045222Y035658D01*
X045222Y035782D01*
X045211Y035317D02*
X045211Y034946D01*
X045272Y034946D02*
X045149Y034946D01*
X045028Y035008D02*
X045028Y035132D01*
X044966Y035193D01*
X044781Y035193D01*
X044781Y035317D02*
X044781Y034946D01*
X044966Y034946D01*
X045028Y035008D01*
X045149Y035317D02*
X045211Y035317D01*
X045394Y035132D02*
X045456Y035193D01*
X045580Y035193D01*
X045641Y035132D01*
X045641Y035070D01*
X045394Y035070D01*
X045394Y035008D02*
X045394Y035132D01*
X045394Y035008D02*
X045456Y034946D01*
X045580Y034946D01*
X045584Y034667D02*
X045461Y034667D01*
X045399Y034605D01*
X045584Y034667D02*
X045646Y034605D01*
X045646Y034543D01*
X045399Y034296D01*
X045646Y034296D01*
X045768Y034358D02*
X046014Y034605D01*
X046014Y034358D01*
X045953Y034296D01*
X045829Y034296D01*
X045768Y034358D01*
X045768Y034605D01*
X045829Y034667D01*
X045953Y034667D01*
X046014Y034605D01*
X046136Y034543D02*
X046259Y034667D01*
X046259Y034296D01*
X046136Y034296D02*
X046383Y034296D01*
X046504Y034296D02*
X046751Y034543D01*
X046751Y034605D01*
X046689Y034667D01*
X046566Y034667D01*
X046504Y034605D01*
X046504Y034296D02*
X046751Y034296D01*
X046757Y035596D02*
X046880Y035596D01*
X046942Y035658D01*
X046757Y035596D02*
X046695Y035658D01*
X046695Y035905D01*
X046757Y035967D01*
X046880Y035967D01*
X046942Y035905D01*
X046574Y035905D02*
X046512Y035967D01*
X046389Y035967D01*
X046327Y035905D01*
X046206Y035967D02*
X046206Y035720D01*
X046082Y035596D01*
X045959Y035720D01*
X045959Y035967D01*
X046327Y035596D02*
X046574Y035843D01*
X046574Y035905D01*
X046574Y035596D02*
X046327Y035596D01*
X044659Y035132D02*
X044598Y035193D01*
X044412Y035193D01*
X044412Y035317D02*
X044412Y034946D01*
X044598Y034946D01*
X044659Y035008D01*
X044659Y035132D01*
X044290Y034946D02*
X044167Y034946D01*
X044229Y034946D02*
X044229Y035193D01*
X044167Y035193D01*
X044045Y035255D02*
X043984Y035317D01*
X043799Y035317D01*
X043799Y034946D01*
X043984Y034946D01*
X044045Y035008D01*
X044045Y035255D01*
X044229Y035317D02*
X044229Y035378D01*
X043013Y035596D02*
X042951Y035658D01*
X042583Y035843D02*
X042521Y035782D01*
X042215Y035596D02*
X042153Y035658D01*
X042153Y035782D01*
X041785Y035843D02*
X041785Y035658D01*
X041958Y035317D02*
X041711Y034946D01*
X041590Y034946D02*
X041405Y034946D01*
X041343Y035008D01*
X041405Y035070D01*
X041590Y035070D01*
X041590Y035132D02*
X041590Y034946D01*
X041590Y035132D02*
X041528Y035193D01*
X041405Y035193D01*
X041222Y035132D02*
X041160Y035193D01*
X040975Y035193D01*
X040853Y035193D02*
X040853Y034946D01*
X040668Y034946D01*
X040607Y035008D01*
X040607Y035193D01*
X040485Y035132D02*
X040423Y035193D01*
X040300Y035193D01*
X040238Y035132D01*
X040238Y035008D01*
X040300Y034946D01*
X040423Y034946D01*
X040485Y035008D01*
X040485Y035132D01*
X040117Y035317D02*
X039870Y035070D01*
X039932Y035132D02*
X040117Y034946D01*
X039870Y034946D02*
X039870Y035317D01*
X040975Y035317D02*
X040975Y034946D01*
X041160Y034946D01*
X041222Y035008D01*
X041222Y035132D01*
X041594Y034543D02*
X041594Y034296D01*
X039077Y034296D02*
X039077Y034543D01*
X035617Y032469D02*
X035520Y032566D01*
X035326Y032566D01*
X035326Y032372D02*
X035520Y032372D01*
X035617Y032469D01*
X035568Y032271D02*
X035617Y032223D01*
X035617Y032126D01*
X035568Y032078D01*
X035568Y031979D02*
X035617Y031979D01*
X035617Y031930D01*
X035568Y031930D01*
X035568Y031979D01*
X035568Y031829D02*
X035617Y031781D01*
X035617Y031684D01*
X035568Y031636D01*
X035568Y031535D02*
X035375Y031535D01*
X035326Y031486D01*
X035326Y031341D01*
X035617Y031341D01*
X035617Y031486D01*
X035568Y031535D01*
X035375Y031636D02*
X035326Y031684D01*
X035326Y031781D01*
X035375Y031829D01*
X035423Y031829D01*
X035472Y031781D01*
X035520Y031829D01*
X035568Y031829D01*
X035472Y031781D02*
X035472Y031732D01*
X035375Y032078D02*
X035326Y032126D01*
X035326Y032223D01*
X035375Y032271D01*
X035423Y032271D01*
X035472Y032223D01*
X035520Y032271D01*
X035568Y032271D01*
X035472Y032223D02*
X035472Y032174D01*
X035472Y031240D02*
X035472Y031046D01*
X035568Y031143D02*
X035375Y031143D01*
X028867Y031291D02*
X028867Y031436D01*
X028818Y031485D01*
X028625Y031485D01*
X028576Y031436D01*
X028576Y031291D01*
X028867Y031291D01*
X028722Y031190D02*
X028722Y030996D01*
X028818Y031093D02*
X028625Y031093D01*
X028576Y031586D02*
X028722Y031586D01*
X028673Y031682D01*
X028673Y031731D01*
X028722Y031779D01*
X028818Y031779D01*
X028867Y031731D01*
X028867Y031634D01*
X028818Y031586D01*
X028576Y031586D02*
X028576Y031779D01*
X028576Y031880D02*
X028770Y031880D01*
X028867Y031977D01*
X028770Y032074D01*
X028576Y032074D01*
D12*
X018032Y034031D02*
X018032Y030031D01*
X016282Y030031D01*
X016282Y034031D01*
X018032Y034031D01*
X016282Y034031D02*
X015532Y034031D01*
X015532Y030031D01*
X016282Y030031D01*
X016282Y028281D02*
X015532Y028281D01*
X015532Y024281D01*
X016282Y024281D01*
X016282Y028281D01*
X018032Y028281D01*
X018032Y024281D01*
X016282Y024281D01*
X056532Y034981D02*
X057282Y034981D01*
X057282Y036981D01*
X059032Y036981D01*
X059032Y034981D01*
X057282Y034981D01*
X056532Y034981D02*
X056532Y036981D01*
X057282Y036981D01*
X061282Y032881D02*
X061682Y032881D01*
X061932Y032881D02*
X062582Y032881D01*
X063482Y033131D02*
X063458Y033167D01*
X063430Y033201D01*
X063400Y033233D01*
X063367Y033261D01*
X063332Y033287D01*
X063295Y033309D01*
X063255Y033328D01*
X063215Y033343D01*
X063173Y033355D01*
X063130Y033363D01*
X063086Y033367D01*
X063043Y033366D01*
X062999Y033363D01*
X062956Y033355D01*
X062914Y033343D01*
X062874Y033328D01*
X062834Y033309D01*
X062797Y033286D01*
X062762Y033261D01*
X062729Y033232D01*
X062699Y033201D01*
X062672Y033166D01*
X062648Y033130D01*
X062627Y033092D01*
X062610Y033052D01*
X062596Y033010D01*
X062587Y032968D01*
X062581Y032925D01*
X062579Y032881D01*
X062581Y032837D01*
X062587Y032794D01*
X062596Y032752D01*
X062610Y032710D01*
X062627Y032670D01*
X062648Y032632D01*
X062672Y032596D01*
X062699Y032561D01*
X062729Y032530D01*
X062762Y032501D01*
X062797Y032476D01*
X062834Y032453D01*
X062874Y032434D01*
X062914Y032419D01*
X062956Y032407D01*
X062999Y032399D01*
X063043Y032396D01*
X063086Y032395D01*
X063130Y032399D01*
X063173Y032407D01*
X063215Y032419D01*
X063255Y032434D01*
X063295Y032453D01*
X063332Y032475D01*
X063367Y032501D01*
X063400Y032529D01*
X063430Y032561D01*
X063458Y032595D01*
X063482Y032631D01*
X063032Y032881D02*
X063034Y032894D01*
X063039Y032907D01*
X063048Y032918D01*
X063059Y032925D01*
X063072Y032930D01*
X063085Y032931D01*
X063099Y032928D01*
X063111Y032922D01*
X063121Y032913D01*
X063128Y032901D01*
X063132Y032888D01*
X063132Y032874D01*
X063128Y032861D01*
X063121Y032849D01*
X063111Y032840D01*
X063099Y032834D01*
X063085Y032831D01*
X063072Y032832D01*
X063059Y032837D01*
X063048Y032844D01*
X063039Y032855D01*
X063034Y032868D01*
X063032Y032881D01*
X062970Y032881D02*
X062972Y032902D01*
X062978Y032921D01*
X062987Y032940D01*
X062999Y032956D01*
X063015Y032970D01*
X063032Y032981D01*
X063051Y032989D01*
X063072Y032993D01*
X063092Y032993D01*
X063113Y032989D01*
X063132Y032981D01*
X063149Y032970D01*
X063165Y032956D01*
X063177Y032940D01*
X063186Y032921D01*
X063192Y032902D01*
X063194Y032881D01*
X063192Y032860D01*
X063186Y032841D01*
X063177Y032822D01*
X063165Y032806D01*
X063149Y032792D01*
X063132Y032781D01*
X063113Y032773D01*
X063092Y032769D01*
X063072Y032769D01*
X063051Y032773D01*
X063032Y032781D01*
X063015Y032792D01*
X062999Y032806D01*
X062987Y032822D01*
X062978Y032841D01*
X062972Y032860D01*
X062970Y032881D01*
X062902Y032881D02*
X062904Y032907D01*
X062910Y032933D01*
X062919Y032957D01*
X062932Y032980D01*
X062948Y033001D01*
X062967Y033019D01*
X062988Y033035D01*
X063012Y033047D01*
X063036Y033055D01*
X063062Y033060D01*
X063089Y033061D01*
X063115Y033058D01*
X063140Y033051D01*
X063164Y033041D01*
X063187Y033027D01*
X063207Y033011D01*
X063224Y032991D01*
X063239Y032969D01*
X063250Y032945D01*
X063258Y032920D01*
X063262Y032894D01*
X063262Y032868D01*
X063258Y032842D01*
X063250Y032817D01*
X063239Y032793D01*
X063224Y032771D01*
X063207Y032751D01*
X063187Y032735D01*
X063164Y032721D01*
X063140Y032711D01*
X063115Y032704D01*
X063089Y032701D01*
X063062Y032702D01*
X063036Y032707D01*
X063012Y032715D01*
X062988Y032727D01*
X062967Y032743D01*
X062948Y032761D01*
X062932Y032782D01*
X062919Y032805D01*
X062910Y032829D01*
X062904Y032855D01*
X062902Y032881D01*
X063082Y032881D02*
X064132Y032881D01*
X064332Y032881D02*
X064732Y032881D01*
X064532Y033081D02*
X064532Y032681D01*
D13*
X064653Y027750D02*
X063669Y027750D01*
X064653Y027750D02*
X064653Y026569D01*
X065047Y026569D02*
X065047Y027356D01*
X065008Y027358D01*
X064970Y027364D01*
X064933Y027373D01*
X064896Y027386D01*
X064861Y027403D01*
X064828Y027422D01*
X064797Y027445D01*
X064768Y027471D01*
X064742Y027500D01*
X064719Y027531D01*
X064700Y027564D01*
X064683Y027599D01*
X064670Y027636D01*
X064661Y027673D01*
X064655Y027711D01*
X064653Y027750D01*
X064653Y024994D02*
X064653Y023813D01*
X063669Y023813D01*
X064653Y023813D02*
X064655Y023852D01*
X064661Y023890D01*
X064670Y023927D01*
X064683Y023964D01*
X064700Y023999D01*
X064719Y024032D01*
X064742Y024063D01*
X064768Y024092D01*
X064797Y024118D01*
X064828Y024141D01*
X064861Y024160D01*
X064896Y024177D01*
X064933Y024190D01*
X064970Y024199D01*
X065008Y024205D01*
X065047Y024207D01*
X065047Y024994D01*
X061291Y023646D02*
X061291Y023016D01*
X060173Y023016D02*
X060173Y023646D01*
X063669Y021800D02*
X064653Y021800D01*
X064653Y020619D01*
X065047Y020619D02*
X065047Y021406D01*
X065008Y021408D01*
X064970Y021414D01*
X064933Y021423D01*
X064896Y021436D01*
X064861Y021453D01*
X064828Y021472D01*
X064797Y021495D01*
X064768Y021521D01*
X064742Y021550D01*
X064719Y021581D01*
X064700Y021614D01*
X064683Y021649D01*
X064670Y021686D01*
X064661Y021723D01*
X064655Y021761D01*
X064653Y021800D01*
X061291Y019646D02*
X061291Y019016D01*
X060173Y019016D02*
X060173Y019646D01*
X063669Y017863D02*
X064653Y017863D01*
X064653Y019044D01*
X065047Y019044D02*
X065047Y018257D01*
X065008Y018255D01*
X064970Y018249D01*
X064933Y018240D01*
X064896Y018227D01*
X064861Y018210D01*
X064828Y018191D01*
X064797Y018168D01*
X064768Y018142D01*
X064742Y018113D01*
X064719Y018082D01*
X064700Y018049D01*
X064683Y018014D01*
X064670Y017977D01*
X064661Y017940D01*
X064655Y017902D01*
X064653Y017863D01*
X064653Y015850D02*
X063669Y015850D01*
X064653Y015850D02*
X064653Y014669D01*
X065047Y014669D02*
X065047Y015456D01*
X065008Y015458D01*
X064970Y015464D01*
X064933Y015473D01*
X064896Y015486D01*
X064861Y015503D01*
X064828Y015522D01*
X064797Y015545D01*
X064768Y015571D01*
X064742Y015600D01*
X064719Y015631D01*
X064700Y015664D01*
X064683Y015699D01*
X064670Y015736D01*
X064661Y015773D01*
X064655Y015811D01*
X064653Y015850D01*
X061291Y015646D02*
X061291Y015016D01*
X060173Y015016D02*
X060173Y015646D01*
X064653Y013094D02*
X064653Y011913D01*
X063669Y011913D01*
X064653Y011913D02*
X064655Y011952D01*
X064661Y011990D01*
X064670Y012027D01*
X064683Y012064D01*
X064700Y012099D01*
X064719Y012132D01*
X064742Y012163D01*
X064768Y012192D01*
X064797Y012218D01*
X064828Y012241D01*
X064861Y012260D01*
X064896Y012277D01*
X064933Y012290D01*
X064970Y012299D01*
X065008Y012305D01*
X065047Y012307D01*
X065047Y013094D01*
X061291Y011646D02*
X061291Y011016D01*
X060173Y011016D02*
X060173Y011646D01*
X063669Y009750D02*
X064653Y009750D01*
X064653Y008569D01*
X065047Y008569D02*
X065047Y009356D01*
X065008Y009358D01*
X064970Y009364D01*
X064933Y009373D01*
X064896Y009386D01*
X064861Y009403D01*
X064828Y009422D01*
X064797Y009445D01*
X064768Y009471D01*
X064742Y009500D01*
X064719Y009531D01*
X064700Y009564D01*
X064683Y009599D01*
X064670Y009636D01*
X064661Y009673D01*
X064655Y009711D01*
X064653Y009750D01*
X064653Y006994D02*
X064653Y005813D01*
X063669Y005813D01*
X064653Y005813D02*
X064655Y005852D01*
X064661Y005890D01*
X064670Y005927D01*
X064683Y005964D01*
X064700Y005999D01*
X064719Y006032D01*
X064742Y006063D01*
X064768Y006092D01*
X064797Y006118D01*
X064828Y006141D01*
X064861Y006160D01*
X064896Y006177D01*
X064933Y006190D01*
X064970Y006199D01*
X065008Y006205D01*
X065047Y006207D01*
X065047Y006994D01*
X065774Y001166D02*
X002782Y001166D01*
X003312Y001731D02*
X003312Y004131D01*
X007652Y004131D01*
X007652Y001731D01*
X003312Y001731D01*
X003204Y004942D02*
X003204Y011320D01*
X004188Y011320D01*
X004188Y012442D02*
X003204Y012442D01*
X003204Y018820D01*
X004188Y018820D01*
X003813Y020794D02*
X002829Y020794D01*
X002829Y028668D01*
X003813Y028668D01*
X003813Y029644D02*
X002829Y029644D01*
X002829Y037518D01*
X003813Y037518D01*
X002782Y038567D02*
X065774Y038567D01*
X042707Y027666D02*
X042406Y027666D01*
X042256Y027516D01*
X042406Y027366D01*
X042707Y027366D01*
X042632Y027206D02*
X042482Y027206D01*
X042482Y027056D01*
X042632Y027206D02*
X042707Y027131D01*
X042707Y026981D01*
X042632Y026906D01*
X042331Y026906D01*
X042256Y026981D01*
X042256Y027131D01*
X042331Y027206D01*
X042482Y027366D02*
X042482Y027666D01*
X042482Y026745D02*
X042557Y026670D01*
X042557Y026445D01*
X042707Y026445D02*
X042256Y026445D01*
X042256Y026670D01*
X042331Y026745D01*
X042482Y026745D01*
X042256Y026285D02*
X042256Y025985D01*
X042707Y025985D01*
X042482Y025985D02*
X042482Y026135D01*
X034357Y021299D02*
X034282Y021374D01*
X033981Y021374D01*
X033906Y021299D01*
X033906Y021149D01*
X033981Y021074D01*
X034282Y021074D01*
X034357Y021149D01*
X034357Y021299D01*
X034357Y020917D02*
X034357Y020767D01*
X034357Y020842D02*
X033906Y020842D01*
X033906Y020767D02*
X033906Y020917D01*
X033981Y020607D02*
X033906Y020532D01*
X033906Y020306D01*
X034357Y020306D01*
X034357Y020532D01*
X034282Y020607D01*
X033981Y020607D01*
X050197Y016766D02*
X050197Y016608D01*
X050197Y016766D02*
X050355Y016766D01*
X052009Y016766D02*
X052166Y016766D01*
X052166Y016608D01*
X051834Y015151D02*
X051836Y015165D01*
X051842Y015179D01*
X051850Y015191D01*
X051862Y015199D01*
X051876Y015205D01*
X051890Y015207D01*
X051904Y015205D01*
X051918Y015199D01*
X051930Y015191D01*
X051938Y015179D01*
X051944Y015165D01*
X051946Y015151D01*
X051944Y015137D01*
X051938Y015123D01*
X051930Y015111D01*
X051918Y015103D01*
X051904Y015097D01*
X051890Y015095D01*
X051876Y015097D01*
X051862Y015103D01*
X051850Y015111D01*
X051842Y015123D01*
X051836Y015137D01*
X051834Y015151D01*
X052166Y014955D02*
X052009Y014797D01*
X052166Y014797D01*
X052166Y014955D01*
X050355Y014797D02*
X050197Y014797D01*
X050197Y014955D01*
X017628Y005882D02*
X017628Y005807D01*
X017553Y005732D01*
X017402Y005732D01*
X017327Y005807D01*
X017327Y005882D01*
X017402Y005957D01*
X017553Y005957D01*
X017628Y005882D01*
X017553Y005732D02*
X017628Y005657D01*
X017628Y005581D01*
X017553Y005506D01*
X017402Y005506D01*
X017327Y005581D01*
X017327Y005657D01*
X017402Y005732D01*
X017167Y005506D02*
X016867Y005506D01*
X017017Y005506D02*
X017017Y005957D01*
X016867Y005807D01*
X016707Y005957D02*
X016707Y005581D01*
X016632Y005506D01*
X016482Y005506D01*
X016407Y005581D01*
X016407Y005957D01*
X004188Y004942D02*
X003204Y004942D01*
D14*
X015542Y007051D02*
X015689Y007051D01*
X015763Y007051D02*
X015909Y007051D01*
X015909Y007088D02*
X015909Y006941D01*
X015984Y006978D02*
X016020Y006941D01*
X016094Y006941D01*
X016130Y006978D01*
X016130Y007051D01*
X016094Y007088D01*
X016057Y007088D01*
X015984Y007051D01*
X015984Y007162D01*
X016130Y007162D01*
X016205Y007162D02*
X016205Y007015D01*
X016278Y006941D01*
X016351Y007015D01*
X016351Y007162D01*
X015909Y007088D02*
X015836Y007162D01*
X015763Y007088D01*
X015763Y006941D01*
D15*
X016771Y007978D02*
X016847Y007901D01*
X017001Y007901D01*
X017077Y007978D01*
X017231Y007978D02*
X017308Y007901D01*
X017461Y007901D01*
X017538Y007978D01*
X017538Y008055D01*
X017461Y008132D01*
X017384Y008132D01*
X017461Y008132D02*
X017538Y008208D01*
X017538Y008285D01*
X017461Y008362D01*
X017308Y008362D01*
X017231Y008285D01*
X017077Y008285D02*
X017001Y008362D01*
X016847Y008362D01*
X016771Y008285D01*
X016771Y007978D01*
X017691Y007978D02*
X017768Y007901D01*
X017921Y007901D01*
X017998Y007978D01*
X017998Y008285D01*
X017921Y008362D01*
X017768Y008362D01*
X017691Y008285D01*
X017691Y008208D01*
X017768Y008132D01*
X017998Y008132D01*
X019352Y008285D02*
X019352Y007978D01*
X019428Y007901D01*
X019582Y007901D01*
X019659Y007978D01*
X019812Y008132D02*
X020042Y008362D01*
X020042Y007901D01*
X020272Y007978D02*
X020349Y007901D01*
X020503Y007901D01*
X020579Y007978D01*
X020579Y008285D01*
X020272Y007978D01*
X020272Y008285D01*
X020349Y008362D01*
X020503Y008362D01*
X020579Y008285D01*
X020119Y008132D02*
X019812Y008132D01*
X019659Y008285D02*
X019582Y008362D01*
X019428Y008362D01*
X019352Y008285D01*
X019203Y009351D02*
X019049Y009351D01*
X018972Y009428D01*
X019279Y009735D01*
X019279Y009428D01*
X019203Y009351D01*
X018972Y009428D02*
X018972Y009735D01*
X019049Y009812D01*
X019203Y009812D01*
X019279Y009735D01*
X019551Y009747D02*
X019628Y009670D01*
X019935Y009670D01*
X020012Y009747D01*
X020012Y009900D01*
X019935Y009977D01*
X020012Y010131D02*
X020012Y010438D01*
X020012Y010284D02*
X019551Y010284D01*
X019705Y010131D01*
X019628Y009977D02*
X019551Y009900D01*
X019551Y009747D01*
X018819Y009735D02*
X018742Y009812D01*
X018589Y009812D01*
X018512Y009735D01*
X018359Y009735D02*
X018282Y009812D01*
X018128Y009812D01*
X018052Y009735D01*
X018052Y009428D01*
X018128Y009351D01*
X018282Y009351D01*
X018359Y009428D01*
X018512Y009351D02*
X018819Y009658D01*
X018819Y009735D01*
X018819Y009351D02*
X018512Y009351D01*
X019628Y010591D02*
X019705Y010591D01*
X019782Y010668D01*
X019782Y010898D01*
X019935Y010898D02*
X019628Y010898D01*
X019551Y010821D01*
X019551Y010668D01*
X019628Y010591D01*
X019935Y010591D02*
X020012Y010668D01*
X020012Y010821D01*
X019935Y010898D01*
X019018Y011478D02*
X019018Y011632D01*
X018941Y011708D01*
X018557Y011708D01*
X018634Y011862D02*
X018711Y011862D01*
X018787Y011938D01*
X018787Y012169D01*
X018634Y012169D02*
X018557Y012092D01*
X018557Y011938D01*
X018634Y011862D01*
X018634Y012169D02*
X018941Y012169D01*
X019018Y012092D01*
X019018Y011938D01*
X018941Y011862D01*
X019018Y011478D02*
X018941Y011401D01*
X018557Y011401D01*
X017129Y011678D02*
X017129Y011985D01*
X016822Y011678D01*
X016899Y011601D01*
X017053Y011601D01*
X017129Y011678D01*
X016822Y011678D02*
X016822Y011985D01*
X016899Y012062D01*
X017053Y012062D01*
X017129Y011985D01*
X016669Y011601D02*
X016362Y011601D01*
X016516Y011601D02*
X016516Y012062D01*
X016362Y011908D01*
X016209Y012062D02*
X016209Y011678D01*
X016132Y011601D01*
X015978Y011601D01*
X015902Y011678D01*
X015902Y012062D01*
X014562Y012091D02*
X014255Y012398D01*
X014178Y012398D01*
X014101Y012321D01*
X014101Y012168D01*
X014178Y012091D01*
X014178Y011938D02*
X014101Y011861D01*
X014101Y011707D01*
X014178Y011631D01*
X014178Y011477D02*
X014101Y011400D01*
X014101Y011247D01*
X014178Y011170D01*
X014485Y011170D01*
X014562Y011247D01*
X014562Y011400D01*
X014485Y011477D01*
X014562Y011631D02*
X014255Y011938D01*
X014178Y011938D01*
X014562Y011938D02*
X014562Y011631D01*
X014562Y012091D02*
X014562Y012398D01*
X014021Y012901D02*
X014098Y012978D01*
X014098Y013055D01*
X014021Y013132D01*
X013791Y013132D01*
X013791Y012978D01*
X013868Y012901D01*
X014021Y012901D01*
X013791Y013132D02*
X013945Y013285D01*
X014098Y013362D01*
X013484Y013362D02*
X013484Y012901D01*
X013331Y012901D02*
X013638Y012901D01*
X013331Y013208D02*
X013484Y013362D01*
X013177Y013285D02*
X013177Y013132D01*
X013101Y013055D01*
X012871Y013055D01*
X013024Y013055D02*
X013177Y012901D01*
X012871Y012901D02*
X012871Y013362D01*
X013101Y013362D01*
X013177Y013285D01*
X012573Y014862D02*
X012420Y014862D01*
X012343Y014938D01*
X012189Y014862D02*
X011883Y014862D01*
X012189Y015169D01*
X012189Y015245D01*
X012113Y015322D01*
X011959Y015322D01*
X011883Y015245D01*
X011729Y015322D02*
X011729Y014938D01*
X011652Y014862D01*
X011499Y014862D01*
X011422Y014938D01*
X011422Y015322D01*
X010579Y015685D02*
X010272Y015378D01*
X010272Y015301D01*
X010119Y015301D02*
X009812Y015301D01*
X009659Y015301D02*
X009505Y015455D01*
X009582Y015455D02*
X009352Y015455D01*
X009352Y015301D02*
X009352Y015762D01*
X009582Y015762D01*
X009659Y015685D01*
X009659Y015532D01*
X009582Y015455D01*
X009812Y015608D02*
X009966Y015762D01*
X009966Y015301D01*
X010272Y015762D02*
X010579Y015762D01*
X010579Y015685D01*
X012343Y015245D02*
X012420Y015322D01*
X012573Y015322D01*
X012650Y015245D01*
X012650Y015169D01*
X012573Y015092D01*
X012650Y015015D01*
X012650Y014938D01*
X012573Y014862D01*
X012573Y015092D02*
X012496Y015092D01*
X012871Y016051D02*
X012871Y016512D01*
X013101Y016512D01*
X013177Y016435D01*
X013177Y016282D01*
X013101Y016205D01*
X012871Y016205D01*
X013024Y016205D02*
X013177Y016051D01*
X013331Y016051D02*
X013638Y016051D01*
X013484Y016051D02*
X013484Y016512D01*
X013331Y016358D01*
X013791Y016282D02*
X014098Y016282D01*
X014021Y016512D02*
X013791Y016282D01*
X014021Y016051D02*
X014021Y016512D01*
X012600Y018012D02*
X012293Y018012D01*
X012600Y018319D01*
X012600Y018395D01*
X012523Y018472D01*
X012370Y018472D01*
X012293Y018395D01*
X012139Y018395D02*
X012063Y018472D01*
X011909Y018472D01*
X011833Y018395D01*
X011679Y018472D02*
X011679Y018088D01*
X011602Y018012D01*
X011449Y018012D01*
X011372Y018088D01*
X011372Y018472D01*
X011833Y018012D02*
X012139Y018319D01*
X012139Y018395D01*
X012139Y018012D02*
X011833Y018012D01*
X010062Y018451D02*
X009601Y018451D01*
X009601Y018682D01*
X009678Y018758D01*
X009832Y018758D01*
X009908Y018682D01*
X009908Y018451D01*
X009908Y018605D02*
X010062Y018758D01*
X010062Y018912D02*
X010062Y019219D01*
X010062Y019065D02*
X009601Y019065D01*
X009755Y018912D01*
X009832Y019372D02*
X009755Y019526D01*
X009755Y019602D01*
X009832Y019679D01*
X009985Y019679D01*
X010062Y019602D01*
X010062Y019449D01*
X009985Y019372D01*
X009832Y019372D02*
X009601Y019372D01*
X009601Y019679D01*
X008033Y022323D02*
X008033Y022629D01*
X008033Y022476D02*
X007573Y022476D01*
X007726Y022323D01*
X008787Y023307D02*
X008787Y023614D01*
X008557Y023537D02*
X008787Y023307D01*
X009018Y023537D02*
X008557Y023537D01*
X008033Y025275D02*
X007726Y025582D01*
X007650Y025582D01*
X007573Y025505D01*
X007573Y025352D01*
X007650Y025275D01*
X008033Y025275D02*
X008033Y025582D01*
X008557Y025669D02*
X008557Y025976D01*
X008711Y025899D02*
X008787Y025976D01*
X008941Y025976D01*
X009018Y025899D01*
X009018Y025746D01*
X008941Y025669D01*
X008787Y025669D02*
X008711Y025822D01*
X008711Y025899D01*
X008787Y025669D02*
X008557Y025669D01*
X007957Y026653D02*
X008033Y026730D01*
X008033Y026883D01*
X007957Y026960D01*
X007880Y026960D01*
X007803Y026883D01*
X007803Y026807D01*
X007803Y026883D02*
X007726Y026960D01*
X007650Y026960D01*
X007573Y026883D01*
X007573Y026730D01*
X007650Y026653D01*
X014901Y025955D02*
X014901Y025775D01*
X015262Y025775D01*
X015262Y025955D01*
X015202Y026015D01*
X015142Y026015D01*
X015082Y025955D01*
X015082Y025775D01*
X015082Y025647D02*
X015082Y025406D01*
X015202Y025278D02*
X015262Y025218D01*
X015262Y025098D01*
X015202Y025038D01*
X014961Y025038D01*
X014901Y025098D01*
X014901Y025218D01*
X014961Y025278D01*
X014901Y024910D02*
X015262Y024910D01*
X014901Y024670D01*
X015262Y024670D01*
X015262Y024542D02*
X015262Y024301D01*
X014901Y024301D01*
X014901Y024542D01*
X015082Y024421D02*
X015082Y024301D01*
X015082Y025955D02*
X015022Y026015D01*
X014961Y026015D01*
X014901Y025955D01*
X014901Y030051D02*
X015262Y030051D01*
X015262Y030292D01*
X015262Y030420D02*
X014901Y030420D01*
X015262Y030660D01*
X014901Y030660D01*
X014961Y030788D02*
X015202Y030788D01*
X015262Y030848D01*
X015262Y030968D01*
X015202Y031028D01*
X015082Y031156D02*
X015082Y031397D01*
X015082Y031525D02*
X015082Y031765D01*
X015022Y031765D02*
X015262Y031765D01*
X015262Y031525D02*
X015022Y031525D01*
X014901Y031645D01*
X015022Y031765D01*
X014961Y031028D02*
X014901Y030968D01*
X014901Y030848D01*
X014961Y030788D01*
X014901Y030292D02*
X014901Y030051D01*
X015082Y030051D02*
X015082Y030171D01*
X009018Y032387D02*
X008557Y032387D01*
X008787Y032157D01*
X008787Y032464D01*
X008033Y031479D02*
X008033Y031173D01*
X008033Y031326D02*
X007573Y031326D01*
X007726Y031173D01*
X007650Y034125D02*
X007573Y034202D01*
X007573Y034355D01*
X007650Y034432D01*
X007726Y034432D01*
X008033Y034125D01*
X008033Y034432D01*
X008557Y034519D02*
X008557Y034826D01*
X008711Y034749D02*
X008787Y034826D01*
X008941Y034826D01*
X009018Y034749D01*
X009018Y034596D01*
X008941Y034519D01*
X008787Y034519D02*
X008711Y034672D01*
X008711Y034749D01*
X008787Y034519D02*
X008557Y034519D01*
X007957Y035503D02*
X008033Y035580D01*
X008033Y035733D01*
X007957Y035810D01*
X007880Y035810D01*
X007803Y035733D01*
X007803Y035657D01*
X007803Y035733D02*
X007726Y035810D01*
X007650Y035810D01*
X007573Y035733D01*
X007573Y035580D01*
X007650Y035503D01*
X023651Y033742D02*
X023728Y033819D01*
X023805Y033819D01*
X023882Y033742D01*
X023958Y033819D01*
X024035Y033819D01*
X024112Y033742D01*
X024112Y033588D01*
X024035Y033512D01*
X024035Y033358D02*
X023651Y033358D01*
X023728Y033512D02*
X023651Y033588D01*
X023651Y033742D01*
X023882Y033742D02*
X023882Y033665D01*
X024035Y033358D02*
X024112Y033282D01*
X024112Y033128D01*
X024035Y033051D01*
X023651Y033051D01*
X024092Y030048D02*
X024092Y029741D01*
X023861Y029971D01*
X024322Y029971D01*
X024322Y029588D02*
X024168Y029434D01*
X024168Y029511D02*
X024168Y029281D01*
X024322Y029281D02*
X023861Y029281D01*
X023861Y029511D01*
X023938Y029588D01*
X024092Y029588D01*
X024168Y029511D01*
X025651Y028948D02*
X025728Y028948D01*
X026035Y028641D01*
X026112Y028641D01*
X026035Y028488D02*
X026112Y028411D01*
X026112Y028257D01*
X026035Y028181D01*
X025728Y028181D01*
X025651Y028257D01*
X025651Y028411D01*
X025728Y028488D01*
X025651Y028641D02*
X025651Y028948D01*
X027601Y028871D02*
X027678Y028948D01*
X027755Y028948D01*
X027832Y028871D01*
X027832Y028718D01*
X027755Y028641D01*
X027678Y028641D01*
X027601Y028718D01*
X027601Y028871D01*
X027832Y028871D02*
X027908Y028948D01*
X027985Y028948D01*
X028062Y028871D01*
X028062Y028718D01*
X027985Y028641D01*
X027908Y028641D01*
X027832Y028718D01*
X027985Y028488D02*
X028062Y028411D01*
X028062Y028257D01*
X027985Y028181D01*
X027678Y028181D01*
X027601Y028257D01*
X027601Y028411D01*
X027678Y028488D01*
X030651Y029001D02*
X030651Y029232D01*
X030728Y029308D01*
X030882Y029308D01*
X030958Y029232D01*
X030958Y029001D01*
X031112Y029001D02*
X030651Y029001D01*
X030958Y029155D02*
X031112Y029308D01*
X031035Y029462D02*
X031112Y029538D01*
X031112Y029692D01*
X031035Y029769D01*
X030882Y029769D01*
X030805Y029692D01*
X030805Y029615D01*
X030882Y029462D01*
X030651Y029462D01*
X030651Y029769D01*
X032301Y028971D02*
X032378Y029048D01*
X032455Y029048D01*
X032532Y028971D01*
X032608Y029048D01*
X032685Y029048D01*
X032762Y028971D01*
X032762Y028818D01*
X032685Y028741D01*
X032685Y028588D02*
X032762Y028511D01*
X032762Y028357D01*
X032685Y028281D01*
X032378Y028281D01*
X032301Y028357D01*
X032301Y028511D01*
X032378Y028588D01*
X032378Y028741D02*
X032301Y028818D01*
X032301Y028971D01*
X032532Y028971D02*
X032532Y028894D01*
X034301Y028971D02*
X034532Y028741D01*
X034532Y029048D01*
X034762Y028971D02*
X034301Y028971D01*
X034378Y028588D02*
X034301Y028511D01*
X034301Y028357D01*
X034378Y028281D01*
X034685Y028281D01*
X034762Y028357D01*
X034762Y028511D01*
X034685Y028588D01*
X030835Y033151D02*
X030451Y033151D01*
X030451Y033458D02*
X030835Y033458D01*
X030912Y033382D01*
X030912Y033228D01*
X030835Y033151D01*
X030912Y033612D02*
X030912Y033919D01*
X030912Y033765D02*
X030451Y033765D01*
X030605Y033612D01*
X048451Y035407D02*
X048528Y035331D01*
X048835Y035331D01*
X048912Y035407D01*
X048912Y035561D01*
X048835Y035638D01*
X048912Y035791D02*
X048605Y036098D01*
X048528Y036098D01*
X048451Y036021D01*
X048451Y035868D01*
X048528Y035791D01*
X048528Y035638D02*
X048451Y035561D01*
X048451Y035407D01*
X048912Y035791D02*
X048912Y036098D01*
X055901Y035978D02*
X056262Y035978D01*
X056142Y035858D01*
X056262Y035738D01*
X055901Y035738D01*
X055961Y035610D02*
X055901Y035550D01*
X055901Y035430D01*
X055961Y035370D01*
X056022Y035370D01*
X056082Y035430D01*
X056082Y035550D01*
X056142Y035610D01*
X056202Y035610D01*
X056262Y035550D01*
X056262Y035430D01*
X056202Y035370D01*
X056082Y035242D02*
X056142Y035182D01*
X056142Y035001D01*
X056262Y035001D02*
X055901Y035001D01*
X055901Y035182D01*
X055961Y035242D01*
X056082Y035242D01*
X059731Y037428D02*
X059808Y037351D01*
X059884Y037351D01*
X059961Y037428D01*
X059961Y037812D01*
X059884Y037812D02*
X060038Y037812D01*
X060191Y037658D02*
X060345Y037812D01*
X060345Y037351D01*
X060498Y037351D02*
X060191Y037351D01*
X055142Y028462D02*
X054989Y028462D01*
X054912Y028385D01*
X054759Y028462D02*
X054759Y028078D01*
X054682Y028001D01*
X054528Y028001D01*
X054452Y028078D01*
X054452Y028462D01*
X054912Y028001D02*
X055219Y028308D01*
X055219Y028385D01*
X055142Y028462D01*
X055219Y028001D02*
X054912Y028001D01*
X053219Y027985D02*
X053219Y027908D01*
X053142Y027832D01*
X053219Y027755D01*
X053219Y027678D01*
X053142Y027601D01*
X052989Y027601D01*
X052912Y027678D01*
X052759Y027601D02*
X052605Y027755D01*
X052682Y027755D02*
X052452Y027755D01*
X052452Y027601D02*
X052452Y028062D01*
X052682Y028062D01*
X052759Y027985D01*
X052759Y027832D01*
X052682Y027755D01*
X052912Y027985D02*
X052989Y028062D01*
X053142Y028062D01*
X053219Y027985D01*
X053142Y027832D02*
X053066Y027832D01*
X051748Y025912D02*
X051441Y025912D01*
X051441Y025682D01*
X051595Y025758D01*
X051671Y025758D01*
X051748Y025682D01*
X051748Y025528D01*
X051671Y025451D01*
X051518Y025451D01*
X051441Y025528D01*
X051288Y025528D02*
X051211Y025451D01*
X051058Y025451D01*
X050981Y025528D01*
X050981Y025835D01*
X051058Y025912D01*
X051211Y025912D01*
X051288Y025835D01*
X051211Y025262D02*
X051058Y025262D01*
X050981Y025185D01*
X050981Y024878D01*
X051058Y024801D01*
X051211Y024801D01*
X051288Y024878D01*
X051441Y024878D02*
X051518Y024801D01*
X051671Y024801D01*
X051748Y024878D01*
X051748Y024955D01*
X051671Y025032D01*
X051441Y025032D01*
X051441Y024878D01*
X051441Y025032D02*
X051595Y025185D01*
X051748Y025262D01*
X051288Y025185D02*
X051211Y025262D01*
X052502Y023662D02*
X052732Y023662D01*
X052809Y023585D01*
X052809Y023432D01*
X052732Y023355D01*
X052502Y023355D01*
X052655Y023355D02*
X052809Y023201D01*
X052962Y023201D02*
X053269Y023201D01*
X053116Y023201D02*
X053116Y023662D01*
X052962Y023508D01*
X052502Y023662D02*
X052502Y023201D01*
X056502Y021335D02*
X056502Y021028D01*
X056578Y020951D01*
X056732Y020951D01*
X056809Y021028D01*
X056962Y020951D02*
X057269Y021258D01*
X057269Y021335D01*
X057192Y021412D01*
X057039Y021412D01*
X056962Y021335D01*
X056809Y021335D02*
X056732Y021412D01*
X056578Y021412D01*
X056502Y021335D01*
X056962Y020951D02*
X057269Y020951D01*
X057422Y021028D02*
X057499Y020951D01*
X057653Y020951D01*
X057729Y021028D01*
X057729Y021105D01*
X057653Y021182D01*
X057576Y021182D01*
X057653Y021182D02*
X057729Y021258D01*
X057729Y021335D01*
X057653Y021412D01*
X057499Y021412D01*
X057422Y021335D01*
X057428Y019862D02*
X057352Y019785D01*
X057352Y019478D01*
X057428Y019401D01*
X057582Y019401D01*
X057659Y019478D01*
X057812Y019401D02*
X058119Y019708D01*
X058119Y019785D01*
X058042Y019862D01*
X057889Y019862D01*
X057812Y019785D01*
X057659Y019785D02*
X057582Y019862D01*
X057428Y019862D01*
X057812Y019401D02*
X058119Y019401D01*
X058272Y019632D02*
X058579Y019632D01*
X058503Y019862D02*
X058272Y019632D01*
X058503Y019862D02*
X058503Y019401D01*
X056012Y019338D02*
X056012Y019031D01*
X055705Y019338D01*
X055628Y019338D01*
X055551Y019261D01*
X055551Y019107D01*
X055628Y019031D01*
X055628Y018877D02*
X055782Y018877D01*
X055858Y018800D01*
X055858Y018570D01*
X055858Y018724D02*
X056012Y018877D01*
X056012Y018570D02*
X055551Y018570D01*
X055551Y018800D01*
X055628Y018877D01*
X055262Y018800D02*
X055185Y018877D01*
X055262Y018800D02*
X055262Y018647D01*
X055185Y018570D01*
X054878Y018570D01*
X054801Y018647D01*
X054801Y018800D01*
X054878Y018877D01*
X054955Y019031D02*
X054801Y019184D01*
X055262Y019184D01*
X055262Y019031D02*
X055262Y019338D01*
X055185Y019491D02*
X055262Y019568D01*
X055262Y019721D01*
X055185Y019798D01*
X055108Y019798D01*
X055032Y019721D01*
X055032Y019644D01*
X055032Y019721D02*
X054955Y019798D01*
X054878Y019798D01*
X054801Y019721D01*
X054801Y019568D01*
X054878Y019491D01*
X055551Y019644D02*
X056012Y019644D01*
X056012Y019491D02*
X056012Y019798D01*
X055705Y019491D02*
X055551Y019644D01*
X052812Y018221D02*
X052735Y018298D01*
X052658Y018298D01*
X052582Y018221D01*
X052582Y017991D01*
X052735Y017991D01*
X052812Y018068D01*
X052812Y018221D01*
X052582Y017991D02*
X052428Y018144D01*
X052351Y018298D01*
X052351Y017684D02*
X052812Y017684D01*
X052812Y017531D02*
X052812Y017838D01*
X052505Y017531D02*
X052351Y017684D01*
X052428Y017377D02*
X052351Y017300D01*
X052351Y017147D01*
X052428Y017070D01*
X052735Y017070D01*
X052812Y017147D01*
X052812Y017300D01*
X052735Y017377D01*
X054801Y016671D02*
X054801Y016518D01*
X054878Y016441D01*
X054801Y016671D02*
X054878Y016748D01*
X054955Y016748D01*
X055262Y016441D01*
X055262Y016748D01*
X055501Y016671D02*
X055578Y016748D01*
X055885Y016441D01*
X055962Y016518D01*
X055962Y016671D01*
X055885Y016748D01*
X055578Y016748D01*
X055501Y016671D02*
X055501Y016518D01*
X055578Y016441D01*
X055885Y016441D01*
X055962Y016288D02*
X055962Y015981D01*
X055655Y016288D01*
X055578Y016288D01*
X055501Y016211D01*
X055501Y016057D01*
X055578Y015981D01*
X055578Y015827D02*
X055732Y015827D01*
X055808Y015750D01*
X055808Y015520D01*
X055808Y015674D02*
X055962Y015827D01*
X055962Y015520D02*
X055501Y015520D01*
X055501Y015750D01*
X055578Y015827D01*
X055262Y015750D02*
X055185Y015827D01*
X055262Y015750D02*
X055262Y015597D01*
X055185Y015520D01*
X054878Y015520D01*
X054801Y015597D01*
X054801Y015750D01*
X054878Y015827D01*
X054955Y015981D02*
X054801Y016134D01*
X055262Y016134D01*
X055262Y015981D02*
X055262Y016288D01*
X056502Y017028D02*
X056578Y016951D01*
X056732Y016951D01*
X056809Y017028D01*
X056962Y016951D02*
X057269Y017258D01*
X057269Y017335D01*
X057192Y017412D01*
X057039Y017412D01*
X056962Y017335D01*
X056809Y017335D02*
X056732Y017412D01*
X056578Y017412D01*
X056502Y017335D01*
X056502Y017028D01*
X056962Y016951D02*
X057269Y016951D01*
X057422Y017028D02*
X057499Y016951D01*
X057653Y016951D01*
X057729Y017028D01*
X057729Y017182D01*
X057653Y017258D01*
X057576Y017258D01*
X057422Y017182D01*
X057422Y017412D01*
X057729Y017412D01*
X057839Y015862D02*
X057762Y015785D01*
X057839Y015862D02*
X057992Y015862D01*
X058069Y015785D01*
X058069Y015708D01*
X057762Y015401D01*
X058069Y015401D01*
X058222Y015478D02*
X058299Y015401D01*
X058453Y015401D01*
X058529Y015478D01*
X058529Y015555D01*
X058453Y015632D01*
X058222Y015632D01*
X058222Y015478D01*
X058222Y015632D02*
X058376Y015785D01*
X058529Y015862D01*
X057609Y015785D02*
X057532Y015862D01*
X057378Y015862D01*
X057302Y015785D01*
X057302Y015478D01*
X057378Y015401D01*
X057532Y015401D01*
X057609Y015478D01*
X055935Y013698D02*
X055628Y013698D01*
X055551Y013621D01*
X055551Y013468D01*
X055628Y013391D01*
X055705Y013391D01*
X055782Y013468D01*
X055782Y013698D01*
X055935Y013698D02*
X056012Y013621D01*
X056012Y013468D01*
X055935Y013391D01*
X056012Y013238D02*
X056012Y012931D01*
X056012Y013084D02*
X055551Y013084D01*
X055705Y012931D01*
X055782Y012777D02*
X055858Y012700D01*
X055858Y012470D01*
X055858Y012624D02*
X056012Y012777D01*
X055782Y012777D02*
X055628Y012777D01*
X055551Y012700D01*
X055551Y012470D01*
X056012Y012470D01*
X056502Y012978D02*
X056578Y012901D01*
X056732Y012901D01*
X056809Y012978D01*
X056962Y012901D02*
X057269Y013208D01*
X057269Y013285D01*
X057192Y013362D01*
X057039Y013362D01*
X056962Y013285D01*
X056809Y013285D02*
X056732Y013362D01*
X056578Y013362D01*
X056502Y013285D01*
X056502Y012978D01*
X056962Y012901D02*
X057269Y012901D01*
X057422Y012901D02*
X057422Y012978D01*
X057729Y013285D01*
X057729Y013362D01*
X057422Y013362D01*
X055262Y013391D02*
X055262Y013698D01*
X055262Y013544D02*
X054801Y013544D01*
X054955Y013391D01*
X055262Y013238D02*
X055262Y012931D01*
X055262Y013084D02*
X054801Y013084D01*
X054955Y012931D01*
X054878Y012777D02*
X054801Y012700D01*
X054801Y012547D01*
X054878Y012470D01*
X055185Y012470D01*
X055262Y012547D01*
X055262Y012700D01*
X055185Y012777D01*
X052812Y012812D02*
X052812Y013119D01*
X052812Y013272D02*
X052735Y013272D01*
X052428Y013579D01*
X052351Y013579D01*
X052351Y013272D01*
X052351Y012965D02*
X052812Y012965D01*
X052735Y012658D02*
X052812Y012582D01*
X052812Y012428D01*
X052735Y012351D01*
X052428Y012351D01*
X052351Y012428D01*
X052351Y012582D01*
X052428Y012658D01*
X052505Y012812D02*
X052351Y012965D01*
X050212Y013028D02*
X050212Y013182D01*
X050135Y013258D01*
X050212Y013412D02*
X050212Y013719D01*
X050212Y013565D02*
X049751Y013565D01*
X049905Y013412D01*
X049828Y013258D02*
X049751Y013182D01*
X049751Y013028D01*
X049828Y012951D01*
X050135Y012951D01*
X050212Y013028D01*
X050135Y013872D02*
X050058Y013872D01*
X049982Y013949D01*
X049982Y014102D01*
X050058Y014179D01*
X050135Y014179D01*
X050212Y014102D01*
X050212Y013949D01*
X050135Y013872D01*
X049982Y013949D02*
X049905Y013872D01*
X049828Y013872D01*
X049751Y013949D01*
X049751Y014102D01*
X049828Y014179D01*
X049905Y014179D01*
X049982Y014102D01*
X049971Y014501D02*
X049818Y014501D01*
X049741Y014578D01*
X049741Y014655D01*
X049818Y014732D01*
X049971Y014732D01*
X050048Y014655D01*
X050048Y014578D01*
X049971Y014501D01*
X049971Y014732D02*
X050048Y014808D01*
X050048Y014885D01*
X049971Y014962D01*
X049818Y014962D01*
X049741Y014885D01*
X049741Y014808D01*
X049818Y014732D01*
X049588Y014578D02*
X049588Y014962D01*
X049281Y014962D02*
X049281Y014578D01*
X049358Y014501D01*
X049511Y014501D01*
X049588Y014578D01*
X047803Y015151D02*
X047803Y015612D01*
X047572Y015382D01*
X047879Y015382D01*
X047419Y015151D02*
X047112Y015151D01*
X047266Y015151D02*
X047266Y015612D01*
X047112Y015458D01*
X046959Y015535D02*
X046882Y015612D01*
X046728Y015612D01*
X046652Y015535D01*
X046652Y015228D01*
X046728Y015151D01*
X046882Y015151D01*
X046959Y015228D01*
X047067Y017111D02*
X047067Y017418D01*
X047220Y017571D01*
X047374Y017418D01*
X047374Y017111D01*
X047527Y017111D02*
X047834Y017111D01*
X047527Y017111D02*
X047527Y017571D01*
X047374Y017341D02*
X047067Y017341D01*
X046913Y017571D02*
X046606Y017571D01*
X046453Y017571D02*
X046146Y017111D01*
X046453Y017111D02*
X046146Y017571D01*
X046760Y017571D02*
X046760Y017111D01*
X047347Y018751D02*
X047501Y018751D01*
X047577Y018828D01*
X047731Y018828D02*
X047808Y018751D01*
X047961Y018751D01*
X048038Y018828D01*
X048038Y018905D01*
X047961Y018982D01*
X047884Y018982D01*
X047961Y018982D02*
X048038Y019058D01*
X048038Y019135D01*
X047961Y019212D01*
X047808Y019212D01*
X047731Y019135D01*
X047577Y019135D02*
X047501Y019212D01*
X047347Y019212D01*
X047271Y019135D01*
X047271Y018828D01*
X047347Y018751D01*
X048191Y018751D02*
X048498Y018751D01*
X048345Y018751D02*
X048345Y019212D01*
X048191Y019058D01*
X049751Y018348D02*
X049751Y018041D01*
X049982Y018041D01*
X049905Y018194D01*
X049905Y018271D01*
X049982Y018348D01*
X050135Y018348D01*
X050212Y018271D01*
X050212Y018118D01*
X050135Y018041D01*
X050212Y017888D02*
X050212Y017581D01*
X050212Y017734D02*
X049751Y017734D01*
X049905Y017581D01*
X049828Y017427D02*
X049751Y017350D01*
X049751Y017197D01*
X049828Y017120D01*
X050135Y017120D01*
X050212Y017197D01*
X050212Y017350D01*
X050135Y017427D01*
X057252Y011735D02*
X057252Y011428D01*
X057328Y011351D01*
X057482Y011351D01*
X057559Y011428D01*
X057712Y011351D02*
X058019Y011658D01*
X058019Y011735D01*
X057942Y011812D01*
X057789Y011812D01*
X057712Y011735D01*
X057559Y011735D02*
X057482Y011812D01*
X057328Y011812D01*
X057252Y011735D01*
X057712Y011351D02*
X058019Y011351D01*
X058172Y011428D02*
X058172Y011505D01*
X058249Y011582D01*
X058403Y011582D01*
X058479Y011505D01*
X058479Y011428D01*
X058403Y011351D01*
X058249Y011351D01*
X058172Y011428D01*
X058249Y011582D02*
X058172Y011658D01*
X058172Y011735D01*
X058249Y011812D01*
X058403Y011812D01*
X058479Y011735D01*
X058479Y011658D01*
X058403Y011582D01*
X055962Y010571D02*
X055962Y010418D01*
X055885Y010341D01*
X055808Y010341D01*
X055732Y010418D01*
X055732Y010571D01*
X055808Y010648D01*
X055885Y010648D01*
X055962Y010571D01*
X055732Y010571D02*
X055655Y010648D01*
X055578Y010648D01*
X055501Y010571D01*
X055501Y010418D01*
X055578Y010341D01*
X055655Y010341D01*
X055732Y010418D01*
X055962Y010188D02*
X055962Y009881D01*
X055962Y010034D02*
X055501Y010034D01*
X055655Y009881D01*
X055732Y009727D02*
X055808Y009650D01*
X055808Y009420D01*
X055808Y009574D02*
X055962Y009727D01*
X055732Y009727D02*
X055578Y009727D01*
X055501Y009650D01*
X055501Y009420D01*
X055962Y009420D01*
X056471Y009235D02*
X056471Y008928D01*
X056547Y008851D01*
X056701Y008851D01*
X056777Y008928D01*
X056931Y008851D02*
X057238Y009158D01*
X057238Y009235D01*
X057161Y009312D01*
X057008Y009312D01*
X056931Y009235D01*
X056777Y009235D02*
X056701Y009312D01*
X056547Y009312D01*
X056471Y009235D01*
X056931Y008851D02*
X057238Y008851D01*
X057391Y008928D02*
X057468Y008851D01*
X057621Y008851D01*
X057698Y008928D01*
X057698Y009235D01*
X057621Y009312D01*
X057468Y009312D01*
X057391Y009235D01*
X057391Y009158D01*
X057468Y009082D01*
X057698Y009082D01*
X057928Y007812D02*
X057852Y007735D01*
X057852Y007428D01*
X057928Y007351D01*
X058082Y007351D01*
X058159Y007428D01*
X058312Y007428D02*
X058389Y007351D01*
X058542Y007351D01*
X058619Y007428D01*
X058619Y007505D01*
X058542Y007582D01*
X058466Y007582D01*
X058542Y007582D02*
X058619Y007658D01*
X058619Y007735D01*
X058542Y007812D01*
X058389Y007812D01*
X058312Y007735D01*
X058159Y007735D02*
X058082Y007812D01*
X057928Y007812D01*
X058772Y007735D02*
X058772Y007428D01*
X059079Y007735D01*
X059079Y007428D01*
X059003Y007351D01*
X058849Y007351D01*
X058772Y007428D01*
X058772Y007735D02*
X058849Y007812D01*
X059003Y007812D01*
X059079Y007735D01*
X056429Y006896D02*
X056122Y006896D01*
X055969Y006896D02*
X055662Y006896D01*
X055816Y006896D02*
X055816Y007356D01*
X055662Y007202D01*
X055509Y007356D02*
X055509Y006972D01*
X055432Y006896D01*
X055278Y006896D01*
X055202Y006972D01*
X055202Y007356D01*
X056122Y007202D02*
X056276Y007356D01*
X056276Y006896D01*
X053762Y006621D02*
X053762Y006468D01*
X053685Y006391D01*
X053685Y006238D02*
X053762Y006161D01*
X053762Y006007D01*
X053685Y005931D01*
X053685Y005777D02*
X053762Y005700D01*
X053762Y005547D01*
X053685Y005470D01*
X053378Y005470D01*
X053301Y005547D01*
X053301Y005700D01*
X053378Y005777D01*
X053378Y005931D02*
X053301Y006007D01*
X053301Y006161D01*
X053378Y006238D01*
X053455Y006238D01*
X053532Y006161D01*
X053608Y006238D01*
X053685Y006238D01*
X053532Y006161D02*
X053532Y006084D01*
X053378Y006391D02*
X053301Y006468D01*
X053301Y006621D01*
X053378Y006698D01*
X053455Y006698D01*
X053532Y006621D01*
X053608Y006698D01*
X053685Y006698D01*
X053762Y006621D01*
X053532Y006621D02*
X053532Y006544D01*
X053721Y005212D02*
X053491Y004982D01*
X053798Y004982D01*
X053721Y005212D02*
X053721Y004751D01*
X053338Y004828D02*
X053261Y004751D01*
X053108Y004751D01*
X053031Y004828D01*
X052877Y004828D02*
X052801Y004751D01*
X052647Y004751D01*
X052571Y004828D01*
X052571Y005135D01*
X052647Y005212D01*
X052801Y005212D01*
X052877Y005135D01*
X053031Y005135D02*
X053108Y005212D01*
X053261Y005212D01*
X053338Y005135D01*
X053338Y005058D01*
X053261Y004982D01*
X053338Y004905D01*
X053338Y004828D01*
X053261Y004982D02*
X053184Y004982D01*
X055571Y004485D02*
X055571Y004178D01*
X055647Y004101D01*
X055801Y004101D01*
X055877Y004178D01*
X056031Y004178D02*
X056108Y004101D01*
X056261Y004101D01*
X056338Y004178D01*
X056338Y004255D01*
X056261Y004332D01*
X056184Y004332D01*
X056261Y004332D02*
X056338Y004408D01*
X056338Y004485D01*
X056261Y004562D01*
X056108Y004562D01*
X056031Y004485D01*
X055877Y004485D02*
X055801Y004562D01*
X055647Y004562D01*
X055571Y004485D01*
X056491Y004485D02*
X056568Y004562D01*
X056721Y004562D01*
X056798Y004485D01*
X056798Y004408D01*
X056491Y004101D01*
X056798Y004101D01*
X049679Y006528D02*
X049603Y006451D01*
X049449Y006451D01*
X049372Y006528D01*
X049219Y006528D02*
X049142Y006451D01*
X048989Y006451D01*
X048912Y006528D01*
X048759Y006528D02*
X048682Y006451D01*
X048528Y006451D01*
X048452Y006528D01*
X048452Y006835D01*
X048528Y006912D01*
X048682Y006912D01*
X048759Y006835D01*
X048912Y006835D02*
X048989Y006912D01*
X049142Y006912D01*
X049219Y006835D01*
X049219Y006758D01*
X049142Y006682D01*
X049219Y006605D01*
X049219Y006528D01*
X049142Y006682D02*
X049066Y006682D01*
X049372Y006682D02*
X049526Y006758D01*
X049603Y006758D01*
X049679Y006682D01*
X049679Y006528D01*
X049372Y006682D02*
X049372Y006912D01*
X049679Y006912D01*
X046079Y006962D02*
X045926Y006885D01*
X045772Y006732D01*
X046003Y006732D01*
X046079Y006655D01*
X046079Y006578D01*
X046003Y006501D01*
X045849Y006501D01*
X045772Y006578D01*
X045772Y006732D01*
X045619Y006808D02*
X045542Y006732D01*
X045619Y006655D01*
X045619Y006578D01*
X045542Y006501D01*
X045389Y006501D01*
X045312Y006578D01*
X045159Y006578D02*
X045082Y006501D01*
X044928Y006501D01*
X044852Y006578D01*
X044852Y006885D01*
X044928Y006962D01*
X045082Y006962D01*
X045159Y006885D01*
X045312Y006885D02*
X045389Y006962D01*
X045542Y006962D01*
X045619Y006885D01*
X045619Y006808D01*
X045542Y006732D02*
X045466Y006732D01*
X044635Y004619D02*
X044558Y004619D01*
X044482Y004542D01*
X044482Y004312D01*
X044635Y004312D01*
X044712Y004388D01*
X044712Y004542D01*
X044635Y004619D01*
X044328Y004465D02*
X044482Y004312D01*
X044482Y004158D02*
X044558Y004082D01*
X044558Y003851D01*
X044712Y003851D02*
X044251Y003851D01*
X044251Y004082D01*
X044328Y004158D01*
X044482Y004158D01*
X044558Y004005D02*
X044712Y004158D01*
X044328Y004465D02*
X044251Y004619D01*
X046851Y004619D02*
X046851Y004312D01*
X046928Y004158D02*
X047082Y004158D01*
X047158Y004082D01*
X047158Y003851D01*
X047312Y003851D02*
X046851Y003851D01*
X046851Y004082D01*
X046928Y004158D01*
X047158Y004005D02*
X047312Y004158D01*
X047312Y004312D02*
X047235Y004312D01*
X046928Y004619D01*
X046851Y004619D01*
X047065Y009496D02*
X047218Y009496D01*
X047295Y009572D01*
X047295Y009956D01*
X047449Y009802D02*
X047602Y009956D01*
X047602Y009496D01*
X047449Y009496D02*
X047756Y009496D01*
X047909Y009496D02*
X048216Y009802D01*
X048216Y009879D01*
X048139Y009956D01*
X047986Y009956D01*
X047909Y009879D01*
X047909Y009496D02*
X048216Y009496D01*
X047065Y009496D02*
X046988Y009572D01*
X046988Y009956D01*
X044616Y009879D02*
X044616Y009802D01*
X044539Y009726D01*
X044616Y009649D01*
X044616Y009572D01*
X044539Y009496D01*
X044386Y009496D01*
X044309Y009572D01*
X044156Y009496D02*
X043849Y009496D01*
X044002Y009496D02*
X044002Y009956D01*
X043849Y009802D01*
X043695Y009956D02*
X043695Y009572D01*
X043618Y009496D01*
X043465Y009496D01*
X043388Y009572D01*
X043388Y009956D01*
X044309Y009879D02*
X044386Y009956D01*
X044539Y009956D01*
X044616Y009879D01*
X044539Y009726D02*
X044462Y009726D01*
X054751Y009650D02*
X054751Y009497D01*
X054828Y009420D01*
X055135Y009420D01*
X055212Y009497D01*
X055212Y009650D01*
X055135Y009727D01*
X055212Y009881D02*
X055212Y010188D01*
X055212Y010034D02*
X054751Y010034D01*
X054905Y009881D01*
X054828Y009727D02*
X054751Y009650D01*
X054828Y010341D02*
X054751Y010418D01*
X054751Y010571D01*
X054828Y010648D01*
X055135Y010341D01*
X055212Y010418D01*
X055212Y010571D01*
X055135Y010648D01*
X054828Y010648D01*
X054828Y010341D02*
X055135Y010341D01*
X061401Y010427D02*
X061785Y010427D01*
X061862Y010350D01*
X061862Y010197D01*
X061785Y010120D01*
X061401Y010120D01*
X061555Y010581D02*
X061401Y010734D01*
X061862Y010734D01*
X061862Y010581D02*
X061862Y010888D01*
X061632Y011041D02*
X061632Y011348D01*
X061862Y011271D02*
X061401Y011271D01*
X061632Y011041D01*
X061785Y014070D02*
X061862Y014147D01*
X061862Y014300D01*
X061785Y014377D01*
X061401Y014377D01*
X061555Y014531D02*
X061401Y014684D01*
X061862Y014684D01*
X061862Y014531D02*
X061862Y014838D01*
X061785Y014991D02*
X061862Y015068D01*
X061862Y015221D01*
X061785Y015298D01*
X061632Y015298D01*
X061555Y015221D01*
X061555Y015144D01*
X061632Y014991D01*
X061401Y014991D01*
X061401Y015298D01*
X061401Y014070D02*
X061785Y014070D01*
X061785Y018301D02*
X061862Y018378D01*
X061862Y018532D01*
X061785Y018608D01*
X061401Y018608D01*
X061555Y018762D02*
X061401Y018915D01*
X061862Y018915D01*
X061862Y018762D02*
X061862Y019069D01*
X061785Y019222D02*
X061862Y019299D01*
X061862Y019452D01*
X061785Y019529D01*
X061708Y019529D01*
X061632Y019452D01*
X061632Y019222D01*
X061785Y019222D01*
X061632Y019222D02*
X061478Y019376D01*
X061401Y019529D01*
X061401Y018301D02*
X061785Y018301D01*
X061785Y022351D02*
X061862Y022428D01*
X061862Y022582D01*
X061785Y022658D01*
X061401Y022658D01*
X061555Y022812D02*
X061401Y022965D01*
X061862Y022965D01*
X061862Y022812D02*
X061862Y023119D01*
X061862Y023272D02*
X061785Y023272D01*
X061478Y023579D01*
X061401Y023579D01*
X061401Y023272D01*
X061401Y022351D02*
X061785Y022351D01*
X021812Y014017D02*
X021812Y013863D01*
X021735Y013787D01*
X021812Y013633D02*
X021812Y013326D01*
X021351Y013326D01*
X021428Y013787D02*
X021351Y013863D01*
X021351Y014017D01*
X021428Y014094D01*
X021505Y014094D01*
X021582Y014017D01*
X021658Y014094D01*
X021735Y014094D01*
X021812Y014017D01*
X021582Y014017D02*
X021582Y013940D01*
X021535Y012148D02*
X021228Y012148D01*
X021151Y012071D01*
X021151Y011918D01*
X021228Y011841D01*
X021305Y011841D01*
X021382Y011918D01*
X021382Y012148D01*
X021535Y012148D02*
X021612Y012071D01*
X021612Y011918D01*
X021535Y011841D01*
X021535Y011688D02*
X021612Y011611D01*
X021612Y011457D01*
X021535Y011381D01*
X021228Y011381D01*
X021151Y011457D01*
X021151Y011611D01*
X021228Y011688D01*
X018062Y013247D02*
X018062Y013400D01*
X017985Y013477D01*
X018062Y013631D02*
X017755Y013938D01*
X017678Y013938D01*
X017601Y013861D01*
X017601Y013707D01*
X017678Y013631D01*
X017678Y013477D02*
X017601Y013400D01*
X017601Y013247D01*
X017678Y013170D01*
X017985Y013170D01*
X018062Y013247D01*
X018062Y013631D02*
X018062Y013938D01*
X018062Y014091D02*
X018062Y014398D01*
X018062Y014244D02*
X017601Y014244D01*
X017755Y014091D01*
X012600Y010895D02*
X012293Y010588D01*
X012370Y010512D01*
X012523Y010512D01*
X012600Y010588D01*
X012600Y010895D01*
X012523Y010972D01*
X012370Y010972D01*
X012293Y010895D01*
X012293Y010588D01*
X012139Y010512D02*
X011833Y010512D01*
X012139Y010819D01*
X012139Y010895D01*
X012063Y010972D01*
X011909Y010972D01*
X011833Y010895D01*
X011679Y010972D02*
X011679Y010588D01*
X011602Y010512D01*
X011449Y010512D01*
X011372Y010588D01*
X011372Y010972D01*
X010062Y010951D02*
X009601Y010951D01*
X009601Y011182D01*
X009678Y011258D01*
X009832Y011258D01*
X009908Y011182D01*
X009908Y010951D01*
X009908Y011105D02*
X010062Y011258D01*
X010062Y011412D02*
X010062Y011719D01*
X010062Y011872D02*
X010062Y012179D01*
X010062Y012026D02*
X009601Y012026D01*
X009755Y011872D01*
X009601Y011565D02*
X010062Y011565D01*
X009755Y011412D02*
X009601Y011565D01*
X012871Y009012D02*
X013101Y009012D01*
X013177Y008935D01*
X013177Y008782D01*
X013101Y008705D01*
X012871Y008705D01*
X013024Y008705D02*
X013177Y008551D01*
X013331Y008551D02*
X013638Y008551D01*
X013484Y008551D02*
X013484Y009012D01*
X013331Y008858D01*
X013791Y008935D02*
X013791Y008628D01*
X014098Y008935D01*
X014098Y008628D01*
X014021Y008551D01*
X013868Y008551D01*
X013791Y008628D01*
X013791Y008935D02*
X013868Y009012D01*
X014021Y009012D01*
X014098Y008935D01*
X012871Y009012D02*
X012871Y008551D01*
X012446Y007822D02*
X012446Y007362D01*
X012293Y007362D02*
X012600Y007362D01*
X012293Y007669D02*
X012446Y007822D01*
X012139Y007745D02*
X012063Y007822D01*
X011909Y007822D01*
X011833Y007745D01*
X011679Y007822D02*
X011679Y007438D01*
X011602Y007362D01*
X011449Y007362D01*
X011372Y007438D01*
X011372Y007822D01*
X011833Y007362D02*
X012139Y007669D01*
X012139Y007745D01*
X012139Y007362D02*
X011833Y007362D01*
X010479Y007878D02*
X010479Y007955D01*
X010403Y008032D01*
X010326Y008032D01*
X010403Y008032D02*
X010479Y008108D01*
X010479Y008185D01*
X010403Y008262D01*
X010249Y008262D01*
X010172Y008185D01*
X010172Y007878D02*
X010249Y007801D01*
X010403Y007801D01*
X010479Y007878D01*
X010019Y007801D02*
X009712Y007801D01*
X009559Y007801D02*
X009405Y007955D01*
X009482Y007955D02*
X009252Y007955D01*
X009252Y007801D02*
X009252Y008262D01*
X009482Y008262D01*
X009559Y008185D01*
X009559Y008032D01*
X009482Y007955D01*
X009712Y008108D02*
X009866Y008262D01*
X009866Y007801D01*
X012871Y005862D02*
X013101Y005862D01*
X013177Y005785D01*
X013177Y005632D01*
X013101Y005555D01*
X012871Y005555D01*
X013024Y005555D02*
X013177Y005401D01*
X013331Y005401D02*
X013638Y005401D01*
X013791Y005401D02*
X014098Y005708D01*
X014098Y005785D01*
X014021Y005862D01*
X013868Y005862D01*
X013791Y005785D01*
X013484Y005862D02*
X013484Y005401D01*
X013492Y005162D02*
X013569Y005085D01*
X013569Y005008D01*
X013492Y004932D01*
X013339Y004932D01*
X013262Y005008D01*
X013262Y005085D01*
X013339Y005162D01*
X013492Y005162D01*
X013492Y004932D02*
X013569Y004855D01*
X013569Y004778D01*
X013492Y004701D01*
X013339Y004701D01*
X013262Y004778D01*
X013262Y004855D01*
X013339Y004932D01*
X013109Y004932D02*
X013032Y004855D01*
X012802Y004855D01*
X012955Y004855D02*
X013109Y004701D01*
X013109Y004932D02*
X013109Y005085D01*
X013032Y005162D01*
X012802Y005162D01*
X012802Y004701D01*
X012871Y005401D02*
X012871Y005862D01*
X013331Y005708D02*
X013484Y005862D01*
X013791Y005401D02*
X014098Y005401D01*
X010979Y004035D02*
X010979Y003728D01*
X010903Y003651D01*
X010749Y003651D01*
X010672Y003728D01*
X010519Y003651D02*
X010212Y003651D01*
X010366Y003651D02*
X010366Y004112D01*
X010212Y003958D01*
X010059Y004112D02*
X010059Y003728D01*
X009982Y003651D01*
X009828Y003651D01*
X009752Y003728D01*
X009752Y004112D01*
X010672Y004035D02*
X010672Y003958D01*
X010749Y003882D01*
X010979Y003882D01*
X010979Y004035D02*
X010903Y004112D01*
X010749Y004112D01*
X010672Y004035D01*
X012781Y002912D02*
X013011Y002912D01*
X013088Y002835D01*
X013088Y002682D01*
X013011Y002605D01*
X012781Y002605D01*
X012934Y002605D02*
X013088Y002451D01*
X013241Y002528D02*
X013318Y002451D01*
X013471Y002451D01*
X013548Y002528D01*
X013548Y002835D01*
X013471Y002912D01*
X013318Y002912D01*
X013241Y002835D01*
X013241Y002758D01*
X013318Y002682D01*
X013548Y002682D01*
X012781Y002912D02*
X012781Y002451D01*
X019301Y003497D02*
X019378Y003420D01*
X019685Y003420D01*
X019762Y003497D01*
X019762Y003650D01*
X019685Y003727D01*
X019685Y003881D02*
X019762Y003957D01*
X019762Y004111D01*
X019685Y004188D01*
X019608Y004188D01*
X019532Y004111D01*
X019532Y004034D01*
X019532Y004111D02*
X019455Y004188D01*
X019378Y004188D01*
X019301Y004111D01*
X019301Y003957D01*
X019378Y003881D01*
X019378Y003727D02*
X019301Y003650D01*
X019301Y003497D01*
X019378Y004341D02*
X019455Y004341D01*
X019532Y004418D01*
X019532Y004571D01*
X019608Y004648D01*
X019685Y004648D01*
X019762Y004571D01*
X019762Y004418D01*
X019685Y004341D01*
X019608Y004341D01*
X019532Y004418D01*
X019532Y004571D02*
X019455Y004648D01*
X019378Y004648D01*
X019301Y004571D01*
X019301Y004418D01*
X019378Y004341D01*
X020301Y004332D02*
X020378Y004408D01*
X020532Y004408D01*
X020608Y004332D01*
X020608Y004101D01*
X020762Y004101D02*
X020301Y004101D01*
X020301Y004332D01*
X020378Y004562D02*
X020301Y004638D01*
X020301Y004792D01*
X020378Y004869D01*
X020455Y004869D01*
X020762Y004562D01*
X020762Y004869D01*
X020762Y004408D02*
X020608Y004255D01*
D16*
X036882Y005421D03*
X051082Y027792D03*
D17*
X051239Y027516D02*
X051239Y028146D01*
X050924Y028146D02*
X050924Y027516D01*
X037039Y005696D02*
X037039Y005066D01*
X036724Y005066D02*
X036724Y005696D01*
D18*
X061340Y033710D02*
X066064Y033710D01*
X066064Y034222D01*
X065670Y034222D01*
X065277Y034222D02*
X064883Y034222D01*
X064686Y033907D02*
X061340Y033907D01*
X061340Y036556D01*
X060749Y036407D02*
X060749Y037056D01*
X060552Y037056D01*
X060552Y036407D01*
X062521Y036741D02*
X062521Y035974D01*
X062521Y035678D01*
X062521Y035285D02*
X062521Y034989D01*
X062521Y034222D01*
X062914Y034222D01*
X063308Y034222D02*
X063702Y034222D01*
X064096Y034222D02*
X064489Y034222D01*
X064686Y033907D02*
X064686Y033710D01*
X064686Y033907D02*
X064686Y037253D01*
X064489Y036741D02*
X064096Y036741D01*
X063702Y036741D02*
X063308Y036741D01*
X062914Y036741D02*
X062521Y036741D01*
X062840Y037253D02*
X066064Y037253D01*
X066064Y036741D01*
X065670Y036741D01*
X065277Y036741D02*
X064883Y036741D01*
X066064Y036741D02*
X066064Y034222D01*
X065277Y034989D02*
X065320Y034991D01*
X065362Y034996D01*
X065404Y035006D01*
X065445Y035019D01*
X065485Y035035D01*
X065523Y035055D01*
X065559Y035078D01*
X065593Y035104D01*
X065625Y035133D01*
X065654Y035165D01*
X065680Y035199D01*
X065703Y035235D01*
X065723Y035273D01*
X065739Y035313D01*
X065752Y035354D01*
X065762Y035396D01*
X065767Y035438D01*
X065769Y035481D01*
X065767Y035524D01*
X065762Y035566D01*
X065752Y035608D01*
X065739Y035649D01*
X065723Y035689D01*
X065703Y035727D01*
X065680Y035763D01*
X065654Y035797D01*
X065625Y035829D01*
X065593Y035858D01*
X065559Y035884D01*
X065523Y035907D01*
X065485Y035927D01*
X065445Y035943D01*
X065404Y035956D01*
X065362Y035966D01*
X065320Y035971D01*
X065277Y035973D01*
X061340Y033907D02*
X060749Y033907D01*
X060749Y034556D01*
X060552Y034556D02*
X060552Y033907D01*
X060749Y033907D01*
X061340Y033907D02*
X061340Y033710D01*
D19*
X053282Y035131D02*
X053282Y035381D01*
X052782Y035381D01*
X052282Y035381D01*
X052282Y035131D01*
X053282Y035131D01*
X050032Y035031D02*
X050035Y035166D01*
X050045Y035301D01*
X050062Y035435D01*
X050085Y035567D01*
X050114Y035699D01*
X050150Y035829D01*
X050193Y035957D01*
X050241Y036083D01*
X050296Y036207D01*
X050357Y036327D01*
X050423Y036445D01*
X050495Y036559D01*
X050573Y036669D01*
X050656Y036776D01*
X050744Y036878D01*
X050837Y036976D01*
X050935Y037069D01*
X051037Y037157D01*
X051144Y037240D01*
X051254Y037318D01*
X051368Y037390D01*
X051486Y037456D01*
X051606Y037517D01*
X051730Y037572D01*
X051856Y037620D01*
X051984Y037663D01*
X052114Y037699D01*
X052246Y037728D01*
X052378Y037751D01*
X052512Y037768D01*
X052647Y037778D01*
X052782Y037781D01*
X052917Y037778D01*
X053052Y037768D01*
X053186Y037751D01*
X053318Y037728D01*
X053450Y037699D01*
X053580Y037663D01*
X053708Y037620D01*
X053834Y037572D01*
X053958Y037517D01*
X054078Y037456D01*
X054196Y037390D01*
X054310Y037318D01*
X054420Y037240D01*
X054527Y037157D01*
X054629Y037069D01*
X054727Y036976D01*
X054820Y036878D01*
X054908Y036776D01*
X054991Y036669D01*
X055069Y036559D01*
X055141Y036445D01*
X055207Y036327D01*
X055268Y036207D01*
X055323Y036083D01*
X055371Y035957D01*
X055414Y035829D01*
X055450Y035699D01*
X055479Y035567D01*
X055502Y035435D01*
X055519Y035301D01*
X055529Y035166D01*
X055532Y035031D01*
X055529Y034896D01*
X055519Y034761D01*
X055502Y034627D01*
X055479Y034495D01*
X055450Y034363D01*
X055414Y034233D01*
X055371Y034105D01*
X055323Y033979D01*
X055268Y033855D01*
X055207Y033735D01*
X055141Y033617D01*
X055069Y033503D01*
X054991Y033393D01*
X054908Y033286D01*
X054820Y033184D01*
X054727Y033086D01*
X054629Y032993D01*
X054527Y032905D01*
X054420Y032822D01*
X054310Y032744D01*
X054196Y032672D01*
X054078Y032606D01*
X053958Y032545D01*
X053834Y032490D01*
X053708Y032442D01*
X053580Y032399D01*
X053450Y032363D01*
X053318Y032334D01*
X053186Y032311D01*
X053052Y032294D01*
X052917Y032284D01*
X052782Y032281D01*
X052647Y032284D01*
X052512Y032294D01*
X052378Y032311D01*
X052246Y032334D01*
X052114Y032363D01*
X051984Y032399D01*
X051856Y032442D01*
X051730Y032490D01*
X051606Y032545D01*
X051486Y032606D01*
X051368Y032672D01*
X051254Y032744D01*
X051144Y032822D01*
X051037Y032905D01*
X050935Y032993D01*
X050837Y033086D01*
X050744Y033184D01*
X050656Y033286D01*
X050573Y033393D01*
X050495Y033503D01*
X050423Y033617D01*
X050357Y033735D01*
X050296Y033855D01*
X050241Y033979D01*
X050193Y034105D01*
X050150Y034233D01*
X050114Y034363D01*
X050085Y034495D01*
X050062Y034627D01*
X050045Y034761D01*
X050035Y034896D01*
X050032Y035031D01*
X052782Y034781D02*
X052782Y034581D01*
X052782Y035381D02*
X052782Y035481D01*
X052782Y036781D02*
X052782Y037281D01*
X052532Y037031D02*
X053032Y037031D01*
X041982Y027551D02*
X041982Y027051D01*
X041732Y026801D01*
X040232Y026801D01*
X039982Y026551D01*
X039982Y026051D01*
X040232Y025801D01*
X041732Y025801D01*
X041982Y025551D01*
X041982Y025051D01*
X041732Y024801D01*
X040232Y024801D01*
X039982Y024551D01*
X039982Y024051D01*
X040232Y023801D01*
X041732Y023801D01*
X041982Y023551D01*
X041982Y023051D01*
X041732Y022801D01*
X040232Y022801D01*
X039982Y022551D01*
X039982Y022051D01*
X040232Y021801D01*
X041732Y021801D01*
X041982Y021551D01*
X041982Y021051D01*
X041732Y020801D01*
X040232Y020801D01*
X039982Y021051D01*
X039982Y021551D01*
X040232Y021801D01*
X040232Y020801D02*
X039982Y020551D01*
X039982Y020051D01*
X040232Y019801D01*
X041732Y019801D01*
X041982Y019551D01*
X041982Y019051D01*
X041732Y018801D01*
X040232Y018801D01*
X039982Y019051D01*
X039982Y019551D01*
X040232Y019801D01*
X040232Y018801D02*
X039982Y018551D01*
X039982Y018051D01*
X040232Y017801D01*
X041732Y017801D01*
X041982Y017551D01*
X041982Y017051D01*
X041732Y016801D01*
X040232Y016801D01*
X039982Y017051D01*
X039982Y017551D01*
X040232Y017801D01*
X040232Y016801D02*
X039982Y016551D01*
X039982Y016051D01*
X040232Y015801D01*
X041732Y015801D01*
X041982Y015551D01*
X041982Y015051D01*
X041732Y014801D01*
X040232Y014801D01*
X039982Y015051D01*
X039982Y015551D01*
X040232Y015801D01*
X040232Y014801D02*
X039982Y014551D01*
X039982Y014051D01*
X040232Y013801D01*
X041732Y013801D01*
X041982Y013551D01*
X041982Y013051D01*
X041732Y012801D01*
X040232Y012801D01*
X039982Y013051D01*
X039982Y013551D01*
X040232Y013801D01*
X040232Y012801D02*
X039982Y012551D01*
X039982Y012051D01*
X040232Y011801D01*
X041732Y011801D01*
X041982Y011551D01*
X041982Y011051D01*
X041732Y010801D01*
X040232Y010801D01*
X039982Y011051D01*
X039982Y011551D01*
X040232Y011801D01*
X040232Y010801D02*
X039982Y010551D01*
X039982Y010051D01*
X040232Y009801D01*
X041732Y009801D01*
X041982Y009551D01*
X041982Y009051D01*
X041732Y008801D01*
X041982Y008551D01*
X041982Y008051D01*
X041732Y007801D01*
X041982Y007551D01*
X041982Y007051D01*
X041732Y006801D01*
X041982Y006551D01*
X041982Y006051D01*
X041732Y005801D01*
X040232Y005801D01*
X039982Y006051D01*
X039982Y006551D01*
X040232Y006801D01*
X041732Y006801D01*
X041732Y007801D02*
X040232Y007801D01*
X039982Y007551D01*
X039982Y007051D01*
X040232Y006801D01*
X040232Y007801D02*
X039982Y008051D01*
X039982Y008551D01*
X040232Y008801D01*
X041732Y008801D01*
X041732Y009801D02*
X041982Y010051D01*
X041982Y010551D01*
X041732Y010801D01*
X041732Y011801D02*
X041982Y012051D01*
X041982Y012551D01*
X041732Y012801D01*
X041732Y013801D02*
X041982Y014051D01*
X041982Y014551D01*
X041732Y014801D01*
X041732Y015801D02*
X041982Y016051D01*
X041982Y016551D01*
X041732Y016801D01*
X041732Y017801D02*
X041982Y018051D01*
X041982Y018551D01*
X041732Y018801D01*
X041732Y019801D02*
X041982Y020051D01*
X041982Y020551D01*
X041732Y020801D01*
X041732Y021801D02*
X041982Y022051D01*
X041982Y022551D01*
X041732Y022801D01*
X041732Y023801D02*
X041982Y024051D01*
X041982Y024551D01*
X041732Y024801D01*
X041732Y025801D02*
X041982Y026051D01*
X041982Y026551D01*
X041732Y026801D01*
X041982Y027551D02*
X041732Y027801D01*
X040232Y027801D01*
X039982Y027551D01*
X039982Y027051D01*
X040232Y026801D01*
X040232Y025801D02*
X039982Y025551D01*
X039982Y025051D01*
X040232Y024801D01*
X040232Y023801D02*
X039982Y023551D01*
X039982Y023051D01*
X040232Y022801D01*
X036632Y023031D02*
X036632Y022531D01*
X036382Y022281D01*
X034882Y022281D01*
X034632Y022531D01*
X034632Y023031D01*
X034882Y023281D01*
X036382Y023281D01*
X036632Y023531D01*
X036632Y024031D01*
X036382Y024281D01*
X034882Y024281D01*
X034632Y024531D01*
X034632Y025031D01*
X034882Y025281D01*
X034632Y025531D01*
X034632Y026031D01*
X034882Y026281D01*
X036382Y026281D01*
X036632Y026031D01*
X036632Y025531D01*
X036382Y025281D01*
X034882Y025281D01*
X034882Y024281D02*
X034632Y024031D01*
X034632Y023531D01*
X034882Y023281D01*
X034882Y022281D02*
X034632Y022031D01*
X034632Y021531D01*
X034882Y021281D01*
X036382Y021281D01*
X036632Y021531D01*
X036632Y022031D01*
X036382Y022281D01*
X036632Y023031D02*
X036382Y023281D01*
X036382Y024281D02*
X036632Y024531D01*
X036632Y025031D01*
X036382Y025281D01*
X036382Y021281D02*
X036632Y021031D01*
X036632Y020531D01*
X036382Y020281D01*
X034882Y020281D01*
X034632Y020531D01*
X034632Y021031D01*
X034882Y021281D01*
X040232Y009801D02*
X039982Y009551D01*
X039982Y009051D01*
X040232Y008801D01*
X018990Y006012D02*
X018990Y005451D01*
X017774Y005451D02*
X017774Y006012D01*
X012192Y004200D02*
X012192Y003563D01*
X012155Y003563D01*
X011837Y003563D02*
X011800Y003563D01*
X011463Y003563D02*
X011426Y003563D01*
X011109Y003563D02*
X011072Y003563D01*
X011072Y004200D01*
X011109Y004200D01*
X011426Y004200D02*
X011837Y004200D01*
X012155Y004200D02*
X012192Y004200D01*
D20*
X052782Y034806D03*
D21*
X053786Y034883D02*
X053786Y034672D01*
X053891Y034567D01*
X054312Y034567D01*
X054417Y034672D01*
X054417Y034883D01*
X054312Y034988D01*
X054417Y035212D02*
X054417Y035632D01*
X054417Y035422D02*
X053786Y035422D01*
X053996Y035212D01*
X053891Y034988D02*
X053786Y034883D01*
D22*
X054298Y027737D02*
X054298Y023726D01*
X057971Y022983D02*
X057971Y021880D01*
X057972Y021880D02*
X057973Y021867D01*
X057978Y021854D01*
X057985Y021843D01*
X057994Y021834D01*
X058005Y021827D01*
X058018Y021822D01*
X058031Y021821D01*
X059133Y021821D01*
X059146Y021822D01*
X059159Y021827D01*
X059170Y021834D01*
X059179Y021843D01*
X059186Y021854D01*
X059191Y021867D01*
X059192Y021880D01*
X059192Y022983D01*
X059191Y022996D01*
X059186Y023009D01*
X059179Y023020D01*
X059170Y023029D01*
X059159Y023036D01*
X059146Y023041D01*
X059133Y023042D01*
X058031Y023042D01*
X058018Y023041D01*
X058005Y023036D01*
X057994Y023029D01*
X057985Y023020D01*
X057978Y023009D01*
X057973Y022996D01*
X057972Y022983D01*
X058031Y019042D02*
X059133Y019042D01*
X059146Y019041D01*
X059159Y019036D01*
X059170Y019029D01*
X059179Y019020D01*
X059186Y019009D01*
X059191Y018996D01*
X059192Y018983D01*
X059192Y017880D01*
X059191Y017867D01*
X059186Y017854D01*
X059179Y017843D01*
X059170Y017834D01*
X059159Y017827D01*
X059146Y017822D01*
X059133Y017821D01*
X058031Y017821D01*
X058018Y017822D01*
X058005Y017827D01*
X057994Y017834D01*
X057985Y017843D01*
X057978Y017854D01*
X057973Y017867D01*
X057972Y017880D01*
X057971Y017880D02*
X057971Y018983D01*
X057972Y018983D02*
X057973Y018996D01*
X057978Y019009D01*
X057985Y019020D01*
X057994Y019029D01*
X058005Y019036D01*
X058018Y019041D01*
X058031Y019042D01*
X058031Y015042D02*
X059133Y015042D01*
X059146Y015041D01*
X059159Y015036D01*
X059170Y015029D01*
X059179Y015020D01*
X059186Y015009D01*
X059191Y014996D01*
X059192Y014983D01*
X059192Y013880D01*
X059191Y013867D01*
X059186Y013854D01*
X059179Y013843D01*
X059170Y013834D01*
X059159Y013827D01*
X059146Y013822D01*
X059133Y013821D01*
X058031Y013821D01*
X058018Y013822D01*
X058005Y013827D01*
X057994Y013834D01*
X057985Y013843D01*
X057978Y013854D01*
X057973Y013867D01*
X057972Y013880D01*
X057971Y013880D02*
X057971Y014983D01*
X057972Y014983D02*
X057973Y014996D01*
X057978Y015009D01*
X057985Y015020D01*
X057994Y015029D01*
X058005Y015036D01*
X058018Y015041D01*
X058031Y015042D01*
X058031Y011042D02*
X059133Y011042D01*
X059146Y011041D01*
X059159Y011036D01*
X059170Y011029D01*
X059179Y011020D01*
X059186Y011009D01*
X059191Y010996D01*
X059192Y010983D01*
X059192Y009880D01*
X059191Y009867D01*
X059186Y009854D01*
X059179Y009843D01*
X059170Y009834D01*
X059159Y009827D01*
X059146Y009822D01*
X059133Y009821D01*
X058031Y009821D01*
X058018Y009822D01*
X058005Y009827D01*
X057994Y009834D01*
X057985Y009843D01*
X057978Y009854D01*
X057973Y009867D01*
X057972Y009880D01*
X057971Y009880D02*
X057971Y010983D01*
X057972Y010983D02*
X057973Y010996D01*
X057978Y011009D01*
X057985Y011020D01*
X057994Y011029D01*
X058005Y011036D01*
X058018Y011041D01*
X058031Y011042D01*
X056333Y006783D02*
X055231Y006783D01*
X055231Y005680D01*
X056333Y005680D01*
X056333Y006783D01*
X055624Y006507D02*
X055349Y006507D01*
X055348Y006507D02*
X055350Y006530D01*
X055355Y006552D01*
X055365Y006573D01*
X055377Y006592D01*
X055393Y006609D01*
X055411Y006623D01*
X055431Y006633D01*
X055452Y006641D01*
X055475Y006645D01*
X055497Y006645D01*
X055520Y006641D01*
X055541Y006633D01*
X055561Y006623D01*
X055579Y006609D01*
X055595Y006592D01*
X055607Y006573D01*
X055617Y006552D01*
X055622Y006530D01*
X055624Y006507D01*
X048426Y007320D02*
X046737Y007320D01*
X046737Y009342D01*
X048426Y009342D01*
X048426Y007320D01*
X048016Y007589D02*
X048018Y007613D01*
X048024Y007637D01*
X048033Y007659D01*
X048045Y007680D01*
X048061Y007698D01*
X048079Y007714D01*
X048100Y007726D01*
X048122Y007735D01*
X048146Y007741D01*
X048170Y007743D01*
X048194Y007741D01*
X048218Y007735D01*
X048240Y007726D01*
X048261Y007714D01*
X048279Y007698D01*
X048295Y007680D01*
X048307Y007659D01*
X048316Y007637D01*
X048322Y007613D01*
X048324Y007589D01*
X048322Y007565D01*
X048316Y007541D01*
X048307Y007519D01*
X048295Y007498D01*
X048279Y007480D01*
X048261Y007464D01*
X048240Y007452D01*
X048218Y007443D01*
X048194Y007437D01*
X048170Y007435D01*
X048146Y007437D01*
X048122Y007443D01*
X048100Y007452D01*
X048079Y007464D01*
X048061Y007480D01*
X048045Y007498D01*
X048033Y007519D01*
X048024Y007541D01*
X048018Y007565D01*
X048016Y007589D01*
X044826Y007320D02*
X043137Y007320D01*
X043137Y009342D01*
X044826Y009342D01*
X044826Y007320D01*
X044416Y007589D02*
X044418Y007613D01*
X044424Y007637D01*
X044433Y007659D01*
X044445Y007680D01*
X044461Y007698D01*
X044479Y007714D01*
X044500Y007726D01*
X044522Y007735D01*
X044546Y007741D01*
X044570Y007743D01*
X044594Y007741D01*
X044618Y007735D01*
X044640Y007726D01*
X044661Y007714D01*
X044679Y007698D01*
X044695Y007680D01*
X044707Y007659D01*
X044716Y007637D01*
X044722Y007613D01*
X044724Y007589D01*
X044722Y007565D01*
X044716Y007541D01*
X044707Y007519D01*
X044695Y007498D01*
X044679Y007480D01*
X044661Y007464D01*
X044640Y007452D01*
X044618Y007443D01*
X044594Y007437D01*
X044570Y007435D01*
X044546Y007437D01*
X044522Y007443D01*
X044500Y007452D01*
X044479Y007464D01*
X044461Y007480D01*
X044445Y007498D01*
X044433Y007519D01*
X044424Y007541D01*
X044418Y007565D01*
X044416Y007589D01*
X019183Y011230D02*
X018081Y011230D01*
X018081Y012333D01*
X019183Y012333D01*
X019183Y011230D01*
X018356Y011348D02*
X018356Y011624D01*
X018333Y011622D01*
X018311Y011617D01*
X018290Y011607D01*
X018271Y011595D01*
X018254Y011579D01*
X018240Y011561D01*
X018230Y011541D01*
X018222Y011520D01*
X018218Y011497D01*
X018218Y011475D01*
X018222Y011452D01*
X018230Y011431D01*
X018240Y011411D01*
X018254Y011393D01*
X018271Y011377D01*
X018290Y011365D01*
X018311Y011355D01*
X018333Y011350D01*
X018356Y011348D01*
X017427Y011240D02*
X017427Y011063D01*
X015537Y011063D01*
X015537Y011240D01*
X017427Y011240D01*
X017427Y012500D01*
X015537Y012500D01*
X015537Y011240D01*
X012828Y010383D02*
X012828Y009280D01*
X011135Y009280D01*
X011135Y010383D01*
X012828Y010383D01*
X012828Y007233D02*
X011135Y007233D01*
X011135Y006130D01*
X012828Y006130D01*
X012828Y007233D01*
X012828Y013630D02*
X011135Y013630D01*
X011135Y014733D01*
X012828Y014733D01*
X012828Y013630D01*
X012828Y016780D02*
X011135Y016780D01*
X011135Y017883D01*
X012828Y017883D01*
X012828Y016780D01*
X024476Y032948D02*
X028487Y032948D01*
X031176Y032998D02*
X035187Y032998D01*
D23*
X034522Y032701D03*
X033852Y032701D03*
X033182Y032701D03*
X032512Y032701D03*
X031842Y032701D03*
X027822Y032651D03*
X027152Y032651D03*
X026482Y032651D03*
X025812Y032651D03*
X025142Y032651D03*
D24*
X054002Y027071D03*
X054002Y026401D03*
X054002Y025731D03*
X054002Y025061D03*
X054002Y024391D03*
D25*
X059015Y021998D03*
X059015Y017998D03*
X059015Y013998D03*
X059015Y009998D03*
D26*
X060732Y011839D02*
X060732Y011843D01*
X060732Y015839D02*
X060732Y015843D01*
X060732Y019839D02*
X060732Y019843D01*
X060732Y023839D02*
X060732Y023843D01*
D27*
X061125Y023479D03*
X061125Y019479D03*
X061125Y015479D03*
X061125Y011479D03*
D28*
X012621Y009576D03*
X012621Y006426D03*
X012621Y013926D03*
X012621Y017076D03*
M02*
